<svg width="304" height="126" viewBox="0 0 304 126" fill="none" xmlns="http://www.w3.org/2000/svg">
<g opacity="0.6">
<path opacity="0.06" d="M209.328 22.5444L295.859 38.2004L327.418 24.861L378.438 10.7256L386.135 73.4459L-36.6928 125.334L-50.001 16.8882L8.54499 36.7513L80.3844 21.9462L158.41 47.5331L209.328 22.5444Z" fill="url(#paint0_linear_229_6425)"/>
<path d="M377.335 1.73382L370.297 0.858616L357.081 17.9363L326.603 53.7472L314.02 47.5634L296.282 38.5348L248.077 13.1524L179.725 70.0329L157.639 47.6276L115.816 17.4048L95.7362 26.8241L39.2289 56.3626L9.46216 13.2617L-47.3988 36.2749" stroke="url(#paint1_linear_229_6425)" stroke-opacity="0.8"/>
<path d="M378.456 10.8698L326.914 25.3092L295.749 38.2139L209.328 22.5444L157.859 47.6006L80.361 21.7559L8.4115 36.5745L-50.001 16.8882" stroke="url(#paint2_linear_229_6425)"/>
<g filter="url(#filter0_d_229_6425)">
<mask id="path-4-inside-1_229_6425" fill="white">
<ellipse rx="1.10938" ry="1.91759" transform="matrix(-0.992554 0.121803 0.121803 0.992554 295.726 38.0235)"/>
</mask>
<ellipse rx="1.10938" ry="1.91759" transform="matrix(-0.992554 0.121803 0.121803 0.992554 295.726 38.0235)" fill="#11100F"/>
<path d="M296.61 37.9151C296.64 38.1551 296.715 38.2677 296.709 38.26C296.704 38.2531 296.64 38.1687 296.488 38.0836C296.323 37.9914 296.051 37.9007 295.716 37.9417L296.203 41.912C294.892 42.0729 293.969 41.2696 293.516 40.6699C293.028 40.0222 292.74 39.2134 292.64 38.4023L296.61 37.9151ZM295.716 37.9417C295.382 37.9828 295.14 38.1365 295.002 38.266C294.874 38.3854 294.833 38.4827 294.83 38.4906C294.826 38.4995 294.872 38.3721 294.842 38.132L298.812 37.6448C298.912 38.4559 298.828 39.3104 298.51 40.057C298.216 40.7484 297.515 41.751 296.203 41.912L295.716 37.9417ZM294.842 38.132C294.813 37.892 294.738 37.7794 294.743 37.7871C294.749 37.794 294.812 37.8784 294.965 37.9635C295.13 38.0557 295.402 38.1464 295.736 38.1053L295.249 34.1351C296.561 33.9742 297.483 34.7775 297.936 35.3772C298.425 36.0249 298.713 36.8337 298.812 37.6448L294.842 38.132ZM295.736 38.1053C296.071 38.0643 296.313 37.9106 296.451 37.7811C296.578 37.6617 296.619 37.5644 296.623 37.5565C296.626 37.5476 296.581 37.675 296.61 37.9151L292.64 38.4023C292.54 37.5912 292.624 36.7367 292.942 35.99C293.236 35.2987 293.938 34.2961 295.249 34.1351L295.736 38.1053Z" fill="#D9B432" mask="url(#path-4-inside-1_229_6425)"/>
</g>
<g filter="url(#filter1_d_229_6425)">
<mask id="path-6-inside-2_229_6425" fill="white">
<ellipse rx="1.10938" ry="1.91759" transform="matrix(-0.992554 0.121803 0.121803 0.992554 232.168 26.5035)"/>
</mask>
<ellipse rx="1.10938" ry="1.91759" transform="matrix(-0.992554 0.121803 0.121803 0.992554 232.168 26.5035)" fill="#11100F"/>
<path d="M233.052 26.395C233.081 26.6351 233.156 26.7477 233.15 26.74C233.145 26.7331 233.082 26.6487 232.929 26.5636C232.764 26.4713 232.492 26.3807 232.158 26.4217L232.645 30.3919C231.333 30.5529 230.411 29.7495 229.958 29.1498C229.469 28.5022 229.181 27.6934 229.081 26.8823L233.052 26.395ZM232.158 26.4217C231.823 26.4628 231.581 26.6165 231.443 26.7459C231.316 26.8653 231.274 26.9627 231.271 26.9706C231.267 26.9795 231.313 26.8521 231.284 26.612L235.254 26.1248C235.353 26.9359 235.269 27.7904 234.952 28.537C234.657 29.2284 233.956 30.231 232.645 30.3919L232.158 26.4217ZM231.284 26.612C231.254 26.3719 231.179 26.2593 231.185 26.2671C231.19 26.2739 231.254 26.3584 231.406 26.4435C231.571 26.5357 231.843 26.6264 232.178 26.5853L231.69 22.6151C233.002 22.4542 233.925 23.2575 234.377 23.8572C234.866 24.5049 235.154 25.3137 235.254 26.1248L231.284 26.612ZM232.178 26.5853C232.512 26.5443 232.754 26.3906 232.892 26.2611C233.019 26.1417 233.061 26.0444 233.064 26.0364C233.068 26.0275 233.022 26.155 233.052 26.395L229.081 26.8823C228.982 26.0711 229.066 25.2167 229.384 24.47C229.678 23.7787 230.379 22.776 231.69 22.6151L232.178 26.5853Z" fill="#D9B432" mask="url(#path-6-inside-2_229_6425)"/>
</g>
<g filter="url(#filter2_d_229_6425)">
<mask id="path-8-inside-3_229_6425" fill="white">
<ellipse rx="1.10938" ry="1.91759" transform="matrix(-0.992554 0.121803 0.121803 0.992554 157.42 47.6546)"/>
</mask>
<ellipse rx="1.10938" ry="1.91759" transform="matrix(-0.992554 0.121803 0.121803 0.992554 157.42 47.6546)" fill="#11100F"/>
<path d="M158.304 47.5462C158.333 47.7862 158.408 47.8988 158.402 47.8911C158.397 47.8842 158.334 47.7998 158.181 47.7147C158.016 47.6225 157.744 47.5318 157.41 47.5728L157.897 51.5431C156.585 51.704 155.663 50.9007 155.21 50.301C154.721 49.6533 154.433 48.8445 154.333 48.0334L158.304 47.5462ZM157.41 47.5728C157.075 47.6139 156.833 47.7676 156.695 47.8971C156.568 48.0165 156.526 48.1138 156.523 48.1217C156.519 48.1306 156.565 48.0032 156.536 47.7631L160.506 47.2759C160.605 48.087 160.521 48.9415 160.204 49.6881C159.909 50.3795 159.208 51.3821 157.897 51.5431L157.41 47.5728ZM156.536 47.7631C156.506 47.5231 156.431 47.4105 156.437 47.4182C156.442 47.4251 156.506 47.5095 156.658 47.5946C156.823 47.6868 157.095 47.7775 157.43 47.7364L156.942 43.7662C158.254 43.6053 159.177 44.4086 159.629 45.0083C160.118 45.656 160.406 46.4648 160.506 47.2759L156.536 47.7631ZM157.43 47.7364C157.764 47.6954 158.006 47.5417 158.144 47.4122C158.271 47.2928 158.313 47.1955 158.316 47.1876C158.32 47.1787 158.274 47.3061 158.304 47.5462L154.333 48.0334C154.234 47.2223 154.318 46.3678 154.636 45.6211C154.93 44.9298 155.631 43.9272 156.942 43.7662L157.43 47.7364Z" fill="#D9B432" mask="url(#path-8-inside-3_229_6425)"/>
</g>
<g filter="url(#filter3_d_229_6425)">
<mask id="path-10-inside-4_229_6425" fill="white">
<ellipse rx="1.10938" ry="1.91759" transform="matrix(-0.992554 0.121803 0.121803 0.992554 95.4293 27.055)"/>
</mask>
<ellipse rx="1.10938" ry="1.91759" transform="matrix(-0.992554 0.121803 0.121803 0.992554 95.4293 27.055)" fill="#11100F"/>
<path d="M96.3133 26.9466C96.3428 27.1866 96.418 27.2992 96.4122 27.2915C96.407 27.2846 96.3433 27.2002 96.1909 27.1151C96.0257 27.0229 95.7537 26.9322 95.4193 26.9732L95.9065 30.9435C94.595 31.1044 93.6723 30.3011 93.2196 29.7014C92.7307 29.0537 92.4426 28.2449 92.3431 27.4338L96.3133 26.9466ZM95.4193 26.9732C95.0849 27.0143 94.8429 27.168 94.7049 27.2975C94.5776 27.4168 94.5362 27.5142 94.5328 27.5221C94.529 27.531 94.5748 27.4036 94.5453 27.1635L98.5156 26.6763C98.6151 27.4874 98.5311 28.3419 98.2134 29.0885C97.9191 29.7799 97.218 30.7825 95.9065 30.9435L95.4193 26.9732ZM94.5453 27.1635C94.5159 26.9235 94.4407 26.8109 94.4465 26.8186C94.4517 26.8255 94.5154 26.9099 94.6678 26.995C94.833 27.0872 95.105 27.1779 95.4394 27.1368L94.9522 23.1666C96.2636 23.0057 97.1864 23.809 97.6391 24.4087C98.128 25.0564 98.416 25.8652 98.5156 26.6763L94.5453 27.1635ZM95.4394 27.1368C95.7738 27.0958 96.0158 26.9421 96.1538 26.8126C96.2811 26.6932 96.3225 26.5959 96.3258 26.5879C96.3296 26.579 96.2839 26.7065 96.3133 26.9466L92.3431 27.4338C92.2436 26.6227 92.3275 25.7682 92.6453 25.0215C92.9395 24.3302 93.6407 23.3276 94.9522 23.1666L95.4394 27.1368Z" fill="#D9B432" mask="url(#path-10-inside-4_229_6425)"/>
</g>
<g filter="url(#filter4_d_229_6425)">
<mask id="path-12-inside-5_229_6425" fill="white">
<ellipse rx="1.10938" ry="1.91759" transform="matrix(-0.992554 0.121803 0.121803 0.992554 23.3561 33.5812)"/>
</mask>
<ellipse rx="1.10938" ry="1.91759" transform="matrix(-0.992554 0.121803 0.121803 0.992554 23.3561 33.5812)" fill="#11100F"/>
<path d="M24.2401 33.4727C24.2695 33.7127 24.3448 33.8253 24.3389 33.8176C24.3337 33.8107 24.27 33.7263 24.1176 33.6412C23.9524 33.549 23.6805 33.4583 23.346 33.4994L23.8333 37.4696C22.5218 37.6305 21.599 36.8272 21.1463 36.2275C20.6575 35.5798 20.3694 34.771 20.2699 33.9599L24.2401 33.4727ZM23.346 33.4994C23.0116 33.5404 22.7697 33.6941 22.6317 33.8236C22.5044 33.943 22.463 34.0403 22.4596 34.0482C22.4558 34.0572 22.5016 33.9297 22.4721 33.6896L26.4423 33.2024C26.5418 34.0135 26.4579 34.868 26.1401 35.6147C25.8459 36.306 25.1447 37.3086 23.8333 37.4696L23.346 33.4994ZM22.4721 33.6896C22.4426 33.4496 22.3674 33.337 22.3732 33.3447C22.3784 33.3516 22.4421 33.436 22.5945 33.5211C22.7597 33.6133 23.0317 33.704 23.3661 33.663L22.8789 29.6927C24.1904 29.5318 25.1131 30.3351 25.5658 30.9348C26.0547 31.5825 26.3428 32.3913 26.4423 33.2024L22.4721 33.6896ZM23.3661 33.663C23.7005 33.6219 23.9425 33.4682 24.0805 33.3387C24.2078 33.2193 24.2492 33.122 24.2526 33.1141C24.2564 33.1052 24.2106 33.2326 24.2401 33.4727L20.2699 33.9599C20.1703 33.1488 20.2543 32.2943 20.5721 31.5477C20.8663 30.8563 21.5674 29.8537 22.8789 29.6927L23.3661 33.663Z" fill="#D9B432" mask="url(#path-12-inside-5_229_6425)"/>
</g>
</g>
<defs>
<filter id="filter0_d_229_6425" x="282.601" y="24.1155" width="26.251" height="27.8162" filterUnits="userSpaceOnUse" color-interpolation-filters="sRGB">
<feFlood flood-opacity="0" result="BackgroundImageFix"/>
<feColorMatrix in="SourceAlpha" type="matrix" values="0 0 0 0 0 0 0 0 0 0 0 0 0 0 0 0 0 0 127 0" result="hardAlpha"/>
<feOffset/>
<feGaussianBlur stdDeviation="6"/>
<feComposite in2="hardAlpha" operator="out"/>
<feColorMatrix type="matrix" values="0 0 0 0 0.85098 0 0 0 0 0.705882 0 0 0 0 0.196078 0 0 0 0.5 0"/>
<feBlend mode="normal" in2="BackgroundImageFix" result="effect1_dropShadow_229_6425"/>
<feBlend mode="normal" in="SourceGraphic" in2="effect1_dropShadow_229_6425" result="shape"/>
</filter>
<filter id="filter1_d_229_6425" x="219.042" y="12.5955" width="26.251" height="27.8162" filterUnits="userSpaceOnUse" color-interpolation-filters="sRGB">
<feFlood flood-opacity="0" result="BackgroundImageFix"/>
<feColorMatrix in="SourceAlpha" type="matrix" values="0 0 0 0 0 0 0 0 0 0 0 0 0 0 0 0 0 0 127 0" result="hardAlpha"/>
<feOffset/>
<feGaussianBlur stdDeviation="6"/>
<feComposite in2="hardAlpha" operator="out"/>
<feColorMatrix type="matrix" values="0 0 0 0 0.85098 0 0 0 0 0.705882 0 0 0 0 0.196078 0 0 0 0.5 0"/>
<feBlend mode="normal" in2="BackgroundImageFix" result="effect1_dropShadow_229_6425"/>
<feBlend mode="normal" in="SourceGraphic" in2="effect1_dropShadow_229_6425" result="shape"/>
</filter>
<filter id="filter2_d_229_6425" x="144.294" y="33.7466" width="26.251" height="27.8162" filterUnits="userSpaceOnUse" color-interpolation-filters="sRGB">
<feFlood flood-opacity="0" result="BackgroundImageFix"/>
<feColorMatrix in="SourceAlpha" type="matrix" values="0 0 0 0 0 0 0 0 0 0 0 0 0 0 0 0 0 0 127 0" result="hardAlpha"/>
<feOffset/>
<feGaussianBlur stdDeviation="6"/>
<feComposite in2="hardAlpha" operator="out"/>
<feColorMatrix type="matrix" values="0 0 0 0 0.85098 0 0 0 0 0.705882 0 0 0 0 0.196078 0 0 0 0.5 0"/>
<feBlend mode="normal" in2="BackgroundImageFix" result="effect1_dropShadow_229_6425"/>
<feBlend mode="normal" in="SourceGraphic" in2="effect1_dropShadow_229_6425" result="shape"/>
</filter>
<filter id="filter3_d_229_6425" x="82.3037" y="13.147" width="26.251" height="27.8162" filterUnits="userSpaceOnUse" color-interpolation-filters="sRGB">
<feFlood flood-opacity="0" result="BackgroundImageFix"/>
<feColorMatrix in="SourceAlpha" type="matrix" values="0 0 0 0 0 0 0 0 0 0 0 0 0 0 0 0 0 0 127 0" result="hardAlpha"/>
<feOffset/>
<feGaussianBlur stdDeviation="6"/>
<feComposite in2="hardAlpha" operator="out"/>
<feColorMatrix type="matrix" values="0 0 0 0 0.85098 0 0 0 0 0.705882 0 0 0 0 0.196078 0 0 0 0.5 0"/>
<feBlend mode="normal" in2="BackgroundImageFix" result="effect1_dropShadow_229_6425"/>
<feBlend mode="normal" in="SourceGraphic" in2="effect1_dropShadow_229_6425" result="shape"/>
</filter>
<filter id="filter4_d_229_6425" x="10.2305" y="19.6731" width="26.251" height="27.8162" filterUnits="userSpaceOnUse" color-interpolation-filters="sRGB">
<feFlood flood-opacity="0" result="BackgroundImageFix"/>
<feColorMatrix in="SourceAlpha" type="matrix" values="0 0 0 0 0 0 0 0 0 0 0 0 0 0 0 0 0 0 127 0" result="hardAlpha"/>
<feOffset/>
<feGaussianBlur stdDeviation="6"/>
<feComposite in2="hardAlpha" operator="out"/>
<feColorMatrix type="matrix" values="0 0 0 0 0.85098 0 0 0 0 0.705882 0 0 0 0 0.196078 0 0 0 0.5 0"/>
<feBlend mode="normal" in2="BackgroundImageFix" result="effect1_dropShadow_229_6425"/>
<feBlend mode="normal" in="SourceGraphic" in2="effect1_dropShadow_229_6425" result="shape"/>
</filter>
<linearGradient id="paint0_linear_229_6425" x1="161.39" y1="-9.24622" x2="173.232" y2="87.2516" gradientUnits="userSpaceOnUse">
<stop stop-color="#FED85F"/>
<stop offset="1" stop-color="#FED85F" stop-opacity="0"/>
</linearGradient>
<linearGradient id="paint1_linear_229_6425" x1="172.662" y1="-12.5617" x2="185.649" y2="93.2624" gradientUnits="userSpaceOnUse">
<stop stop-color="#D9B432"/>
<stop offset="1" stop-color="#D9B432" stop-opacity="0"/>
</linearGradient>
<linearGradient id="paint2_linear_229_6425" x1="153.816" y1="-91.0052" x2="175.374" y2="84.6704" gradientUnits="userSpaceOnUse">
<stop stop-color="#D9B432"/>
<stop offset="1" stop-color="#D9B432" stop-opacity="0"/>
</linearGradient>
</defs>
</svg>
