<?xml version="1.0" encoding="utf-8"?>
<!-- Generator: Adobe Illustrator 25.2.1, SVG Export Plug-In . SVG Version: 6.00 Build 0)  -->
<svg version="1.1" id="Layer_1" xmlns="http://www.w3.org/2000/svg" xmlns:xlink="http://www.w3.org/1999/xlink" x="0px" y="0px"
	 viewBox="0 0 24 24" style="enable-background:new 0 0 24 24;" xml:space="preserve">
<style type="text/css">
	.st0{fill:#464646;}
</style>
<g>
	<path class="st0" d="M21.9,7.7c-0.2-0.4-0.6-0.6-1-0.4c-0.4,0.2-0.6,0.6-0.4,1c0.5,1.1,0.7,2.5,0.7,3.7c0,5.1-4.1,9.2-9.2,9.2
		S2.8,17.1,2.8,12S6.9,2.8,12,2.8c1.2,0,2.6,0.3,3.7,0.7c0.4,0.2,0.8,0,1-0.4c0.2-0.4,0-0.8-0.4-1c-1.3-0.6-2.8-0.9-4.3-0.9
		C6.1,1.3,1.2,6.1,1.2,12S6.1,22.8,12,22.8S22.8,17.9,22.8,12C22.8,10.5,22.5,9.1,21.9,7.7z"/>
	<path class="st0" d="M18,5.2h0.7V6c0,0.4,0.3,0.8,0.8,0.8s0.8-0.3,0.8-0.8V5.2H21c0.4,0,0.8-0.3,0.8-0.8S21.4,3.7,21,3.7h-0.7V3
		c0-0.4-0.3-0.8-0.8-0.8S18.7,2.6,18.7,3v0.7H18c-0.4,0-0.8,0.3-0.8,0.8S17.6,5.2,18,5.2z"/>
	<path class="st0" d="M18.7,10.3c0.1-0.5,0-1-0.3-1.5c-0.7-1-2-1.4-2.9-0.8l-1.4,0.8V7.4c0-1.2-1-2.1-2.2-2.1s-2.2,1-2.2,2.1v1.3
		L8.5,8C7.3,7.5,6.1,7.9,5.6,8.8c-0.3,0.6-0.4,1.2-0.2,1.8c0.2,0.5,0.6,1,1,1.2l1.3,0.7l-1.3,0.8c-0.5,0.4-0.9,0.9-1,1.5
		c-0.1,0.5,0,1,0.3,1.4c0.4,0.7,1.1,1,1.9,1c0.4,0,0.7-0.1,1.1-0.2l1.3-0.7v1.3c0,1.2,1,2.1,2.2,2.1c1.2,0,2.2-0.9,2.2-2v-1.6
		l1.4,0.8c0.3,0.1,0.6,0.2,1,0.2c0.8,0,1.5-0.4,2-1.1c0.5-1,0.2-2.3-0.8-2.9l-1.1-0.6l1.2-0.7C18.2,11.5,18.6,10.9,18.7,10.3z
		 M11.3,7.4c0-0.3,0.3-0.6,0.7-0.6s0.7,0.3,0.7,0.6v2.3L12.1,10l-0.8-0.5V7.4z M12.6,13l-0.5,0.3l-0.8-0.5v-0.6l0.8-0.5l0.5,0.3V13z
		 M7.1,10.4c-0.1-0.1-0.2-0.2-0.3-0.3c-0.1-0.2,0-0.4,0.1-0.6l0,0C7,9.4,7.2,9.3,7.5,9.3c0.1,0,0.2,0,0.3,0.1l2,1.1v0.9l-0.6,0.3
		L7.1,10.4z M7.9,15.6c-0.4,0.2-0.9,0.1-1-0.2l0-0.1c-0.1-0.1-0.1-0.2-0.1-0.3c0-0.2,0.2-0.4,0.3-0.5l2.1-1.2l0.6,0.3v0.9L7.9,15.6z
		 M12.6,17.7c0,0.3-0.3,0.5-0.7,0.5c-0.3,0-0.7-0.3-0.7-0.6v-2.2l0.8-0.5l0.5,0.3V17.7z M16.9,14.4c0.3,0.2,0.4,0.6,0.3,0.9
		c-0.2,0.3-0.7,0.4-1,0.3l-2.1-1.2v-0.5l0.9-0.5L16.9,14.4z M17.2,10.1c0,0.2-0.2,0.4-0.3,0.5L15,11.6l-0.9-0.5v-0.5l2.2-1.2
		c0.1,0,0.2-0.1,0.2-0.1c0.2,0,0.5,0.2,0.7,0.4C17.2,9.8,17.3,9.9,17.2,10.1z"/>
</g>
</svg>
