<!-- Generated by IcoMoon.io -->
<svg version="1.1" xmlns="http://www.w3.org/2000/svg" width="1024" height="1024" viewBox="0 0 1024 1024">
<title></title>
<g id="icomoon-ignore">
</g>
<path fill="#A4A2A2" d="M512 1024c143.593 0 273.38-59.112 366.355-154.329 18.901-19.357 71.651-91.799 80.356-107.296 41.578-74.023 65.29-159.43 65.29-250.375 0-105.070-32.916-209.012-92.151-291.874-25.357-35.471-126.078 149.185-310.734 82.038-0.165-0.060-1.078-2.742-4.644-4.973-45.716-28.6-94.938-91.836-146.438-78.961-67.148 16.787-117.508 117.508-151.082 117.508s-83.934-50.361-83.934-67.148c0-33.574 31.852-50.425 67.148-83.934 41.892-39.772 90.176-74.824 117.508-83.934 50.361-16.787 93.308-10.159 151.082 16.787 52.229 24.36 83.934 83.934 117.508 83.934 85.597 0 162.228-76.823 154.382-83.793-6.576-5.843-13.275-11.489-20.087-16.928-87.537-69.9-189.827-100.721-310.557-100.721-249.985 0-458.125 179.156-503.029 416.077-4.825 25.456 43.896-16.762 125.324 3.595 67.148 16.787 117.508 100.721 201.443 83.934 52.054-10.411 100.721-50.361 151.082-83.934 25.829-17.219 67.148-33.574 117.508-33.574s151.082 50.361 167.869 67.148c3.917 3.917 83.934 50.361 83.934 83.934 0 16.787-33.574 83.934-67.148 67.148s-50.361-33.574-83.934-67.148c-16.787-16.787-50.361-50.361-100.721-50.361-41.759 0-120.959 61.342-151.082 83.934-67.148 50.361-140.926 50.796-151.082 50.361-56.712-2.43-117.508-67.148-184.656-100.721-49.839-24.919-117.508 32.632-117.508 33.574 0 22.093 1.399 1.892 4.114 23.248 12.652 99.519 53.872 190.122 115.181 263.326 13.177 15.734 81.869-73.754 98.935-85.131 50.361-33.574 83.934-50.361 151.082-50.361 46.778 0 88.367 23.778 125.773 58.887 2.865 2.689 5.705 5.445 8.522 8.261 33.574 33.574 53.343 33.574 67.148 33.574 33.574 0 50.361-16.787 100.721-50.361 39.506-26.337 50.361-33.574 83.934-50.361s75.911-11.347 117.508 0c38.846 10.596 80.229 62.109 67.148 83.934-3.133 5.228-43.335 60.122-50.361 67.148-16.787 16.787-67.148-67.148-100.721-50.361s-110.349 73.627-134.295 83.934c-46.699 20.101-93.185 16.787-100.721 16.787-83.934 0-167.869-100.721-218.23-83.934-72.117 24.039-130.358 99.533-127.284 101.799 84.937 62.629 189.919 99.643 303.546 99.643z"></path>
</svg>
