<svg width="216" height="123" viewBox="0 0 216 123" fill="none" xmlns="http://www.w3.org/2000/svg">
<path fill-rule="evenodd" clip-rule="evenodd" d="M208 1H8C4.13401 1 1 4.13401 1 8V115C1 118.866 4.134 122 8 122H208C211.866 122 215 118.866 215 115V8C215 4.13401 211.866 1 208 1ZM8 0C3.58172 0 0 3.58172 0 8V115C0 119.418 3.58172 123 8 123H208C212.418 123 216 119.418 216 115V8C216 3.58172 212.418 0 208 0H8Z" fill="#2E323A"/>
<path opacity="0.1" d="M1 8C1 4.13401 4.13401 1 8 1H208C211.866 1 215 4.13401 215 8V40H1V8Z" fill="#F0B90B"/>
<rect x="1" y="40" width="215" height="1" fill="#2E323A"/>
<path d="M33.4401 23.8995C33.4401 23.9695 33.4701 23.9995 33.5401 23.9995H34.1801C34.2501 23.9995 34.2801 23.9695 34.2801 23.8995V17.1195C34.2801 17.0495 34.2501 17.0195 34.1801 17.0195H33.5801C33.5301 17.0195 33.4701 17.0395 33.4201 17.0795L32.2501 17.9295C32.2001 17.9595 32.1801 18.0095 32.1801 18.0695V18.8095C32.1801 18.8995 32.2601 18.8895 32.2901 18.8695L33.4101 18.0795H33.4401V23.8995Z" fill="#E6E8EA"/>
<path d="M47.66 19.1204C48.8 19.1204 49.71 18.3504 49.71 17.0904V13.9304C49.71 12.6704 48.8 11.9004 47.66 11.9004C46.53 11.9004 45.62 12.6704 45.62 13.9304V17.0904C45.62 18.3504 46.53 19.1204 47.66 19.1204ZM47.66 17.9604C47.08 17.9604 46.73 17.5304 46.73 16.9104V14.1104C46.73 13.4904 47.08 13.0604 47.66 13.0604C48.25 13.0604 48.6 13.4904 48.6 14.1104V16.9104C48.6 17.5304 48.25 17.9604 47.66 17.9604Z" fill="#E6E8EA"/>
<path d="M52.302 16.3504L50.522 19.0004H51.882L52.982 17.2004H53.022L54.122 19.0004H55.582L53.802 16.3704L55.572 13.7804H54.212L53.142 15.5104H53.102L52.022 13.7804H50.562L52.302 16.3504Z" fill="#E6E8EA"/>
<path d="M57.6315 19.0004H59.1515L60.9015 13.7804H59.6815L58.9715 16.0304L58.4615 17.8904H58.3915L57.8815 16.0304L57.1515 13.7804H55.8915L57.6315 19.0004Z" fill="#E6E8EA"/>
<path d="M64.0856 17.9504V18.8804C64.0856 18.9504 64.1356 19.0004 64.2056 19.0004H65.1856C65.2556 19.0004 65.3056 18.9504 65.3056 18.8804V17.9504H65.8256C65.8956 17.9504 65.9456 17.9004 65.9456 17.8304V17.0404C65.9456 16.9704 65.8956 16.9204 65.8256 16.9204H65.3056V15.5104C65.3056 15.4404 65.2556 15.3904 65.1856 15.3904H64.2056C64.1356 15.3904 64.0856 15.4404 64.0856 15.5104V16.9204H62.6956L65.0756 12.1604C65.1156 12.0704 65.0756 12.0204 64.9856 12.0204H63.9756C63.9156 12.0204 63.8656 12.0504 63.8356 12.1104L61.4556 16.8504C61.4356 16.9004 61.4156 16.9504 61.4156 17.0004V17.8304C61.4156 17.9004 61.4656 17.9504 61.5356 17.9504H64.0856Z" fill="#E6E8EA"/>
<path d="M68.5077 18.8804V17.6404C68.5077 17.5704 68.4577 17.5204 68.3877 17.5204H67.1476C67.0776 17.5204 67.0277 17.5704 67.0277 17.6404V18.8804C67.0277 18.9504 67.0776 19.0004 67.1476 19.0004H68.3877C68.4577 19.0004 68.5077 18.9504 68.5077 18.8804Z" fill="#E6E8EA"/>
<path d="M71.3494 18.8804V17.6404C71.3494 17.5704 71.2994 17.5204 71.2294 17.5204H69.9894C69.9194 17.5204 69.8694 17.5704 69.8694 17.6404V18.8804C69.8694 18.9504 69.9194 19.0004 69.9894 19.0004H71.2294C71.2994 19.0004 71.3494 18.9504 71.3494 18.8804Z" fill="#E6E8EA"/>
<path d="M74.1912 18.8804V17.6404C74.1912 17.5704 74.1412 17.5204 74.0712 17.5204H72.8312C72.7612 17.5204 72.7112 17.5704 72.7112 17.6404V18.8804C72.7112 18.9504 72.7612 19.0004 72.8312 19.0004H74.0712C74.1412 19.0004 74.1912 18.9504 74.1912 18.8804Z" fill="#E6E8EA"/>
<path d="M79.7719 17.9204V19.0004H80.9119V15.2004H78.2719V16.3104H79.6419V16.7604C79.6419 17.5504 78.972 17.9504 78.152 17.9504C77.102 17.9504 76.4219 17.2904 76.4219 16.0704V14.9504C76.4219 13.7204 77.102 13.0704 78.132 13.0704C78.962 13.0704 79.452 13.5204 79.702 14.1204L80.7719 13.4904C80.2719 12.4704 79.372 11.9004 78.132 11.9004C76.272 11.9004 75.0219 13.1904 75.0219 15.5304C75.0219 17.8704 76.262 19.1204 77.902 19.1204C78.952 19.1204 79.6119 18.6004 79.7319 17.9204H79.7719Z" fill="#E6E8EA"/>
<path d="M84.2811 19.1204C85.4211 19.1204 86.3311 18.3504 86.3311 17.0904V13.9304C86.3311 12.6704 85.4211 11.9004 84.2811 11.9004C83.1511 11.9004 82.2411 12.6704 82.2411 13.9304V17.0904C82.2411 18.3504 83.1511 19.1204 84.2811 19.1204ZM84.2811 17.9604C83.7011 17.9604 83.3511 17.5304 83.3511 16.9104V14.1104C83.3511 13.4904 83.7011 13.0604 84.2811 13.0604C84.8711 13.0604 85.2211 13.4904 85.2211 14.1104V16.9104C85.2211 17.5304 84.8711 17.9604 84.2811 17.9604Z" fill="#E6E8EA"/>
<path d="M89.0931 19.0004V16.3104H90.3431L91.6431 19.0004H93.1131L91.6831 16.1604C92.5431 15.8704 92.9831 15.1404 92.9831 14.1804C92.9831 12.8604 92.1931 12.0204 90.9231 12.0204H87.7731V19.0004H89.0931ZM90.7931 15.2004H89.0931V13.1704H90.7931C91.3031 13.1704 91.6131 13.4404 91.6131 13.9504V14.4104C91.6131 14.9204 91.3031 15.2004 90.7931 15.2004Z" fill="#E6E8EA"/>
<path d="M96.6637 17.9504V18.8804C96.6637 18.9504 96.7137 19.0004 96.7837 19.0004H97.7637C97.8337 19.0004 97.8837 18.9504 97.8837 18.8804V17.9504H98.4037C98.4737 17.9504 98.5237 17.9004 98.5237 17.8304V17.0404C98.5237 16.9704 98.4737 16.9204 98.4037 16.9204H97.8837V15.5104C97.8837 15.4404 97.8337 15.3904 97.7637 15.3904H96.7837C96.7137 15.3904 96.6637 15.4404 96.6637 15.5104V16.9204H95.2737L97.6537 12.1604C97.6937 12.0704 97.6537 12.0204 97.5637 12.0204H96.5537C96.4937 12.0204 96.4437 12.0504 96.4137 12.1104L94.0337 16.8504C94.0137 16.9004 93.9937 16.9504 93.9937 17.0004V17.8304C93.9937 17.9004 94.0437 17.9504 94.1137 17.9504H96.6637Z" fill="#E6E8EA"/>
<path d="M46.424 30.0003H46.976C47.032 30.0003 47.064 29.9843 47.088 29.9443L48.504 27.3043C48.752 26.8483 48.88 26.4243 48.88 26.0323C48.88 24.9763 48.168 24.3203 47.176 24.3203C46.176 24.3203 45.448 24.9923 45.448 26.0563C45.448 27.0483 46.136 27.7123 47.04 27.7123C47.288 27.7123 47.48 27.6723 47.6 27.5843L47.624 27.6003L46.368 29.9203C46.344 29.9763 46.36 30.0003 46.424 30.0003ZM46.16 26.0163C46.16 25.3043 46.664 24.9523 47.168 24.9523C47.664 24.9523 48.168 25.3043 48.168 26.0163C48.168 26.7203 47.664 27.0723 47.16 27.0723C46.664 27.0723 46.16 26.7203 46.16 26.0163Z" fill="#76808F"/>
<path d="M49.9679 30.7763C50.0079 30.7763 50.0399 30.7603 50.0719 30.7203L50.5679 30.0643C50.5999 30.0243 50.6159 29.9603 50.6159 29.8883V29.1443C50.6159 29.0883 50.5919 29.0643 50.5359 29.0643H49.9759C49.9199 29.0643 49.8959 29.0883 49.8959 29.1443V30.7043C49.8959 30.7523 49.9199 30.7763 49.9679 30.7763Z" fill="#76808F"/>
<path d="M55.2383 30.0963C56.0303 30.0963 56.5343 29.7443 56.7663 29.0323C56.8543 28.7603 56.8943 28.1523 56.8943 27.2083C56.8943 26.2643 56.8543 25.6563 56.7663 25.3843C56.5343 24.6723 56.0303 24.3203 55.2383 24.3203C54.4463 24.3203 53.9423 24.6723 53.7103 25.3843C53.6223 25.6563 53.5823 26.2643 53.5823 27.2083C53.5823 28.1523 53.6223 28.7603 53.7103 29.0323C53.9423 29.7443 54.4463 30.0963 55.2383 30.0963ZM55.2383 29.4563C54.7983 29.4563 54.5183 29.2643 54.3903 28.8963C54.3263 28.7123 54.3023 28.1523 54.3023 27.2083C54.3023 26.2643 54.3343 25.7043 54.3903 25.5203C54.5023 25.1443 54.7983 24.9603 55.2383 24.9603C55.6783 24.9603 55.9583 25.1523 56.0863 25.5203C56.1503 25.7043 56.1743 26.2643 56.1743 27.2083C56.1743 28.1523 56.1423 28.7123 56.0863 28.8963C55.9743 29.2723 55.6783 29.4563 55.2383 29.4563Z" fill="#76808F"/>
<path d="M59.5742 30.0963C60.3662 30.0963 60.8702 29.7443 61.1022 29.0323C61.1902 28.7603 61.2302 28.1523 61.2302 27.2083C61.2302 26.2643 61.1902 25.6563 61.1022 25.3843C60.8702 24.6723 60.3662 24.3203 59.5742 24.3203C58.7822 24.3203 58.2782 24.6723 58.0462 25.3843C57.9582 25.6563 57.9182 26.2643 57.9182 27.2083C57.9182 28.1523 57.9582 28.7603 58.0462 29.0323C58.2782 29.7443 58.7822 30.0963 59.5742 30.0963ZM59.5742 29.4563C59.1342 29.4563 58.8542 29.2643 58.7262 28.8963C58.6622 28.7123 58.6382 28.1523 58.6382 27.2083C58.6382 26.2643 58.6702 25.7043 58.7262 25.5203C58.8382 25.1443 59.1342 24.9603 59.5742 24.9603C60.0142 24.9603 60.2942 25.1523 60.4222 25.5203C60.4862 25.7043 60.5102 26.2643 60.5102 27.2083C60.5102 28.1523 60.4782 28.7123 60.4222 28.8963C60.3102 29.2723 60.0142 29.4563 59.5742 29.4563Z" fill="#76808F"/>
<path d="M63.9102 30.0963C64.7022 30.0963 65.2062 29.7443 65.4382 29.0323C65.5262 28.7603 65.5662 28.1523 65.5662 27.2083C65.5662 26.2643 65.5262 25.6563 65.4382 25.3843C65.2062 24.6723 64.7022 24.3203 63.9102 24.3203C63.1182 24.3203 62.6142 24.6723 62.3822 25.3843C62.2942 25.6563 62.2542 26.2643 62.2542 27.2083C62.2542 28.1523 62.2942 28.7603 62.3822 29.0323C62.6142 29.7443 63.1182 30.0963 63.9102 30.0963ZM63.9102 29.4563C63.4702 29.4563 63.1902 29.2643 63.0622 28.8963C62.9982 28.7123 62.9742 28.1523 62.9742 27.2083C62.9742 26.2643 63.0062 25.7043 63.0622 25.5203C63.1742 25.1443 63.4702 24.9603 63.9102 24.9603C64.3502 24.9603 64.6302 25.1523 64.7582 25.5203C64.8222 25.7043 64.8462 26.2643 64.8462 27.2083C64.8462 28.1523 64.8142 28.7123 64.7582 28.8963C64.6462 29.2723 64.3502 29.4563 63.9102 29.4563Z" fill="#76808F"/>
<path d="M66.6381 29.9203C66.6381 29.9763 66.6621 30.0003 66.7181 30.0003H67.3261C67.3821 30.0003 67.4061 29.9763 67.4061 29.9203V29.2323C67.4061 29.1763 67.3821 29.1523 67.3261 29.1523H66.7181C66.6621 29.1523 66.6381 29.1763 66.6381 29.2323V29.9203Z" fill="#76808F"/>
<path d="M70.1367 30.0963C71.1287 30.0963 71.8567 29.4243 71.8567 28.3603C71.8567 27.3683 71.1687 26.7043 70.2647 26.7043C70.0167 26.7043 69.8247 26.7443 69.7047 26.8323L69.6807 26.8163L70.9367 24.4963C70.9607 24.4403 70.9447 24.4163 70.8807 24.4163H70.3287C70.2727 24.4163 70.2407 24.4323 70.2167 24.4723L68.8007 27.1123C68.5527 27.5683 68.4247 27.9923 68.4247 28.3843C68.4247 29.4403 69.1367 30.0963 70.1367 30.0963ZM70.1367 29.4563C69.4647 29.4563 69.1287 28.9283 69.1287 28.4003C69.1287 27.8723 69.4647 27.3443 70.1367 27.3443C70.8087 27.3443 71.1447 27.8723 71.1447 28.4003C71.1447 28.9283 70.8087 29.4563 70.1367 29.4563Z" fill="#76808F"/>
<path d="M73.7287 30.0003H74.2807C74.3367 30.0003 74.3687 29.9843 74.3927 29.9443L75.8087 27.3043C76.0567 26.8483 76.1847 26.4243 76.1847 26.0323C76.1847 24.9763 75.4727 24.3203 74.4807 24.3203C73.4807 24.3203 72.7527 24.9923 72.7527 26.0563C72.7527 27.0483 73.4407 27.7123 74.3447 27.7123C74.5927 27.7123 74.7847 27.6723 74.9047 27.5843L74.9287 27.6003L73.6727 29.9203C73.6487 29.9763 73.6647 30.0003 73.7287 30.0003ZM73.4647 26.0163C73.4647 25.3043 73.9687 24.9523 74.4727 24.9523C74.9687 24.9523 75.4727 25.3043 75.4727 26.0163C75.4727 26.7203 74.9687 27.0723 74.4647 27.0723C73.9687 27.0723 73.4647 26.7203 73.4647 26.0163Z" fill="#76808F"/>
<path d="M78.8086 30.0963C79.6006 30.0963 80.1046 29.7443 80.3366 29.0323C80.4246 28.7603 80.4646 28.1523 80.4646 27.2083C80.4646 26.2643 80.4246 25.6563 80.3366 25.3843C80.1046 24.6723 79.6006 24.3203 78.8086 24.3203C78.0166 24.3203 77.5126 24.6723 77.2806 25.3843C77.1926 25.6563 77.1526 26.2643 77.1526 27.2083C77.1526 28.1523 77.1926 28.7603 77.2806 29.0323C77.5126 29.7443 78.0166 30.0963 78.8086 30.0963ZM78.8086 29.4563C78.3686 29.4563 78.0886 29.2643 77.9606 28.8963C77.8966 28.7123 77.8726 28.1523 77.8726 27.2083C77.8726 26.2643 77.9046 25.7043 77.9606 25.5203C78.0726 25.1443 78.3686 24.9603 78.8086 24.9603C79.2486 24.9603 79.5286 25.1523 79.6566 25.5203C79.7206 25.7043 79.7446 26.2643 79.7446 27.2083C79.7446 28.1523 79.7126 28.7123 79.6566 28.8963C79.5446 29.2723 79.2486 29.4563 78.8086 29.4563Z" fill="#76808F"/>
<path d="M83.1446 30.0963C83.9366 30.0963 84.4406 29.7443 84.6726 29.0323C84.7606 28.7603 84.8006 28.1523 84.8006 27.2083C84.8006 26.2643 84.7606 25.6563 84.6726 25.3843C84.4406 24.6723 83.9366 24.3203 83.1446 24.3203C82.3526 24.3203 81.8486 24.6723 81.6166 25.3843C81.5286 25.6563 81.4886 26.2643 81.4886 27.2083C81.4886 28.1523 81.5286 28.7603 81.6166 29.0323C81.8486 29.7443 82.3526 30.0963 83.1446 30.0963ZM83.1446 29.4563C82.7046 29.4563 82.4246 29.2643 82.2966 28.8963C82.2326 28.7123 82.2086 28.1523 82.2086 27.2083C82.2086 26.2643 82.2406 25.7043 82.2966 25.5203C82.4086 25.1443 82.7046 24.9603 83.1446 24.9603C83.5846 24.9603 83.8646 25.1523 83.9926 25.5203C84.0566 25.7043 84.0806 26.2643 84.0806 27.2083C84.0806 28.1523 84.0486 28.7123 83.9926 28.8963C83.8806 29.2723 83.5846 29.4563 83.1446 29.4563Z" fill="#76808F"/>
<path d="M87.4805 30.0963C88.2725 30.0963 88.7765 29.7443 89.0085 29.0323C89.0965 28.7603 89.1365 28.1523 89.1365 27.2083C89.1365 26.2643 89.0965 25.6563 89.0085 25.3843C88.7765 24.6723 88.2725 24.3203 87.4805 24.3203C86.6885 24.3203 86.1845 24.6723 85.9525 25.3843C85.8645 25.6563 85.8245 26.2643 85.8245 27.2083C85.8245 28.1523 85.8645 28.7603 85.9525 29.0323C86.1845 29.7443 86.6885 30.0963 87.4805 30.0963ZM87.4805 29.4563C87.0405 29.4563 86.7605 29.2643 86.6325 28.8963C86.5685 28.7123 86.5445 28.1523 86.5445 27.2083C86.5445 26.2643 86.5765 25.7043 86.6325 25.5203C86.7445 25.1443 87.0405 24.9603 87.4805 24.9603C87.9205 24.9603 88.2005 25.1523 88.3285 25.5203C88.3925 25.7043 88.4165 26.2643 88.4165 27.2083C88.4165 28.1523 88.3845 28.7123 88.3285 28.8963C88.2165 29.2723 87.9205 29.4563 87.4805 29.4563Z" fill="#76808F"/>
<path d="M91.8164 30.0963C92.6084 30.0963 93.1124 29.7443 93.3444 29.0323C93.4324 28.7603 93.4724 28.1523 93.4724 27.2083C93.4724 26.2643 93.4324 25.6563 93.3444 25.3843C93.1124 24.6723 92.6084 24.3203 91.8164 24.3203C91.0244 24.3203 90.5204 24.6723 90.2884 25.3843C90.2004 25.6563 90.1604 26.2643 90.1604 27.2083C90.1604 28.1523 90.2004 28.7603 90.2884 29.0323C90.5204 29.7443 91.0244 30.0963 91.8164 30.0963ZM91.8164 29.4563C91.3764 29.4563 91.0964 29.2643 90.9684 28.8963C90.9044 28.7123 90.8804 28.1523 90.8804 27.2083C90.8804 26.2643 90.9124 25.7043 90.9684 25.5203C91.0804 25.1443 91.3764 24.9603 91.8164 24.9603C92.2564 24.9603 92.5364 25.1523 92.6644 25.5203C92.7284 25.7043 92.7524 26.2643 92.7524 27.2083C92.7524 28.1523 92.7204 28.7123 92.6644 28.8963C92.5524 29.2723 92.2564 29.4563 91.8164 29.4563Z" fill="#76808F"/>
<path d="M96.1524 30.0963C97.1764 30.0963 97.8804 29.4323 97.8804 28.4483C97.8804 27.8323 97.5604 27.3203 97.0884 27.0723V27.0483C97.4644 26.8483 97.7524 26.4083 97.7524 25.8643C97.7524 25.0003 97.1364 24.3203 96.1524 24.3203C95.1844 24.3203 94.5524 25.0003 94.5524 25.8643C94.5524 26.4083 94.8404 26.8483 95.2164 27.0483V27.0723C94.7444 27.3203 94.4244 27.8323 94.4244 28.4483C94.4244 29.4323 95.1284 30.0963 96.1524 30.0963ZM95.2644 25.8483C95.2644 25.2643 95.7124 24.9603 96.1524 24.9603C96.6004 24.9603 97.0404 25.2563 97.0404 25.8483C97.0404 26.4403 96.5924 26.7443 96.1524 26.7443C95.7044 26.7443 95.2644 26.4483 95.2644 25.8483ZM96.1524 29.4563C95.4724 29.4563 95.1284 28.9363 95.1284 28.4163C95.1284 27.9043 95.4644 27.3923 96.1524 27.3923C96.8404 27.3923 97.1764 27.9043 97.1764 28.4243C97.1764 28.9363 96.8324 29.4563 96.1524 29.4563Z" fill="#76808F"/>
<path d="M99.5203 30.0003H100.064C100.12 30.0003 100.152 29.9763 100.176 29.9283L102.096 25.0883C102.112 25.0563 102.112 25.0323 102.112 25.0083V24.4963C102.112 24.4403 102.088 24.4163 102.032 24.4163H99.0483C98.9923 24.4163 98.9683 24.4403 98.9683 24.4963V25.8003C98.9683 25.8563 98.9923 25.8883 99.0483 25.8883H99.5443C99.6003 25.8883 99.6243 25.8563 99.6243 25.8003V25.1043C99.6243 25.0723 99.6403 25.0563 99.6723 25.0563H101.376V25.0883L99.4723 29.9123C99.4483 29.9763 99.4563 30.0003 99.5203 30.0003Z" fill="#76808F"/>
<path d="M105.291 24.4163V30.0003H107.827C108.651 30.0003 109.267 29.3043 109.267 28.3843C109.267 27.4563 108.571 27.1123 108.171 27.0883V27.0403C108.539 26.9843 109.075 26.6883 109.075 25.8563C109.075 24.9843 108.507 24.4163 107.587 24.4163H105.291ZM105.963 26.8323V25.0083H107.507C108.035 25.0083 108.355 25.2883 108.355 25.7843V26.0563C108.355 26.5523 108.035 26.8323 107.507 26.8323H105.963ZM105.963 29.4083V27.4083H107.619C108.195 27.4083 108.547 27.7123 108.547 28.2723V28.5443C108.547 29.1043 108.195 29.4083 107.619 29.4083H105.963Z" fill="#76808F"/>
<path d="M111.869 26.5923L113.909 30.0003H114.685V24.4163H114.029V29.0643H114.005L113.333 27.8243L111.293 24.4163H110.517V30.0003H111.173V25.3523H111.197L111.869 26.5923Z" fill="#76808F"/>
<path d="M116.174 24.4163V30.0003H118.71C119.534 30.0003 120.15 29.3043 120.15 28.3843C120.15 27.4563 119.454 27.1123 119.054 27.0883V27.0403C119.422 26.9843 119.958 26.6883 119.958 25.8563C119.958 24.9843 119.39 24.4163 118.47 24.4163H116.174ZM116.846 26.8323V25.0083H118.39C118.918 25.0083 119.238 25.2883 119.238 25.7843V26.0563C119.238 26.5523 118.918 26.8323 118.39 26.8323H116.846ZM116.846 29.4083V27.4083H118.502C119.078 27.4083 119.43 27.7123 119.43 28.2723V28.5443C119.43 29.1043 119.078 29.4083 118.502 29.4083H116.846Z" fill="#76808F"/>
<rect x="195" y="15" width="12" height="12" rx="4" fill="#2B2F36"/>
<path d="M204 18V21.435H203V19.71L198.71 24L198 23.29L202.29 19H200.575V18H204Z" fill="#E6E8EA"/>
<path fill-rule="evenodd" clip-rule="evenodd" d="M17 26C19.7614 26 22 23.7614 22 21C22 18.2386 19.7614 16 17 16C14.2386 16 12 18.2386 12 21C12 23.7614 14.2386 26 17 26ZM17 27C20.3137 27 23 24.3137 23 21C23 17.6863 20.3137 15 17 15C13.6863 15 11 17.6863 11 21C11 24.3137 13.6863 27 17 27Z" fill="#F0B90B"/>
<path d="M20 21C20 22.6569 18.6569 24 17 24C15.3431 24 14 22.6569 14 21C14 19.3431 15.3431 18 17 18C18.6569 18 20 19.3431 20 21Z" fill="#F0B90B"/>
<rect y="81" width="215" height="1" fill="#2E323A"/>
<path d="M30.83 64.9996H34.58C34.65 64.9996 34.68 64.9696 34.68 64.8996V64.2996C34.68 64.2296 34.65 64.1996 34.58 64.1996H31.84V64.1796L34 61.4696C34.45 60.8996 34.68 60.3396 34.68 59.7896C34.68 58.6796 33.91 57.8896 32.71 57.8896C31.55 57.8896 30.88 58.6496 30.73 59.5396C30.72 59.5996 30.75 59.6496 30.81 59.6696L31.44 59.7996C31.5 59.8096 31.54 59.7896 31.55 59.7196C31.65 59.0296 32.05 58.6896 32.69 58.6896C33.36 58.6896 33.8 59.1396 33.8 59.7896C33.8 60.1796 33.63 60.5796 33.3 61.0096L30.78 64.2196C30.75 64.2596 30.73 64.3096 30.73 64.3596V64.8996C30.73 64.9696 30.76 64.9996 30.83 64.9996Z" fill="#E6E8EA"/>
<path d="M46.66 60.1204C47.8 60.1204 48.71 59.3504 48.71 58.0904V54.9304C48.71 53.6704 47.8 52.9004 46.66 52.9004C45.53 52.9004 44.62 53.6704 44.62 54.9304V58.0904C44.62 59.3504 45.53 60.1204 46.66 60.1204ZM46.66 58.9604C46.08 58.9604 45.73 58.5304 45.73 57.9104V55.1104C45.73 54.4904 46.08 54.0604 46.66 54.0604C47.25 54.0604 47.6 54.4904 47.6 55.1104V57.9104C47.6 58.5304 47.25 58.9604 46.66 58.9604Z" fill="#E6E8EA"/>
<path d="M51.302 57.3504L49.522 60.0004H50.882L51.982 58.2004H52.022L53.122 60.0004H54.582L52.802 57.3704L54.572 54.7804H53.212L52.142 56.5104H52.102L51.022 54.7804H49.562L51.302 57.3504Z" fill="#E6E8EA"/>
<path d="M56.6315 60.0004H58.1515L59.9015 54.7804H58.6815L57.9715 57.0304L57.4615 58.8904H57.3915L56.8815 57.0304L56.1515 54.7804H54.8915L56.6315 60.0004Z" fill="#E6E8EA"/>
<path d="M62.7056 60.1204C63.3256 60.1204 63.8156 59.9404 64.1856 59.5704C64.6056 59.1504 64.7856 58.5804 64.7856 57.7004C64.7856 56.8504 64.5856 56.2404 64.1656 55.8204C63.8656 55.5204 63.4656 55.3704 62.9956 55.3704C62.5556 55.3704 62.1956 55.5104 61.9356 55.7804V54.1204H64.5056C64.5756 54.1204 64.6256 54.0704 64.6256 54.0004V53.1404C64.6256 53.0704 64.5756 53.0204 64.5056 53.0204H60.9456C60.8756 53.0204 60.8256 53.0704 60.8256 53.1404V56.7504C60.8256 56.8204 60.8656 56.8604 60.9356 56.8704L61.9656 56.9904C62.0356 57.0004 62.0756 56.9704 62.1056 56.9004C62.2456 56.6204 62.4856 56.4704 62.8256 56.4704C63.3656 56.4704 63.6056 56.8504 63.6056 57.7004C63.6056 58.5904 63.3356 58.9704 62.7056 58.9704C62.2456 58.9704 61.9556 58.7304 61.8656 58.2604C61.8456 58.1904 61.8056 58.1504 61.7356 58.1604L60.7856 58.2304C60.7156 58.2404 60.6656 58.2804 60.6756 58.3604C60.7356 58.8904 60.9056 59.2804 61.2056 59.5804C61.5656 59.9404 62.0656 60.1204 62.7056 60.1204Z" fill="#E6E8EA"/>
<path d="M67.5077 59.8804V58.6404C67.5077 58.5704 67.4577 58.5204 67.3877 58.5204H66.1476C66.0776 58.5204 66.0277 58.5704 66.0277 58.6404V59.8804C66.0277 59.9504 66.0776 60.0004 66.1476 60.0004H67.3877C67.4577 60.0004 67.5077 59.9504 67.5077 59.8804Z" fill="#E6E8EA"/>
<path d="M70.3494 59.8804V58.6404C70.3494 58.5704 70.2994 58.5204 70.2294 58.5204H68.9894C68.9194 58.5204 68.8694 58.5704 68.8694 58.6404V59.8804C68.8694 59.9504 68.9194 60.0004 68.9894 60.0004H70.2294C70.2994 60.0004 70.3494 59.9504 70.3494 59.8804Z" fill="#E6E8EA"/>
<path d="M73.1912 59.8804V58.6404C73.1912 58.5704 73.1412 58.5204 73.0712 58.5204H71.8312C71.7612 58.5204 71.7112 58.5704 71.7112 58.6404V59.8804C71.7112 59.9504 71.7612 60.0004 71.8312 60.0004H73.0712C73.1412 60.0004 73.1912 59.9504 73.1912 59.8804Z" fill="#E6E8EA"/>
<path d="M76.943 56.8404L78.933 60.0004H80.503L77.873 55.9304L80.303 53.0204H78.783L77.053 55.1504L76.063 56.4604H76.013V53.0204H74.693V60.0004H76.013V57.9404L76.943 56.8404Z" fill="#E6E8EA"/>
<path d="M83.3104 60.1204C84.4504 60.1204 85.3604 59.3504 85.3604 58.0904V54.9304C85.3604 53.6704 84.4504 52.9004 83.3104 52.9004C82.1804 52.9004 81.2704 53.6704 81.2704 54.9304V58.0904C81.2704 59.3504 82.1804 60.1204 83.3104 60.1204ZM83.3104 58.9604C82.7304 58.9604 82.3804 58.5304 82.3804 57.9104V55.1104C82.3804 54.4904 82.7304 54.0604 83.3104 54.0604C83.9004 54.0604 84.2504 54.4904 84.2504 55.1104V57.9104C84.2504 58.5304 83.9004 58.9604 83.3104 58.9604Z" fill="#E6E8EA"/>
<path d="M88.0524 53.0204H86.7524V57.1404C86.7524 59.1904 87.4624 60.1204 89.4224 60.1204C91.3824 60.1204 92.1124 59.1904 92.1124 57.1404V53.0204H90.8124V57.3104C90.8124 58.4004 90.4324 58.9504 89.4324 58.9504C88.4324 58.9504 88.0524 58.4004 88.0524 57.3104V53.0204Z" fill="#E6E8EA"/>
<path d="M95.7867 55.9304C95.6467 55.9304 95.5167 55.9504 95.3967 55.9804L96.7967 53.1604C96.8367 53.0704 96.7967 53.0204 96.7067 53.0204H95.6967C95.6367 53.0204 95.5867 53.0504 95.5567 53.1104L93.9667 56.3304C93.6067 57.0704 93.4667 57.5204 93.4667 58.0104C93.4667 59.2704 94.3167 60.1204 95.5567 60.1204C96.7967 60.1204 97.6367 59.2604 97.6367 57.9704C97.6367 56.7904 96.8567 55.9304 95.7867 55.9304ZM95.5467 58.9504C95.0467 58.9504 94.7167 58.5704 94.7167 57.9904C94.7167 57.4204 95.0467 57.0404 95.5467 57.0404C96.0567 57.0404 96.3867 57.4204 96.3867 57.9904C96.3867 58.5804 96.0467 58.9504 95.5467 58.9504Z" fill="#E6E8EA"/>
<path d="M45.952 70.9203C45.952 70.9763 45.976 71.0003 46.032 71.0003H46.544C46.6 71.0003 46.624 70.9763 46.624 70.9203V65.4963C46.624 65.4403 46.6 65.4163 46.544 65.4163H46.064C46.024 65.4163 45.976 65.4323 45.936 65.4643L45 66.1443C44.96 66.1683 44.944 66.2083 44.944 66.2563V66.8483C44.944 66.9203 45.008 66.9123 45.032 66.8963L45.928 66.2643H45.952V70.9203Z" fill="#76808F"/>
<path d="M49.7599 71.0003H50.3119C50.3679 71.0003 50.3999 70.9843 50.4239 70.9443L51.8399 68.3043C52.0879 67.8483 52.2159 67.4243 52.2159 67.0323C52.2159 65.9763 51.5039 65.3203 50.5119 65.3203C49.5119 65.3203 48.7839 65.9923 48.7839 67.0563C48.7839 68.0483 49.4719 68.7123 50.3759 68.7123C50.6239 68.7123 50.8159 68.6723 50.9359 68.5843L50.9599 68.6003L49.7039 70.9203C49.6799 70.9763 49.6959 71.0003 49.7599 71.0003ZM49.4959 67.0163C49.4959 66.3043 49.9999 65.9523 50.5039 65.9523C50.9999 65.9523 51.5039 66.3043 51.5039 67.0163C51.5039 67.7203 50.9999 68.0723 50.4959 68.0723C49.9999 68.0723 49.4959 67.7203 49.4959 67.0163Z" fill="#76808F"/>
<path d="M54.8398 71.0963C55.6318 71.0963 56.1358 70.7443 56.3678 70.0323C56.4558 69.7603 56.4958 69.1523 56.4958 68.2083C56.4958 67.2643 56.4558 66.6563 56.3678 66.3843C56.1358 65.6723 55.6318 65.3203 54.8398 65.3203C54.0478 65.3203 53.5438 65.6723 53.3118 66.3843C53.2238 66.6563 53.1838 67.2643 53.1838 68.2083C53.1838 69.1523 53.2238 69.7603 53.3118 70.0323C53.5438 70.7443 54.0478 71.0963 54.8398 71.0963ZM54.8398 70.4563C54.3998 70.4563 54.1198 70.2643 53.9918 69.8963C53.9278 69.7123 53.9038 69.1523 53.9038 68.2083C53.9038 67.2643 53.9358 66.7043 53.9918 66.5203C54.1038 66.1443 54.3998 65.9603 54.8398 65.9603C55.2798 65.9603 55.5598 66.1523 55.6878 66.5203C55.7518 66.7043 55.7758 67.2643 55.7758 68.2083C55.7758 69.1523 55.7438 69.7123 55.6878 69.8963C55.5758 70.2723 55.2798 70.4563 54.8398 70.4563Z" fill="#76808F"/>
<path d="M57.5678 70.9203C57.5678 70.9763 57.5918 71.0003 57.6478 71.0003H58.2558C58.3118 71.0003 58.3358 70.9763 58.3358 70.9203V70.2323C58.3358 70.1763 58.3118 70.1523 58.2558 70.1523H57.6478C57.5918 70.1523 57.5678 70.1763 57.5678 70.2323V70.9203Z" fill="#76808F"/>
<path d="M61.0664 71.0963C62.0584 71.0963 62.7864 70.4243 62.7864 69.3603C62.7864 68.3683 62.0984 67.7043 61.1944 67.7043C60.9464 67.7043 60.7544 67.7443 60.6344 67.8323L60.6104 67.8163L61.8664 65.4963C61.8904 65.4403 61.8744 65.4163 61.8104 65.4163H61.2584C61.2024 65.4163 61.1704 65.4323 61.1464 65.4723L59.7304 68.1123C59.4824 68.5683 59.3544 68.9923 59.3544 69.3843C59.3544 70.4403 60.0664 71.0963 61.0664 71.0963ZM61.0664 70.4563C60.3944 70.4563 60.0584 69.9283 60.0584 69.4003C60.0584 68.8723 60.3944 68.3443 61.0664 68.3443C61.7384 68.3443 62.0744 68.8723 62.0744 69.4003C62.0744 69.9283 61.7384 70.4563 61.0664 70.4563Z" fill="#76808F"/>
<path d="M64.6583 71.0003H65.2103C65.2663 71.0003 65.2983 70.9843 65.3223 70.9443L66.7383 68.3043C66.9863 67.8483 67.1143 67.4243 67.1143 67.0323C67.1143 65.9763 66.4023 65.3203 65.4103 65.3203C64.4103 65.3203 63.6823 65.9923 63.6823 67.0563C63.6823 68.0483 64.3703 68.7123 65.2743 68.7123C65.5223 68.7123 65.7143 68.6723 65.8343 68.5843L65.8583 68.6003L64.6023 70.9203C64.5783 70.9763 64.5943 71.0003 64.6583 71.0003ZM64.3943 67.0163C64.3943 66.3043 64.8983 65.9523 65.4023 65.9523C65.8983 65.9523 66.4023 66.3043 66.4023 67.0163C66.4023 67.7203 65.8983 68.0723 65.3943 68.0723C64.8983 68.0723 64.3943 67.7203 64.3943 67.0163Z" fill="#76808F"/>
<path d="M69.7383 71.0963C70.5303 71.0963 71.0343 70.7443 71.2663 70.0323C71.3543 69.7603 71.3943 69.1523 71.3943 68.2083C71.3943 67.2643 71.3543 66.6563 71.2663 66.3843C71.0343 65.6723 70.5303 65.3203 69.7383 65.3203C68.9463 65.3203 68.4423 65.6723 68.2103 66.3843C68.1223 66.6563 68.0823 67.2643 68.0823 68.2083C68.0823 69.1523 68.1223 69.7603 68.2103 70.0323C68.4423 70.7443 68.9463 71.0963 69.7383 71.0963ZM69.7383 70.4563C69.2983 70.4563 69.0183 70.2643 68.8903 69.8963C68.8263 69.7123 68.8023 69.1523 68.8023 68.2083C68.8023 67.2643 68.8343 66.7043 68.8903 66.5203C69.0023 66.1443 69.2983 65.9603 69.7383 65.9603C70.1783 65.9603 70.4583 66.1523 70.5863 66.5203C70.6503 66.7043 70.6743 67.2643 70.6743 68.2083C70.6743 69.1523 70.6423 69.7123 70.5863 69.8963C70.4743 70.2723 70.1783 70.4563 69.7383 70.4563Z" fill="#76808F"/>
<path d="M74.0742 71.0963C74.8662 71.0963 75.3702 70.7443 75.6022 70.0323C75.6902 69.7603 75.7302 69.1523 75.7302 68.2083C75.7302 67.2643 75.6902 66.6563 75.6022 66.3843C75.3702 65.6723 74.8662 65.3203 74.0742 65.3203C73.2822 65.3203 72.7782 65.6723 72.5462 66.3843C72.4582 66.6563 72.4182 67.2643 72.4182 68.2083C72.4182 69.1523 72.4582 69.7603 72.5462 70.0323C72.7782 70.7443 73.2822 71.0963 74.0742 71.0963ZM74.0742 70.4563C73.6342 70.4563 73.3542 70.2643 73.2262 69.8963C73.1622 69.7123 73.1382 69.1523 73.1382 68.2083C73.1382 67.2643 73.1702 66.7043 73.2262 66.5203C73.3382 66.1443 73.6342 65.9603 74.0742 65.9603C74.5142 65.9603 74.7942 66.1523 74.9222 66.5203C74.9862 66.7043 75.0102 67.2643 75.0102 68.2083C75.0102 69.1523 74.9782 69.7123 74.9222 69.8963C74.8102 70.2723 74.5142 70.4563 74.0742 70.4563Z" fill="#76808F"/>
<path d="M78.4102 71.0963C79.2022 71.0963 79.7062 70.7443 79.9382 70.0323C80.0262 69.7603 80.0662 69.1523 80.0662 68.2083C80.0662 67.2643 80.0262 66.6563 79.9382 66.3843C79.7062 65.6723 79.2022 65.3203 78.4102 65.3203C77.6182 65.3203 77.1142 65.6723 76.8822 66.3843C76.7942 66.6563 76.7542 67.2643 76.7542 68.2083C76.7542 69.1523 76.7942 69.7603 76.8822 70.0323C77.1142 70.7443 77.6182 71.0963 78.4102 71.0963ZM78.4102 70.4563C77.9702 70.4563 77.6902 70.2643 77.5622 69.8963C77.4982 69.7123 77.4742 69.1523 77.4742 68.2083C77.4742 67.2643 77.5062 66.7043 77.5622 66.5203C77.6742 66.1443 77.9702 65.9603 78.4102 65.9603C78.8502 65.9603 79.1302 66.1523 79.2582 66.5203C79.3222 66.7043 79.3462 67.2643 79.3462 68.2083C79.3462 69.1523 79.3142 69.7123 79.2582 69.8963C79.1462 70.2723 78.8502 70.4563 78.4102 70.4563Z" fill="#76808F"/>
<path d="M82.7461 71.0963C83.5381 71.0963 84.0421 70.7443 84.2741 70.0323C84.3621 69.7603 84.4021 69.1523 84.4021 68.2083C84.4021 67.2643 84.3621 66.6563 84.2741 66.3843C84.0421 65.6723 83.5381 65.3203 82.7461 65.3203C81.9541 65.3203 81.4501 65.6723 81.2181 66.3843C81.1301 66.6563 81.0901 67.2643 81.0901 68.2083C81.0901 69.1523 81.1301 69.7603 81.2181 70.0323C81.4501 70.7443 81.9541 71.0963 82.7461 71.0963ZM82.7461 70.4563C82.3061 70.4563 82.0261 70.2643 81.8981 69.8963C81.8341 69.7123 81.8101 69.1523 81.8101 68.2083C81.8101 67.2643 81.8421 66.7043 81.8981 66.5203C82.0101 66.1443 82.3061 65.9603 82.7461 65.9603C83.1861 65.9603 83.4661 66.1523 83.5941 66.5203C83.6581 66.7043 83.6821 67.2643 83.6821 68.2083C83.6821 69.1523 83.6501 69.7123 83.5941 69.8963C83.4821 70.2723 83.1861 70.4563 82.7461 70.4563Z" fill="#76808F"/>
<path d="M87.082 71.0963C88.106 71.0963 88.81 70.4323 88.81 69.4483C88.81 68.8323 88.49 68.3203 88.018 68.0723V68.0483C88.394 67.8483 88.682 67.4083 88.682 66.8643C88.682 66.0003 88.066 65.3203 87.082 65.3203C86.114 65.3203 85.482 66.0003 85.482 66.8643C85.482 67.4083 85.77 67.8483 86.146 68.0483V68.0723C85.674 68.3203 85.354 68.8323 85.354 69.4483C85.354 70.4323 86.058 71.0963 87.082 71.0963ZM86.194 66.8483C86.194 66.2643 86.642 65.9603 87.082 65.9603C87.53 65.9603 87.97 66.2563 87.97 66.8483C87.97 67.4403 87.522 67.7443 87.082 67.7443C86.634 67.7443 86.194 67.4483 86.194 66.8483ZM87.082 70.4563C86.402 70.4563 86.058 69.9363 86.058 69.4163C86.058 68.9043 86.394 68.3923 87.082 68.3923C87.77 68.3923 88.106 68.9043 88.106 69.4243C88.106 69.9363 87.762 70.4563 87.082 70.4563Z" fill="#76808F"/>
<path d="M90.45 71.0003H90.994C91.05 71.0003 91.082 70.9763 91.106 70.9283L93.026 66.0883C93.042 66.0563 93.042 66.0323 93.042 66.0083V65.4963C93.042 65.4403 93.018 65.4163 92.962 65.4163H89.978C89.922 65.4163 89.898 65.4403 89.898 65.4963V66.8003C89.898 66.8563 89.922 66.8883 89.978 66.8883H90.474C90.53 66.8883 90.554 66.8563 90.554 66.8003V66.1043C90.554 66.0723 90.57 66.0563 90.602 66.0563H92.306V66.0883L90.402 70.9123C90.378 70.9763 90.386 71.0003 90.45 71.0003Z" fill="#76808F"/>
<path d="M96.2205 65.4163V71.0003H98.7565C99.5805 71.0003 100.197 70.3043 100.197 69.3843C100.197 68.4563 99.5005 68.1123 99.1005 68.0883V68.0403C99.4685 67.9843 100.005 67.6883 100.005 66.8563C100.005 65.9843 99.4365 65.4163 98.5165 65.4163H96.2205ZM96.8925 67.8323V66.0083H98.4365C98.9645 66.0083 99.2845 66.2883 99.2845 66.7843V67.0563C99.2845 67.5523 98.9645 67.8323 98.4365 67.8323H96.8925ZM96.8925 70.4083V68.4083H98.5485C99.1245 68.4083 99.4765 68.7123 99.4765 69.2723V69.5443C99.4765 70.1043 99.1245 70.4083 98.5485 70.4083H96.8925Z" fill="#76808F"/>
<path d="M102.799 67.5923L104.839 71.0003H105.615V65.4163H104.959V70.0643H104.935L104.263 68.8243L102.223 65.4163H101.447V71.0003H102.103V66.3523H102.127L102.799 67.5923Z" fill="#76808F"/>
<path d="M107.103 65.4163V71.0003H109.639C110.463 71.0003 111.079 70.3043 111.079 69.3843C111.079 68.4563 110.383 68.1123 109.983 68.0883V68.0403C110.351 67.9843 110.887 67.6883 110.887 66.8563C110.887 65.9843 110.319 65.4163 109.399 65.4163H107.103ZM107.775 67.8323V66.0083H109.319C109.847 66.0083 110.167 66.2883 110.167 66.7843V67.0563C110.167 67.5523 109.847 67.8323 109.319 67.8323H107.775ZM107.775 70.4083V68.4083H109.431C110.007 68.4083 110.359 68.7123 110.359 69.2723V69.5443C110.359 70.1043 110.007 70.4083 109.431 70.4083H107.775Z" fill="#76808F"/>
<rect x="194" y="56" width="12" height="12" rx="4" fill="#2B2F36"/>
<path d="M203 59V62.435H202V60.71L197.71 65L197 64.29L201.29 60H199.575V59H203Z" fill="#E6E8EA"/>
<path d="M22 61C22 64.3137 19.3137 67 16 67C12.6863 67 10 64.3137 10 61C10 57.6863 12.6863 55 16 55C19.3137 55 22 57.6863 22 61Z" fill="#2B2F36"/>
<path fill-rule="evenodd" clip-rule="evenodd" d="M16 66C18.7614 66 21 63.7614 21 61C21 58.2386 18.7614 56 16 56C13.2386 56 11 58.2386 11 61C11 63.7614 13.2386 66 16 66ZM16 67C19.3137 67 22 64.3137 22 61C22 57.6863 19.3137 55 16 55C12.6863 55 10 57.6863 10 61C10 64.3137 12.6863 67 16 67Z" fill="#2E323A"/>
<path d="M32.69 106.12C33.91 106.12 34.78 105.27 34.78 104.05C34.78 103.16 34.3 102.52 33.78 102.32V102.3C34.36 101.94 34.65 101.43 34.65 100.79C34.65 99.6604 33.89 98.9004 32.67 98.9004C31.6 98.9004 30.83 99.5304 30.71 100.36C30.7 100.43 30.72 100.46 30.79 100.48L31.41 100.64C31.47 100.65 31.51 100.62 31.53 100.56C31.72 99.9904 32.05 99.7004 32.64 99.7004C33.33 99.7004 33.76 100.16 33.76 100.81C33.76 101.53 33.3 101.98 32.6 101.98H32.3C32.23 101.98 32.19 102.02 32.19 102.09V102.67C32.19 102.74 32.23 102.78 32.3 102.78H32.61C33.39 102.78 33.89 103.29 33.89 104.08C33.89 104.8 33.43 105.31 32.69 105.31C32.05 105.31 31.63 105.03 31.45 104.42C31.43 104.35 31.39 104.34 31.33 104.35L30.7 104.51C30.63 104.53 30.6 104.57 30.61 104.63C30.76 105.52 31.59 106.12 32.69 106.12Z" fill="#E6E8EA"/>
<path d="M46.66 101.12C47.8 101.12 48.71 100.35 48.71 99.0904V95.9304C48.71 94.6704 47.8 93.9004 46.66 93.9004C45.53 93.9004 44.62 94.6704 44.62 95.9304V99.0904C44.62 100.35 45.53 101.12 46.66 101.12ZM46.66 99.9604C46.08 99.9604 45.73 99.5304 45.73 98.9104V96.1104C45.73 95.4904 46.08 95.0604 46.66 95.0604C47.25 95.0604 47.6 95.4904 47.6 96.1104V98.9104C47.6 99.5304 47.25 99.9604 46.66 99.9604Z" fill="#E6E8EA"/>
<path d="M51.302 98.3504L49.522 101H50.882L51.982 99.2004H52.022L53.122 101H54.582L52.802 98.3704L54.572 95.7804H53.212L52.142 97.5104H52.102L51.022 95.7804H49.562L51.302 98.3504Z" fill="#E6E8EA"/>
<path d="M56.6315 101H58.1515L59.9015 95.7804H58.6815L57.9715 98.0304L57.4615 99.8904H57.3915L56.8815 98.0304L56.1515 95.7804H54.8915L56.6315 101Z" fill="#E6E8EA"/>
<path d="M62.7056 101.12C63.3256 101.12 63.8156 100.94 64.1856 100.57C64.6056 100.15 64.7856 99.5804 64.7856 98.7004C64.7856 97.8504 64.5856 97.2404 64.1656 96.8204C63.8656 96.5204 63.4656 96.3704 62.9956 96.3704C62.5556 96.3704 62.1956 96.5104 61.9356 96.7804V95.1204H64.5056C64.5756 95.1204 64.6256 95.0704 64.6256 95.0004V94.1404C64.6256 94.0704 64.5756 94.0204 64.5056 94.0204H60.9456C60.8756 94.0204 60.8256 94.0704 60.8256 94.1404V97.7504C60.8256 97.8204 60.8656 97.8604 60.9356 97.8704L61.9656 97.9904C62.0356 98.0004 62.0756 97.9704 62.1056 97.9004C62.2456 97.6204 62.4856 97.4704 62.8256 97.4704C63.3656 97.4704 63.6056 97.8504 63.6056 98.7004C63.6056 99.5904 63.3356 99.9704 62.7056 99.9704C62.2456 99.9704 61.9556 99.7304 61.8656 99.2604C61.8456 99.1904 61.8056 99.1504 61.7356 99.1604L60.7856 99.2304C60.7156 99.2404 60.6656 99.2804 60.6756 99.3604C60.7356 99.8904 60.9056 100.28 61.2056 100.58C61.5656 100.94 62.0656 101.12 62.7056 101.12Z" fill="#E6E8EA"/>
<path d="M67.5077 100.88V99.6404C67.5077 99.5704 67.4577 99.5204 67.3877 99.5204H66.1476C66.0776 99.5204 66.0277 99.5704 66.0277 99.6404V100.88C66.0277 100.95 66.0776 101 66.1476 101H67.3877C67.4577 101 67.5077 100.95 67.5077 100.88Z" fill="#E6E8EA"/>
<path d="M70.3494 100.88V99.6404C70.3494 99.5704 70.2994 99.5204 70.2294 99.5204H68.9894C68.9194 99.5204 68.8694 99.5704 68.8694 99.6404V100.88C68.8694 100.95 68.9194 101 68.9894 101H70.2294C70.2994 101 70.3494 100.95 70.3494 100.88Z" fill="#E6E8EA"/>
<path d="M73.1912 100.88V99.6404C73.1912 99.5704 73.1412 99.5204 73.0712 99.5204H71.8312C71.7612 99.5204 71.7112 99.5704 71.7112 99.6404V100.88C71.7112 100.95 71.7612 101 71.8312 101H73.0712C73.1412 101 73.1912 100.95 73.1912 100.88Z" fill="#E6E8EA"/>
<path d="M76.773 96.9304C76.633 96.9304 76.503 96.9504 76.383 96.9804L77.783 94.1604C77.823 94.0704 77.783 94.0204 77.693 94.0204H76.683C76.623 94.0204 76.573 94.0504 76.543 94.1104L74.953 97.3304C74.593 98.0704 74.453 98.5204 74.453 99.0104C74.453 100.27 75.303 101.12 76.543 101.12C77.783 101.12 78.623 100.26 78.623 98.9704C78.623 97.7904 77.843 96.9304 76.773 96.9304ZM76.533 99.9504C76.033 99.9504 75.703 99.5704 75.703 98.9904C75.703 98.4204 76.033 98.0404 76.533 98.0404C77.043 98.0404 77.373 98.4204 77.373 98.9904C77.373 99.5804 77.033 99.9504 76.533 99.9504Z" fill="#E6E8EA"/>
<path d="M84.4751 99.9204V101H85.6151V97.2004H82.9751V98.3104H84.3451V98.7604C84.3451 99.5504 83.6751 99.9504 82.8551 99.9504C81.8051 99.9504 81.1251 99.2904 81.1251 98.0704V96.9504C81.1251 95.7204 81.8051 95.0704 82.8351 95.0704C83.6651 95.0704 84.1551 95.5204 84.4051 96.1204L85.4751 95.4904C84.9751 94.4704 84.0751 93.9004 82.8351 93.9004C80.9751 93.9004 79.7251 95.1904 79.7251 97.5304C79.7251 99.8704 80.9651 101.12 82.6051 101.12C83.6551 101.12 84.3151 100.6 84.4351 99.9204H84.4751Z" fill="#E6E8EA"/>
<path d="M88.9842 101.12C90.1242 101.12 91.0342 100.35 91.0342 99.0904V95.9304C91.0342 94.6704 90.1242 93.9004 88.9842 93.9004C87.8542 93.9004 86.9442 94.6704 86.9442 95.9304V99.0904C86.9442 100.35 87.8542 101.12 88.9842 101.12ZM88.9842 99.9604C88.4042 99.9604 88.0542 99.5304 88.0542 98.9104V96.1104C88.0542 95.4904 88.4042 95.0604 88.9842 95.0604C89.5742 95.0604 89.9242 95.4904 89.9242 96.1104V98.9104C89.9242 99.5304 89.5742 99.9604 88.9842 99.9604Z" fill="#E6E8EA"/>
<path d="M93.7962 101V98.3104H95.0462L96.3462 101H97.8162L96.3862 98.1604C97.2462 97.8704 97.6862 97.1404 97.6862 96.1804C97.6862 94.8604 96.8962 94.0204 95.6262 94.0204H92.4762V101H93.7962ZM95.4962 97.2004H93.7962V95.1704H95.4962C96.0062 95.1704 96.3162 95.4404 96.3162 95.9504V96.4104C96.3162 96.9204 96.0062 97.2004 95.4962 97.2004Z" fill="#E6E8EA"/>
<path d="M45.952 111.92C45.952 111.976 45.976 112 46.032 112H46.544C46.6 112 46.624 111.976 46.624 111.92V106.496C46.624 106.44 46.6 106.416 46.544 106.416H46.064C46.024 106.416 45.976 106.432 45.936 106.464L45 107.144C44.96 107.168 44.944 107.208 44.944 107.256V107.848C44.944 107.92 45.008 107.912 45.032 107.896L45.928 107.264H45.952V111.92Z" fill="#76808F"/>
<path d="M50.2879 111.92C50.2879 111.976 50.3119 112 50.3679 112H50.8799C50.9359 112 50.9599 111.976 50.9599 111.92V106.496C50.9599 106.44 50.9359 106.416 50.8799 106.416H50.3999C50.3599 106.416 50.3119 106.432 50.2719 106.464L49.3359 107.144C49.2959 107.168 49.2799 107.208 49.2799 107.256V107.848C49.2799 107.92 49.3439 107.912 49.3679 107.896L50.2639 107.264H50.2879V111.92Z" fill="#76808F"/>
<path d="M54.8398 112.096C55.6318 112.096 56.1358 111.744 56.3678 111.032C56.4558 110.76 56.4958 110.152 56.4958 109.208C56.4958 108.264 56.4558 107.656 56.3678 107.384C56.1358 106.672 55.6318 106.32 54.8398 106.32C54.0478 106.32 53.5438 106.672 53.3118 107.384C53.2238 107.656 53.1838 108.264 53.1838 109.208C53.1838 110.152 53.2238 110.76 53.3118 111.032C53.5438 111.744 54.0478 112.096 54.8398 112.096ZM54.8398 111.456C54.3998 111.456 54.1198 111.264 53.9918 110.896C53.9278 110.712 53.9038 110.152 53.9038 109.208C53.9038 108.264 53.9358 107.704 53.9918 107.52C54.1038 107.144 54.3998 106.96 54.8398 106.96C55.2798 106.96 55.5598 107.152 55.6878 107.52C55.7518 107.704 55.7758 108.264 55.7758 109.208C55.7758 110.152 55.7438 110.712 55.6878 110.896C55.5758 111.272 55.2798 111.456 54.8398 111.456Z" fill="#76808F"/>
<path d="M57.5678 111.92C57.5678 111.976 57.5918 112 57.6478 112H58.2558C58.3118 112 58.3358 111.976 58.3358 111.92V111.232C58.3358 111.176 58.3118 111.152 58.2558 111.152H57.6478C57.5918 111.152 57.5678 111.176 57.5678 111.232V111.92Z" fill="#76808F"/>
<path d="M61.0664 112.096C62.0584 112.096 62.7864 111.424 62.7864 110.36C62.7864 109.368 62.0984 108.704 61.1944 108.704C60.9464 108.704 60.7544 108.744 60.6344 108.832L60.6104 108.816L61.8664 106.496C61.8904 106.44 61.8744 106.416 61.8104 106.416H61.2584C61.2024 106.416 61.1704 106.432 61.1464 106.472L59.7304 109.112C59.4824 109.568 59.3544 109.992 59.3544 110.384C59.3544 111.44 60.0664 112.096 61.0664 112.096ZM61.0664 111.456C60.3944 111.456 60.0584 110.928 60.0584 110.4C60.0584 109.872 60.3944 109.344 61.0664 109.344C61.7384 109.344 62.0744 109.872 62.0744 110.4C62.0744 110.928 61.7384 111.456 61.0664 111.456Z" fill="#76808F"/>
<path d="M64.6583 112H65.2103C65.2663 112 65.2983 111.984 65.3223 111.944L66.7383 109.304C66.9863 108.848 67.1143 108.424 67.1143 108.032C67.1143 106.976 66.4023 106.32 65.4103 106.32C64.4103 106.32 63.6823 106.992 63.6823 108.056C63.6823 109.048 64.3703 109.712 65.2743 109.712C65.5223 109.712 65.7143 109.672 65.8343 109.584L65.8583 109.6L64.6023 111.92C64.5783 111.976 64.5943 112 64.6583 112ZM64.3943 108.016C64.3943 107.304 64.8983 106.952 65.4023 106.952C65.8983 106.952 66.4023 107.304 66.4023 108.016C66.4023 108.72 65.8983 109.072 65.3943 109.072C64.8983 109.072 64.3943 108.72 64.3943 108.016Z" fill="#76808F"/>
<path d="M69.7383 112.096C70.5303 112.096 71.0343 111.744 71.2663 111.032C71.3543 110.76 71.3943 110.152 71.3943 109.208C71.3943 108.264 71.3543 107.656 71.2663 107.384C71.0343 106.672 70.5303 106.32 69.7383 106.32C68.9463 106.32 68.4423 106.672 68.2103 107.384C68.1223 107.656 68.0823 108.264 68.0823 109.208C68.0823 110.152 68.1223 110.76 68.2103 111.032C68.4423 111.744 68.9463 112.096 69.7383 112.096ZM69.7383 111.456C69.2983 111.456 69.0183 111.264 68.8903 110.896C68.8263 110.712 68.8023 110.152 68.8023 109.208C68.8023 108.264 68.8343 107.704 68.8903 107.52C69.0023 107.144 69.2983 106.96 69.7383 106.96C70.1783 106.96 70.4583 107.152 70.5863 107.52C70.6503 107.704 70.6743 108.264 70.6743 109.208C70.6743 110.152 70.6423 110.712 70.5863 110.896C70.4743 111.272 70.1783 111.456 69.7383 111.456Z" fill="#76808F"/>
<path d="M74.0742 112.096C74.8662 112.096 75.3702 111.744 75.6022 111.032C75.6902 110.76 75.7302 110.152 75.7302 109.208C75.7302 108.264 75.6902 107.656 75.6022 107.384C75.3702 106.672 74.8662 106.32 74.0742 106.32C73.2822 106.32 72.7782 106.672 72.5462 107.384C72.4582 107.656 72.4182 108.264 72.4182 109.208C72.4182 110.152 72.4582 110.76 72.5462 111.032C72.7782 111.744 73.2822 112.096 74.0742 112.096ZM74.0742 111.456C73.6342 111.456 73.3542 111.264 73.2262 110.896C73.1622 110.712 73.1382 110.152 73.1382 109.208C73.1382 108.264 73.1702 107.704 73.2262 107.52C73.3382 107.144 73.6342 106.96 74.0742 106.96C74.5142 106.96 74.7942 107.152 74.9222 107.52C74.9862 107.704 75.0102 108.264 75.0102 109.208C75.0102 110.152 74.9782 110.712 74.9222 110.896C74.8102 111.272 74.5142 111.456 74.0742 111.456Z" fill="#76808F"/>
<path d="M78.4102 112.096C79.2022 112.096 79.7062 111.744 79.9382 111.032C80.0262 110.76 80.0662 110.152 80.0662 109.208C80.0662 108.264 80.0262 107.656 79.9382 107.384C79.7062 106.672 79.2022 106.32 78.4102 106.32C77.6182 106.32 77.1142 106.672 76.8822 107.384C76.7942 107.656 76.7542 108.264 76.7542 109.208C76.7542 110.152 76.7942 110.76 76.8822 111.032C77.1142 111.744 77.6182 112.096 78.4102 112.096ZM78.4102 111.456C77.9702 111.456 77.6902 111.264 77.5622 110.896C77.4982 110.712 77.4742 110.152 77.4742 109.208C77.4742 108.264 77.5062 107.704 77.5622 107.52C77.6742 107.144 77.9702 106.96 78.4102 106.96C78.8502 106.96 79.1302 107.152 79.2582 107.52C79.3222 107.704 79.3462 108.264 79.3462 109.208C79.3462 110.152 79.3142 110.712 79.2582 110.896C79.1462 111.272 78.8502 111.456 78.4102 111.456Z" fill="#76808F"/>
<path d="M82.7461 112.096C83.5381 112.096 84.0421 111.744 84.2741 111.032C84.3621 110.76 84.4021 110.152 84.4021 109.208C84.4021 108.264 84.3621 107.656 84.2741 107.384C84.0421 106.672 83.5381 106.32 82.7461 106.32C81.9541 106.32 81.4501 106.672 81.2181 107.384C81.1301 107.656 81.0901 108.264 81.0901 109.208C81.0901 110.152 81.1301 110.76 81.2181 111.032C81.4501 111.744 81.9541 112.096 82.7461 112.096ZM82.7461 111.456C82.3061 111.456 82.0261 111.264 81.8981 110.896C81.8341 110.712 81.8101 110.152 81.8101 109.208C81.8101 108.264 81.8421 107.704 81.8981 107.52C82.0101 107.144 82.3061 106.96 82.7461 106.96C83.1861 106.96 83.4661 107.152 83.5941 107.52C83.6581 107.704 83.6821 108.264 83.6821 109.208C83.6821 110.152 83.6501 110.712 83.5941 110.896C83.4821 111.272 83.1861 111.456 82.7461 111.456Z" fill="#76808F"/>
<path d="M87.082 112.096C88.106 112.096 88.81 111.432 88.81 110.448C88.81 109.832 88.49 109.32 88.018 109.072V109.048C88.394 108.848 88.682 108.408 88.682 107.864C88.682 107 88.066 106.32 87.082 106.32C86.114 106.32 85.482 107 85.482 107.864C85.482 108.408 85.77 108.848 86.146 109.048V109.072C85.674 109.32 85.354 109.832 85.354 110.448C85.354 111.432 86.058 112.096 87.082 112.096ZM86.194 107.848C86.194 107.264 86.642 106.96 87.082 106.96C87.53 106.96 87.97 107.256 87.97 107.848C87.97 108.44 87.522 108.744 87.082 108.744C86.634 108.744 86.194 108.448 86.194 107.848ZM87.082 111.456C86.402 111.456 86.058 110.936 86.058 110.416C86.058 109.904 86.394 109.392 87.082 109.392C87.77 109.392 88.106 109.904 88.106 110.424C88.106 110.936 87.762 111.456 87.082 111.456Z" fill="#76808F"/>
<path d="M90.45 112H90.994C91.05 112 91.082 111.976 91.106 111.928L93.026 107.088C93.042 107.056 93.042 107.032 93.042 107.008V106.496C93.042 106.44 93.018 106.416 92.962 106.416H89.978C89.922 106.416 89.898 106.44 89.898 106.496V107.8C89.898 107.856 89.922 107.888 89.978 107.888H90.474C90.53 107.888 90.554 107.856 90.554 107.8V107.104C90.554 107.072 90.57 107.056 90.602 107.056H92.306V107.088L90.402 111.912C90.378 111.976 90.386 112 90.45 112Z" fill="#76808F"/>
<path d="M96.2205 106.416V112H98.7565C99.5805 112 100.197 111.304 100.197 110.384C100.197 109.456 99.5005 109.112 99.1005 109.088V109.04C99.4685 108.984 100.005 108.688 100.005 107.856C100.005 106.984 99.4365 106.416 98.5165 106.416H96.2205ZM96.8925 108.832V107.008H98.4365C98.9645 107.008 99.2845 107.288 99.2845 107.784V108.056C99.2845 108.552 98.9645 108.832 98.4365 108.832H96.8925ZM96.8925 111.408V109.408H98.5485C99.1245 109.408 99.4765 109.712 99.4765 110.272V110.544C99.4765 111.104 99.1245 111.408 98.5485 111.408H96.8925Z" fill="#76808F"/>
<path d="M102.799 108.592L104.839 112H105.615V106.416H104.959V111.064H104.935L104.263 109.824L102.223 106.416H101.447V112H102.103V107.352H102.127L102.799 108.592Z" fill="#76808F"/>
<path d="M107.103 106.416V112H109.639C110.463 112 111.079 111.304 111.079 110.384C111.079 109.456 110.383 109.112 109.983 109.088V109.04C110.351 108.984 110.887 108.688 110.887 107.856C110.887 106.984 110.319 106.416 109.399 106.416H107.103ZM107.775 108.832V107.008H109.319C109.847 107.008 110.167 107.288 110.167 107.784V108.056C110.167 108.552 109.847 108.832 109.319 108.832H107.775ZM107.775 111.408V109.408H109.431C110.007 109.408 110.359 109.712 110.359 110.272V110.544C110.359 111.104 110.007 111.408 109.431 111.408H107.775Z" fill="#76808F"/>
<rect x="194" y="97" width="12" height="12" rx="4" fill="#2B2F36"/>
<path d="M203 100V103.435H202V101.71L197.71 106L197 105.29L201.29 101H199.575V100H203Z" fill="#E6E8EA"/>
<path d="M22 102C22 105.314 19.3137 108 16 108C12.6863 108 10 105.314 10 102C10 98.6863 12.6863 96 16 96C19.3137 96 22 98.6863 22 102Z" fill="#2B2F36"/>
<path fill-rule="evenodd" clip-rule="evenodd" d="M16 107C18.7614 107 21 104.761 21 102C21 99.2386 18.7614 97 16 97C13.2386 97 11 99.2386 11 102C11 104.761 13.2386 107 16 107ZM16 108C19.3137 108 22 105.314 22 102C22 98.6863 19.3137 96 16 96C12.6863 96 10 98.6863 10 102C10 105.314 12.6863 108 16 108Z" fill="#2E323A"/>
</svg>
