<svg width="216" height="123" viewBox="0 0 216 123" fill="none" xmlns="http://www.w3.org/2000/svg">
<path fill-rule="evenodd" clip-rule="evenodd" d="M208 1H8C4.13401 1 1 4.13401 1 8V115C1 118.866 4.134 122 8 122H208C211.866 122 215 118.866 215 115V8C215 4.13401 211.866 1 208 1ZM8 0C3.58172 0 0 3.58172 0 8V115C0 119.418 3.58172 123 8 123H208C212.418 123 216 119.418 216 115V8C216 3.58172 212.418 0 208 0H8Z" fill="#E6E8EA"/>
<path opacity="0.1" d="M1 8C1 4.13401 4.13401 1 8 1H208C211.866 1 215 4.13401 215 8V40H1V8Z" fill="#F0B90B"/>
<path d="M1 40H216V41H1V40Z" fill="#E6E8EA"/>
<path d="M33.4401 23.8995C33.4401 23.9695 33.4701 23.9995 33.5401 23.9995H34.1801C34.2501 23.9995 34.2801 23.9695 34.2801 23.8995V17.1195C34.2801 17.0495 34.2501 17.0195 34.1801 17.0195H33.5801C33.5301 17.0195 33.4701 17.0395 33.4201 17.0795L32.2501 17.9295C32.2001 17.9595 32.1801 18.0095 32.1801 18.0695V18.8095C32.1801 18.8995 32.2601 18.8895 32.2901 18.8695L33.4101 18.0795H33.4401V23.8995Z" fill="#1E2026"/>
<path d="M45.74 11.5996V18.9996H47.02V18.1296H47.06C47.26 18.7196 47.81 19.1196 48.5 19.1196C49.82 19.1196 50.55 18.1296 50.55 16.3796C50.55 14.6396 49.82 13.6596 48.5 13.6596C47.81 13.6596 47.25 14.0396 47.06 14.6396H47.02V11.5996H45.74ZM48.09 18.0596C47.48 18.0596 47.02 17.7496 47.02 17.2096V15.5496C47.02 15.0396 47.48 14.7096 48.09 14.7096C48.75 14.7096 49.21 15.1996 49.21 15.9396V16.8396C49.21 17.5796 48.75 18.0596 48.09 18.0596Z" fill="#1E2026"/>
<path d="M51.7361 18.9996H53.0161V15.5496C53.0161 14.9896 53.5261 14.7096 54.0561 14.7096C54.6661 14.7096 54.9161 15.0896 54.9161 15.8296V18.9996H56.1961V15.6996C56.1961 14.3996 55.5961 13.6596 54.5261 13.6596C53.7161 13.6596 53.2761 14.0896 53.0661 14.6496H53.0161V13.7796H51.7361V18.9996Z" fill="#1E2026"/>
<path d="M57.615 11.5996V18.9996H58.895V18.1296H58.935C59.135 18.7196 59.685 19.1196 60.375 19.1196C61.695 19.1196 62.425 18.1296 62.425 16.3796C62.425 14.6396 61.695 13.6596 60.375 13.6596C59.685 13.6596 59.125 14.0396 58.935 14.6396H58.895V11.5996H57.615ZM59.965 18.0596C59.355 18.0596 58.895 17.7496 58.895 17.2096V15.5496C58.895 15.0396 59.355 14.7096 59.965 14.7096C60.625 14.7096 61.085 15.1996 61.085 15.9396V16.8396C61.085 17.5796 60.625 18.0596 59.965 18.0596Z" fill="#1E2026"/>
<path d="M65.5611 19.1196C66.1811 19.1196 66.6711 18.9396 67.0411 18.5696C67.4611 18.1496 67.6411 17.5796 67.6411 16.6996C67.6411 15.8496 67.4411 15.2396 67.0211 14.8196C66.7211 14.5196 66.3211 14.3696 65.8511 14.3696C65.4111 14.3696 65.0511 14.5096 64.7911 14.7796V13.1196H67.3611C67.4311 13.1196 67.4811 13.0696 67.4811 12.9996V12.1396C67.4811 12.0696 67.4311 12.0196 67.3611 12.0196H63.8011C63.7311 12.0196 63.6811 12.0696 63.6811 12.1396V15.7496C63.6811 15.8196 63.7211 15.8596 63.7911 15.8696L64.8211 15.9896C64.8911 15.9996 64.9311 15.9696 64.9611 15.8996C65.1011 15.6196 65.3411 15.4696 65.6811 15.4696C66.2211 15.4696 66.4611 15.8496 66.4611 16.6996C66.4611 17.5896 66.1911 17.9696 65.5611 17.9696C65.1011 17.9696 64.8111 17.7296 64.7211 17.2596C64.7011 17.1896 64.6611 17.1496 64.5911 17.1596L63.6411 17.2296C63.5711 17.2396 63.5211 17.2796 63.5311 17.3596C63.5911 17.8896 63.7611 18.2796 64.0611 18.5796C64.4211 18.9396 64.9211 19.1196 65.5611 19.1196Z" fill="#1E2026"/>
<path d="M70.3631 18.8796V17.6396C70.3631 17.5696 70.3131 17.5196 70.2431 17.5196H69.0031C68.9331 17.5196 68.8831 17.5696 68.8831 17.6396V18.8796C68.8831 18.9496 68.9331 18.9996 69.0031 18.9996H70.2431C70.3131 18.9996 70.3631 18.9496 70.3631 18.8796Z" fill="#1E2026"/>
<path d="M73.2049 18.8796V17.6396C73.2049 17.5696 73.1549 17.5196 73.0849 17.5196H71.8449C71.7749 17.5196 71.7249 17.5696 71.7249 17.6396V18.8796C71.7249 18.9496 71.7749 18.9996 71.8449 18.9996H73.0849C73.1549 18.9996 73.2049 18.9496 73.2049 18.8796Z" fill="#1E2026"/>
<path d="M76.0467 18.8796V17.6396C76.0467 17.5696 75.9967 17.5196 75.9267 17.5196H74.6867C74.6167 17.5196 74.5667 17.5696 74.5667 17.6396V18.8796C74.5667 18.9496 74.6167 18.9996 74.6867 18.9996H75.9267C75.9967 18.9996 76.0467 18.9496 76.0467 18.8796Z" fill="#1E2026"/>
<path d="M77.4685 11.5996V18.9996H78.7485V18.1296H78.7885C78.9885 18.7196 79.5385 19.1196 80.2285 19.1196C81.5485 19.1196 82.2785 18.1296 82.2785 16.3796C82.2785 14.6396 81.5485 13.6596 80.2285 13.6596C79.5385 13.6596 78.9785 14.0396 78.7885 14.6396H78.7485V11.5996H77.4685ZM79.8185 18.0596C79.2085 18.0596 78.7485 17.7496 78.7485 17.2096V15.5496C78.7485 15.0396 79.2085 14.7096 79.8185 14.7096C80.4785 14.7096 80.9385 15.1996 80.9385 15.9396V16.8396C80.9385 17.5796 80.4785 18.0596 79.8185 18.0596Z" fill="#1E2026"/>
<path d="M88.1746 19.4396C88.1746 18.4996 87.6246 17.9496 86.3446 17.9496H84.9446C84.4846 17.9496 84.2646 17.8196 84.2646 17.5596C84.2646 17.3296 84.4346 17.1796 84.6346 17.0896C84.8646 17.1496 85.1346 17.1796 85.4346 17.1796C86.8546 17.1796 87.5946 16.4796 87.5946 15.4296C87.5946 14.7896 87.3246 14.2796 86.7846 13.9796V13.8396H87.8946V12.8596H87.0846C86.6046 12.8596 86.3446 13.1096 86.3446 13.6196V13.7896C86.0846 13.6996 85.7546 13.6596 85.4346 13.6596C84.0246 13.6596 83.2746 14.3696 83.2746 15.4296C83.2746 16.1196 83.5946 16.6596 84.2246 16.9496V16.9896C83.7246 17.0996 83.2646 17.3696 83.2646 17.9096C83.2646 18.3296 83.5046 18.6696 83.9346 18.7796V18.8896C83.3546 18.9796 83.0046 19.3096 83.0046 19.8896C83.0046 20.6596 83.6746 21.1196 85.4346 21.1196C87.4346 21.1196 88.1746 20.5296 88.1746 19.4396ZM85.4346 16.3096C84.8246 16.3096 84.4946 16.0296 84.4946 15.5096V15.3396C84.4946 14.8096 84.8246 14.5396 85.4346 14.5396C86.0446 14.5396 86.3746 14.8096 86.3746 15.3396V15.5096C86.3746 16.0296 86.0446 16.3096 85.4346 16.3096ZM86.9746 19.5896C86.9746 20.0296 86.6046 20.2396 85.7746 20.2396H85.1346C84.3346 20.2396 84.0346 19.9996 84.0346 19.5996C84.0346 19.3896 84.1146 19.1996 84.3046 19.0596H86.0846C86.7346 19.0596 86.9746 19.2596 86.9746 19.5896Z" fill="#1E2026"/>
<path d="M91.0738 14.9296C90.9338 14.9296 90.8038 14.9496 90.6838 14.9796L92.0838 12.1596C92.1238 12.0696 92.0838 12.0196 91.9938 12.0196H90.9838C90.9238 12.0196 90.8738 12.0496 90.8438 12.1096L89.2538 15.3296C88.8938 16.0696 88.7538 16.5196 88.7538 17.0096C88.7538 18.2696 89.6038 19.1196 90.8438 19.1196C92.0838 19.1196 92.9238 18.2596 92.9238 16.9696C92.9238 15.7896 92.1438 14.9296 91.0738 14.9296ZM90.8338 17.9496C90.3338 17.9496 90.0038 17.5696 90.0038 16.9896C90.0038 16.4196 90.3338 16.0396 90.8338 16.0396C91.3438 16.0396 91.6738 16.4196 91.6738 16.9896C91.6738 17.5796 91.3338 17.9496 90.8338 17.9496Z" fill="#1E2026"/>
<path d="M95.5358 19.1196C96.3158 19.1196 96.8858 18.7696 97.0558 18.0996H97.1158C97.1958 18.6396 97.5358 18.9996 98.0858 18.9996H98.7958V17.9796H98.2758V15.5196C98.2758 14.3296 97.5258 13.6596 96.1158 13.6596C95.0658 13.6596 94.4558 14.0596 94.0758 14.6596L94.8358 15.3396C95.0858 14.9796 95.4258 14.6796 96.0258 14.6796C96.7058 14.6796 96.9958 15.0196 96.9958 15.5996V15.9796H96.1058C94.6858 15.9796 93.8758 16.5096 93.8758 17.5796C93.8758 18.5096 94.4758 19.1196 95.5358 19.1196ZM95.9658 18.1896C95.4658 18.1896 95.1758 17.9796 95.1758 17.5596V17.3896C95.1758 16.9796 95.5058 16.7496 96.1758 16.7496H96.9958V17.4396C96.9958 17.9296 96.5358 18.1896 95.9658 18.1896Z" fill="#1E2026"/>
<path d="M46.952 29.9193C46.952 29.9753 46.976 29.9993 47.032 29.9993H47.544C47.6 29.9993 47.624 29.9753 47.624 29.9193V24.4953C47.624 24.4393 47.6 24.4153 47.544 24.4153H47.064C47.024 24.4153 46.976 24.4313 46.936 24.4633L46 25.1433C45.96 25.1673 45.944 25.2073 45.944 25.2553V25.8473C45.944 25.9193 46.008 25.9113 46.032 25.8953L46.928 25.2633H46.952V29.9193Z" fill="#76808F"/>
<path d="M51.5039 30.0953C52.2959 30.0953 52.7999 29.7433 53.0319 29.0313C53.1199 28.7593 53.1599 28.1513 53.1599 27.2073C53.1599 26.2633 53.1199 25.6553 53.0319 25.3833C52.7999 24.6713 52.2959 24.3193 51.5039 24.3193C50.7119 24.3193 50.2079 24.6713 49.9759 25.3833C49.8879 25.6553 49.8479 26.2633 49.8479 27.2073C49.8479 28.1513 49.8879 28.7593 49.9759 29.0313C50.2079 29.7433 50.7119 30.0953 51.5039 30.0953ZM51.5039 29.4553C51.0639 29.4553 50.7839 29.2633 50.6559 28.8953C50.5919 28.7113 50.5679 28.1513 50.5679 27.2073C50.5679 26.2633 50.5999 25.7033 50.6559 25.5193C50.7679 25.1433 51.0639 24.9593 51.5039 24.9593C51.9439 24.9593 52.2239 25.1513 52.3519 25.5193C52.4159 25.7033 52.4399 26.2633 52.4399 27.2073C52.4399 28.1513 52.4079 28.7113 52.3519 28.8953C52.2399 29.2713 51.9439 29.4553 51.5039 29.4553Z" fill="#76808F"/>
<path d="M55.8398 30.0953C56.6318 30.0953 57.1358 29.7433 57.3678 29.0313C57.4558 28.7593 57.4958 28.1513 57.4958 27.2073C57.4958 26.2633 57.4558 25.6553 57.3678 25.3833C57.1358 24.6713 56.6318 24.3193 55.8398 24.3193C55.0478 24.3193 54.5438 24.6713 54.3118 25.3833C54.2238 25.6553 54.1838 26.2633 54.1838 27.2073C54.1838 28.1513 54.2238 28.7593 54.3118 29.0313C54.5438 29.7433 55.0478 30.0953 55.8398 30.0953ZM55.8398 29.4553C55.3998 29.4553 55.1198 29.2633 54.9918 28.8953C54.9278 28.7113 54.9038 28.1513 54.9038 27.2073C54.9038 26.2633 54.9358 25.7033 54.9918 25.5193C55.1038 25.1433 55.3998 24.9593 55.8398 24.9593C56.2798 24.9593 56.5598 25.1513 56.6878 25.5193C56.7518 25.7033 56.7758 26.2633 56.7758 27.2073C56.7758 28.1513 56.7438 28.7113 56.6878 28.8953C56.5758 29.2713 56.2798 29.4553 55.8398 29.4553Z" fill="#76808F"/>
<path d="M58.6398 30.7753C58.6798 30.7753 58.7118 30.7593 58.7438 30.7193L59.2398 30.0633C59.2718 30.0233 59.2878 29.9593 59.2878 29.8873V29.1433C59.2878 29.0873 59.2638 29.0633 59.2078 29.0633H58.6478C58.5918 29.0633 58.5678 29.0873 58.5678 29.1433V30.7033C58.5678 30.7513 58.5918 30.7753 58.6398 30.7753Z" fill="#76808F"/>
<path d="M61.8035 29.9193C61.8035 29.9753 61.8275 29.9993 61.8835 29.9993H62.3955C62.4515 29.9993 62.4755 29.9753 62.4755 29.9193V24.4953C62.4755 24.4393 62.4515 24.4153 62.3955 24.4153H61.9155C61.8755 24.4153 61.8275 24.4313 61.7875 24.4633L60.8515 25.1433C60.8115 25.1673 60.7955 25.2073 60.7955 25.2553V25.8473C60.7955 25.9193 60.8595 25.9113 60.8835 25.8953L61.7795 25.2633H61.8035V29.9193Z" fill="#76808F"/>
<path d="M66.3555 30.0953C67.1475 30.0953 67.6515 29.7433 67.8835 29.0313C67.9715 28.7593 68.0115 28.1513 68.0115 27.2073C68.0115 26.2633 67.9715 25.6553 67.8835 25.3833C67.6515 24.6713 67.1475 24.3193 66.3555 24.3193C65.5635 24.3193 65.0595 24.6713 64.8275 25.3833C64.7395 25.6553 64.6995 26.2633 64.6995 27.2073C64.6995 28.1513 64.7395 28.7593 64.8275 29.0313C65.0595 29.7433 65.5635 30.0953 66.3555 30.0953ZM66.3555 29.4553C65.9155 29.4553 65.6355 29.2633 65.5075 28.8953C65.4435 28.7113 65.4195 28.1513 65.4195 27.2073C65.4195 26.2633 65.4515 25.7033 65.5075 25.5193C65.6195 25.1433 65.9155 24.9593 66.3555 24.9593C66.7955 24.9593 67.0755 25.1513 67.2035 25.5193C67.2675 25.7033 67.2915 26.2633 67.2915 27.2073C67.2915 28.1513 67.2595 28.7113 67.2035 28.8953C67.0915 29.2713 66.7955 29.4553 66.3555 29.4553Z" fill="#76808F"/>
<path d="M70.6914 30.0953C71.4834 30.0953 71.9874 29.7433 72.2194 29.0313C72.3074 28.7593 72.3474 28.1513 72.3474 27.2073C72.3474 26.2633 72.3074 25.6553 72.2194 25.3833C71.9874 24.6713 71.4834 24.3193 70.6914 24.3193C69.8994 24.3193 69.3954 24.6713 69.1634 25.3833C69.0754 25.6553 69.0354 26.2633 69.0354 27.2073C69.0354 28.1513 69.0754 28.7593 69.1634 29.0313C69.3954 29.7433 69.8994 30.0953 70.6914 30.0953ZM70.6914 29.4553C70.2514 29.4553 69.9714 29.2633 69.8434 28.8953C69.7794 28.7113 69.7554 28.1513 69.7554 27.2073C69.7554 26.2633 69.7874 25.7033 69.8434 25.5193C69.9554 25.1433 70.2514 24.9593 70.6914 24.9593C71.1314 24.9593 71.4114 25.1513 71.5394 25.5193C71.6034 25.7033 71.6274 26.2633 71.6274 27.2073C71.6274 28.1513 71.5954 28.7113 71.5394 28.8953C71.4274 29.2713 71.1314 29.4553 70.6914 29.4553Z" fill="#76808F"/>
<path d="M76.918 30.0953C77.71 30.0953 78.214 29.7433 78.446 29.0313C78.534 28.7593 78.574 28.1513 78.574 27.2073C78.574 26.2633 78.534 25.6553 78.446 25.3833C78.214 24.6713 77.71 24.3193 76.918 24.3193C76.126 24.3193 75.622 24.6713 75.39 25.3833C75.302 25.6553 75.262 26.2633 75.262 27.2073C75.262 28.1513 75.302 28.7593 75.39 29.0313C75.622 29.7433 76.126 30.0953 76.918 30.0953ZM76.918 29.4553C76.478 29.4553 76.198 29.2633 76.07 28.8953C76.006 28.7113 75.982 28.1513 75.982 27.2073C75.982 26.2633 76.014 25.7033 76.07 25.5193C76.182 25.1433 76.478 24.9593 76.918 24.9593C77.358 24.9593 77.638 25.1513 77.766 25.5193C77.83 25.7033 77.854 26.2633 77.854 27.2073C77.854 28.1513 77.822 28.7113 77.766 28.8953C77.654 29.2713 77.358 29.4553 76.918 29.4553Z" fill="#76808F"/>
<path d="M81.2539 30.0953C82.0459 30.0953 82.5499 29.7433 82.7819 29.0313C82.8699 28.7593 82.9099 28.1513 82.9099 27.2073C82.9099 26.2633 82.8699 25.6553 82.7819 25.3833C82.5499 24.6713 82.0459 24.3193 81.2539 24.3193C80.4619 24.3193 79.9579 24.6713 79.7259 25.3833C79.6379 25.6553 79.5979 26.2633 79.5979 27.2073C79.5979 28.1513 79.6379 28.7593 79.7259 29.0313C79.9579 29.7433 80.4619 30.0953 81.2539 30.0953ZM81.2539 29.4553C80.8139 29.4553 80.5339 29.2633 80.4059 28.8953C80.3419 28.7113 80.3179 28.1513 80.3179 27.2073C80.3179 26.2633 80.3499 25.7033 80.4059 25.5193C80.5179 25.1433 80.8139 24.9593 81.2539 24.9593C81.6939 24.9593 81.9739 25.1513 82.1019 25.5193C82.1659 25.7033 82.1899 26.2633 82.1899 27.2073C82.1899 28.1513 82.1579 28.7113 82.1019 28.8953C81.9899 29.2713 81.6939 29.4553 81.2539 29.4553Z" fill="#76808F"/>
<path d="M85.5898 30.0953C86.3818 30.0953 86.8858 29.7433 87.1178 29.0313C87.2058 28.7593 87.2458 28.1513 87.2458 27.2073C87.2458 26.2633 87.2058 25.6553 87.1178 25.3833C86.8858 24.6713 86.3818 24.3193 85.5898 24.3193C84.7978 24.3193 84.2938 24.6713 84.0618 25.3833C83.9738 25.6553 83.9338 26.2633 83.9338 27.2073C83.9338 28.1513 83.9738 28.7593 84.0618 29.0313C84.2938 29.7433 84.7978 30.0953 85.5898 30.0953ZM85.5898 29.4553C85.1498 29.4553 84.8698 29.2633 84.7418 28.8953C84.6778 28.7113 84.6538 28.1513 84.6538 27.2073C84.6538 26.2633 84.6858 25.7033 84.7418 25.5193C84.8538 25.1433 85.1498 24.9593 85.5898 24.9593C86.0298 24.9593 86.3098 25.1513 86.4378 25.5193C86.5018 25.7033 86.5258 26.2633 86.5258 27.2073C86.5258 28.1513 86.4938 28.7113 86.4378 28.8953C86.3258 29.2713 86.0298 29.4553 85.5898 29.4553Z" fill="#76808F"/>
<path d="M88.3178 29.9193C88.3178 29.9753 88.3418 29.9993 88.3978 29.9993H89.0058C89.0618 29.9993 89.0858 29.9753 89.0858 29.9193V29.2313C89.0858 29.1753 89.0618 29.1513 89.0058 29.1513H88.3978C88.3418 29.1513 88.3178 29.1753 88.3178 29.2313V29.9193Z" fill="#76808F"/>
<path d="M91.8164 30.0953C92.8084 30.0953 93.5364 29.4233 93.5364 28.3593C93.5364 27.3673 92.8484 26.7033 91.9444 26.7033C91.6964 26.7033 91.5044 26.7433 91.3844 26.8313L91.3604 26.8153L92.6164 24.4953C92.6404 24.4393 92.6244 24.4153 92.5604 24.4153H92.0084C91.9524 24.4153 91.9204 24.4313 91.8964 24.4713L90.4804 27.1113C90.2324 27.5673 90.1044 27.9913 90.1044 28.3833C90.1044 29.4393 90.8164 30.0953 91.8164 30.0953ZM91.8164 29.4553C91.1444 29.4553 90.8084 28.9273 90.8084 28.3993C90.8084 27.8713 91.1444 27.3433 91.8164 27.3433C92.4884 27.3433 92.8244 27.8713 92.8244 28.3993C92.8244 28.9273 92.4884 29.4553 91.8164 29.4553Z" fill="#76808F"/>
<path d="M95.4083 29.9993H95.9603C96.0163 29.9993 96.0483 29.9833 96.0723 29.9433L97.4883 27.3033C97.7363 26.8473 97.8643 26.4233 97.8643 26.0313C97.8643 24.9753 97.1523 24.3193 96.1603 24.3193C95.1603 24.3193 94.4323 24.9913 94.4323 26.0553C94.4323 27.0473 95.1203 27.7113 96.0243 27.7113C96.2723 27.7113 96.4643 27.6713 96.5843 27.5833L96.6083 27.5993L95.3523 29.9193C95.3283 29.9753 95.3443 29.9993 95.4083 29.9993ZM95.1443 26.0153C95.1443 25.3033 95.6483 24.9513 96.1523 24.9513C96.6483 24.9513 97.1523 25.3033 97.1523 26.0153C97.1523 26.7193 96.6483 27.0713 96.1443 27.0713C95.6483 27.0713 95.1443 26.7193 95.1443 26.0153Z" fill="#76808F"/>
<path d="M100.488 30.0953C101.28 30.0953 101.784 29.7433 102.016 29.0313C102.104 28.7593 102.144 28.1513 102.144 27.2073C102.144 26.2633 102.104 25.6553 102.016 25.3833C101.784 24.6713 101.28 24.3193 100.488 24.3193C99.6963 24.3193 99.1923 24.6713 98.9603 25.3833C98.8723 25.6553 98.8323 26.2633 98.8323 27.2073C98.8323 28.1513 98.8723 28.7593 98.9603 29.0313C99.1923 29.7433 99.6963 30.0953 100.488 30.0953ZM100.488 29.4553C100.048 29.4553 99.7683 29.2633 99.6403 28.8953C99.5763 28.7113 99.5523 28.1513 99.5523 27.2073C99.5523 26.2633 99.5843 25.7033 99.6403 25.5193C99.7523 25.1433 100.048 24.9593 100.488 24.9593C100.928 24.9593 101.208 25.1513 101.336 25.5193C101.4 25.7033 101.424 26.2633 101.424 27.2073C101.424 28.1513 101.392 28.7113 101.336 28.8953C101.224 29.2713 100.928 29.4553 100.488 29.4553Z" fill="#76808F"/>
<path d="M104.824 30.0953C105.616 30.0953 106.12 29.7433 106.352 29.0313C106.44 28.7593 106.48 28.1513 106.48 27.2073C106.48 26.2633 106.44 25.6553 106.352 25.3833C106.12 24.6713 105.616 24.3193 104.824 24.3193C104.032 24.3193 103.528 24.6713 103.296 25.3833C103.208 25.6553 103.168 26.2633 103.168 27.2073C103.168 28.1513 103.208 28.7593 103.296 29.0313C103.528 29.7433 104.032 30.0953 104.824 30.0953ZM104.824 29.4553C104.384 29.4553 104.104 29.2633 103.976 28.8953C103.912 28.7113 103.888 28.1513 103.888 27.2073C103.888 26.2633 103.92 25.7033 103.976 25.5193C104.088 25.1433 104.384 24.9593 104.824 24.9593C105.264 24.9593 105.544 25.1513 105.672 25.5193C105.736 25.7033 105.76 26.2633 105.76 27.2073C105.76 28.1513 105.728 28.7113 105.672 28.8953C105.56 29.2713 105.264 29.4553 104.824 29.4553Z" fill="#76808F"/>
<path d="M109.16 30.0953C109.952 30.0953 110.456 29.7433 110.688 29.0313C110.776 28.7593 110.816 28.1513 110.816 27.2073C110.816 26.2633 110.776 25.6553 110.688 25.3833C110.456 24.6713 109.952 24.3193 109.16 24.3193C108.368 24.3193 107.864 24.6713 107.632 25.3833C107.544 25.6553 107.504 26.2633 107.504 27.2073C107.504 28.1513 107.544 28.7593 107.632 29.0313C107.864 29.7433 108.368 30.0953 109.16 30.0953ZM109.16 29.4553C108.72 29.4553 108.44 29.2633 108.312 28.8953C108.248 28.7113 108.224 28.1513 108.224 27.2073C108.224 26.2633 108.256 25.7033 108.312 25.5193C108.424 25.1433 108.72 24.9593 109.16 24.9593C109.6 24.9593 109.88 25.1513 110.008 25.5193C110.072 25.7033 110.096 26.2633 110.096 27.2073C110.096 28.1513 110.064 28.7113 110.008 28.8953C109.896 29.2713 109.6 29.4553 109.16 29.4553Z" fill="#76808F"/>
<path d="M113.496 30.0953C114.288 30.0953 114.792 29.7433 115.024 29.0313C115.112 28.7593 115.152 28.1513 115.152 27.2073C115.152 26.2633 115.112 25.6553 115.024 25.3833C114.792 24.6713 114.288 24.3193 113.496 24.3193C112.704 24.3193 112.2 24.6713 111.968 25.3833C111.88 25.6553 111.84 26.2633 111.84 27.2073C111.84 28.1513 111.88 28.7593 111.968 29.0313C112.2 29.7433 112.704 30.0953 113.496 30.0953ZM113.496 29.4553C113.056 29.4553 112.776 29.2633 112.648 28.8953C112.584 28.7113 112.56 28.1513 112.56 27.2073C112.56 26.2633 112.592 25.7033 112.648 25.5193C112.76 25.1433 113.056 24.9593 113.496 24.9593C113.936 24.9593 114.216 25.1513 114.344 25.5193C114.408 25.7033 114.432 26.2633 114.432 27.2073C114.432 28.1513 114.4 28.7113 114.344 28.8953C114.232 29.2713 113.936 29.4553 113.496 29.4553Z" fill="#76808F"/>
<path d="M117.832 30.0953C118.856 30.0953 119.56 29.4313 119.56 28.4473C119.56 27.8313 119.24 27.3193 118.768 27.0713V27.0473C119.144 26.8473 119.432 26.4073 119.432 25.8633C119.432 24.9993 118.816 24.3193 117.832 24.3193C116.864 24.3193 116.232 24.9993 116.232 25.8633C116.232 26.4073 116.52 26.8473 116.896 27.0473V27.0713C116.424 27.3193 116.104 27.8313 116.104 28.4473C116.104 29.4313 116.808 30.0953 117.832 30.0953ZM116.944 25.8473C116.944 25.2633 117.392 24.9593 117.832 24.9593C118.28 24.9593 118.72 25.2553 118.72 25.8473C118.72 26.4393 118.272 26.7433 117.832 26.7433C117.384 26.7433 116.944 26.4473 116.944 25.8473ZM117.832 29.4553C117.152 29.4553 116.808 28.9353 116.808 28.4153C116.808 27.9033 117.144 27.3913 117.832 27.3913C118.52 27.3913 118.856 27.9033 118.856 28.4233C118.856 28.9353 118.512 29.4553 117.832 29.4553Z" fill="#76808F"/>
<path d="M121.2 29.9993H121.744C121.8 29.9993 121.832 29.9753 121.856 29.9273L123.776 25.0873C123.792 25.0553 123.792 25.0313 123.792 25.0073V24.4953C123.792 24.4393 123.768 24.4153 123.712 24.4153H120.728C120.672 24.4153 120.648 24.4393 120.648 24.4953V25.7993C120.648 25.8553 120.672 25.8873 120.728 25.8873H121.224C121.28 25.8873 121.304 25.8553 121.304 25.7993V25.1033C121.304 25.0713 121.32 25.0553 121.352 25.0553H123.056V25.0873L121.152 29.9113C121.128 29.9753 121.136 29.9993 121.2 29.9993Z" fill="#76808F"/>
<path d="M126.971 24.4153V29.9993H129.507C130.331 29.9993 130.947 29.3033 130.947 28.3833C130.947 27.4553 130.251 27.1113 129.851 27.0873V27.0393C130.219 26.9833 130.755 26.6873 130.755 25.8553C130.755 24.9833 130.187 24.4153 129.267 24.4153H126.971ZM127.643 26.8313V25.0073H129.187C129.715 25.0073 130.035 25.2873 130.035 25.7833V26.0553C130.035 26.5513 129.715 26.8313 129.187 26.8313H127.643ZM127.643 29.4073V27.4073H129.299C129.875 27.4073 130.227 27.7113 130.227 28.2713V28.5433C130.227 29.1033 129.875 29.4073 129.299 29.4073H127.643Z" fill="#76808F"/>
<path d="M133.549 26.5913L135.589 29.9993H136.365V24.4153H135.709V29.0633H135.685L135.013 27.8233L132.973 24.4153H132.197V29.9993H132.853V25.3513H132.877L133.549 26.5913Z" fill="#76808F"/>
<path d="M137.853 24.4153V29.9993H140.389C141.213 29.9993 141.829 29.3033 141.829 28.3833C141.829 27.4553 141.133 27.1113 140.733 27.0873V27.0393C141.101 26.9833 141.637 26.6873 141.637 25.8553C141.637 24.9833 141.069 24.4153 140.149 24.4153H137.853ZM138.525 26.8313V25.0073H140.069C140.597 25.0073 140.917 25.2873 140.917 25.7833V26.0553C140.917 26.5513 140.597 26.8313 140.069 26.8313H138.525ZM138.525 29.4073V27.4073H140.181C140.757 27.4073 141.109 27.7113 141.109 28.2713V28.5433C141.109 29.1033 140.757 29.4073 140.181 29.4073H138.525Z" fill="#76808F"/>
<path d="M195 19C195 16.7909 196.791 15 199 15H203C205.209 15 207 16.7909 207 19V23C207 25.2091 205.209 27 203 27H199C196.791 27 195 25.2091 195 23V19Z" fill="#F5F5F5"/>
<path d="M204 18V21.435H203V19.71L198.71 24L198 23.29L202.29 19H200.575V18H204Z" fill="#1E2026"/>
<path fill-rule="evenodd" clip-rule="evenodd" d="M17 26C19.7614 26 22 23.7614 22 21C22 18.2386 19.7614 16 17 16C14.2386 16 12 18.2386 12 21C12 23.7614 14.2386 26 17 26ZM17 27C20.3137 27 23 24.3137 23 21C23 17.6863 20.3137 15 17 15C13.6863 15 11 17.6863 11 21C11 24.3137 13.6863 27 17 27Z" fill="#F0B90B"/>
<path d="M20 21C20 22.6569 18.6569 24 17 24C15.3431 24 14 22.6569 14 21C14 19.3431 15.3431 18 17 18C18.6569 18 20 19.3431 20 21Z" fill="#F0B90B"/>
<path d="M0 81H215V82H0V81Z" fill="#E6E8EA"/>
<path d="M30.83 64.9996H34.58C34.65 64.9996 34.68 64.9696 34.68 64.8996V64.2996C34.68 64.2296 34.65 64.1996 34.58 64.1996H31.84V64.1796L34 61.4696C34.45 60.8996 34.68 60.3396 34.68 59.7896C34.68 58.6796 33.91 57.8896 32.71 57.8896C31.55 57.8896 30.88 58.6496 30.73 59.5396C30.72 59.5996 30.75 59.6496 30.81 59.6696L31.44 59.7996C31.5 59.8096 31.54 59.7896 31.55 59.7196C31.65 59.0296 32.05 58.6896 32.69 58.6896C33.36 58.6896 33.8 59.1396 33.8 59.7896C33.8 60.1796 33.63 60.5796 33.3 61.0096L30.78 64.2196C30.75 64.2596 30.73 64.3096 30.73 64.3596V64.8996C30.73 64.9696 30.76 64.9996 30.83 64.9996Z" fill="#1E2026"/>
<path d="M44.74 52.5996V59.9996H46.02V59.1296H46.06C46.26 59.7196 46.81 60.1196 47.5 60.1196C48.82 60.1196 49.55 59.1296 49.55 57.3796C49.55 55.6396 48.82 54.6596 47.5 54.6596C46.81 54.6596 46.25 55.0396 46.06 55.6396H46.02V52.5996H44.74ZM47.09 59.0596C46.48 59.0596 46.02 58.7496 46.02 58.2096V56.5496C46.02 56.0396 46.48 55.7096 47.09 55.7096C47.75 55.7096 48.21 56.1996 48.21 56.9396V57.8396C48.21 58.5796 47.75 59.0596 47.09 59.0596Z" fill="#1E2026"/>
<path d="M50.7361 59.9996H52.0161V56.5496C52.0161 55.9896 52.5261 55.7096 53.0561 55.7096C53.6661 55.7096 53.9161 56.0896 53.9161 56.8296V59.9996H55.1961V56.6996C55.1961 55.3996 54.5961 54.6596 53.5261 54.6596C52.7161 54.6596 52.2761 55.0896 52.0661 55.6496H52.0161V54.7796H50.7361V59.9996Z" fill="#1E2026"/>
<path d="M56.615 52.5996V59.9996H57.895V59.1296H57.935C58.135 59.7196 58.685 60.1196 59.375 60.1196C60.695 60.1196 61.425 59.1296 61.425 57.3796C61.425 55.6396 60.695 54.6596 59.375 54.6596C58.685 54.6596 58.125 55.0396 57.935 55.6396H57.895V52.5996H56.615ZM58.965 59.0596C58.355 59.0596 57.895 58.7496 57.895 58.2096V56.5496C57.895 56.0396 58.355 55.7096 58.965 55.7096C59.625 55.7096 60.085 56.1996 60.085 56.9396V57.8396C60.085 58.5796 59.625 59.0596 58.965 59.0596Z" fill="#1E2026"/>
<path d="M66.5011 58.8996H63.9111L65.9511 56.3996C66.4611 55.7696 66.6211 55.4096 66.6211 54.8796C66.6211 53.6796 65.8111 52.8996 64.5811 52.8996C63.3911 52.8996 62.5911 53.6496 62.5311 54.7696C62.5311 54.8496 62.5811 54.8896 62.6511 54.8896H63.5911C63.6611 54.8896 63.7111 54.8496 63.7211 54.7696C63.7611 54.2796 64.1011 53.9596 64.5811 53.9596C65.1111 53.9596 65.4411 54.2996 65.4411 54.8596C65.4411 55.1496 65.3511 55.3796 65.1311 55.6496L62.5711 58.8296C62.5311 58.8696 62.5211 58.9196 62.5211 58.9796V59.8796C62.5211 59.9496 62.5711 59.9996 62.6411 59.9996H66.5011C66.5711 59.9996 66.6211 59.9496 66.6211 59.8796V59.0196C66.6211 58.9496 66.5711 58.8996 66.5011 58.8996Z" fill="#1E2026"/>
<path d="M69.3631 59.8796V58.6396C69.3631 58.5696 69.3131 58.5196 69.2431 58.5196H68.0031C67.9331 58.5196 67.8831 58.5696 67.8831 58.6396V59.8796C67.8831 59.9496 67.9331 59.9996 68.0031 59.9996H69.2431C69.3131 59.9996 69.3631 59.9496 69.3631 59.8796Z" fill="#1E2026"/>
<path d="M72.2049 59.8796V58.6396C72.2049 58.5696 72.1549 58.5196 72.0849 58.5196H70.8449C70.7749 58.5196 70.7249 58.5696 70.7249 58.6396V59.8796C70.7249 59.9496 70.7749 59.9996 70.8449 59.9996H72.0849C72.1549 59.9996 72.2049 59.9496 72.2049 59.8796Z" fill="#1E2026"/>
<path d="M75.0467 59.8796V58.6396C75.0467 58.5696 74.9967 58.5196 74.9267 58.5196H73.6867C73.6167 58.5196 73.5667 58.5696 73.5667 58.6396V59.8796C73.5667 59.9496 73.6167 59.9996 73.6867 59.9996H74.9267C74.9967 59.9996 75.0467 59.9496 75.0467 59.8796Z" fill="#1E2026"/>
<path d="M76.4685 52.5996V59.9996H77.7485V56.5496C77.7485 55.9896 78.2585 55.7096 78.7885 55.7096C79.3985 55.7096 79.6485 56.0896 79.6485 56.8296V59.9996H80.9285V56.6996C80.9285 55.3996 80.3285 54.6596 79.2585 54.6596C78.4485 54.6596 78.0085 55.0896 77.7985 55.6496H77.7485V52.5996H76.4685Z" fill="#1E2026"/>
<path d="M86.3174 53.0196H82.3974C82.3274 53.0196 82.2774 53.0696 82.2774 53.1396V54.8896C82.2774 54.9596 82.3274 55.0096 82.3974 55.0096H83.2774C83.3474 55.0096 83.3974 54.9596 83.3974 54.8896V54.1096H85.0874L82.8774 59.8596C82.8474 59.9496 82.8874 59.9996 82.9774 59.9996H84.0074C84.0774 59.9996 84.1274 59.9696 84.1474 59.9096L86.4074 53.9796C86.4274 53.9196 86.4374 53.8796 86.4374 53.8296V53.1396C86.4374 53.0696 86.3874 53.0196 86.3174 53.0196Z" fill="#1E2026"/>
<path d="M89.5994 60.1196C90.8194 60.1196 91.7894 59.3396 91.7894 58.0596C91.7894 57.2096 91.3194 56.6896 90.8194 56.3896C91.2794 56.1096 91.6694 55.6096 91.6694 54.8596C91.6694 53.6796 90.7594 52.8996 89.5994 52.8996C88.4394 52.8996 87.5394 53.6796 87.5394 54.8596C87.5394 55.6096 87.9294 56.1096 88.3894 56.3896C87.8894 56.6896 87.4194 57.2096 87.4194 58.0596C87.4194 59.3396 88.3794 60.1196 89.5994 60.1196ZM89.5994 55.7996C89.0794 55.7996 88.7194 55.4196 88.7194 54.8896C88.7194 54.3696 89.0794 53.9796 89.5994 53.9796C90.1194 53.9796 90.4894 54.3696 90.4894 54.8896C90.4894 55.4196 90.1194 55.7996 89.5994 55.7996ZM89.5994 59.0296C89.0494 59.0296 88.6194 58.5896 88.6194 58.0296C88.6194 57.4796 89.0494 57.0396 89.5994 57.0396C90.1494 57.0396 90.5794 57.4796 90.5794 58.0296C90.5794 58.5896 90.1494 59.0296 89.5994 59.0296Z" fill="#1E2026"/>
<path d="M93.0115 59.9996H94.2915V56.5496C94.2915 55.9896 94.8015 55.7096 95.3315 55.7096C95.9415 55.7096 96.1915 56.0896 96.1915 56.8296V59.9996H97.4715V56.6996C97.4715 55.3996 96.8715 54.6596 95.8015 54.6596C94.9915 54.6596 94.5515 55.0896 94.3415 55.6496H94.2915V54.7796H93.0115V59.9996Z" fill="#1E2026"/>
<path d="M45.952 70.9193C45.952 70.9753 45.976 70.9993 46.032 70.9993H46.544C46.6 70.9993 46.624 70.9753 46.624 70.9193V65.4953C46.624 65.4393 46.6 65.4153 46.544 65.4153H46.064C46.024 65.4153 45.976 65.4313 45.936 65.4633L45 66.1433C44.96 66.1673 44.944 66.2073 44.944 66.2553V66.8473C44.944 66.9193 45.008 66.9113 45.032 66.8953L45.928 66.2633H45.952V70.9193Z" fill="#76808F"/>
<path d="M50.5039 71.0953C51.2959 71.0953 51.7999 70.7433 52.0319 70.0313C52.1199 69.7593 52.1599 69.1513 52.1599 68.2073C52.1599 67.2633 52.1199 66.6553 52.0319 66.3833C51.7999 65.6713 51.2959 65.3193 50.5039 65.3193C49.7119 65.3193 49.2079 65.6713 48.9759 66.3833C48.8879 66.6553 48.8479 67.2633 48.8479 68.2073C48.8479 69.1513 48.8879 69.7593 48.9759 70.0313C49.2079 70.7433 49.7119 71.0953 50.5039 71.0953ZM50.5039 70.4553C50.0639 70.4553 49.7839 70.2633 49.6559 69.8953C49.5919 69.7113 49.5679 69.1513 49.5679 68.2073C49.5679 67.2633 49.5999 66.7033 49.6559 66.5193C49.7679 66.1433 50.0639 65.9593 50.5039 65.9593C50.9439 65.9593 51.2239 66.1513 51.3519 66.5193C51.4159 66.7033 51.4399 67.2633 51.4399 68.2073C51.4399 69.1513 51.4079 69.7113 51.3519 69.8953C51.2399 70.2713 50.9439 70.4553 50.5039 70.4553Z" fill="#76808F"/>
<path d="M54.8398 71.0953C55.6318 71.0953 56.1358 70.7433 56.3678 70.0313C56.4558 69.7593 56.4958 69.1513 56.4958 68.2073C56.4958 67.2633 56.4558 66.6553 56.3678 66.3833C56.1358 65.6713 55.6318 65.3193 54.8398 65.3193C54.0478 65.3193 53.5438 65.6713 53.3118 66.3833C53.2238 66.6553 53.1838 67.2633 53.1838 68.2073C53.1838 69.1513 53.2238 69.7593 53.3118 70.0313C53.5438 70.7433 54.0478 71.0953 54.8398 71.0953ZM54.8398 70.4553C54.3998 70.4553 54.1198 70.2633 53.9918 69.8953C53.9278 69.7113 53.9038 69.1513 53.9038 68.2073C53.9038 67.2633 53.9358 66.7033 53.9918 66.5193C54.1038 66.1433 54.3998 65.9593 54.8398 65.9593C55.2798 65.9593 55.5598 66.1513 55.6878 66.5193C55.7518 66.7033 55.7758 67.2633 55.7758 68.2073C55.7758 69.1513 55.7438 69.7113 55.6878 69.8953C55.5758 70.2713 55.2798 70.4553 54.8398 70.4553Z" fill="#76808F"/>
<path d="M57.5678 70.9193C57.5678 70.9753 57.5918 70.9993 57.6478 70.9993H58.2558C58.3118 70.9993 58.3358 70.9753 58.3358 70.9193V70.2313C58.3358 70.1753 58.3118 70.1513 58.2558 70.1513H57.6478C57.5918 70.1513 57.5678 70.1753 57.5678 70.2313V70.9193Z" fill="#76808F"/>
<path d="M61.0664 71.0953C62.0584 71.0953 62.7864 70.4233 62.7864 69.3593C62.7864 68.3673 62.0984 67.7033 61.1944 67.7033C60.9464 67.7033 60.7544 67.7433 60.6344 67.8313L60.6104 67.8153L61.8664 65.4953C61.8904 65.4393 61.8744 65.4153 61.8104 65.4153H61.2584C61.2024 65.4153 61.1704 65.4313 61.1464 65.4713L59.7304 68.1113C59.4824 68.5673 59.3544 68.9913 59.3544 69.3833C59.3544 70.4393 60.0664 71.0953 61.0664 71.0953ZM61.0664 70.4553C60.3944 70.4553 60.0584 69.9273 60.0584 69.3993C60.0584 68.8713 60.3944 68.3433 61.0664 68.3433C61.7384 68.3433 62.0744 68.8713 62.0744 69.3993C62.0744 69.9273 61.7384 70.4553 61.0664 70.4553Z" fill="#76808F"/>
<path d="M64.6583 70.9993H65.2103C65.2663 70.9993 65.2983 70.9833 65.3223 70.9433L66.7383 68.3033C66.9863 67.8473 67.1143 67.4233 67.1143 67.0313C67.1143 65.9753 66.4023 65.3193 65.4103 65.3193C64.4103 65.3193 63.6823 65.9913 63.6823 67.0553C63.6823 68.0473 64.3703 68.7113 65.2743 68.7113C65.5223 68.7113 65.7143 68.6713 65.8343 68.5833L65.8583 68.5993L64.6023 70.9193C64.5783 70.9753 64.5943 70.9993 64.6583 70.9993ZM64.3943 67.0153C64.3943 66.3033 64.8983 65.9513 65.4023 65.9513C65.8983 65.9513 66.4023 66.3033 66.4023 67.0153C66.4023 67.7193 65.8983 68.0713 65.3943 68.0713C64.8983 68.0713 64.3943 67.7193 64.3943 67.0153Z" fill="#76808F"/>
<path d="M69.7383 71.0953C70.5303 71.0953 71.0343 70.7433 71.2663 70.0313C71.3543 69.7593 71.3943 69.1513 71.3943 68.2073C71.3943 67.2633 71.3543 66.6553 71.2663 66.3833C71.0343 65.6713 70.5303 65.3193 69.7383 65.3193C68.9463 65.3193 68.4423 65.6713 68.2103 66.3833C68.1223 66.6553 68.0823 67.2633 68.0823 68.2073C68.0823 69.1513 68.1223 69.7593 68.2103 70.0313C68.4423 70.7433 68.9463 71.0953 69.7383 71.0953ZM69.7383 70.4553C69.2983 70.4553 69.0183 70.2633 68.8903 69.8953C68.8263 69.7113 68.8023 69.1513 68.8023 68.2073C68.8023 67.2633 68.8343 66.7033 68.8903 66.5193C69.0023 66.1433 69.2983 65.9593 69.7383 65.9593C70.1783 65.9593 70.4583 66.1513 70.5863 66.5193C70.6503 66.7033 70.6743 67.2633 70.6743 68.2073C70.6743 69.1513 70.6423 69.7113 70.5863 69.8953C70.4743 70.2713 70.1783 70.4553 69.7383 70.4553Z" fill="#76808F"/>
<path d="M74.0742 71.0953C74.8662 71.0953 75.3702 70.7433 75.6022 70.0313C75.6902 69.7593 75.7302 69.1513 75.7302 68.2073C75.7302 67.2633 75.6902 66.6553 75.6022 66.3833C75.3702 65.6713 74.8662 65.3193 74.0742 65.3193C73.2822 65.3193 72.7782 65.6713 72.5462 66.3833C72.4582 66.6553 72.4182 67.2633 72.4182 68.2073C72.4182 69.1513 72.4582 69.7593 72.5462 70.0313C72.7782 70.7433 73.2822 71.0953 74.0742 71.0953ZM74.0742 70.4553C73.6342 70.4553 73.3542 70.2633 73.2262 69.8953C73.1622 69.7113 73.1382 69.1513 73.1382 68.2073C73.1382 67.2633 73.1702 66.7033 73.2262 66.5193C73.3382 66.1433 73.6342 65.9593 74.0742 65.9593C74.5142 65.9593 74.7942 66.1513 74.9222 66.5193C74.9862 66.7033 75.0102 67.2633 75.0102 68.2073C75.0102 69.1513 74.9782 69.7113 74.9222 69.8953C74.8102 70.2713 74.5142 70.4553 74.0742 70.4553Z" fill="#76808F"/>
<path d="M78.4102 71.0953C79.2022 71.0953 79.7062 70.7433 79.9382 70.0313C80.0262 69.7593 80.0662 69.1513 80.0662 68.2073C80.0662 67.2633 80.0262 66.6553 79.9382 66.3833C79.7062 65.6713 79.2022 65.3193 78.4102 65.3193C77.6182 65.3193 77.1142 65.6713 76.8822 66.3833C76.7942 66.6553 76.7542 67.2633 76.7542 68.2073C76.7542 69.1513 76.7942 69.7593 76.8822 70.0313C77.1142 70.7433 77.6182 71.0953 78.4102 71.0953ZM78.4102 70.4553C77.9702 70.4553 77.6902 70.2633 77.5622 69.8953C77.4982 69.7113 77.4742 69.1513 77.4742 68.2073C77.4742 67.2633 77.5062 66.7033 77.5622 66.5193C77.6742 66.1433 77.9702 65.9593 78.4102 65.9593C78.8502 65.9593 79.1302 66.1513 79.2582 66.5193C79.3222 66.7033 79.3462 67.2633 79.3462 68.2073C79.3462 69.1513 79.3142 69.7113 79.2582 69.8953C79.1462 70.2713 78.8502 70.4553 78.4102 70.4553Z" fill="#76808F"/>
<path d="M82.7461 71.0953C83.5381 71.0953 84.0421 70.7433 84.2741 70.0313C84.3621 69.7593 84.4021 69.1513 84.4021 68.2073C84.4021 67.2633 84.3621 66.6553 84.2741 66.3833C84.0421 65.6713 83.5381 65.3193 82.7461 65.3193C81.9541 65.3193 81.4501 65.6713 81.2181 66.3833C81.1301 66.6553 81.0901 67.2633 81.0901 68.2073C81.0901 69.1513 81.1301 69.7593 81.2181 70.0313C81.4501 70.7433 81.9541 71.0953 82.7461 71.0953ZM82.7461 70.4553C82.3061 70.4553 82.0261 70.2633 81.8981 69.8953C81.8341 69.7113 81.8101 69.1513 81.8101 68.2073C81.8101 67.2633 81.8421 66.7033 81.8981 66.5193C82.0101 66.1433 82.3061 65.9593 82.7461 65.9593C83.1861 65.9593 83.4661 66.1513 83.5941 66.5193C83.6581 66.7033 83.6821 67.2633 83.6821 68.2073C83.6821 69.1513 83.6501 69.7113 83.5941 69.8953C83.4821 70.2713 83.1861 70.4553 82.7461 70.4553Z" fill="#76808F"/>
<path d="M87.082 71.0953C88.106 71.0953 88.81 70.4313 88.81 69.4473C88.81 68.8313 88.49 68.3193 88.018 68.0713V68.0473C88.394 67.8473 88.682 67.4073 88.682 66.8633C88.682 65.9993 88.066 65.3193 87.082 65.3193C86.114 65.3193 85.482 65.9993 85.482 66.8633C85.482 67.4073 85.77 67.8473 86.146 68.0473V68.0713C85.674 68.3193 85.354 68.8313 85.354 69.4473C85.354 70.4313 86.058 71.0953 87.082 71.0953ZM86.194 66.8473C86.194 66.2633 86.642 65.9593 87.082 65.9593C87.53 65.9593 87.97 66.2553 87.97 66.8473C87.97 67.4393 87.522 67.7433 87.082 67.7433C86.634 67.7433 86.194 67.4473 86.194 66.8473ZM87.082 70.4553C86.402 70.4553 86.058 69.9353 86.058 69.4153C86.058 68.9033 86.394 68.3913 87.082 68.3913C87.77 68.3913 88.106 68.9033 88.106 69.4233C88.106 69.9353 87.762 70.4553 87.082 70.4553Z" fill="#76808F"/>
<path d="M90.45 70.9993H90.994C91.05 70.9993 91.082 70.9753 91.106 70.9273L93.026 66.0873C93.042 66.0553 93.042 66.0313 93.042 66.0073V65.4953C93.042 65.4393 93.018 65.4153 92.962 65.4153H89.978C89.922 65.4153 89.898 65.4393 89.898 65.4953V66.7993C89.898 66.8553 89.922 66.8873 89.978 66.8873H90.474C90.53 66.8873 90.554 66.8553 90.554 66.7993V66.1033C90.554 66.0713 90.57 66.0553 90.602 66.0553H92.306V66.0873L90.402 70.9113C90.378 70.9753 90.386 70.9993 90.45 70.9993Z" fill="#76808F"/>
<path d="M96.2205 65.4153V70.9993H98.7565C99.5805 70.9993 100.197 70.3033 100.197 69.3833C100.197 68.4553 99.5005 68.1113 99.1005 68.0873V68.0393C99.4685 67.9833 100.005 67.6873 100.005 66.8553C100.005 65.9833 99.4365 65.4153 98.5165 65.4153H96.2205ZM96.8925 67.8313V66.0073H98.4365C98.9645 66.0073 99.2845 66.2873 99.2845 66.7833V67.0553C99.2845 67.5513 98.9645 67.8313 98.4365 67.8313H96.8925ZM96.8925 70.4073V68.4073H98.5485C99.1245 68.4073 99.4765 68.7113 99.4765 69.2713V69.5433C99.4765 70.1033 99.1245 70.4073 98.5485 70.4073H96.8925Z" fill="#76808F"/>
<path d="M102.799 67.5913L104.839 70.9993H105.615V65.4153H104.959V70.0633H104.935L104.263 68.8233L102.223 65.4153H101.447V70.9993H102.103V66.3513H102.127L102.799 67.5913Z" fill="#76808F"/>
<path d="M107.103 65.4153V70.9993H109.639C110.463 70.9993 111.079 70.3033 111.079 69.3833C111.079 68.4553 110.383 68.1113 109.983 68.0873V68.0393C110.351 67.9833 110.887 67.6873 110.887 66.8553C110.887 65.9833 110.319 65.4153 109.399 65.4153H107.103ZM107.775 67.8313V66.0073H109.319C109.847 66.0073 110.167 66.2873 110.167 66.7833V67.0553C110.167 67.5513 109.847 67.8313 109.319 67.8313H107.775ZM107.775 70.4073V68.4073H109.431C110.007 68.4073 110.359 68.7113 110.359 69.2713V69.5433C110.359 70.1033 110.007 70.4073 109.431 70.4073H107.775Z" fill="#76808F"/>
<path d="M194 60C194 57.7909 195.791 56 198 56H202C204.209 56 206 57.7909 206 60V64C206 66.2091 204.209 68 202 68H198C195.791 68 194 66.2091 194 64V60Z" fill="#F5F5F5"/>
<path d="M203 59V62.435H202V60.71L197.71 65L197 64.29L201.29 60H199.575V59H203Z" fill="#1E2026"/>
<path d="M22 61C22 64.3137 19.3137 67 16 67C12.6863 67 10 64.3137 10 61C10 57.6863 12.6863 55 16 55C19.3137 55 22 57.6863 22 61Z" fill="#F5F5F5"/>
<path fill-rule="evenodd" clip-rule="evenodd" d="M16 66C18.7614 66 21 63.7614 21 61C21 58.2386 18.7614 56 16 56C13.2386 56 11 58.2386 11 61C11 63.7614 13.2386 66 16 66ZM16 67C19.3137 67 22 64.3137 22 61C22 57.6863 19.3137 55 16 55C12.6863 55 10 57.6863 10 61C10 64.3137 12.6863 67 16 67Z" fill="#E6E8EA"/>
<path d="M32.69 106.12C33.91 106.12 34.78 105.27 34.78 104.05C34.78 103.16 34.3 102.52 33.78 102.32V102.3C34.36 101.94 34.65 101.43 34.65 100.79C34.65 99.6604 33.89 98.9004 32.67 98.9004C31.6 98.9004 30.83 99.5304 30.71 100.36C30.7 100.43 30.72 100.46 30.79 100.48L31.41 100.64C31.47 100.65 31.51 100.62 31.53 100.56C31.72 99.9904 32.05 99.7004 32.64 99.7004C33.33 99.7004 33.76 100.16 33.76 100.81C33.76 101.53 33.3 101.98 32.6 101.98H32.3C32.23 101.98 32.19 102.02 32.19 102.09V102.67C32.19 102.74 32.23 102.78 32.3 102.78H32.61C33.39 102.78 33.89 103.29 33.89 104.08C33.89 104.8 33.43 105.31 32.69 105.31C32.05 105.31 31.63 105.03 31.45 104.42C31.43 104.35 31.39 104.34 31.33 104.35L30.7 104.51C30.63 104.53 30.6 104.57 30.61 104.63C30.76 105.52 31.59 106.12 32.69 106.12Z" fill="#1E2026"/>
<path d="M44.74 93.5996V101H46.02V100.13H46.06C46.26 100.72 46.81 101.12 47.5 101.12C48.82 101.12 49.55 100.13 49.55 98.3796C49.55 96.6396 48.82 95.6596 47.5 95.6596C46.81 95.6596 46.25 96.0396 46.06 96.6396H46.02V93.5996H44.74ZM47.09 100.06C46.48 100.06 46.02 99.7496 46.02 99.2096V97.5496C46.02 97.0396 46.48 96.7096 47.09 96.7096C47.75 96.7096 48.21 97.1996 48.21 97.9396V98.8396C48.21 99.5796 47.75 100.06 47.09 100.06Z" fill="#1E2026"/>
<path d="M50.7361 101H52.0161V97.5496C52.0161 96.9896 52.5261 96.7096 53.0561 96.7096C53.6661 96.7096 53.9161 97.0896 53.9161 97.8296V101H55.1961V97.6996C55.1961 96.3996 54.5961 95.6596 53.5261 95.6596C52.7161 95.6596 52.2761 96.0896 52.0661 96.6496H52.0161V95.7796H50.7361V101Z" fill="#1E2026"/>
<path d="M56.615 93.5996V101H57.895V100.13H57.935C58.135 100.72 58.685 101.12 59.375 101.12C60.695 101.12 61.425 100.13 61.425 98.3796C61.425 96.6396 60.695 95.6596 59.375 95.6596C58.685 95.6596 58.125 96.0396 57.935 96.6396H57.895V93.5996H56.615ZM58.965 100.06C58.355 100.06 57.895 99.7496 57.895 99.2096V97.5496C57.895 97.0396 58.355 96.7096 58.965 96.7096C59.625 96.7096 60.085 97.1996 60.085 97.9396V98.8396C60.085 99.5796 59.625 100.06 58.965 100.06Z" fill="#1E2026"/>
<path d="M65.3911 94.0196H64.3911C64.3311 94.0196 64.2911 94.0396 64.2511 94.0796L63.0211 95.1396C62.9811 95.1796 62.9511 95.2296 62.9511 95.2896V96.3896C62.9511 96.4896 63.0311 96.5296 63.1011 96.4596L64.3611 95.3096V100.88C64.3611 100.95 64.4111 101 64.4811 101H65.3911C65.4611 101 65.5111 100.95 65.5111 100.88V94.1396C65.5111 94.0696 65.4611 94.0196 65.3911 94.0196Z" fill="#1E2026"/>
<path d="M69.3631 100.88V99.6396C69.3631 99.5696 69.3131 99.5196 69.2431 99.5196H68.0031C67.9331 99.5196 67.8831 99.5696 67.8831 99.6396V100.88C67.8831 100.95 67.9331 101 68.0031 101H69.2431C69.3131 101 69.3631 100.95 69.3631 100.88Z" fill="#1E2026"/>
<path d="M72.2049 100.88V99.6396C72.2049 99.5696 72.1549 99.5196 72.0849 99.5196H70.8449C70.7749 99.5196 70.7249 99.5696 70.7249 99.6396V100.88C70.7249 100.95 70.7749 101 70.8449 101H72.0849C72.1549 101 72.2049 100.95 72.2049 100.88Z" fill="#1E2026"/>
<path d="M75.0467 100.88V99.6396C75.0467 99.5696 74.9967 99.5196 74.9267 99.5196H73.6867C73.6167 99.5196 73.5667 99.5696 73.5667 99.6396V100.88C73.5667 100.95 73.6167 101 73.6867 101H74.9267C74.9967 101 75.0467 100.95 75.0467 100.88Z" fill="#1E2026"/>
<path d="M76.4685 93.5996V101H77.7485V97.5496C77.7485 96.9896 78.2585 96.7096 78.7885 96.7096C79.3985 96.7096 79.6485 97.0896 79.6485 97.8296V101H80.9285V97.6996C80.9285 96.3996 80.3285 95.6596 79.2585 95.6596C78.4485 95.6596 78.0085 96.0896 77.7985 96.6496H77.7485V93.5996H76.4685Z" fill="#1E2026"/>
<path d="M84.2674 101.12C85.4874 101.12 86.4574 100.34 86.4574 99.0596C86.4574 98.2096 85.9874 97.6896 85.4874 97.3896C85.9474 97.1096 86.3374 96.6096 86.3374 95.8596C86.3374 94.6796 85.4274 93.8996 84.2674 93.8996C83.1074 93.8996 82.2074 94.6796 82.2074 95.8596C82.2074 96.6096 82.5974 97.1096 83.0574 97.3896C82.5574 97.6896 82.0874 98.2096 82.0874 99.0596C82.0874 100.34 83.0474 101.12 84.2674 101.12ZM84.2674 96.7996C83.7474 96.7996 83.3874 96.4196 83.3874 95.8896C83.3874 95.3696 83.7474 94.9796 84.2674 94.9796C84.7874 94.9796 85.1574 95.3696 85.1574 95.8896C85.1574 96.4196 84.7874 96.7996 84.2674 96.7996ZM84.2674 100.03C83.7174 100.03 83.2874 99.5896 83.2874 99.0296C83.2874 98.4796 83.7174 98.0396 84.2674 98.0396C84.8174 98.0396 85.2474 98.4796 85.2474 99.0296C85.2474 99.5896 84.8174 100.03 84.2674 100.03Z" fill="#1E2026"/>
<path d="M89.8394 96.9296C89.6994 96.9296 89.5694 96.9496 89.4494 96.9796L90.8494 94.1596C90.8894 94.0696 90.8494 94.0196 90.7594 94.0196H89.7494C89.6894 94.0196 89.6394 94.0496 89.6094 94.1096L88.0194 97.3296C87.6594 98.0696 87.5194 98.5196 87.5194 99.0096C87.5194 100.27 88.3694 101.12 89.6094 101.12C90.8494 101.12 91.6894 100.26 91.6894 98.9696C91.6894 97.7896 90.9094 96.9296 89.8394 96.9296ZM89.5994 99.9496C89.0994 99.9496 88.7694 99.5696 88.7694 98.9896C88.7694 98.4196 89.0994 98.0396 89.5994 98.0396C90.1094 98.0396 90.4394 98.4196 90.4394 98.9896C90.4394 99.5796 90.0994 99.9496 89.5994 99.9496Z" fill="#1E2026"/>
<path d="M93.0115 101H94.2915V97.5496C94.2915 96.9896 94.7715 96.7096 95.2615 96.7096C95.8315 96.7096 96.1015 97.0796 96.1015 97.8296V101H97.3815V97.5496C97.3815 96.9896 97.8515 96.7096 98.3515 96.7096C98.9215 96.7096 99.1915 97.0796 99.1915 97.8296V101H100.471V97.6996C100.471 96.3996 99.8915 95.6596 98.8715 95.6596C98.0415 95.6596 97.4615 96.1296 97.2715 96.7096H97.2515C97.0015 96.0096 96.4515 95.6596 95.7415 95.6596C94.9615 95.6596 94.5415 96.0996 94.3415 96.6496H94.2915V95.7796H93.0115V101Z" fill="#1E2026"/>
<path d="M45.952 111.919C45.952 111.975 45.976 111.999 46.032 111.999H46.544C46.6 111.999 46.624 111.975 46.624 111.919V106.495C46.624 106.439 46.6 106.415 46.544 106.415H46.064C46.024 106.415 45.976 106.431 45.936 106.463L45 107.143C44.96 107.167 44.944 107.207 44.944 107.255V107.847C44.944 107.919 45.008 107.911 45.032 107.895L45.928 107.263H45.952V111.919Z" fill="#76808F"/>
<path d="M50.5039 112.095C51.2959 112.095 51.7999 111.743 52.0319 111.031C52.1199 110.759 52.1599 110.151 52.1599 109.207C52.1599 108.263 52.1199 107.655 52.0319 107.383C51.7999 106.671 51.2959 106.319 50.5039 106.319C49.7119 106.319 49.2079 106.671 48.9759 107.383C48.8879 107.655 48.8479 108.263 48.8479 109.207C48.8479 110.151 48.8879 110.759 48.9759 111.031C49.2079 111.743 49.7119 112.095 50.5039 112.095ZM50.5039 111.455C50.0639 111.455 49.7839 111.263 49.6559 110.895C49.5919 110.711 49.5679 110.151 49.5679 109.207C49.5679 108.263 49.5999 107.703 49.6559 107.519C49.7679 107.143 50.0639 106.959 50.5039 106.959C50.9439 106.959 51.2239 107.151 51.3519 107.519C51.4159 107.703 51.4399 108.263 51.4399 109.207C51.4399 110.151 51.4079 110.711 51.3519 110.895C51.2399 111.271 50.9439 111.455 50.5039 111.455Z" fill="#76808F"/>
<path d="M54.8398 112.095C55.6318 112.095 56.1358 111.743 56.3678 111.031C56.4558 110.759 56.4958 110.151 56.4958 109.207C56.4958 108.263 56.4558 107.655 56.3678 107.383C56.1358 106.671 55.6318 106.319 54.8398 106.319C54.0478 106.319 53.5438 106.671 53.3118 107.383C53.2238 107.655 53.1838 108.263 53.1838 109.207C53.1838 110.151 53.2238 110.759 53.3118 111.031C53.5438 111.743 54.0478 112.095 54.8398 112.095ZM54.8398 111.455C54.3998 111.455 54.1198 111.263 53.9918 110.895C53.9278 110.711 53.9038 110.151 53.9038 109.207C53.9038 108.263 53.9358 107.703 53.9918 107.519C54.1038 107.143 54.3998 106.959 54.8398 106.959C55.2798 106.959 55.5598 107.151 55.6878 107.519C55.7518 107.703 55.7758 108.263 55.7758 109.207C55.7758 110.151 55.7438 110.711 55.6878 110.895C55.5758 111.271 55.2798 111.455 54.8398 111.455Z" fill="#76808F"/>
<path d="M57.5678 111.919C57.5678 111.975 57.5918 111.999 57.6478 111.999H58.2558C58.3118 111.999 58.3358 111.975 58.3358 111.919V111.231C58.3358 111.175 58.3118 111.151 58.2558 111.151H57.6478C57.5918 111.151 57.5678 111.175 57.5678 111.231V111.919Z" fill="#76808F"/>
<path d="M61.0664 112.095C62.0584 112.095 62.7864 111.423 62.7864 110.359C62.7864 109.367 62.0984 108.703 61.1944 108.703C60.9464 108.703 60.7544 108.743 60.6344 108.831L60.6104 108.815L61.8664 106.495C61.8904 106.439 61.8744 106.415 61.8104 106.415H61.2584C61.2024 106.415 61.1704 106.431 61.1464 106.471L59.7304 109.111C59.4824 109.567 59.3544 109.991 59.3544 110.383C59.3544 111.439 60.0664 112.095 61.0664 112.095ZM61.0664 111.455C60.3944 111.455 60.0584 110.927 60.0584 110.399C60.0584 109.871 60.3944 109.343 61.0664 109.343C61.7384 109.343 62.0744 109.871 62.0744 110.399C62.0744 110.927 61.7384 111.455 61.0664 111.455Z" fill="#76808F"/>
<path d="M64.6583 111.999H65.2103C65.2663 111.999 65.2983 111.983 65.3223 111.943L66.7383 109.303C66.9863 108.847 67.1143 108.423 67.1143 108.031C67.1143 106.975 66.4023 106.319 65.4103 106.319C64.4103 106.319 63.6823 106.991 63.6823 108.055C63.6823 109.047 64.3703 109.711 65.2743 109.711C65.5223 109.711 65.7143 109.671 65.8343 109.583L65.8583 109.599L64.6023 111.919C64.5783 111.975 64.5943 111.999 64.6583 111.999ZM64.3943 108.015C64.3943 107.303 64.8983 106.951 65.4023 106.951C65.8983 106.951 66.4023 107.303 66.4023 108.015C66.4023 108.719 65.8983 109.071 65.3943 109.071C64.8983 109.071 64.3943 108.719 64.3943 108.015Z" fill="#76808F"/>
<path d="M69.7383 112.095C70.5303 112.095 71.0343 111.743 71.2663 111.031C71.3543 110.759 71.3943 110.151 71.3943 109.207C71.3943 108.263 71.3543 107.655 71.2663 107.383C71.0343 106.671 70.5303 106.319 69.7383 106.319C68.9463 106.319 68.4423 106.671 68.2103 107.383C68.1223 107.655 68.0823 108.263 68.0823 109.207C68.0823 110.151 68.1223 110.759 68.2103 111.031C68.4423 111.743 68.9463 112.095 69.7383 112.095ZM69.7383 111.455C69.2983 111.455 69.0183 111.263 68.8903 110.895C68.8263 110.711 68.8023 110.151 68.8023 109.207C68.8023 108.263 68.8343 107.703 68.8903 107.519C69.0023 107.143 69.2983 106.959 69.7383 106.959C70.1783 106.959 70.4583 107.151 70.5863 107.519C70.6503 107.703 70.6743 108.263 70.6743 109.207C70.6743 110.151 70.6423 110.711 70.5863 110.895C70.4743 111.271 70.1783 111.455 69.7383 111.455Z" fill="#76808F"/>
<path d="M74.0742 112.095C74.8662 112.095 75.3702 111.743 75.6022 111.031C75.6902 110.759 75.7302 110.151 75.7302 109.207C75.7302 108.263 75.6902 107.655 75.6022 107.383C75.3702 106.671 74.8662 106.319 74.0742 106.319C73.2822 106.319 72.7782 106.671 72.5462 107.383C72.4582 107.655 72.4182 108.263 72.4182 109.207C72.4182 110.151 72.4582 110.759 72.5462 111.031C72.7782 111.743 73.2822 112.095 74.0742 112.095ZM74.0742 111.455C73.6342 111.455 73.3542 111.263 73.2262 110.895C73.1622 110.711 73.1382 110.151 73.1382 109.207C73.1382 108.263 73.1702 107.703 73.2262 107.519C73.3382 107.143 73.6342 106.959 74.0742 106.959C74.5142 106.959 74.7942 107.151 74.9222 107.519C74.9862 107.703 75.0102 108.263 75.0102 109.207C75.0102 110.151 74.9782 110.711 74.9222 110.895C74.8102 111.271 74.5142 111.455 74.0742 111.455Z" fill="#76808F"/>
<path d="M78.4102 112.095C79.2022 112.095 79.7062 111.743 79.9382 111.031C80.0262 110.759 80.0662 110.151 80.0662 109.207C80.0662 108.263 80.0262 107.655 79.9382 107.383C79.7062 106.671 79.2022 106.319 78.4102 106.319C77.6182 106.319 77.1142 106.671 76.8822 107.383C76.7942 107.655 76.7542 108.263 76.7542 109.207C76.7542 110.151 76.7942 110.759 76.8822 111.031C77.1142 111.743 77.6182 112.095 78.4102 112.095ZM78.4102 111.455C77.9702 111.455 77.6902 111.263 77.5622 110.895C77.4982 110.711 77.4742 110.151 77.4742 109.207C77.4742 108.263 77.5062 107.703 77.5622 107.519C77.6742 107.143 77.9702 106.959 78.4102 106.959C78.8502 106.959 79.1302 107.151 79.2582 107.519C79.3222 107.703 79.3462 108.263 79.3462 109.207C79.3462 110.151 79.3142 110.711 79.2582 110.895C79.1462 111.271 78.8502 111.455 78.4102 111.455Z" fill="#76808F"/>
<path d="M82.7461 112.095C83.5381 112.095 84.0421 111.743 84.2741 111.031C84.3621 110.759 84.4021 110.151 84.4021 109.207C84.4021 108.263 84.3621 107.655 84.2741 107.383C84.0421 106.671 83.5381 106.319 82.7461 106.319C81.9541 106.319 81.4501 106.671 81.2181 107.383C81.1301 107.655 81.0901 108.263 81.0901 109.207C81.0901 110.151 81.1301 110.759 81.2181 111.031C81.4501 111.743 81.9541 112.095 82.7461 112.095ZM82.7461 111.455C82.3061 111.455 82.0261 111.263 81.8981 110.895C81.8341 110.711 81.8101 110.151 81.8101 109.207C81.8101 108.263 81.8421 107.703 81.8981 107.519C82.0101 107.143 82.3061 106.959 82.7461 106.959C83.1861 106.959 83.4661 107.151 83.5941 107.519C83.6581 107.703 83.6821 108.263 83.6821 109.207C83.6821 110.151 83.6501 110.711 83.5941 110.895C83.4821 111.271 83.1861 111.455 82.7461 111.455Z" fill="#76808F"/>
<path d="M87.082 112.095C88.106 112.095 88.81 111.431 88.81 110.447C88.81 109.831 88.49 109.319 88.018 109.071V109.047C88.394 108.847 88.682 108.407 88.682 107.863C88.682 106.999 88.066 106.319 87.082 106.319C86.114 106.319 85.482 106.999 85.482 107.863C85.482 108.407 85.77 108.847 86.146 109.047V109.071C85.674 109.319 85.354 109.831 85.354 110.447C85.354 111.431 86.058 112.095 87.082 112.095ZM86.194 107.847C86.194 107.263 86.642 106.959 87.082 106.959C87.53 106.959 87.97 107.255 87.97 107.847C87.97 108.439 87.522 108.743 87.082 108.743C86.634 108.743 86.194 108.447 86.194 107.847ZM87.082 111.455C86.402 111.455 86.058 110.935 86.058 110.415C86.058 109.903 86.394 109.391 87.082 109.391C87.77 109.391 88.106 109.903 88.106 110.423C88.106 110.935 87.762 111.455 87.082 111.455Z" fill="#76808F"/>
<path d="M90.45 111.999H90.994C91.05 111.999 91.082 111.975 91.106 111.927L93.026 107.087C93.042 107.055 93.042 107.031 93.042 107.007V106.495C93.042 106.439 93.018 106.415 92.962 106.415H89.978C89.922 106.415 89.898 106.439 89.898 106.495V107.799C89.898 107.855 89.922 107.887 89.978 107.887H90.474C90.53 107.887 90.554 107.855 90.554 107.799V107.103C90.554 107.071 90.57 107.055 90.602 107.055H92.306V107.087L90.402 111.911C90.378 111.975 90.386 111.999 90.45 111.999Z" fill="#76808F"/>
<path d="M96.2205 106.415V111.999H98.7565C99.5805 111.999 100.197 111.303 100.197 110.383C100.197 109.455 99.5005 109.111 99.1005 109.087V109.039C99.4685 108.983 100.005 108.687 100.005 107.855C100.005 106.983 99.4365 106.415 98.5165 106.415H96.2205ZM96.8925 108.831V107.007H98.4365C98.9645 107.007 99.2845 107.287 99.2845 107.783V108.055C99.2845 108.551 98.9645 108.831 98.4365 108.831H96.8925ZM96.8925 111.407V109.407H98.5485C99.1245 109.407 99.4765 109.711 99.4765 110.271V110.543C99.4765 111.103 99.1245 111.407 98.5485 111.407H96.8925Z" fill="#76808F"/>
<path d="M102.799 108.591L104.839 111.999H105.615V106.415H104.959V111.063H104.935L104.263 109.823L102.223 106.415H101.447V111.999H102.103V107.351H102.127L102.799 108.591Z" fill="#76808F"/>
<path d="M107.103 106.415V111.999H109.639C110.463 111.999 111.079 111.303 111.079 110.383C111.079 109.455 110.383 109.111 109.983 109.087V109.039C110.351 108.983 110.887 108.687 110.887 107.855C110.887 106.983 110.319 106.415 109.399 106.415H107.103ZM107.775 108.831V107.007H109.319C109.847 107.007 110.167 107.287 110.167 107.783V108.055C110.167 108.551 109.847 108.831 109.319 108.831H107.775ZM107.775 111.407V109.407H109.431C110.007 109.407 110.359 109.711 110.359 110.271V110.543C110.359 111.103 110.007 111.407 109.431 111.407H107.775Z" fill="#76808F"/>
<path d="M194 101C194 98.7909 195.791 97 198 97H202C204.209 97 206 98.7909 206 101V105C206 107.209 204.209 109 202 109H198C195.791 109 194 107.209 194 105V101Z" fill="#F5F5F5"/>
<path d="M203 100V103.435H202V101.71L197.71 106L197 105.29L201.29 101H199.575V100H203Z" fill="#1E2026"/>
<path d="M22 102C22 105.314 19.3137 108 16 108C12.6863 108 10 105.314 10 102C10 98.6863 12.6863 96 16 96C19.3137 96 22 98.6863 22 102Z" fill="#F5F5F5"/>
<path fill-rule="evenodd" clip-rule="evenodd" d="M16 107C18.7614 107 21 104.761 21 102C21 99.2386 18.7614 97 16 97C13.2386 97 11 99.2386 11 102C11 104.761 13.2386 107 16 107ZM16 108C19.3137 108 22 105.314 22 102C22 98.6863 19.3137 96 16 96C12.6863 96 10 98.6863 10 102C10 105.314 12.6863 108 16 108Z" fill="#E6E8EA"/>
</svg>
