<svg width="96" height="24" viewBox="0 0 96 24" fill="none" xmlns="http://www.w3.org/2000/svg">
<path d="M96 12.5L91 9.61325V15.3868L96 12.5ZM0 13H91.5V12H0V13Z" fill="#E6E8EA"/>
<path d="M6.42783 12.5C6.42783 14.1618 5.09597 15.5 3.46392 15.5C1.83186 15.5 0.5 14.1618 0.5 12.5C0.5 10.8382 1.83186 9.5 3.46392 9.5C5.09597 9.5 6.42783 10.8382 6.42783 12.5Z" fill="white" stroke="#E6E8EA"/>
<circle cx="48" cy="12" r="12" fill="#E6E8EA"/>
<path d="M46.95 15.5V17.5H49.05V15.5H46.95ZM47.95 6.5C46.15 6.5 44.75 7.7 44.75 9.6H46.75C46.75 8.9 47.15 8.3 47.95 8.3C48.75 8.3 49.15 8.8 49.15 9.6C49.15 10 48.95 10.3 48.75 10.6L47.65 12C47.25 12.5 47.05 12.9 47.05 13.6V14H49.05V13.7C49.05 13.5 49.15 13.1 49.35 12.9L50.45 11.4C50.85 10.8 51.25 10.3 51.25 9.5C51.15 7.6 49.65 6.5 47.95 6.5Z" fill="white"/>
</svg>
