<svg width="21" height="21" viewBox="0 0 -0.5 21" fill="none" xmlns="http://www.w3.org/2000/svg">
<path fill-rule="evenodd" clip-rule="evenodd" d="M19.5959 10.2269C19.5959 9.51795 19.5323 8.83628 19.4141 8.18188H9.99805V12.0492H15.3787C15.1469 13.2989 14.4425 14.3578 13.3837 15.0667V17.5752H16.6148C18.5052 15.8347 19.5959 13.2717 19.5959 10.2269Z" fill="#4285F4"/>
<path fill-rule="evenodd" clip-rule="evenodd" d="M9.99883 20.0001C12.6982 20.0001 14.9614 19.1048 16.6155 17.5779L13.3844 15.0693C12.4892 15.6692 11.344 16.0237 9.99883 16.0237C7.39486 16.0237 5.19081 14.265 4.40462 11.9019H1.06445V14.4922C2.70954 17.7596 6.09061 20.0001 9.99883 20.0001Z" fill="#34A853"/>
<path fill-rule="evenodd" clip-rule="evenodd" d="M4.40356 11.8966C4.20361 11.2967 4.09 10.6559 4.09 9.99699C4.09 9.33804 4.20361 8.69728 4.40356 8.09741V5.50708H1.0634C0.386277 6.85678 0 8.38371 0 9.99699C0 11.6103 0.386277 13.1372 1.0634 14.4869L4.40356 11.8966Z" fill="#FBBC05"/>
<path fill-rule="evenodd" clip-rule="evenodd" d="M9.99883 3.97639C11.4667 3.97639 12.7846 4.48082 13.8207 5.47151L16.6882 2.60397C14.9568 0.990688 12.6937 0 9.99883 0C6.09061 0 2.70954 2.24041 1.06445 5.50786L4.40462 8.0982C5.19081 5.73509 7.39486 3.97639 9.99883 3.97639Z" fill="#EA4335"/>
</svg>
