<svg width="64" height="14" viewBox="0 0 64 14" fill="none" xmlns="http://www.w3.org/2000/svg">
<g clip-path="url(#clip0_6250:3688)">
<path fill-rule="evenodd" clip-rule="evenodd" d="M5.17246 6.0904C5.1489 6.1814 5.10772 6.26687 5.05132 6.34192C4.94632 6.4788 4.80736 6.58556 4.64835 6.65148C4.50532 6.71338 4.35389 6.75341 4.19906 6.77019C4.16722 6.77424 4.13424 6.77676 4.10229 6.77918L4.09703 6.77958C3.99897 6.78334 3.90468 6.81851 3.82795 6.87998C3.75125 6.94145 3.69612 7.02598 3.67069 7.12118C3.65904 7.16857 3.65039 7.21662 3.64477 7.26509C3.63586 7.33818 3.63128 7.413 3.62631 7.49395C3.62275 7.55205 3.61899 7.61329 3.61331 7.6793C3.58001 7.94814 3.50258 8.2096 3.3842 8.45303C3.35999 8.50419 3.33535 8.55379 3.31112 8.60253C3.18132 8.86365 3.06402 9.09956 3.09771 9.41551C3.12405 9.6589 3.24816 9.82202 3.41311 9.99025C3.49142 10.0707 3.5953 10.1395 3.70312 10.2109C4.00486 10.4107 4.33755 10.6309 4.22795 11.1859C4.13827 11.6355 3.3961 12.1073 2.35297 12.2722C2.45417 12.2568 2.2313 11.8748 2.20654 11.8323L2.20506 11.8298C2.17629 11.7845 2.14683 11.74 2.11743 11.6955C2.03251 11.567 1.94799 11.4391 1.882 11.2973C1.70773 10.9271 1.62696 10.4988 1.69837 10.0932C1.76306 9.72601 2.00469 9.43271 2.23732 9.15034C2.27525 9.10431 2.31294 9.05855 2.34958 9.01284C2.66074 8.62468 2.98719 8.11612 3.05944 7.61225C3.06553 7.56848 3.07098 7.52076 3.07671 7.47053C3.08695 7.38065 3.09811 7.28276 3.11555 7.18525C3.14149 7.01684 3.19401 6.85366 3.27114 6.70186C3.32376 6.60232 3.39306 6.51263 3.476 6.43669C3.51925 6.39639 3.54779 6.34268 3.55703 6.28413C3.56628 6.22561 3.55572 6.16566 3.52702 6.11388L1.86415 3.10946L4.2526 6.07034C4.27982 6.10464 4.3142 6.13251 4.35332 6.15198C4.39245 6.17143 4.43536 6.18202 4.479 6.18295C4.52265 6.18388 4.56597 6.17517 4.60589 6.15741C4.64581 6.13964 4.68136 6.11327 4.70998 6.08016C4.74025 6.04471 4.75741 5.99987 4.75855 5.95318C4.75972 5.90652 4.74481 5.86087 4.71636 5.82394C4.60532 5.68139 4.48975 5.53689 4.37472 5.39308L4.37453 5.39282C4.32803 5.33468 4.2816 5.27664 4.23561 5.21888L3.63456 4.47162L2.42821 2.97965L0.00830078 0L2.58295 2.84601L3.86707 4.27221L4.50765 4.98701C4.5665 5.0536 4.62536 5.11957 4.68422 5.18556C4.83791 5.35784 4.99157 5.53015 5.14525 5.71293L5.1801 5.75563L5.18776 5.82182C5.19813 5.91156 5.19295 6.00242 5.17246 6.0904ZM11.3114 7.09461L11.3139 7.09847C11.3135 6.7799 11.1171 6.25427 10.7197 5.7487L10.7104 5.73631C10.5879 5.5843 10.4545 5.44159 10.3112 5.30931C10.2844 5.28326 10.2555 5.25764 10.2262 5.23201C10.0426 5.07114 9.84187 4.9311 9.62769 4.81441L9.61239 4.80671C8.9395 4.43864 8.06387 4.24904 6.98419 4.46254C6.83916 4.2857 6.683 4.1184 6.51661 3.96166C6.26181 3.71774 5.96187 3.52641 5.63374 3.39844C5.30858 3.27888 4.96036 3.23621 4.61613 3.27375C4.94795 3.30377 5.27116 3.39648 5.56873 3.54705C5.85609 3.70171 6.11488 3.90477 6.33385 4.14742C6.55577 4.39509 6.76435 4.65451 6.95869 4.92456C6.9749 4.94571 6.99109 4.9669 7.00731 4.98812L7.0074 4.98824C7.19756 5.23706 7.39123 5.49044 7.63243 5.71582C7.7652 5.84131 7.91332 5.94936 8.07322 6.03735C8.11573 6.05912 8.15866 6.07963 8.20075 6.09755C8.24281 6.1155 8.28235 6.13215 8.32486 6.14751C8.40691 6.17954 8.49191 6.20601 8.57692 6.23036C8.91698 6.3277 9.26511 6.36272 9.60516 6.38152C9.65253 6.38402 9.69975 6.38635 9.74682 6.38869C9.86823 6.39471 9.98866 6.40065 10.1072 6.40926C10.2696 6.41896 10.4308 6.44441 10.5883 6.48527C10.8251 6.54727 11.0335 6.68895 11.1788 6.88666C11.2282 6.95251 11.2725 7.02202 11.3114 7.09461ZM37.887 5.04098C36.7697 5.32248 36.246 6.19859 36.5636 7.2548C36.6997 7.70738 37.1183 8.16395 37.7101 8.5054C38.7766 9.12075 39.0908 9.36995 39.2732 9.7454C39.4253 10.0586 39.4384 10.1633 39.3617 10.4472C39.1816 11.1137 38.7113 11.4812 38.0387 11.4812C37.352 11.4812 36.8699 11.096 36.7621 10.4615C36.7191 10.2064 36.6658 10.1249 36.5424 10.1249C36.3951 10.1249 36.3799 10.1924 36.3799 10.8387V11.5523L36.8264 11.7041C37.5238 11.9409 38.5157 11.9126 39.1077 11.639C40.2608 11.1059 40.7029 10.0477 40.1853 9.05893C39.9917 8.68908 39.5059 8.27627 38.6737 7.77426C37.799 7.24659 37.4093 6.86276 37.352 6.47265C37.2642 5.87315 37.8034 5.377 38.5403 5.37912C39.1175 5.38073 39.3653 5.51738 39.57 5.94699C39.6981 6.21596 39.7897 6.30488 39.9414 6.30725C40.1092 6.3098 40.1342 6.27851 40.0914 6.11957C40.0631 6.01472 40.0396 5.75177 40.039 5.53526C40.0381 5.26035 39.9984 5.12659 39.9072 5.09176C39.6586 4.99664 38.2075 4.96018 37.887 5.04098ZM15.4526 5.29308C15.4526 5.41505 15.5093 5.46261 15.6548 5.46261C16.0656 5.46261 16.0876 5.58112 16.1331 8.03961C16.1728 10.1874 16.1876 10.3589 16.3592 10.6759C16.6052 11.13 16.9387 11.4322 17.4517 11.6658C17.8031 11.8257 18.025 11.8596 18.7278 11.8611C19.4901 11.8625 19.6291 11.8379 20.0659 11.6241C20.334 11.493 20.6679 11.2472 20.8079 11.0779C21.2934 10.491 21.3447 10.2074 21.3999 7.81175C21.4529 5.50484 21.4601 5.46736 21.854 5.46388C21.9459 5.46312 22.0029 5.39751 22.0029 5.29308C22.0029 5.13295 21.9463 5.12353 20.9821 5.12353C20.0291 5.12353 19.9613 5.13448 19.9613 5.28774C19.9613 5.41064 20.0302 5.45854 20.2358 5.47845C20.6876 5.52213 20.7243 5.69575 20.7256 7.79955C20.7271 9.93243 20.6542 10.3428 20.1975 10.7747C19.7728 11.1764 19.4349 11.3117 18.8562 11.3117C18.0251 11.3117 17.436 10.9248 17.2429 10.2521C17.1779 10.0258 17.154 9.19382 17.1711 7.75138L17.1965 5.58978L17.4942 5.49407C17.658 5.44142 17.8043 5.33657 17.8195 5.26095C17.8438 5.13946 17.7083 5.12353 16.6497 5.12353C15.5093 5.12353 15.4526 5.13159 15.4526 5.29308ZM23.3641 5.29308C23.3641 5.4243 23.4207 5.46261 23.6153 5.46261C24.0484 5.46261 24.2924 5.6291 24.3904 5.99149C24.4461 6.19757 24.4701 7.18172 24.4538 8.5883C24.4245 11.0998 24.3901 11.2641 23.8707 11.3676C23.6995 11.4017 23.6193 11.4683 23.6193 11.5766C23.6193 11.7244 23.7024 11.7355 24.8104 11.7355C25.8985 11.7355 26.0012 11.7225 26.0012 11.5835C26.0012 11.4754 25.8922 11.4026 25.6228 11.3308C25.2883 11.2416 25.2342 11.1929 25.1555 10.9106C25.0545 10.5482 25.0305 6.73027 25.1292 6.74128C25.1644 6.74518 25.4942 7.09806 25.8625 7.52538C26.2307 7.9527 27.2381 9.07478 28.1012 10.019C29.452 11.4966 29.7046 11.7355 29.917 11.7355H30.1634L30.1878 8.7304C30.2052 6.59667 30.2409 5.69683 30.3107 5.62724C30.3647 5.57334 30.537 5.50315 30.6935 5.47126C30.8594 5.43745 30.9778 5.36175 30.9778 5.2896C30.9778 5.18838 30.7657 5.16167 29.8081 5.14235C28.682 5.11963 28.6385 5.12515 28.6385 5.29071C28.6385 5.41649 28.6941 5.46261 28.8464 5.46261C28.9607 5.46261 29.1616 5.55458 29.2929 5.66707L29.5317 5.87154L29.5585 7.91346C29.5737 9.06632 29.5523 9.9554 29.5097 9.9554C29.4683 9.9554 29.2085 9.69793 28.9325 9.38318C28.6567 9.06844 27.871 8.20067 27.1865 7.4547C26.5022 6.70872 25.7545 5.88214 25.5252 5.6179L25.108 5.13745L24.2361 5.13049C23.4184 5.12396 23.3641 5.13414 23.3641 5.29308ZM32.2963 5.29308C32.2963 5.42235 32.3532 5.46261 32.5354 5.46261C32.6669 5.46261 32.8487 5.5167 32.9395 5.58282C33.0954 5.69632 33.1062 5.84265 33.1312 8.18947C33.1626 11.1199 33.1367 11.2842 32.6334 11.3644C32.3799 11.4048 32.2963 11.4575 32.2963 11.5768C32.2963 11.7249 32.3822 11.7355 33.5724 11.7355C34.7917 11.7355 34.8486 11.728 34.8486 11.566C34.8486 11.4454 34.7917 11.3964 34.6521 11.3964C34.544 11.3964 34.3815 11.3424 34.2905 11.2763C34.1341 11.1623 34.1242 11.0158 34.1008 8.48228C34.0769 5.88698 34.0811 5.80349 34.2495 5.63555C34.345 5.54044 34.5189 5.46261 34.6358 5.46261C34.7917 5.46261 34.8486 5.41743 34.8486 5.29308C34.8486 5.13108 34.7917 5.12353 33.5724 5.12353C32.3532 5.12353 32.2963 5.13108 32.2963 5.29308ZM41.2041 5.29308C41.2317 5.3981 41.3202 5.46261 41.4366 5.46261C41.5399 5.46261 41.7081 5.55136 41.8106 5.65997C41.9145 5.77016 42.4962 7.16367 43.1285 8.8176L44.2606 11.7779L44.5574 11.8033L44.8541 11.8286L45.6494 9.72641C46.0867 8.57027 46.4906 7.53276 46.5466 7.42087C46.6429 7.22928 46.6644 7.25847 46.92 7.92949C47.0691 8.32113 47.4662 9.35675 47.8024 10.2309L48.4133 11.8203H48.6827C48.8307 11.8203 48.9714 11.7696 48.9954 11.7076C49.0191 11.6458 49.41 10.6444 49.864 9.48245C50.3179 8.3206 50.8207 7.03339 50.9812 6.62208C51.3469 5.68546 51.4203 5.56984 51.712 5.46855C51.8416 5.42354 51.9477 5.32751 51.9477 5.25511C51.9477 5.14356 51.7926 5.12353 50.9267 5.12353C49.9626 5.12353 49.906 5.13295 49.906 5.29308C49.906 5.4159 49.9626 5.46261 50.1115 5.46261C50.4422 5.46261 50.5865 5.55212 50.5865 5.75752C50.5865 5.92894 48.9661 10.3267 48.8664 10.4262C48.8049 10.4873 47.3419 6.40203 47.2888 6.02193C47.2375 5.65267 47.3953 5.46261 47.753 5.46261C47.8925 5.46261 47.9494 5.41369 47.9494 5.29308C47.9494 5.13083 47.8925 5.12353 46.6306 5.12353C45.3689 5.12353 45.3121 5.13083 45.3121 5.29308C45.3121 5.38972 45.3689 5.46261 45.444 5.46261C45.7096 5.46261 46.0617 5.71828 46.1521 5.97698C46.2821 6.34819 46.1826 6.72456 45.4177 8.75986L44.768 10.4889L44.6282 10.1585C44.5512 9.97691 44.1505 8.90491 43.7379 7.77647C42.9274 5.55959 42.9155 5.46261 43.4509 5.46261C43.6391 5.46261 43.6957 5.42337 43.6957 5.29308C43.6957 5.13108 43.6391 5.12353 42.4277 5.12353C41.2016 5.12353 41.1611 5.12913 41.2041 5.29308ZM58.4324 5.3505C58.4324 5.3505 58.4324 5.46624 58.4466 5.49844C58.4608 5.53064 58.5523 5.54273 58.5523 5.54273C58.6091 5.55798 58.6632 5.57134 58.7141 5.58398C58.9712 5.64764 59.1519 5.69238 59.2241 5.86116C59.2728 5.97518 59.2758 6.37165 59.2764 8.49711C59.2771 10.7383 59.2767 11.013 59.2166 11.161C59.1422 11.3447 58.9998 11.4422 58.6715 11.5344C58.6715 11.5344 58.5262 11.5749 58.4871 11.611C58.4481 11.6472 58.4407 11.7279 58.4407 11.7279C58.4407 11.7279 58.4375 11.8028 58.471 11.8388C58.5045 11.8748 58.5938 11.8576 58.5938 11.8576L59.4453 11.8599L60.8572 11.8713C60.8572 11.8713 60.9149 11.8789 60.9448 11.8407C60.9747 11.8025 60.9673 11.7277 60.9673 11.7277C60.9673 11.7277 60.9673 11.6476 60.9299 11.6116C60.8928 11.5755 60.7486 11.5417 60.7486 11.5417C60.4295 11.4632 60.266 11.3609 60.1937 11.1949C60.1398 11.0715 60.134 10.7383 60.126 10.0443V9.0269C60.1616 9.04695 60.1941 9.06964 60.2282 9.09364L60.2284 9.0937L60.2287 9.09389C60.3914 9.20778 60.5952 9.35039 61.3565 9.37243C62.279 9.39911 62.8337 8.9887 63.1638 8.512C63.4938 8.03532 63.6217 7.28641 63.3797 6.48862C63.1377 5.69083 62.4273 5.20804 61.4284 5.15813C60.9079 5.1321 60.1504 5.15779 59.7272 5.17701H59.727L59.6754 5.17934L59.6086 5.18233C59.224 5.19911 58.7631 5.23587 58.5334 5.25772L58.5327 5.25778C58.4704 5.26372 58.4642 5.26432 58.4466 5.28651C58.4292 5.30878 58.4324 5.3505 58.4324 5.3505ZM62.1808 8.47569C62.5518 8.12689 62.558 7.5813 62.558 7.23274C62.5215 6.68621 62.3013 5.63517 61.0538 5.63517C60.7621 5.62019 60.1654 5.67053 60.1491 6.07509C60.1309 6.14655 60.1228 6.64646 60.1275 7.41368L60.1349 8.63819L60.2617 8.70505L60.2687 8.70868C60.3375 8.74506 60.427 8.79225 60.5833 8.82286C61.0793 8.91997 61.8096 8.82448 62.1808 8.47569ZM54.376 5.2293C54.4685 5.19428 54.5294 5.1709 54.5294 5.1709C54.5294 5.1709 54.6675 5.11414 54.712 5.1709C54.7258 5.18838 54.7759 5.31754 54.8997 5.63763L54.9023 5.64421L54.9303 5.71601L54.9818 5.84903C55.1668 6.32548 55.4324 7.00935 55.5722 7.36877C55.712 7.72819 55.9886 8.43943 56.1867 8.94931C56.3848 9.45916 56.6394 10.1133 56.752 10.4028C56.8646 10.6924 57.0087 10.9935 57.049 11.0485C57.0687 11.0753 57.0888 11.1088 57.1111 11.1454V11.1457C57.1983 11.2899 57.315 11.4835 57.5496 11.5213C57.5496 11.5213 57.7331 11.5517 57.7604 11.5805C57.7876 11.6092 57.7937 11.6615 57.7937 11.6615V11.7597C57.7937 11.7597 57.7905 11.7849 57.7755 11.8062C57.7604 11.8275 57.7048 11.8216 57.7048 11.8216L56.2891 11.8217L55.282 11.829C55.282 11.829 55.2468 11.8332 55.226 11.8161C55.2052 11.7989 55.1946 11.7556 55.1946 11.7556V11.6816C55.1946 11.6816 55.1859 11.6259 55.226 11.5776C55.2663 11.5292 55.4281 11.5235 55.4281 11.5235C55.733 11.4971 55.8539 11.2374 55.9162 11.1036L55.9167 11.1029C55.9211 11.0932 55.9254 11.0842 55.9292 11.076C55.9956 10.9378 55.9716 10.8477 55.6717 10.1088C55.4737 9.62116 55.4063 9.48419 55.3581 9.47204C55.3244 9.46351 54.7975 9.46035 54.1872 9.46502L53.0778 9.47348L53.0114 9.65584C52.8195 10.1833 52.6491 10.7074 52.6235 10.8491C52.5711 11.1373 52.6441 11.458 53.0681 11.5137C53.0681 11.5137 53.2253 11.5353 53.267 11.5669C53.309 11.5986 53.3237 11.6797 53.3237 11.6797V11.7544C53.3237 11.7544 53.3158 11.7899 53.287 11.8139C53.2581 11.8378 53.1833 11.8291 53.1833 11.8291H52.1241L51.0998 11.8407C51.0998 11.8407 51.0559 11.8397 51.0237 11.8226C50.9914 11.8054 50.9861 11.771 50.9861 11.771V11.7001C50.9861 11.7001 50.9806 11.654 51.0377 11.5976C51.0947 11.5413 51.2487 11.5262 51.2487 11.5262C51.5287 11.4811 51.6874 11.183 51.7786 11.0114C51.7854 10.9988 51.7917 10.9868 51.7979 10.9757C51.834 10.9089 51.9971 10.5191 52.1604 10.1095C52.3237 9.69994 52.507 9.24174 52.5677 9.09128C52.7741 8.57971 52.9701 8.0896 53.267 7.34359C53.43 6.93401 53.6711 6.32946 53.8031 6.00012L54.043 5.40133L54.376 5.2293ZM54.2886 6.68481C54.3402 6.81433 54.4187 7.00921 54.4634 7.11788C54.5082 7.22654 54.6333 7.53429 54.7417 7.80175C54.8499 8.06924 54.9829 8.39474 55.0372 8.52509C55.0915 8.65548 55.1361 8.76831 55.1361 8.77586C55.1361 8.78343 54.7284 8.7896 54.2299 8.7896C53.6578 8.7896 53.3237 8.77861 53.3237 8.7598C53.3237 8.74342 53.343 8.67847 53.3663 8.61543C53.4037 8.51518 53.5895 7.98305 54.0001 6.80135C54.0636 6.61888 54.1223 6.45795 54.1308 6.44371C54.1597 6.39505 54.1953 6.44927 54.2886 6.68481ZM6.11322 7.13438C6.38824 7.62075 5.77317 7.77149 5.48454 7.79923C5.04716 7.84193 4.95661 7.58872 5.04205 7.2706C5.07007 7.15672 5.13231 7.05424 5.22028 6.97709C5.30826 6.89994 5.41774 6.85185 5.53385 6.83932C5.64827 6.8288 5.76333 6.85088 5.86582 6.90308C5.9683 6.95526 6.05406 7.03545 6.11322 7.13438ZM9.89734 8.45553C8.80381 8.00976 7.6599 7.5435 7.83024 6.23479C8.19532 6.62639 8.76845 6.70852 9.39181 6.79785C9.95724 6.87888 10.564 6.96583 11.0943 7.29504C12.3457 8.07134 12.163 9.57952 11.7379 10.1346C11.7762 9.2214 10.8561 8.84635 9.89734 8.45553ZM10.3128 5.30865C10.2958 5.29278 10.2784 5.27709 10.261 5.26145C10.2499 5.2514 10.2388 5.24139 10.2278 5.23135C10.2363 5.23912 10.2448 5.24697 10.2532 5.25484C10.2732 5.27338 10.2931 5.29185 10.3128 5.30865ZM5.40851 3.95112C5.22745 3.74103 4.94647 3.63088 4.67103 3.59072C4.66072 3.65964 4.65419 3.72905 4.65147 3.79869C4.63915 4.37216 4.84189 5.00199 5.23423 5.43968C5.35975 5.58116 5.51112 5.69713 5.68013 5.78128C5.7779 5.82911 6.0372 5.94782 6.13325 5.84105C6.14056 5.83128 6.14517 5.81972 6.14659 5.80756C6.14801 5.79541 6.14619 5.7831 6.14133 5.77188C6.12542 5.72617 6.09466 5.68468 6.06414 5.64351C6.0425 5.61432 6.02093 5.58526 6.00489 5.55497C5.98864 5.5244 5.97127 5.49462 5.9539 5.46484C5.92129 5.40892 5.88873 5.35309 5.86377 5.29236C5.7979 5.13335 5.7636 4.96427 5.72941 4.79572C5.72256 4.76195 5.71571 4.72818 5.70862 4.69454C5.65633 4.4345 5.5896 4.1612 5.40851 3.95112ZM9.27754 8.52587C8.99665 9.31333 9.44972 9.97844 9.90009 10.6396C10.4039 11.3792 10.9043 12.1139 10.3704 13.0094C11.408 12.579 11.9007 11.2788 11.47 10.2471C11.1987 9.5946 10.5448 9.24087 9.93777 8.91253C9.70227 8.78515 9.47382 8.66157 9.27754 8.52587ZM6.23532 10.4067C6.04729 10.4838 5.86998 10.5849 5.70782 10.7077C6.07655 10.5734 6.4636 10.4966 6.8555 10.4801C6.92654 10.4759 6.99802 10.4726 7.07012 10.4693H7.07027C7.19487 10.4635 7.3214 10.4576 7.4506 10.4468C7.66241 10.4324 7.8713 10.3893 8.07163 10.3187C8.28155 10.2449 8.47258 10.1254 8.63102 9.96857C8.79106 9.80675 8.90334 9.60351 8.95535 9.38144C9.0011 9.17165 8.99468 8.95378 8.93662 8.74712C8.87856 8.54042 8.77068 8.3513 8.62251 8.19649C8.69402 8.37864 8.73799 8.57048 8.75301 8.7657C8.76597 8.94742 8.74136 9.12987 8.68074 9.3016C8.62158 9.46434 8.52485 9.61066 8.39851 9.7286C8.26797 9.84766 8.11685 9.94174 7.95261 10.0062C7.72435 10.0985 7.46619 10.1363 7.19733 10.1757C7.0747 10.1937 6.94976 10.2119 6.82446 10.2359C6.62293 10.273 6.42555 10.3302 6.23532 10.4067ZM9.49384 13.6575L9.47738 13.6708C9.42986 13.7092 9.38154 13.7483 9.32953 13.7833C9.26324 13.8272 9.19375 13.866 9.12167 13.8995C8.97162 13.973 8.80661 14.0106 8.63965 14.0092C8.18739 14.0007 7.86774 13.6625 7.68069 13.2803C7.63165 13.1802 7.58846 13.0769 7.54527 12.9736C7.47614 12.8083 7.40699 12.643 7.31387 12.4904C7.09751 12.1355 6.72727 11.8499 6.29369 11.9028C6.11687 11.925 5.9511 12.0049 5.85291 12.159C5.59446 12.5617 5.96554 13.1257 6.43866 13.0459C6.4789 13.0397 6.51827 13.0288 6.55596 13.0134C6.59355 12.9974 6.62861 12.9759 6.66011 12.9498C6.72619 12.8946 6.77602 12.8222 6.80421 12.7406C6.83528 12.6555 6.8422 12.5634 6.82419 12.4746C6.80478 12.3817 6.7502 12.3001 6.67201 12.247C6.76293 12.2898 6.8338 12.3663 6.86967 12.4605C6.90689 12.5574 6.91646 12.6628 6.89731 12.7649C6.87872 12.8713 6.83204 12.9707 6.76212 13.0527C6.72498 13.0949 6.68205 13.1316 6.63459 13.1616C6.58759 13.1913 6.53721 13.2152 6.48456 13.2329C6.3778 13.2696 6.26412 13.2814 6.15215 13.2675C5.99492 13.245 5.84663 13.1804 5.72283 13.0805C5.70086 13.063 5.67971 13.0448 5.65922 13.0259C5.57367 12.952 5.4961 12.8693 5.42784 12.7789C5.39789 12.7458 5.36742 12.7131 5.33561 12.6817C5.18405 12.5219 5.00525 12.3908 4.80766 12.2944C4.67141 12.2343 4.5288 12.1898 4.38259 12.162C4.30907 12.1466 4.23468 12.1355 4.16028 12.1261C4.15222 12.1253 4.1367 12.1226 4.11739 12.1192L4.11722 12.1192C4.05512 12.1084 3.95408 12.0907 3.93626 12.1073C4.16618 11.8947 4.41682 11.7059 4.68439 11.5437C4.95911 11.3799 5.25409 11.2531 5.56173 11.1666C5.88069 11.0765 6.2143 11.0508 6.54321 11.0911C6.71253 11.1115 6.87836 11.1546 7.03629 11.2192C7.20179 11.2856 7.35453 11.3803 7.48772 11.4993C7.61954 11.624 7.72606 11.7732 7.80141 11.9387C7.86946 12.0935 7.9202 12.2555 7.95274 12.4216C7.97017 12.511 7.98332 12.6092 7.99692 12.7108C8.0589 13.174 8.13047 13.7086 8.66133 13.8017C8.69508 13.8083 8.72912 13.8131 8.76336 13.8162L8.86919 13.8188C8.94196 13.8136 9.01425 13.8032 9.08555 13.7876C9.23325 13.7527 9.37717 13.7034 9.51529 13.6403L9.50739 13.6466L9.49384 13.6575ZM5.45128 12.805C5.4678 12.8241 5.48458 12.843 5.50161 12.8616C5.49417 12.8532 5.48672 12.8449 5.47928 12.8365C5.46996 12.826 5.46061 12.8155 5.45128 12.805Z" fill="#FF007A"/>
</g>
<defs>
<clipPath id="clip0_6250:3688">
<rect width="63.8485" height="14" fill="white"/>
</clipPath>
</defs>
</svg>
