<svg width="240" height="143" viewBox="0 0 240 143" fill="none" xmlns="http://www.w3.org/2000/svg">
<path fill-rule="evenodd" clip-rule="evenodd" d="M88.5371 2.28151L87.1921 0.936523L85.8471 2.28151L87.1921 3.62651L88.5371 2.28151ZM79.101 11.7177L77.7631 10.3728L79.101 9.02776L80.446 10.3728L79.101 11.7177ZM88.5371 10.3728L87.1921 9.02776L85.8471 10.3728L87.1921 11.7177L88.5371 10.3728ZM87.1921 17.1328L88.5371 18.4777L87.1921 19.8227L85.8471 18.4777L87.1921 17.1328ZM95.2761 9.00644L96.6211 10.3514L95.2902 11.7035L93.9452 10.3585L95.2761 9.00644Z" fill="#F0B90B"/>
<path fill-rule="evenodd" clip-rule="evenodd" d="M154.153 125.458L152.808 124.113L151.463 125.458L152.808 126.803L154.153 125.458ZM144.724 134.873L143.379 133.549L144.724 132.204L146.055 133.549L144.724 134.873ZM154.153 133.549L152.808 132.204L151.463 133.549L152.808 134.894L154.153 133.549ZM152.808 140.309L154.153 141.654L152.808 142.999L151.463 141.654L152.808 140.309ZM160.913 132.204L162.251 133.549L160.899 134.894L159.554 133.549L160.913 132.204Z" fill="#F0B90B"/>
<path fill-rule="evenodd" clip-rule="evenodd" d="M44.4833 110.956H0.352051V92.3016L37.3499 18.2876H58.8838L21.886 92.3016H44.4833V72.1256H63.285V92.3016H73.2914V110.956H63.285V126.273H44.4833V110.956Z" fill="white"/>
<path fill-rule="evenodd" clip-rule="evenodd" d="M87.171 49.5353V95.0282C87.171 115.655 102.487 127.211 119.923 127.183C137.513 127.183 152.829 115.655 152.829 95.0282V49.5353C152.829 28.9085 137.527 17.3804 119.923 17.3804C102.487 17.3804 87.171 28.9085 87.171 49.5353ZM133.119 49.809V94.8794C133.119 103.971 127.809 109.436 119.923 109.436C112.191 109.436 106.881 103.978 106.881 94.8794V49.809C106.881 40.7315 112.177 35.0977 119.923 35.0977C127.809 35.0977 133.119 40.7104 133.119 49.809Z" fill="white"/>
<path fill-rule="evenodd" clip-rule="evenodd" d="M210.84 110.956H166.708V92.3016L203.706 18.2876H225.24L188.242 92.3016H210.84V72.1256H229.641V92.3016H239.648V110.956H229.641V126.273H210.84V110.956Z" fill="white"/>
<path fill-rule="evenodd" clip-rule="evenodd" d="M86.8259 75.0414H87.5301V62.0703H86.8259V75.0414ZM119.923 127.422C110.979 127.422 102.755 124.422 96.769 118.972C90.2553 113.056 86.8188 104.732 86.8188 94.9014V91.0563H87.523V94.9014C87.523 110.218 97.6633 126.704 119.915 126.704C131.253 126.704 141.083 121.986 146.893 113.761C150.597 108.507 152.47 102.162 152.47 94.9014V62.1972H153.174V94.9155C153.174 102.324 151.259 108.81 147.463 114.176C141.534 122.591 131.492 127.422 119.923 127.422ZM119.923 109.676C111.789 109.676 106.543 103.824 106.543 94.7606V83.2958H107.247V94.7606C107.247 103.394 112.233 108.972 119.923 108.972C127.845 108.972 132.767 103.528 132.767 94.7606V83.2958H133.471V94.7606C133.471 103.824 128.154 109.676 119.923 109.676Z" fill="#CCCCCC"/>
<path fill-rule="evenodd" clip-rule="evenodd" d="M210.84 110.958H166.708V92.3028L203.706 18.2959H225.24L188.242 92.3028H210.84V72.1339H229.641V92.3028H239.648V110.958H229.641V126.275H210.84V110.958Z" fill="white"/>
<path fill-rule="evenodd" clip-rule="evenodd" d="M210.481 126.627H229.994V111.31H240V91.9508H229.994V71.7818H210.481V91.9508H188.806L225.811 17.9438H203.488L166.356 92.2184V111.31H210.481V126.627ZM229.289 125.923H211.185V110.606H167.061V92.3878L203.925 18.6485H224.67L187.672 92.6554H211.185V72.4864H229.289V92.6554H239.296V110.606H229.289V125.923Z" fill="#C1C1C1"/>
<path fill-rule="evenodd" clip-rule="evenodd" d="M87.0231 49.9789C87.0231 31.8002 101.759 17.0635 119.937 17.0635C138.114 17.0635 152.85 31.8002 152.85 49.9789C152.85 58.7087 149.383 67.0808 143.21 73.2537C137.038 79.4265 128.666 82.8944 119.937 82.8944C101.759 82.8944 87.0231 68.1576 87.0231 49.9789ZM145.808 49.9784C145.808 35.689 134.225 24.1052 119.937 24.1052C105.656 24.1246 94.0843 35.6971 94.0649 49.9784C94.0649 64.2678 105.648 75.8516 119.937 75.8516C134.225 75.8516 145.808 64.2678 145.808 49.9784Z" fill="white"/>
<path fill-rule="evenodd" clip-rule="evenodd" d="M93.5861 50.2182C93.5861 35.6293 105.412 23.8027 120 23.8027C134.588 23.8027 146.414 35.6293 146.414 50.2182C146.414 64.8071 134.588 76.6337 120 76.6337C105.412 76.6337 93.5861 64.8071 93.5861 50.2182ZM144.646 50.2111C144.646 36.5984 133.612 25.5632 120 25.5632C106.388 25.5632 95.3536 36.5984 95.3536 50.2111C95.3536 63.8237 106.388 74.8589 120 74.8589C133.612 74.8589 144.646 63.8237 144.646 50.2111Z" fill="#162837"/>
<path fill-rule="evenodd" clip-rule="evenodd" d="M87.1639 50.2172C87.1639 32.0813 101.865 17.3792 120 17.3792V17.3511C128.714 17.3511 137.07 20.8146 143.229 26.9791C149.387 33.1435 152.844 41.5032 152.836 50.2172C152.836 68.3531 138.135 83.0552 120 83.0552C101.865 83.0552 87.1639 68.3531 87.1639 50.2172ZM148.715 38.3196C143.903 26.707 132.57 19.137 120 19.1398C102.848 19.1631 88.9508 33.0645 88.9314 50.2173C88.9314 62.7876 96.5035 74.12 108.117 78.9297C119.73 83.7395 133.096 81.0794 141.983 72.1898C150.87 63.3003 153.527 49.9322 148.715 38.3196Z" fill="#162837"/>
<rect width="5.46447" height="1.76046" transform="matrix(0.707086 -0.707127 0.707086 0.707127 92.3085 76.6812)" fill="#162837"/>
<rect width="33.2938" height="7.57702" transform="matrix(0.707086 -0.707127 0.707086 0.707127 66.7045 98.1641)" fill="url(#paint0_linear)"/>
<rect width="1.76046" height="7.36576" transform="matrix(0.707086 -0.707127 0.707086 0.707127 63.9196 101.118)" fill="#162837"/>
<path fill-rule="evenodd" clip-rule="evenodd" d="M127.225 41.5845L128.64 43.0069L121.429 50.2178L128.64 57.4286L127.225 58.844L120.014 51.6332L112.803 58.844L111.388 57.4286L118.599 50.2178L111.388 43.0069L112.803 41.5845L120.014 48.8094L127.225 41.5845Z" fill="#212833"/>
<path fill-rule="evenodd" clip-rule="evenodd" d="M121.937 1.75342C122.514 1.77454 123.091 1.80975 123.662 1.852L123.789 0.0915439C123.719 0.0866017 123.65 0.0815631 123.581 0.0765183C123.057 0.0384354 122.528 0 122 0L121.937 1.75342ZM127.443 2.26758C126.873 2.18308 126.302 2.10562 125.732 2.04224L125.929 0.288825C126.528 0.359244 127.119 0.436704 127.704 0.528248L127.443 2.26758ZM129.485 2.60548C130.056 2.71815 130.619 2.83786 131.175 2.97166L131.577 1.25345C130.992 1.11965 130.415 0.992899 129.823 0.88023L129.485 2.60548ZM134.844 3.97867C134.295 3.80262 133.739 3.64066 133.182 3.47871L133.182 3.4787L133.661 1.78865C134.239 1.95062 134.809 2.11962 135.372 2.30271L134.844 3.97867ZM136.802 4.64745C137.344 4.85166 137.879 5.05588 138.414 5.27417L139.076 3.64751C138.527 3.42217 137.971 3.20387 137.407 2.99966L136.802 4.64745ZM141.865 6.84477C141.351 6.59126 140.837 6.33775 140.309 6.09833L141.048 4.49983C141.59 4.7463 142.125 5.00684 142.661 5.27443L141.865 6.84477ZM143.696 7.81639C144.196 8.09806 144.689 8.38678 145.182 8.68958L146.097 7.18262C145.59 6.87278 145.076 6.56998 144.555 6.28127L143.696 7.81639ZM148.35 10.8021C148.227 10.7135 148.103 10.6231 147.98 10.5327C147.632 10.278 147.285 10.0241 146.942 9.81623L147.921 8.35153C148.162 8.51084 148.399 8.67994 148.635 8.84784C148.889 9.02874 149.141 9.20824 149.393 9.37259L148.35 10.8021ZM150.738 12.648C150.94 12.8095 151.142 12.9704 151.343 13.14L152.498 11.7739C152.352 11.6563 152.207 11.5388 152.062 11.4214L152.062 11.4213C151.738 11.1591 151.416 10.8979 151.09 10.6401L150.005 12.0485C150.251 12.2598 150.495 12.4543 150.738 12.648ZM154.16 15.7102C153.752 15.3018 153.336 14.9074 152.914 14.5131L154.111 13.2244C154.547 13.6258 154.977 14.0413 155.399 14.4638L154.16 15.7102ZM155.604 17.2383C155.998 17.6608 156.378 18.0903 156.751 18.5269L158.089 17.3791C157.702 16.9284 157.301 16.4778 156.899 16.0412L155.604 17.2383ZM158.754 21.0145L158.754 21.0144C158.527 20.7146 158.298 20.4125 158.075 20.0987L159.484 19.0143C159.658 19.232 159.824 19.4529 159.99 19.6739L159.99 19.6739L159.99 19.674L159.99 19.674L159.99 19.674L159.99 19.6741L159.99 19.6741L159.99 19.6741L159.99 19.6741L159.99 19.6742L159.99 19.6742L159.99 19.6742C160.178 19.9249 160.366 20.1757 160.568 20.4226L159.124 21.5071C159.003 21.3435 158.88 21.1807 158.756 21.0173L158.754 21.0149L158.754 21.0147L158.754 21.0146L158.754 21.0145ZM160.3 23.204C160.617 23.6899 160.927 24.1687 161.237 24.6617L162.73 23.7392C162.42 23.2251 162.096 22.7252 161.765 22.2322L160.3 23.204ZM163.103 27.9785C162.843 27.4644 162.568 26.9574 162.286 26.4504L163.821 25.5913C164.117 26.1124 164.399 26.6406 164.673 27.1757L163.103 27.9785ZM164.005 29.845C164.258 30.3732 164.49 30.9013 164.709 31.4365L166.314 30.7816C166.096 30.2323 165.857 29.6831 165.61 29.1408L164.005 29.845ZM166.032 35.0139C165.856 34.4646 165.666 33.9153 165.469 33.3731L167.124 32.7675C167.328 33.3309 167.525 33.8942 167.708 34.4646L166.032 35.0139ZM166.638 36.9998C166.793 37.549 166.934 38.1124 167.068 38.6687L168.779 38.2603C168.638 37.6758 168.49 37.0984 168.328 36.528L166.638 36.9998ZM167.807 42.4014C167.723 41.831 167.617 41.2606 167.511 40.6973L169.237 40.3593C169.349 40.9437 169.455 41.5352 169.546 42.1268L167.807 42.4014ZM168.089 44.4577C168.152 45.0281 168.208 45.5985 168.258 46.1759L170.011 46.0421C169.962 45.4436 169.906 44.845 169.842 44.2535L168.089 44.4577ZM168.399 49.9716H170.159C170.159 49.7725 170.158 49.5742 170.157 49.3762L170.157 49.3741V49.374V49.3739V49.3739V49.3738V49.3738V49.3737V49.3737V49.3736V49.3735V49.3735V49.3734V49.3734V49.3733V49.3733V49.3732V49.3731V49.3731V49.373C170.156 48.9767 170.154 48.5814 170.159 48.1829L168.399 48.2463V49.9716Z" fill="#CCCCCC"/>
<path fill-rule="evenodd" clip-rule="evenodd" d="M230.796 44.6551L229.451 43.3101L228.106 44.6551L229.451 46L230.796 44.6551ZM221.36 54.0911L220.015 52.7532L221.36 51.4082L222.705 52.7532L221.36 54.0911ZM230.796 52.7532L229.451 51.4082L228.106 52.7532L229.451 54.0911L230.796 52.7532ZM229.451 59.5073L230.796 60.8523L229.451 62.1973L228.106 60.8523L229.451 59.5073ZM237.535 51.3872L238.88 52.7322L237.535 54.0913L236.19 52.7533L237.535 51.3872Z" fill="#E0E0E0"/>
<path fill-rule="evenodd" clip-rule="evenodd" d="M63.6371 126.626H44.1312V111.302H0V92.2171L12.1824 68.4989L37.1316 17.9355H59.4543L22.4564 91.9495H44.1312V71.7735H63.6371V91.9495H69.9325V92.6538H62.9329V72.4777H44.8354V92.6538H21.3156L58.3205 18.6398H37.5682L12.8091 68.8158L0.704184 92.3862V110.597H44.8354V125.921H62.9329V110.597H72.9394V105.069H73.6436V111.302H63.6371V126.626Z" fill="#CCCCCC"/>
<rect width="1.9013" height="1.9013" transform="matrix(0.707086 0.707127 -0.707086 0.707127 13.6414 113.309)" fill="#E0E0E0"/>
<rect width="1.9013" height="1.9013" transform="matrix(0.707086 0.707127 -0.707086 0.707127 21.7238 113.307)" fill="#E0E0E0"/>
<rect width="1.9013" height="1.9013" transform="matrix(0.707086 0.707127 -0.707086 0.707127 21.7246 121.412)" fill="#E0E0E0"/>
<rect width="1.9013" height="1.9013" transform="matrix(0.707086 0.707127 -0.707086 0.707127 21.7262 105.241)" fill="#E0E0E0"/>
<rect width="1.9013" height="1.9013" transform="matrix(0.707086 0.707127 -0.707086 0.707127 29.8131 113.305)" fill="#E0E0E0"/>
<defs>
<linearGradient id="paint0_linear" x1="-42.1047" y1="-0.144026" x2="-40.9897" y2="21.385" gradientUnits="userSpaceOnUse">
<stop stop-color="#F0B90B"/>
<stop offset="0.28" stop-color="#F1BC0F"/>
<stop offset="0.57" stop-color="#F4C41C"/>
<stop offset="0.86" stop-color="#F8D230"/>
<stop offset="0.99" stop-color="#FBDA3C"/>
</linearGradient>
</defs>
</svg>
