<svg width="24" height="24" viewBox="0 0 24 24" fill="none" xmlns="http://www.w3.org/2000/svg">
<path d="M0 4C0 1.79086 1.79086 0 4 0H20C22.2091 0 24 1.79086 24 4V20C24 22.2091 22.2091 24 20 24H4C1.79086 24 0 22.2091 0 20V4Z" fill="url(#paint0_linear)"/>
<rect x="3.92737" y="3.70923" width="16.5818" height="16.5818" rx="2" fill="#EABA23"/>
<g filter="url(#filter0_d)">
<circle cx="12.2952" cy="11.7564" r="4.87701" fill="#FBF7EA"/>
<circle cx="12.2952" cy="11.7564" r="4.22701" stroke="#B08501" stroke-width="1.3"/>
</g>
<rect x="9.58563" y="11.978" width="0.443364" height="1.33009" rx="0.221682" transform="rotate(-90 9.58563 11.978)" fill="#735803"/>
<rect x="13.6498" y="11.978" width="0.443364" height="1.33009" rx="0.221682" transform="rotate(-90 13.6498 11.978)" fill="#735803"/>
<rect x="10.2189" y="10.0061" width="0.443364" height="1.33009" rx="0.221682" transform="rotate(-45 10.2189 10.0061)" fill="#735803"/>
<rect x="13.0927" y="12.8796" width="0.443364" height="1.33009" rx="0.221682" transform="rotate(-45 13.0927 12.8796)" fill="#735803"/>
<rect x="14.0335" y="9.69263" width="0.443364" height="1.33009" rx="0.221682" transform="rotate(45 14.0335 9.69263)" fill="#735803"/>
<rect x="11.1595" y="12.5662" width="0.443364" height="1.33009" rx="0.221682" transform="rotate(45 11.1595 12.5662)" fill="#735803"/>
<rect x="12.0613" y="9.05908" width="0.443364" height="1.33009" rx="0.221682" fill="#735803"/>
<rect x="12.0614" y="13.1233" width="0.443364" height="1.33009" rx="0.221682" fill="#735803"/>
<circle cx="12.2951" cy="11.7563" r="1.70695" fill="#EBE1C2"/>
<circle cx="12.2952" cy="11.7562" r="0.975401" fill="#735803"/>
<circle cx="12.3223" cy="7.39424" r="0.270945" fill="#EBE1C2"/>
<circle cx="12.3223" cy="16.0644" r="0.270945" fill="#EBE1C2"/>
<circle cx="7.93299" cy="11.7293" r="0.270945" transform="rotate(-90 7.93299 11.7293)" fill="#EBE1C2"/>
<circle cx="16.6033" cy="11.7293" r="0.270945" transform="rotate(-90 16.6033 11.7293)" fill="#EBE1C2"/>
<circle cx="10.2268" cy="7.95391" r="0.270945" transform="rotate(-30 10.2268 7.95391)" fill="#EBE1C2"/>
<circle cx="14.562" cy="15.4627" r="0.270945" transform="rotate(-30 14.562 15.4627)" fill="#EBE1C2"/>
<circle cx="14.5893" cy="7.9812" r="0.270945" transform="rotate(30 14.5893 7.9812)" fill="#EBE1C2"/>
<circle cx="10.2538" cy="15.4897" r="0.270945" transform="rotate(30 10.2538 15.4897)" fill="#EBE1C2"/>
<circle cx="8.5199" cy="9.70625" r="0.270945" transform="rotate(-60 8.5199 9.70625)" fill="#EBE1C2"/>
<circle cx="16.0284" cy="14.0417" r="0.270945" transform="rotate(-60 16.0284 14.0417)" fill="#EBE1C2"/>
<circle cx="16.0976" cy="9.68799" r="0.270945" transform="rotate(60 16.0976 9.68799)" fill="#EBE1C2"/>
<circle cx="8.58888" cy="14.0229" r="0.270945" transform="rotate(60 8.58888 14.0229)" fill="#EBE1C2"/>
<path d="M2.83643 8.35511L5.98794 8.07275L6.10915 8.21393V10.6332H2.95764L2.83643 10.5113V8.35511Z" fill="#9F7800"/>
<path d="M2.83649 13.476L5.988 13.1936L6.10921 13.3348V15.754H2.9577L2.83649 15.6321V13.476Z" fill="#9F7800"/>
<rect x="2.83649" y="13.1936" width="3.15152" height="2.4385" fill="#F5D262"/>
<ellipse cx="3.80614" cy="14.4128" rx="0.242424" ry="0.24385" fill="#735803"/>
<ellipse cx="5.01836" cy="14.4128" rx="0.242424" ry="0.24385" fill="#735803"/>
<rect x="2.83643" y="8.07275" width="3.15152" height="2.4385" fill="#F5D262"/>
<ellipse cx="3.80614" cy="9.29219" rx="0.242424" ry="0.24385" fill="#735803"/>
<ellipse cx="5.01836" cy="9.29219" rx="0.242424" ry="0.24385" fill="#735803"/>
<path opacity="0.8" d="M5.71289 4.54992C5.63182 4.38779 5.74972 4.19702 5.931 4.19702H19.0413C19.2226 4.19702 19.3405 4.38779 19.2595 4.54992C19.2181 4.63254 19.1337 4.68472 19.0413 4.68472H5.931C5.83863 4.68472 5.7542 4.63254 5.71289 4.54992Z" fill="#F8D360"/>
<defs>
<filter id="filter0_d" x="6.61821" y="6.47939" width="11.754" height="11.754" filterUnits="userSpaceOnUse" color-interpolation-filters="sRGB">
<feFlood flood-opacity="0" result="BackgroundImageFix"/>
<feColorMatrix in="SourceAlpha" type="matrix" values="0 0 0 0 0 0 0 0 0 0 0 0 0 0 0 0 0 0 127 0"/>
<feOffset dx="0.2" dy="0.6"/>
<feGaussianBlur stdDeviation="0.5"/>
<feColorMatrix type="matrix" values="0 0 0 0 0.722331 0 0 0 0 0.555967 0 0 0 0 0.0420889 0 0 0 1 0"/>
<feBlend mode="normal" in2="BackgroundImageFix" result="effect1_dropShadow"/>
<feBlend mode="normal" in="SourceGraphic" in2="effect1_dropShadow" result="shape"/>
</filter>
<linearGradient id="paint0_linear" x1="5.72727" y1="22.7097" x2="5.73261" y2="23.964" gradientUnits="userSpaceOnUse">
<stop stop-color="#B38700"/>
<stop offset="1" stop-color="#9D7803"/>
</linearGradient>
</defs>
</svg>
