<svg width="144" height="144" viewBox="0 0 144 144" fill="none" xmlns="http://www.w3.org/2000/svg">
<rect width="144" height="144" rx="8" fill="#F5F5F5"/>
<path d="M46.805 67.946C46.805 72.3727 47.6769 76.7562 49.371 80.846C51.065 84.9359 53.5481 88.652 56.6783 91.7822C59.8085 94.9124 63.5246 97.3954 67.6144 99.0895C71.7042 100.784 76.0877 101.655 80.5145 101.655C84.9413 101.655 89.3247 100.784 93.4146 99.0895C97.5044 97.3954 101.22 94.9124 104.351 91.7822C107.481 88.652 109.964 84.9359 111.658 80.846C113.352 76.7562 114.224 72.3727 114.224 67.946C114.224 59.0056 110.672 50.4315 104.351 44.1097C98.029 37.788 89.4548 34.2365 80.5145 34.2365C71.5742 34.2365 63 37.788 56.6783 44.1097C50.3565 50.4315 46.805 59.0056 46.805 67.946Z" fill="#EAEAEA"/>
<path d="M80.514 102.422C61.5035 102.422 46.037 86.956 46.037 67.9455C46.037 48.935 61.504 33.47 80.514 33.47C99.524 33.47 114.991 48.9355 114.991 67.9455C114.991 86.9555 99.5245 102.422 80.514 102.422ZM80.514 35.003C62.3495 35.003 47.571 49.782 47.571 67.946C47.571 86.111 62.349 100.89 80.514 100.89C98.679 100.89 113.457 86.111 113.457 67.946C113.457 49.782 98.679 35.003 80.514 35.003Z" fill="#DDDDDD"/>
<path d="M41.9055 97.252C42.322 97.795 42.118 98.6505 41.4495 99.163L35.069 104.056C34.4005 104.569 33.5215 104.544 33.105 104.001C32.6885 103.458 32.8925 102.603 33.561 102.09L39.9415 97.197C40.6095 96.6845 41.489 96.709 41.9055 97.252ZM43.373 105.258C43.7895 105.801 43.5855 106.657 42.917 107.169L36.5365 112.063C35.868 112.575 34.989 112.551 34.5725 112.008C34.156 111.465 34.36 110.609 35.0285 110.097L41.409 105.203C42.0775 104.69 42.9565 104.715 43.373 105.258ZM34.554 93.759C34.9705 94.302 34.7665 95.1575 34.098 95.67L27.7175 100.563C27.049 101.076 26.17 101.051 25.7535 100.508C25.337 99.9655 25.541 99.11 26.2095 98.5975L32.59 93.704C34.298 92.3935 34.713 93.9665 34.554 93.759Z" fill="#DDDDDD"/>
<path d="M54.816 66.099C54.816 66.099 45.602 60.492 28.985 74.57L45.0025 81.6295L54.816 66.099Z" fill="#DDDDDD"/>
<path d="M45.2975 82.5985L27.554 74.777L28.4895 73.9845C38.006 65.9225 45.1895 64.2295 49.5395 64.2295C53.177 64.2295 55.1325 65.394 55.2145 65.444L55.8805 65.8495L45.2975 82.5985ZM30.4275 74.368L44.707 80.6615L53.6965 66.4355C52.917 66.146 51.5145 65.764 49.5395 65.764C45.5885 65.764 39.112 67.283 30.4275 74.368Z" fill="#D4D4D4"/>
<path d="M74.623 91.926C74.623 91.926 77.649 102.279 59.7435 114.677L57.079 97.3765L74.623 91.926Z" fill="#DDDDDD"/>
<path d="M59.172 116.005L56.22 96.8395L75.1405 90.963L75.359 91.712C75.4895 92.1565 78.3315 102.74 60.1795 115.307L59.172 116.005ZM57.9375 97.913L60.312 113.336C73.796 103.628 74.2445 95.4165 74.01 92.92L57.9375 97.913Z" fill="#D4D4D4"/>
<path d="M78.7485 88.7109C93.537 77.3694 101.102 62.4084 95.647 55.2944C90.191 48.1804 73.78 51.6074 58.991 62.9489C49.3595 70.3354 42.796 79.2559 40.894 86.5459L40.899 86.5474C40.8762 86.5931 40.8625 86.6426 40.8585 86.6934C40.841 86.9414 50.0255 89.8914 50.6715 99.5524C50.679 99.6639 50.7235 99.7724 50.792 99.8619C50.8795 99.9759 51.0065 100.059 51.144 100.079C51.1883 100.084 51.2332 100.081 51.2765 100.07C58.8085 100.119 69.121 96.0939 78.7485 88.7109Z" fill="#DDDDDD"/>
<path d="M51.181 100.848L51.0235 100.836C50.7025 100.79 50.392 100.602 50.181 100.325C50.0178 100.116 49.9219 99.8627 49.906 99.598C49.5575 94.398 46.5685 90.381 41.0205 87.664C40.4595 87.3895 40.054 87.191 40.0925 86.6405C40.0995 86.5405 40.1195 86.4435 40.1535 86.346C42.182 78.5795 49.049 69.606 58.524 62.3405C67.9305 55.126 78.3245 50.818 86.328 50.818C90.811 50.818 94.2435 52.205 96.255 54.8275C101.958 62.2655 94.3145 77.7385 79.215 89.3205C69.811 96.5315 59.4185 100.838 51.415 100.838H51.4145L51.181 100.848ZM41.7515 86.3145C47.7225 89.2565 50.975 93.6255 51.422 99.3035C59.0985 99.301 69.1385 95.1145 78.2815 88.102C92.71 77.0355 100.227 62.5275 95.038 55.761C93.328 53.5315 90.316 52.352 86.328 52.352C78.651 52.352 68.606 56.541 59.4575 63.5585C50.416 70.491 43.8325 78.9625 41.7515 86.3145Z" fill="#D5D5D5"/>
<path d="M71.1525 93.1615L52.529 68.619C51.5137 69.6875 50.5392 70.7939 49.6075 71.936L67.1905 95.108C68.5353 94.5095 69.8569 93.8602 71.1525 93.1615Z" fill="white"/>
<path d="M66.9475 96.0556L48.6325 71.9201L49.013 71.4521C49.9571 70.2951 50.9441 69.1738 51.972 68.0906L52.5935 67.4351L72.3055 93.4131L71.516 93.8376C70.2035 94.5449 68.8647 95.2024 67.5025 95.8086L66.9475 96.0556ZM50.585 71.9566L67.432 94.1586C68.2964 93.762 69.1509 93.3446 69.995 92.9066L52.468 69.8071C51.8226 70.5078 51.1947 71.2245 50.585 71.9566Z" fill="#D4D4D4"/>
<path d="M62.955 97.6675L46.2455 75.8795C45.5725 76.7215 44.8065 77.9155 44.2775 79.1695L59.1565 98.796C60.2195 98.654 61.967 98.099 62.955 97.6675Z" fill="white"/>
<path d="M58.815 99.614L43.3985 79.2795L43.571 78.8715C44.0655 77.698 44.8215 76.4335 45.646 75.4015L46.2575 74.635L64.1595 97.978L63.262 98.37C62.2285 98.822 60.403 99.4035 59.2575 99.556L58.815 99.614ZM45.1625 79.0675L59.4875 97.9615C60.157 97.828 60.9985 97.5795 61.725 97.3235L46.257 77.155C45.8425 77.7628 45.4766 78.4023 45.1625 79.0675Z" fill="#D4D4D4"/>
<path d="M69.3925 70.0735C69.3925 71.9181 70.1253 73.6871 71.4296 74.9915C72.7339 76.2958 74.5029 77.0285 76.3475 77.0285C78.1921 77.0285 79.9611 76.2958 81.2654 74.9915C82.5698 73.6871 83.3025 71.9181 83.3025 70.0735C83.3025 68.2289 82.5698 66.4599 81.2654 65.1556C79.9611 63.8513 78.1921 63.1185 76.3475 63.1185C74.5029 63.1185 72.7339 63.8513 71.4296 65.1556C70.1253 66.4599 69.3925 68.2289 69.3925 70.0735Z" fill="white"/>
<path d="M76.3475 77.7941C72.09 77.7941 68.6255 74.3315 68.6255 70.074C68.6255 65.8165 72.09 62.3525 76.3475 62.3525C80.605 62.3525 84.069 65.8165 84.069 70.074C84.069 74.3315 80.6055 77.7941 76.3475 77.7941ZM76.3475 63.8855C72.9355 63.8855 70.1595 66.6615 70.1595 70.074C70.1595 73.4855 72.9355 76.2615 76.3475 76.2615C79.7595 76.2615 82.535 73.4855 82.535 70.074C82.535 66.6615 79.7595 63.8855 76.3475 63.8855Z" fill="#D4D4D4"/>
<path d="M78.436 64.6064C80.344 65.5839 81.1515 67.87 80.897 70.1465C80.3425 75.1155 74.463 75.6515 73.873 75.454C74.7042 75.8804 75.6252 76.1024 76.5595 76.1015C79.8185 76.1015 82.4605 73.4595 82.4605 70.2005C82.4605 67.5979 80.7745 65.3904 78.436 64.6064Z" fill="white"/>
<path d="M111.338 38.683C111.338 39.6781 111.733 40.6325 112.437 41.3361C113.141 42.0397 114.095 42.435 115.09 42.435C116.085 42.435 117.039 42.0397 117.743 41.3361C118.447 40.6325 118.842 39.6781 118.842 38.683C118.842 37.6879 118.447 36.7336 117.743 36.03C117.039 35.3263 116.085 34.931 115.09 34.931C114.095 34.931 113.141 35.3263 112.437 36.03C111.733 36.7336 111.338 37.6879 111.338 38.683Z" fill="#EAEAEA"/>
<path d="M115.09 43.2009C112.598 43.2009 110.57 41.1739 110.57 38.6824C110.57 36.1909 112.598 34.1639 115.09 34.1639C117.583 34.1639 119.609 36.1909 119.609 38.6824C119.609 41.1739 117.582 43.2009 115.09 43.2009ZM115.09 35.6969C114.299 35.6979 113.54 36.0127 112.98 36.5724C112.421 37.1321 112.106 37.8909 112.105 38.6824C112.106 39.474 112.421 40.2328 112.98 40.7925C113.54 41.3522 114.299 41.667 115.09 41.6679C115.882 41.667 116.641 41.3522 117.2 40.7925C117.76 40.2327 118.075 39.4739 118.075 38.6824C118.075 37.891 117.76 37.1322 117.2 36.5726C116.641 36.0129 115.882 35.698 115.09 35.6969Z" fill="#DDDDDD"/>
<path d="M40.621 42.084C40.621 42.8303 40.9174 43.5461 41.4452 44.0738C41.9729 44.6015 42.6887 44.898 43.435 44.898C44.1813 44.898 44.897 44.6015 45.4248 44.0738C45.9525 43.5461 46.249 42.8303 46.249 42.084C46.249 41.3377 45.9525 40.6219 45.4248 40.0942C44.897 39.5665 44.1813 39.27 43.435 39.27C42.6887 39.27 41.9729 39.5665 41.4452 40.0942C40.9174 40.6219 40.621 41.3377 40.621 42.084Z" fill="#DDDDDD"/>
</svg>
