<svg width="216" height="123" viewBox="0 0 216 123" fill="none" xmlns="http://www.w3.org/2000/svg">
<path fill-rule="evenodd" clip-rule="evenodd" d="M208 1H8C4.13401 1 1 4.13401 1 8V115C1 118.866 4.134 122 8 122H208C211.866 122 215 118.866 215 115V8C215 4.13401 211.866 1 208 1ZM8 0C3.58172 0 0 3.58172 0 8V115C0 119.418 3.58172 123 8 123H208C212.418 123 216 119.418 216 115V8C216 3.58172 212.418 0 208 0H8Z" fill="#E6E8EA"/>
<path opacity="0.1" d="M1 8C1 4.13401 4.13401 1 8 1H208C211.866 1 215 4.13401 215 8V40H1V8Z" fill="#F0B90B"/>
<path d="M1 40H216V41H1V40Z" fill="#E6E8EA"/>
<path d="M33.4401 23.8995C33.4401 23.9695 33.4701 23.9995 33.5401 23.9995H34.1801C34.2501 23.9995 34.2801 23.9695 34.2801 23.8995V17.1195C34.2801 17.0495 34.2501 17.0195 34.1801 17.0195H33.5801C33.5301 17.0195 33.4701 17.0395 33.4201 17.0795L32.2501 17.9295C32.2001 17.9595 32.1801 18.0095 32.1801 18.0695V18.8095C32.1801 18.8995 32.2601 18.8895 32.2901 18.8695L33.4101 18.0795H33.4401V23.8995Z" fill="#1E2026"/>
<path d="M47.66 19.1204C48.8 19.1204 49.71 18.3504 49.71 17.0904V13.9304C49.71 12.6704 48.8 11.9004 47.66 11.9004C46.53 11.9004 45.62 12.6704 45.62 13.9304V17.0904C45.62 18.3504 46.53 19.1204 47.66 19.1204ZM47.66 17.9604C47.08 17.9604 46.73 17.5304 46.73 16.9104V14.1104C46.73 13.4904 47.08 13.0604 47.66 13.0604C48.25 13.0604 48.6 13.4904 48.6 14.1104V16.9104C48.6 17.5304 48.25 17.9604 47.66 17.9604Z" fill="#1E2026"/>
<path d="M52.302 16.3504L50.522 19.0004H51.882L52.982 17.2004H53.022L54.122 19.0004H55.582L53.802 16.3704L55.572 13.7804H54.212L53.142 15.5104H53.102L52.022 13.7804H50.562L52.302 16.3504Z" fill="#1E2026"/>
<path d="M57.6315 19.0004H59.1515L60.9015 13.7804H59.6815L58.9715 16.0304L58.4615 17.8904H58.3915L57.8815 16.0304L57.1515 13.7804H55.8915L57.6315 19.0004Z" fill="#1E2026"/>
<path d="M64.0856 17.9504V18.8804C64.0856 18.9504 64.1356 19.0004 64.2056 19.0004H65.1856C65.2556 19.0004 65.3056 18.9504 65.3056 18.8804V17.9504H65.8256C65.8956 17.9504 65.9456 17.9004 65.9456 17.8304V17.0404C65.9456 16.9704 65.8956 16.9204 65.8256 16.9204H65.3056V15.5104C65.3056 15.4404 65.2556 15.3904 65.1856 15.3904H64.2056C64.1356 15.3904 64.0856 15.4404 64.0856 15.5104V16.9204H62.6956L65.0756 12.1604C65.1156 12.0704 65.0756 12.0204 64.9856 12.0204H63.9756C63.9156 12.0204 63.8656 12.0504 63.8356 12.1104L61.4556 16.8504C61.4356 16.9004 61.4156 16.9504 61.4156 17.0004V17.8304C61.4156 17.9004 61.4656 17.9504 61.5356 17.9504H64.0856Z" fill="#1E2026"/>
<path d="M68.5077 18.8804V17.6404C68.5077 17.5704 68.4577 17.5204 68.3877 17.5204H67.1476C67.0776 17.5204 67.0277 17.5704 67.0277 17.6404V18.8804C67.0277 18.9504 67.0776 19.0004 67.1476 19.0004H68.3877C68.4577 19.0004 68.5077 18.9504 68.5077 18.8804Z" fill="#1E2026"/>
<path d="M71.3494 18.8804V17.6404C71.3494 17.5704 71.2994 17.5204 71.2294 17.5204H69.9894C69.9194 17.5204 69.8694 17.5704 69.8694 17.6404V18.8804C69.8694 18.9504 69.9194 19.0004 69.9894 19.0004H71.2294C71.2994 19.0004 71.3494 18.9504 71.3494 18.8804Z" fill="#1E2026"/>
<path d="M74.1912 18.8804V17.6404C74.1912 17.5704 74.1412 17.5204 74.0712 17.5204H72.8312C72.7612 17.5204 72.7112 17.5704 72.7112 17.6404V18.8804C72.7112 18.9504 72.7612 19.0004 72.8312 19.0004H74.0712C74.1412 19.0004 74.1912 18.9504 74.1912 18.8804Z" fill="#1E2026"/>
<path d="M79.7719 17.9204V19.0004H80.9119V15.2004H78.2719V16.3104H79.6419V16.7604C79.6419 17.5504 78.972 17.9504 78.152 17.9504C77.102 17.9504 76.4219 17.2904 76.4219 16.0704V14.9504C76.4219 13.7204 77.102 13.0704 78.132 13.0704C78.962 13.0704 79.452 13.5204 79.702 14.1204L80.7719 13.4904C80.2719 12.4704 79.372 11.9004 78.132 11.9004C76.272 11.9004 75.0219 13.1904 75.0219 15.5304C75.0219 17.8704 76.262 19.1204 77.902 19.1204C78.952 19.1204 79.6119 18.6004 79.7319 17.9204H79.7719Z" fill="#1E2026"/>
<path d="M84.2811 19.1204C85.4211 19.1204 86.3311 18.3504 86.3311 17.0904V13.9304C86.3311 12.6704 85.4211 11.9004 84.2811 11.9004C83.1511 11.9004 82.2411 12.6704 82.2411 13.9304V17.0904C82.2411 18.3504 83.1511 19.1204 84.2811 19.1204ZM84.2811 17.9604C83.7011 17.9604 83.3511 17.5304 83.3511 16.9104V14.1104C83.3511 13.4904 83.7011 13.0604 84.2811 13.0604C84.8711 13.0604 85.2211 13.4904 85.2211 14.1104V16.9104C85.2211 17.5304 84.8711 17.9604 84.2811 17.9604Z" fill="#1E2026"/>
<path d="M89.0931 19.0004V16.3104H90.3431L91.6431 19.0004H93.1131L91.6831 16.1604C92.5431 15.8704 92.9831 15.1404 92.9831 14.1804C92.9831 12.8604 92.1931 12.0204 90.9231 12.0204H87.7731V19.0004H89.0931ZM90.7931 15.2004H89.0931V13.1704H90.7931C91.3031 13.1704 91.6131 13.4404 91.6131 13.9504V14.4104C91.6131 14.9204 91.3031 15.2004 90.7931 15.2004Z" fill="#1E2026"/>
<path d="M96.6637 17.9504V18.8804C96.6637 18.9504 96.7137 19.0004 96.7837 19.0004H97.7637C97.8337 19.0004 97.8837 18.9504 97.8837 18.8804V17.9504H98.4037C98.4737 17.9504 98.5237 17.9004 98.5237 17.8304V17.0404C98.5237 16.9704 98.4737 16.9204 98.4037 16.9204H97.8837V15.5104C97.8837 15.4404 97.8337 15.3904 97.7637 15.3904H96.7837C96.7137 15.3904 96.6637 15.4404 96.6637 15.5104V16.9204H95.2737L97.6537 12.1604C97.6937 12.0704 97.6537 12.0204 97.5637 12.0204H96.5537C96.4937 12.0204 96.4437 12.0504 96.4137 12.1104L94.0337 16.8504C94.0137 16.9004 93.9937 16.9504 93.9937 17.0004V17.8304C93.9937 17.9004 94.0437 17.9504 94.1137 17.9504H96.6637Z" fill="#1E2026"/>
<path d="M46.952 29.9203C46.952 29.9763 46.976 30.0003 47.032 30.0003H47.544C47.6 30.0003 47.624 29.9763 47.624 29.9203V24.4963C47.624 24.4403 47.6 24.4163 47.544 24.4163H47.064C47.024 24.4163 46.976 24.4323 46.936 24.4643L46 25.1443C45.96 25.1683 45.944 25.2083 45.944 25.2563V25.8483C45.944 25.9203 46.008 25.9123 46.032 25.8963L46.928 25.2643H46.952V29.9203Z" fill="#76808F"/>
<path d="M51.5039 30.0963C52.2959 30.0963 52.7999 29.7443 53.0319 29.0323C53.1199 28.7603 53.1599 28.1523 53.1599 27.2083C53.1599 26.2643 53.1199 25.6563 53.0319 25.3843C52.7999 24.6723 52.2959 24.3203 51.5039 24.3203C50.7119 24.3203 50.2079 24.6723 49.9759 25.3843C49.8879 25.6563 49.8479 26.2643 49.8479 27.2083C49.8479 28.1523 49.8879 28.7603 49.9759 29.0323C50.2079 29.7443 50.7119 30.0963 51.5039 30.0963ZM51.5039 29.4563C51.0639 29.4563 50.7839 29.2643 50.6559 28.8963C50.5919 28.7123 50.5679 28.1523 50.5679 27.2083C50.5679 26.2643 50.5999 25.7043 50.6559 25.5203C50.7679 25.1443 51.0639 24.9603 51.5039 24.9603C51.9439 24.9603 52.2239 25.1523 52.3519 25.5203C52.4159 25.7043 52.4399 26.2643 52.4399 27.2083C52.4399 28.1523 52.4079 28.7123 52.3519 28.8963C52.2399 29.2723 51.9439 29.4563 51.5039 29.4563Z" fill="#76808F"/>
<path d="M55.8398 30.0963C56.6318 30.0963 57.1358 29.7443 57.3678 29.0323C57.4558 28.7603 57.4958 28.1523 57.4958 27.2083C57.4958 26.2643 57.4558 25.6563 57.3678 25.3843C57.1358 24.6723 56.6318 24.3203 55.8398 24.3203C55.0478 24.3203 54.5438 24.6723 54.3118 25.3843C54.2238 25.6563 54.1838 26.2643 54.1838 27.2083C54.1838 28.1523 54.2238 28.7603 54.3118 29.0323C54.5438 29.7443 55.0478 30.0963 55.8398 30.0963ZM55.8398 29.4563C55.3998 29.4563 55.1198 29.2643 54.9918 28.8963C54.9278 28.7123 54.9038 28.1523 54.9038 27.2083C54.9038 26.2643 54.9358 25.7043 54.9918 25.5203C55.1038 25.1443 55.3998 24.9603 55.8398 24.9603C56.2798 24.9603 56.5598 25.1523 56.6878 25.5203C56.7518 25.7043 56.7758 26.2643 56.7758 27.2083C56.7758 28.1523 56.7438 28.7123 56.6878 28.8963C56.5758 29.2723 56.2798 29.4563 55.8398 29.4563Z" fill="#76808F"/>
<path d="M58.6398 30.7763C58.6798 30.7763 58.7118 30.7603 58.7438 30.7203L59.2398 30.0643C59.2718 30.0243 59.2878 29.9603 59.2878 29.8883V29.1443C59.2878 29.0883 59.2638 29.0643 59.2078 29.0643H58.6478C58.5918 29.0643 58.5678 29.0883 58.5678 29.1443V30.7043C58.5678 30.7523 58.5918 30.7763 58.6398 30.7763Z" fill="#76808F"/>
<path d="M61.8035 29.9203C61.8035 29.9763 61.8275 30.0003 61.8835 30.0003H62.3955C62.4515 30.0003 62.4755 29.9763 62.4755 29.9203V24.4963C62.4755 24.4403 62.4515 24.4163 62.3955 24.4163H61.9155C61.8755 24.4163 61.8275 24.4323 61.7875 24.4643L60.8515 25.1443C60.8115 25.1683 60.7955 25.2083 60.7955 25.2563V25.8483C60.7955 25.9203 60.8595 25.9123 60.8835 25.8963L61.7795 25.2643H61.8035V29.9203Z" fill="#76808F"/>
<path d="M66.3555 30.0963C67.1475 30.0963 67.6515 29.7443 67.8835 29.0323C67.9715 28.7603 68.0115 28.1523 68.0115 27.2083C68.0115 26.2643 67.9715 25.6563 67.8835 25.3843C67.6515 24.6723 67.1475 24.3203 66.3555 24.3203C65.5635 24.3203 65.0595 24.6723 64.8275 25.3843C64.7395 25.6563 64.6995 26.2643 64.6995 27.2083C64.6995 28.1523 64.7395 28.7603 64.8275 29.0323C65.0595 29.7443 65.5635 30.0963 66.3555 30.0963ZM66.3555 29.4563C65.9155 29.4563 65.6355 29.2643 65.5075 28.8963C65.4435 28.7123 65.4195 28.1523 65.4195 27.2083C65.4195 26.2643 65.4515 25.7043 65.5075 25.5203C65.6195 25.1443 65.9155 24.9603 66.3555 24.9603C66.7955 24.9603 67.0755 25.1523 67.2035 25.5203C67.2675 25.7043 67.2915 26.2643 67.2915 27.2083C67.2915 28.1523 67.2595 28.7123 67.2035 28.8963C67.0915 29.2723 66.7955 29.4563 66.3555 29.4563Z" fill="#76808F"/>
<path d="M70.6914 30.0963C71.4834 30.0963 71.9874 29.7443 72.2194 29.0323C72.3074 28.7603 72.3474 28.1523 72.3474 27.2083C72.3474 26.2643 72.3074 25.6563 72.2194 25.3843C71.9874 24.6723 71.4834 24.3203 70.6914 24.3203C69.8994 24.3203 69.3954 24.6723 69.1634 25.3843C69.0754 25.6563 69.0354 26.2643 69.0354 27.2083C69.0354 28.1523 69.0754 28.7603 69.1634 29.0323C69.3954 29.7443 69.8994 30.0963 70.6914 30.0963ZM70.6914 29.4563C70.2514 29.4563 69.9714 29.2643 69.8434 28.8963C69.7794 28.7123 69.7554 28.1523 69.7554 27.2083C69.7554 26.2643 69.7874 25.7043 69.8434 25.5203C69.9554 25.1443 70.2514 24.9603 70.6914 24.9603C71.1314 24.9603 71.4114 25.1523 71.5394 25.5203C71.6034 25.7043 71.6274 26.2643 71.6274 27.2083C71.6274 28.1523 71.5954 28.7123 71.5394 28.8963C71.4274 29.2723 71.1314 29.4563 70.6914 29.4563Z" fill="#76808F"/>
<path d="M76.918 30.0963C77.71 30.0963 78.214 29.7443 78.446 29.0323C78.534 28.7603 78.574 28.1523 78.574 27.2083C78.574 26.2643 78.534 25.6563 78.446 25.3843C78.214 24.6723 77.71 24.3203 76.918 24.3203C76.126 24.3203 75.622 24.6723 75.39 25.3843C75.302 25.6563 75.262 26.2643 75.262 27.2083C75.262 28.1523 75.302 28.7603 75.39 29.0323C75.622 29.7443 76.126 30.0963 76.918 30.0963ZM76.918 29.4563C76.478 29.4563 76.198 29.2643 76.07 28.8963C76.006 28.7123 75.982 28.1523 75.982 27.2083C75.982 26.2643 76.014 25.7043 76.07 25.5203C76.182 25.1443 76.478 24.9603 76.918 24.9603C77.358 24.9603 77.638 25.1523 77.766 25.5203C77.83 25.7043 77.854 26.2643 77.854 27.2083C77.854 28.1523 77.822 28.7123 77.766 28.8963C77.654 29.2723 77.358 29.4563 76.918 29.4563Z" fill="#76808F"/>
<path d="M81.2539 30.0963C82.0459 30.0963 82.5499 29.7443 82.7819 29.0323C82.8699 28.7603 82.9099 28.1523 82.9099 27.2083C82.9099 26.2643 82.8699 25.6563 82.7819 25.3843C82.5499 24.6723 82.0459 24.3203 81.2539 24.3203C80.4619 24.3203 79.9579 24.6723 79.7259 25.3843C79.6379 25.6563 79.5979 26.2643 79.5979 27.2083C79.5979 28.1523 79.6379 28.7603 79.7259 29.0323C79.9579 29.7443 80.4619 30.0963 81.2539 30.0963ZM81.2539 29.4563C80.8139 29.4563 80.5339 29.2643 80.4059 28.8963C80.3419 28.7123 80.3179 28.1523 80.3179 27.2083C80.3179 26.2643 80.3499 25.7043 80.4059 25.5203C80.5179 25.1443 80.8139 24.9603 81.2539 24.9603C81.6939 24.9603 81.9739 25.1523 82.1019 25.5203C82.1659 25.7043 82.1899 26.2643 82.1899 27.2083C82.1899 28.1523 82.1579 28.7123 82.1019 28.8963C81.9899 29.2723 81.6939 29.4563 81.2539 29.4563Z" fill="#76808F"/>
<path d="M85.5898 30.0963C86.3818 30.0963 86.8858 29.7443 87.1178 29.0323C87.2058 28.7603 87.2458 28.1523 87.2458 27.2083C87.2458 26.2643 87.2058 25.6563 87.1178 25.3843C86.8858 24.6723 86.3818 24.3203 85.5898 24.3203C84.7978 24.3203 84.2938 24.6723 84.0618 25.3843C83.9738 25.6563 83.9338 26.2643 83.9338 27.2083C83.9338 28.1523 83.9738 28.7603 84.0618 29.0323C84.2938 29.7443 84.7978 30.0963 85.5898 30.0963ZM85.5898 29.4563C85.1498 29.4563 84.8698 29.2643 84.7418 28.8963C84.6778 28.7123 84.6538 28.1523 84.6538 27.2083C84.6538 26.2643 84.6858 25.7043 84.7418 25.5203C84.8538 25.1443 85.1498 24.9603 85.5898 24.9603C86.0298 24.9603 86.3098 25.1523 86.4378 25.5203C86.5018 25.7043 86.5258 26.2643 86.5258 27.2083C86.5258 28.1523 86.4938 28.7123 86.4378 28.8963C86.3258 29.2723 86.0298 29.4563 85.5898 29.4563Z" fill="#76808F"/>
<path d="M88.3178 29.9203C88.3178 29.9763 88.3418 30.0003 88.3978 30.0003H89.0058C89.0618 30.0003 89.0858 29.9763 89.0858 29.9203V29.2323C89.0858 29.1763 89.0618 29.1523 89.0058 29.1523H88.3978C88.3418 29.1523 88.3178 29.1763 88.3178 29.2323V29.9203Z" fill="#76808F"/>
<path d="M91.8164 30.0963C92.8084 30.0963 93.5364 29.4243 93.5364 28.3603C93.5364 27.3683 92.8484 26.7043 91.9444 26.7043C91.6964 26.7043 91.5044 26.7443 91.3844 26.8323L91.3604 26.8163L92.6164 24.4963C92.6404 24.4403 92.6244 24.4163 92.5604 24.4163H92.0084C91.9524 24.4163 91.9204 24.4323 91.8964 24.4723L90.4804 27.1123C90.2324 27.5683 90.1044 27.9923 90.1044 28.3843C90.1044 29.4403 90.8164 30.0963 91.8164 30.0963ZM91.8164 29.4563C91.1444 29.4563 90.8084 28.9283 90.8084 28.4003C90.8084 27.8723 91.1444 27.3443 91.8164 27.3443C92.4884 27.3443 92.8244 27.8723 92.8244 28.4003C92.8244 28.9283 92.4884 29.4563 91.8164 29.4563Z" fill="#76808F"/>
<path d="M95.4083 30.0003H95.9603C96.0163 30.0003 96.0483 29.9843 96.0723 29.9443L97.4883 27.3043C97.7363 26.8483 97.8643 26.4243 97.8643 26.0323C97.8643 24.9763 97.1523 24.3203 96.1603 24.3203C95.1603 24.3203 94.4323 24.9923 94.4323 26.0563C94.4323 27.0483 95.1203 27.7123 96.0243 27.7123C96.2723 27.7123 96.4643 27.6723 96.5843 27.5843L96.6083 27.6003L95.3523 29.9203C95.3283 29.9763 95.3443 30.0003 95.4083 30.0003ZM95.1443 26.0163C95.1443 25.3043 95.6483 24.9523 96.1523 24.9523C96.6483 24.9523 97.1523 25.3043 97.1523 26.0163C97.1523 26.7203 96.6483 27.0723 96.1443 27.0723C95.6483 27.0723 95.1443 26.7203 95.1443 26.0163Z" fill="#76808F"/>
<path d="M100.488 30.0963C101.28 30.0963 101.784 29.7443 102.016 29.0323C102.104 28.7603 102.144 28.1523 102.144 27.2083C102.144 26.2643 102.104 25.6563 102.016 25.3843C101.784 24.6723 101.28 24.3203 100.488 24.3203C99.6963 24.3203 99.1923 24.6723 98.9603 25.3843C98.8723 25.6563 98.8323 26.2643 98.8323 27.2083C98.8323 28.1523 98.8723 28.7603 98.9603 29.0323C99.1923 29.7443 99.6963 30.0963 100.488 30.0963ZM100.488 29.4563C100.048 29.4563 99.7683 29.2643 99.6403 28.8963C99.5763 28.7123 99.5523 28.1523 99.5523 27.2083C99.5523 26.2643 99.5843 25.7043 99.6403 25.5203C99.7523 25.1443 100.048 24.9603 100.488 24.9603C100.928 24.9603 101.208 25.1523 101.336 25.5203C101.4 25.7043 101.424 26.2643 101.424 27.2083C101.424 28.1523 101.392 28.7123 101.336 28.8963C101.224 29.2723 100.928 29.4563 100.488 29.4563Z" fill="#76808F"/>
<path d="M104.824 30.0963C105.616 30.0963 106.12 29.7443 106.352 29.0323C106.44 28.7603 106.48 28.1523 106.48 27.2083C106.48 26.2643 106.44 25.6563 106.352 25.3843C106.12 24.6723 105.616 24.3203 104.824 24.3203C104.032 24.3203 103.528 24.6723 103.296 25.3843C103.208 25.6563 103.168 26.2643 103.168 27.2083C103.168 28.1523 103.208 28.7603 103.296 29.0323C103.528 29.7443 104.032 30.0963 104.824 30.0963ZM104.824 29.4563C104.384 29.4563 104.104 29.2643 103.976 28.8963C103.912 28.7123 103.888 28.1523 103.888 27.2083C103.888 26.2643 103.92 25.7043 103.976 25.5203C104.088 25.1443 104.384 24.9603 104.824 24.9603C105.264 24.9603 105.544 25.1523 105.672 25.5203C105.736 25.7043 105.76 26.2643 105.76 27.2083C105.76 28.1523 105.728 28.7123 105.672 28.8963C105.56 29.2723 105.264 29.4563 104.824 29.4563Z" fill="#76808F"/>
<path d="M109.16 30.0963C109.952 30.0963 110.456 29.7443 110.688 29.0323C110.776 28.7603 110.816 28.1523 110.816 27.2083C110.816 26.2643 110.776 25.6563 110.688 25.3843C110.456 24.6723 109.952 24.3203 109.16 24.3203C108.368 24.3203 107.864 24.6723 107.632 25.3843C107.544 25.6563 107.504 26.2643 107.504 27.2083C107.504 28.1523 107.544 28.7603 107.632 29.0323C107.864 29.7443 108.368 30.0963 109.16 30.0963ZM109.16 29.4563C108.72 29.4563 108.44 29.2643 108.312 28.8963C108.248 28.7123 108.224 28.1523 108.224 27.2083C108.224 26.2643 108.256 25.7043 108.312 25.5203C108.424 25.1443 108.72 24.9603 109.16 24.9603C109.6 24.9603 109.88 25.1523 110.008 25.5203C110.072 25.7043 110.096 26.2643 110.096 27.2083C110.096 28.1523 110.064 28.7123 110.008 28.8963C109.896 29.2723 109.6 29.4563 109.16 29.4563Z" fill="#76808F"/>
<path d="M113.496 30.0963C114.288 30.0963 114.792 29.7443 115.024 29.0323C115.112 28.7603 115.152 28.1523 115.152 27.2083C115.152 26.2643 115.112 25.6563 115.024 25.3843C114.792 24.6723 114.288 24.3203 113.496 24.3203C112.704 24.3203 112.2 24.6723 111.968 25.3843C111.88 25.6563 111.84 26.2643 111.84 27.2083C111.84 28.1523 111.88 28.7603 111.968 29.0323C112.2 29.7443 112.704 30.0963 113.496 30.0963ZM113.496 29.4563C113.056 29.4563 112.776 29.2643 112.648 28.8963C112.584 28.7123 112.56 28.1523 112.56 27.2083C112.56 26.2643 112.592 25.7043 112.648 25.5203C112.76 25.1443 113.056 24.9603 113.496 24.9603C113.936 24.9603 114.216 25.1523 114.344 25.5203C114.408 25.7043 114.432 26.2643 114.432 27.2083C114.432 28.1523 114.4 28.7123 114.344 28.8963C114.232 29.2723 113.936 29.4563 113.496 29.4563Z" fill="#76808F"/>
<path d="M117.832 30.0963C118.856 30.0963 119.56 29.4323 119.56 28.4483C119.56 27.8323 119.24 27.3203 118.768 27.0723V27.0483C119.144 26.8483 119.432 26.4083 119.432 25.8643C119.432 25.0003 118.816 24.3203 117.832 24.3203C116.864 24.3203 116.232 25.0003 116.232 25.8643C116.232 26.4083 116.52 26.8483 116.896 27.0483V27.0723C116.424 27.3203 116.104 27.8323 116.104 28.4483C116.104 29.4323 116.808 30.0963 117.832 30.0963ZM116.944 25.8483C116.944 25.2643 117.392 24.9603 117.832 24.9603C118.28 24.9603 118.72 25.2563 118.72 25.8483C118.72 26.4403 118.272 26.7443 117.832 26.7443C117.384 26.7443 116.944 26.4483 116.944 25.8483ZM117.832 29.4563C117.152 29.4563 116.808 28.9363 116.808 28.4163C116.808 27.9043 117.144 27.3923 117.832 27.3923C118.52 27.3923 118.856 27.9043 118.856 28.4243C118.856 28.9363 118.512 29.4563 117.832 29.4563Z" fill="#76808F"/>
<path d="M121.2 30.0003H121.744C121.8 30.0003 121.832 29.9763 121.856 29.9283L123.776 25.0883C123.792 25.0563 123.792 25.0323 123.792 25.0083V24.4963C123.792 24.4403 123.768 24.4163 123.712 24.4163H120.728C120.672 24.4163 120.648 24.4403 120.648 24.4963V25.8003C120.648 25.8563 120.672 25.8883 120.728 25.8883H121.224C121.28 25.8883 121.304 25.8563 121.304 25.8003V25.1043C121.304 25.0723 121.32 25.0563 121.352 25.0563H123.056V25.0883L121.152 29.9123C121.128 29.9763 121.136 30.0003 121.2 30.0003Z" fill="#76808F"/>
<path d="M126.971 24.4163V30.0003H129.507C130.331 30.0003 130.947 29.3043 130.947 28.3843C130.947 27.4563 130.251 27.1123 129.851 27.0883V27.0403C130.219 26.9843 130.755 26.6883 130.755 25.8563C130.755 24.9843 130.187 24.4163 129.267 24.4163H126.971ZM127.643 26.8323V25.0083H129.187C129.715 25.0083 130.035 25.2883 130.035 25.7843V26.0563C130.035 26.5523 129.715 26.8323 129.187 26.8323H127.643ZM127.643 29.4083V27.4083H129.299C129.875 27.4083 130.227 27.7123 130.227 28.2723V28.5443C130.227 29.1043 129.875 29.4083 129.299 29.4083H127.643Z" fill="#76808F"/>
<path d="M133.549 26.5923L135.589 30.0003H136.365V24.4163H135.709V29.0643H135.685L135.013 27.8243L132.973 24.4163H132.197V30.0003H132.853V25.3523H132.877L133.549 26.5923Z" fill="#76808F"/>
<path d="M137.853 24.4163V30.0003H140.389C141.213 30.0003 141.829 29.3043 141.829 28.3843C141.829 27.4563 141.133 27.1123 140.733 27.0883V27.0403C141.101 26.9843 141.637 26.6883 141.637 25.8563C141.637 24.9843 141.069 24.4163 140.149 24.4163H137.853ZM138.525 26.8323V25.0083H140.069C140.597 25.0083 140.917 25.2883 140.917 25.7843V26.0563C140.917 26.5523 140.597 26.8323 140.069 26.8323H138.525ZM138.525 29.4083V27.4083H140.181C140.757 27.4083 141.109 27.7123 141.109 28.2723V28.5443C141.109 29.1043 140.757 29.4083 140.181 29.4083H138.525Z" fill="#76808F"/>
<path d="M195 19C195 16.7909 196.791 15 199 15H203C205.209 15 207 16.7909 207 19V23C207 25.2091 205.209 27 203 27H199C196.791 27 195 25.2091 195 23V19Z" fill="#F5F5F5"/>
<path d="M204 18V21.435H203V19.71L198.71 24L198 23.29L202.29 19H200.575V18H204Z" fill="#1E2026"/>
<path fill-rule="evenodd" clip-rule="evenodd" d="M17 26C19.7614 26 22 23.7614 22 21C22 18.2386 19.7614 16 17 16C14.2386 16 12 18.2386 12 21C12 23.7614 14.2386 26 17 26ZM17 27C20.3137 27 23 24.3137 23 21C23 17.6863 20.3137 15 17 15C13.6863 15 11 17.6863 11 21C11 24.3137 13.6863 27 17 27Z" fill="#F0B90B"/>
<path d="M20 21C20 22.6569 18.6569 24 17 24C15.3431 24 14 22.6569 14 21C14 19.3431 15.3431 18 17 18C18.6569 18 20 19.3431 20 21Z" fill="#F0B90B"/>
<path d="M0 81H215V82H0V81Z" fill="#E6E8EA"/>
<path d="M30.83 64.9996H34.58C34.65 64.9996 34.68 64.9696 34.68 64.8996V64.2996C34.68 64.2296 34.65 64.1996 34.58 64.1996H31.84V64.1796L34 61.4696C34.45 60.8996 34.68 60.3396 34.68 59.7896C34.68 58.6796 33.91 57.8896 32.71 57.8896C31.55 57.8896 30.88 58.6496 30.73 59.5396C30.72 59.5996 30.75 59.6496 30.81 59.6696L31.44 59.7996C31.5 59.8096 31.54 59.7896 31.55 59.7196C31.65 59.0296 32.05 58.6896 32.69 58.6896C33.36 58.6896 33.8 59.1396 33.8 59.7896C33.8 60.1796 33.63 60.5796 33.3 61.0096L30.78 64.2196C30.75 64.2596 30.73 64.3096 30.73 64.3596V64.8996C30.73 64.9696 30.76 64.9996 30.83 64.9996Z" fill="#1E2026"/>
<path d="M46.66 60.1204C47.8 60.1204 48.71 59.3504 48.71 58.0904V54.9304C48.71 53.6704 47.8 52.9004 46.66 52.9004C45.53 52.9004 44.62 53.6704 44.62 54.9304V58.0904C44.62 59.3504 45.53 60.1204 46.66 60.1204ZM46.66 58.9604C46.08 58.9604 45.73 58.5304 45.73 57.9104V55.1104C45.73 54.4904 46.08 54.0604 46.66 54.0604C47.25 54.0604 47.6 54.4904 47.6 55.1104V57.9104C47.6 58.5304 47.25 58.9604 46.66 58.9604Z" fill="#1E2026"/>
<path d="M51.302 57.3504L49.522 60.0004H50.882L51.982 58.2004H52.022L53.122 60.0004H54.582L52.802 57.3704L54.572 54.7804H53.212L52.142 56.5104H52.102L51.022 54.7804H49.562L51.302 57.3504Z" fill="#1E2026"/>
<path d="M56.6315 60.0004H58.1515L59.9015 54.7804H58.6815L57.9715 57.0304L57.4615 58.8904H57.3915L56.8815 57.0304L56.1515 54.7804H54.8915L56.6315 60.0004Z" fill="#1E2026"/>
<path d="M62.7056 60.1204C63.3256 60.1204 63.8156 59.9404 64.1856 59.5704C64.6056 59.1504 64.7856 58.5804 64.7856 57.7004C64.7856 56.8504 64.5856 56.2404 64.1656 55.8204C63.8656 55.5204 63.4656 55.3704 62.9956 55.3704C62.5556 55.3704 62.1956 55.5104 61.9356 55.7804V54.1204H64.5056C64.5756 54.1204 64.6256 54.0704 64.6256 54.0004V53.1404C64.6256 53.0704 64.5756 53.0204 64.5056 53.0204H60.9456C60.8756 53.0204 60.8256 53.0704 60.8256 53.1404V56.7504C60.8256 56.8204 60.8656 56.8604 60.9356 56.8704L61.9656 56.9904C62.0356 57.0004 62.0756 56.9704 62.1056 56.9004C62.2456 56.6204 62.4856 56.4704 62.8256 56.4704C63.3656 56.4704 63.6056 56.8504 63.6056 57.7004C63.6056 58.5904 63.3356 58.9704 62.7056 58.9704C62.2456 58.9704 61.9556 58.7304 61.8656 58.2604C61.8456 58.1904 61.8056 58.1504 61.7356 58.1604L60.7856 58.2304C60.7156 58.2404 60.6656 58.2804 60.6756 58.3604C60.7356 58.8904 60.9056 59.2804 61.2056 59.5804C61.5656 59.9404 62.0656 60.1204 62.7056 60.1204Z" fill="#1E2026"/>
<path d="M67.5077 59.8804V58.6404C67.5077 58.5704 67.4577 58.5204 67.3877 58.5204H66.1476C66.0776 58.5204 66.0277 58.5704 66.0277 58.6404V59.8804C66.0277 59.9504 66.0776 60.0004 66.1476 60.0004H67.3877C67.4577 60.0004 67.5077 59.9504 67.5077 59.8804Z" fill="#1E2026"/>
<path d="M70.3494 59.8804V58.6404C70.3494 58.5704 70.2994 58.5204 70.2294 58.5204H68.9894C68.9194 58.5204 68.8694 58.5704 68.8694 58.6404V59.8804C68.8694 59.9504 68.9194 60.0004 68.9894 60.0004H70.2294C70.2994 60.0004 70.3494 59.9504 70.3494 59.8804Z" fill="#1E2026"/>
<path d="M73.1912 59.8804V58.6404C73.1912 58.5704 73.1412 58.5204 73.0712 58.5204H71.8312C71.7612 58.5204 71.7112 58.5704 71.7112 58.6404V59.8804C71.7112 59.9504 71.7612 60.0004 71.8312 60.0004H73.0712C73.1412 60.0004 73.1912 59.9504 73.1912 59.8804Z" fill="#1E2026"/>
<path d="M76.943 56.8404L78.933 60.0004H80.503L77.873 55.9304L80.303 53.0204H78.783L77.053 55.1504L76.063 56.4604H76.013V53.0204H74.693V60.0004H76.013V57.9404L76.943 56.8404Z" fill="#1E2026"/>
<path d="M83.3104 60.1204C84.4504 60.1204 85.3604 59.3504 85.3604 58.0904V54.9304C85.3604 53.6704 84.4504 52.9004 83.3104 52.9004C82.1804 52.9004 81.2704 53.6704 81.2704 54.9304V58.0904C81.2704 59.3504 82.1804 60.1204 83.3104 60.1204ZM83.3104 58.9604C82.7304 58.9604 82.3804 58.5304 82.3804 57.9104V55.1104C82.3804 54.4904 82.7304 54.0604 83.3104 54.0604C83.9004 54.0604 84.2504 54.4904 84.2504 55.1104V57.9104C84.2504 58.5304 83.9004 58.9604 83.3104 58.9604Z" fill="#1E2026"/>
<path d="M88.0524 53.0204H86.7524V57.1404C86.7524 59.1904 87.4624 60.1204 89.4224 60.1204C91.3824 60.1204 92.1124 59.1904 92.1124 57.1404V53.0204H90.8124V57.3104C90.8124 58.4004 90.4324 58.9504 89.4324 58.9504C88.4324 58.9504 88.0524 58.4004 88.0524 57.3104V53.0204Z" fill="#1E2026"/>
<path d="M95.7867 55.9304C95.6467 55.9304 95.5167 55.9504 95.3967 55.9804L96.7967 53.1604C96.8367 53.0704 96.7967 53.0204 96.7067 53.0204H95.6967C95.6367 53.0204 95.5867 53.0504 95.5567 53.1104L93.9667 56.3304C93.6067 57.0704 93.4667 57.5204 93.4667 58.0104C93.4667 59.2704 94.3167 60.1204 95.5567 60.1204C96.7967 60.1204 97.6367 59.2604 97.6367 57.9704C97.6367 56.7904 96.8567 55.9304 95.7867 55.9304ZM95.5467 58.9504C95.0467 58.9504 94.7167 58.5704 94.7167 57.9904C94.7167 57.4204 95.0467 57.0404 95.5467 57.0404C96.0567 57.0404 96.3867 57.4204 96.3867 57.9904C96.3867 58.5804 96.0467 58.9504 95.5467 58.9504Z" fill="#1E2026"/>
<path d="M45.952 70.9203C45.952 70.9763 45.976 71.0003 46.032 71.0003H46.544C46.6 71.0003 46.624 70.9763 46.624 70.9203V65.4963C46.624 65.4403 46.6 65.4163 46.544 65.4163H46.064C46.024 65.4163 45.976 65.4323 45.936 65.4643L45 66.1443C44.96 66.1683 44.944 66.2083 44.944 66.2563V66.8483C44.944 66.9203 45.008 66.9123 45.032 66.8963L45.928 66.2643H45.952V70.9203Z" fill="#76808F"/>
<path d="M50.5039 71.0963C51.2959 71.0963 51.7999 70.7443 52.0319 70.0323C52.1199 69.7603 52.1599 69.1523 52.1599 68.2083C52.1599 67.2643 52.1199 66.6563 52.0319 66.3843C51.7999 65.6723 51.2959 65.3203 50.5039 65.3203C49.7119 65.3203 49.2079 65.6723 48.9759 66.3843C48.8879 66.6563 48.8479 67.2643 48.8479 68.2083C48.8479 69.1523 48.8879 69.7603 48.9759 70.0323C49.2079 70.7443 49.7119 71.0963 50.5039 71.0963ZM50.5039 70.4563C50.0639 70.4563 49.7839 70.2643 49.6559 69.8963C49.5919 69.7123 49.5679 69.1523 49.5679 68.2083C49.5679 67.2643 49.5999 66.7043 49.6559 66.5203C49.7679 66.1443 50.0639 65.9603 50.5039 65.9603C50.9439 65.9603 51.2239 66.1523 51.3519 66.5203C51.4159 66.7043 51.4399 67.2643 51.4399 68.2083C51.4399 69.1523 51.4079 69.7123 51.3519 69.8963C51.2399 70.2723 50.9439 70.4563 50.5039 70.4563Z" fill="#76808F"/>
<path d="M54.8398 71.0963C55.6318 71.0963 56.1358 70.7443 56.3678 70.0323C56.4558 69.7603 56.4958 69.1523 56.4958 68.2083C56.4958 67.2643 56.4558 66.6563 56.3678 66.3843C56.1358 65.6723 55.6318 65.3203 54.8398 65.3203C54.0478 65.3203 53.5438 65.6723 53.3118 66.3843C53.2238 66.6563 53.1838 67.2643 53.1838 68.2083C53.1838 69.1523 53.2238 69.7603 53.3118 70.0323C53.5438 70.7443 54.0478 71.0963 54.8398 71.0963ZM54.8398 70.4563C54.3998 70.4563 54.1198 70.2643 53.9918 69.8963C53.9278 69.7123 53.9038 69.1523 53.9038 68.2083C53.9038 67.2643 53.9358 66.7043 53.9918 66.5203C54.1038 66.1443 54.3998 65.9603 54.8398 65.9603C55.2798 65.9603 55.5598 66.1523 55.6878 66.5203C55.7518 66.7043 55.7758 67.2643 55.7758 68.2083C55.7758 69.1523 55.7438 69.7123 55.6878 69.8963C55.5758 70.2723 55.2798 70.4563 54.8398 70.4563Z" fill="#76808F"/>
<path d="M57.5678 70.9203C57.5678 70.9763 57.5918 71.0003 57.6478 71.0003H58.2558C58.3118 71.0003 58.3358 70.9763 58.3358 70.9203V70.2323C58.3358 70.1763 58.3118 70.1523 58.2558 70.1523H57.6478C57.5918 70.1523 57.5678 70.1763 57.5678 70.2323V70.9203Z" fill="#76808F"/>
<path d="M61.0664 71.0963C62.0584 71.0963 62.7864 70.4243 62.7864 69.3603C62.7864 68.3683 62.0984 67.7043 61.1944 67.7043C60.9464 67.7043 60.7544 67.7443 60.6344 67.8323L60.6104 67.8163L61.8664 65.4963C61.8904 65.4403 61.8744 65.4163 61.8104 65.4163H61.2584C61.2024 65.4163 61.1704 65.4323 61.1464 65.4723L59.7304 68.1123C59.4824 68.5683 59.3544 68.9923 59.3544 69.3843C59.3544 70.4403 60.0664 71.0963 61.0664 71.0963ZM61.0664 70.4563C60.3944 70.4563 60.0584 69.9283 60.0584 69.4003C60.0584 68.8723 60.3944 68.3443 61.0664 68.3443C61.7384 68.3443 62.0744 68.8723 62.0744 69.4003C62.0744 69.9283 61.7384 70.4563 61.0664 70.4563Z" fill="#76808F"/>
<path d="M64.6583 71.0003H65.2103C65.2663 71.0003 65.2983 70.9843 65.3223 70.9443L66.7383 68.3043C66.9863 67.8483 67.1143 67.4243 67.1143 67.0323C67.1143 65.9763 66.4023 65.3203 65.4103 65.3203C64.4103 65.3203 63.6823 65.9923 63.6823 67.0563C63.6823 68.0483 64.3703 68.7123 65.2743 68.7123C65.5223 68.7123 65.7143 68.6723 65.8343 68.5843L65.8583 68.6003L64.6023 70.9203C64.5783 70.9763 64.5943 71.0003 64.6583 71.0003ZM64.3943 67.0163C64.3943 66.3043 64.8983 65.9523 65.4023 65.9523C65.8983 65.9523 66.4023 66.3043 66.4023 67.0163C66.4023 67.7203 65.8983 68.0723 65.3943 68.0723C64.8983 68.0723 64.3943 67.7203 64.3943 67.0163Z" fill="#76808F"/>
<path d="M69.7383 71.0963C70.5303 71.0963 71.0343 70.7443 71.2663 70.0323C71.3543 69.7603 71.3943 69.1523 71.3943 68.2083C71.3943 67.2643 71.3543 66.6563 71.2663 66.3843C71.0343 65.6723 70.5303 65.3203 69.7383 65.3203C68.9463 65.3203 68.4423 65.6723 68.2103 66.3843C68.1223 66.6563 68.0823 67.2643 68.0823 68.2083C68.0823 69.1523 68.1223 69.7603 68.2103 70.0323C68.4423 70.7443 68.9463 71.0963 69.7383 71.0963ZM69.7383 70.4563C69.2983 70.4563 69.0183 70.2643 68.8903 69.8963C68.8263 69.7123 68.8023 69.1523 68.8023 68.2083C68.8023 67.2643 68.8343 66.7043 68.8903 66.5203C69.0023 66.1443 69.2983 65.9603 69.7383 65.9603C70.1783 65.9603 70.4583 66.1523 70.5863 66.5203C70.6503 66.7043 70.6743 67.2643 70.6743 68.2083C70.6743 69.1523 70.6423 69.7123 70.5863 69.8963C70.4743 70.2723 70.1783 70.4563 69.7383 70.4563Z" fill="#76808F"/>
<path d="M74.0742 71.0963C74.8662 71.0963 75.3702 70.7443 75.6022 70.0323C75.6902 69.7603 75.7302 69.1523 75.7302 68.2083C75.7302 67.2643 75.6902 66.6563 75.6022 66.3843C75.3702 65.6723 74.8662 65.3203 74.0742 65.3203C73.2822 65.3203 72.7782 65.6723 72.5462 66.3843C72.4582 66.6563 72.4182 67.2643 72.4182 68.2083C72.4182 69.1523 72.4582 69.7603 72.5462 70.0323C72.7782 70.7443 73.2822 71.0963 74.0742 71.0963ZM74.0742 70.4563C73.6342 70.4563 73.3542 70.2643 73.2262 69.8963C73.1622 69.7123 73.1382 69.1523 73.1382 68.2083C73.1382 67.2643 73.1702 66.7043 73.2262 66.5203C73.3382 66.1443 73.6342 65.9603 74.0742 65.9603C74.5142 65.9603 74.7942 66.1523 74.9222 66.5203C74.9862 66.7043 75.0102 67.2643 75.0102 68.2083C75.0102 69.1523 74.9782 69.7123 74.9222 69.8963C74.8102 70.2723 74.5142 70.4563 74.0742 70.4563Z" fill="#76808F"/>
<path d="M78.4102 71.0963C79.2022 71.0963 79.7062 70.7443 79.9382 70.0323C80.0262 69.7603 80.0662 69.1523 80.0662 68.2083C80.0662 67.2643 80.0262 66.6563 79.9382 66.3843C79.7062 65.6723 79.2022 65.3203 78.4102 65.3203C77.6182 65.3203 77.1142 65.6723 76.8822 66.3843C76.7942 66.6563 76.7542 67.2643 76.7542 68.2083C76.7542 69.1523 76.7942 69.7603 76.8822 70.0323C77.1142 70.7443 77.6182 71.0963 78.4102 71.0963ZM78.4102 70.4563C77.9702 70.4563 77.6902 70.2643 77.5622 69.8963C77.4982 69.7123 77.4742 69.1523 77.4742 68.2083C77.4742 67.2643 77.5062 66.7043 77.5622 66.5203C77.6742 66.1443 77.9702 65.9603 78.4102 65.9603C78.8502 65.9603 79.1302 66.1523 79.2582 66.5203C79.3222 66.7043 79.3462 67.2643 79.3462 68.2083C79.3462 69.1523 79.3142 69.7123 79.2582 69.8963C79.1462 70.2723 78.8502 70.4563 78.4102 70.4563Z" fill="#76808F"/>
<path d="M82.7461 71.0963C83.5381 71.0963 84.0421 70.7443 84.2741 70.0323C84.3621 69.7603 84.4021 69.1523 84.4021 68.2083C84.4021 67.2643 84.3621 66.6563 84.2741 66.3843C84.0421 65.6723 83.5381 65.3203 82.7461 65.3203C81.9541 65.3203 81.4501 65.6723 81.2181 66.3843C81.1301 66.6563 81.0901 67.2643 81.0901 68.2083C81.0901 69.1523 81.1301 69.7603 81.2181 70.0323C81.4501 70.7443 81.9541 71.0963 82.7461 71.0963ZM82.7461 70.4563C82.3061 70.4563 82.0261 70.2643 81.8981 69.8963C81.8341 69.7123 81.8101 69.1523 81.8101 68.2083C81.8101 67.2643 81.8421 66.7043 81.8981 66.5203C82.0101 66.1443 82.3061 65.9603 82.7461 65.9603C83.1861 65.9603 83.4661 66.1523 83.5941 66.5203C83.6581 66.7043 83.6821 67.2643 83.6821 68.2083C83.6821 69.1523 83.6501 69.7123 83.5941 69.8963C83.4821 70.2723 83.1861 70.4563 82.7461 70.4563Z" fill="#76808F"/>
<path d="M87.082 71.0963C88.106 71.0963 88.81 70.4323 88.81 69.4483C88.81 68.8323 88.49 68.3203 88.018 68.0723V68.0483C88.394 67.8483 88.682 67.4083 88.682 66.8643C88.682 66.0003 88.066 65.3203 87.082 65.3203C86.114 65.3203 85.482 66.0003 85.482 66.8643C85.482 67.4083 85.77 67.8483 86.146 68.0483V68.0723C85.674 68.3203 85.354 68.8323 85.354 69.4483C85.354 70.4323 86.058 71.0963 87.082 71.0963ZM86.194 66.8483C86.194 66.2643 86.642 65.9603 87.082 65.9603C87.53 65.9603 87.97 66.2563 87.97 66.8483C87.97 67.4403 87.522 67.7443 87.082 67.7443C86.634 67.7443 86.194 67.4483 86.194 66.8483ZM87.082 70.4563C86.402 70.4563 86.058 69.9363 86.058 69.4163C86.058 68.9043 86.394 68.3923 87.082 68.3923C87.77 68.3923 88.106 68.9043 88.106 69.4243C88.106 69.9363 87.762 70.4563 87.082 70.4563Z" fill="#76808F"/>
<path d="M90.45 71.0003H90.994C91.05 71.0003 91.082 70.9763 91.106 70.9283L93.026 66.0883C93.042 66.0563 93.042 66.0323 93.042 66.0083V65.4963C93.042 65.4403 93.018 65.4163 92.962 65.4163H89.978C89.922 65.4163 89.898 65.4403 89.898 65.4963V66.8003C89.898 66.8563 89.922 66.8883 89.978 66.8883H90.474C90.53 66.8883 90.554 66.8563 90.554 66.8003V66.1043C90.554 66.0723 90.57 66.0563 90.602 66.0563H92.306V66.0883L90.402 70.9123C90.378 70.9763 90.386 71.0003 90.45 71.0003Z" fill="#76808F"/>
<path d="M96.2205 65.4163V71.0003H98.7565C99.5805 71.0003 100.197 70.3043 100.197 69.3843C100.197 68.4563 99.5005 68.1123 99.1005 68.0883V68.0403C99.4685 67.9843 100.005 67.6883 100.005 66.8563C100.005 65.9843 99.4365 65.4163 98.5165 65.4163H96.2205ZM96.8925 67.8323V66.0083H98.4365C98.9645 66.0083 99.2845 66.2883 99.2845 66.7843V67.0563C99.2845 67.5523 98.9645 67.8323 98.4365 67.8323H96.8925ZM96.8925 70.4083V68.4083H98.5485C99.1245 68.4083 99.4765 68.7123 99.4765 69.2723V69.5443C99.4765 70.1043 99.1245 70.4083 98.5485 70.4083H96.8925Z" fill="#76808F"/>
<path d="M102.799 67.5923L104.839 71.0003H105.615V65.4163H104.959V70.0643H104.935L104.263 68.8243L102.223 65.4163H101.447V71.0003H102.103V66.3523H102.127L102.799 67.5923Z" fill="#76808F"/>
<path d="M107.103 65.4163V71.0003H109.639C110.463 71.0003 111.079 70.3043 111.079 69.3843C111.079 68.4563 110.383 68.1123 109.983 68.0883V68.0403C110.351 67.9843 110.887 67.6883 110.887 66.8563C110.887 65.9843 110.319 65.4163 109.399 65.4163H107.103ZM107.775 67.8323V66.0083H109.319C109.847 66.0083 110.167 66.2883 110.167 66.7843V67.0563C110.167 67.5523 109.847 67.8323 109.319 67.8323H107.775ZM107.775 70.4083V68.4083H109.431C110.007 68.4083 110.359 68.7123 110.359 69.2723V69.5443C110.359 70.1043 110.007 70.4083 109.431 70.4083H107.775Z" fill="#76808F"/>
<rect x="194" y="56" width="12" height="12" rx="4" fill="#F5F5F5"/>
<path d="M203 59V62.435H202V60.71L197.71 65L197 64.29L201.29 60H199.575V59H203Z" fill="#1E2026"/>
<path d="M22 61C22 64.3137 19.3137 67 16 67C12.6863 67 10 64.3137 10 61C10 57.6863 12.6863 55 16 55C19.3137 55 22 57.6863 22 61Z" fill="#F5F5F5"/>
<path fill-rule="evenodd" clip-rule="evenodd" d="M16 66C18.7614 66 21 63.7614 21 61C21 58.2386 18.7614 56 16 56C13.2386 56 11 58.2386 11 61C11 63.7614 13.2386 66 16 66ZM16 67C19.3137 67 22 64.3137 22 61C22 57.6863 19.3137 55 16 55C12.6863 55 10 57.6863 10 61C10 64.3137 12.6863 67 16 67Z" fill="#E6E8EA"/>
<path d="M32.69 106.12C33.91 106.12 34.78 105.27 34.78 104.05C34.78 103.16 34.3 102.52 33.78 102.32V102.3C34.36 101.94 34.65 101.43 34.65 100.79C34.65 99.6604 33.89 98.9004 32.67 98.9004C31.6 98.9004 30.83 99.5304 30.71 100.36C30.7 100.43 30.72 100.46 30.79 100.48L31.41 100.64C31.47 100.65 31.51 100.62 31.53 100.56C31.72 99.9904 32.05 99.7004 32.64 99.7004C33.33 99.7004 33.76 100.16 33.76 100.81C33.76 101.53 33.3 101.98 32.6 101.98H32.3C32.23 101.98 32.19 102.02 32.19 102.09V102.67C32.19 102.74 32.23 102.78 32.3 102.78H32.61C33.39 102.78 33.89 103.29 33.89 104.08C33.89 104.8 33.43 105.31 32.69 105.31C32.05 105.31 31.63 105.03 31.45 104.42C31.43 104.35 31.39 104.34 31.33 104.35L30.7 104.51C30.63 104.53 30.6 104.57 30.61 104.63C30.76 105.52 31.59 106.12 32.69 106.12Z" fill="#1E2026"/>
<path d="M46.66 101.12C47.8 101.12 48.71 100.35 48.71 99.0904V95.9304C48.71 94.6704 47.8 93.9004 46.66 93.9004C45.53 93.9004 44.62 94.6704 44.62 95.9304V99.0904C44.62 100.35 45.53 101.12 46.66 101.12ZM46.66 99.9604C46.08 99.9604 45.73 99.5304 45.73 98.9104V96.1104C45.73 95.4904 46.08 95.0604 46.66 95.0604C47.25 95.0604 47.6 95.4904 47.6 96.1104V98.9104C47.6 99.5304 47.25 99.9604 46.66 99.9604Z" fill="#1E2026"/>
<path d="M51.302 98.3504L49.522 101H50.882L51.982 99.2004H52.022L53.122 101H54.582L52.802 98.3704L54.572 95.7804H53.212L52.142 97.5104H52.102L51.022 95.7804H49.562L51.302 98.3504Z" fill="#1E2026"/>
<path d="M56.6315 101H58.1515L59.9015 95.7804H58.6815L57.9715 98.0304L57.4615 99.8904H57.3915L56.8815 98.0304L56.1515 95.7804H54.8915L56.6315 101Z" fill="#1E2026"/>
<path d="M62.7056 101.12C63.3256 101.12 63.8156 100.94 64.1856 100.57C64.6056 100.15 64.7856 99.5804 64.7856 98.7004C64.7856 97.8504 64.5856 97.2404 64.1656 96.8204C63.8656 96.5204 63.4656 96.3704 62.9956 96.3704C62.5556 96.3704 62.1956 96.5104 61.9356 96.7804V95.1204H64.5056C64.5756 95.1204 64.6256 95.0704 64.6256 95.0004V94.1404C64.6256 94.0704 64.5756 94.0204 64.5056 94.0204H60.9456C60.8756 94.0204 60.8256 94.0704 60.8256 94.1404V97.7504C60.8256 97.8204 60.8656 97.8604 60.9356 97.8704L61.9656 97.9904C62.0356 98.0004 62.0756 97.9704 62.1056 97.9004C62.2456 97.6204 62.4856 97.4704 62.8256 97.4704C63.3656 97.4704 63.6056 97.8504 63.6056 98.7004C63.6056 99.5904 63.3356 99.9704 62.7056 99.9704C62.2456 99.9704 61.9556 99.7304 61.8656 99.2604C61.8456 99.1904 61.8056 99.1504 61.7356 99.1604L60.7856 99.2304C60.7156 99.2404 60.6656 99.2804 60.6756 99.3604C60.7356 99.8904 60.9056 100.28 61.2056 100.58C61.5656 100.94 62.0656 101.12 62.7056 101.12Z" fill="#1E2026"/>
<path d="M67.5077 100.88V99.6404C67.5077 99.5704 67.4577 99.5204 67.3877 99.5204H66.1476C66.0776 99.5204 66.0277 99.5704 66.0277 99.6404V100.88C66.0277 100.95 66.0776 101 66.1476 101H67.3877C67.4577 101 67.5077 100.95 67.5077 100.88Z" fill="#1E2026"/>
<path d="M70.3494 100.88V99.6404C70.3494 99.5704 70.2994 99.5204 70.2294 99.5204H68.9894C68.9194 99.5204 68.8694 99.5704 68.8694 99.6404V100.88C68.8694 100.95 68.9194 101 68.9894 101H70.2294C70.2994 101 70.3494 100.95 70.3494 100.88Z" fill="#1E2026"/>
<path d="M73.1912 100.88V99.6404C73.1912 99.5704 73.1412 99.5204 73.0712 99.5204H71.8312C71.7612 99.5204 71.7112 99.5704 71.7112 99.6404V100.88C71.7112 100.95 71.7612 101 71.8312 101H73.0712C73.1412 101 73.1912 100.95 73.1912 100.88Z" fill="#1E2026"/>
<path d="M76.773 96.9304C76.633 96.9304 76.503 96.9504 76.383 96.9804L77.783 94.1604C77.823 94.0704 77.783 94.0204 77.693 94.0204H76.683C76.623 94.0204 76.573 94.0504 76.543 94.1104L74.953 97.3304C74.593 98.0704 74.453 98.5204 74.453 99.0104C74.453 100.27 75.303 101.12 76.543 101.12C77.783 101.12 78.623 100.26 78.623 98.9704C78.623 97.7904 77.843 96.9304 76.773 96.9304ZM76.533 99.9504C76.033 99.9504 75.703 99.5704 75.703 98.9904C75.703 98.4204 76.033 98.0404 76.533 98.0404C77.043 98.0404 77.373 98.4204 77.373 98.9904C77.373 99.5804 77.033 99.9504 76.533 99.9504Z" fill="#1E2026"/>
<path d="M84.4751 99.9204V101H85.6151V97.2004H82.9751V98.3104H84.3451V98.7604C84.3451 99.5504 83.6751 99.9504 82.8551 99.9504C81.8051 99.9504 81.1251 99.2904 81.1251 98.0704V96.9504C81.1251 95.7204 81.8051 95.0704 82.8351 95.0704C83.6651 95.0704 84.1551 95.5204 84.4051 96.1204L85.4751 95.4904C84.9751 94.4704 84.0751 93.9004 82.8351 93.9004C80.9751 93.9004 79.7251 95.1904 79.7251 97.5304C79.7251 99.8704 80.9651 101.12 82.6051 101.12C83.6551 101.12 84.3151 100.6 84.4351 99.9204H84.4751Z" fill="#1E2026"/>
<path d="M88.9842 101.12C90.1242 101.12 91.0342 100.35 91.0342 99.0904V95.9304C91.0342 94.6704 90.1242 93.9004 88.9842 93.9004C87.8542 93.9004 86.9442 94.6704 86.9442 95.9304V99.0904C86.9442 100.35 87.8542 101.12 88.9842 101.12ZM88.9842 99.9604C88.4042 99.9604 88.0542 99.5304 88.0542 98.9104V96.1104C88.0542 95.4904 88.4042 95.0604 88.9842 95.0604C89.5742 95.0604 89.9242 95.4904 89.9242 96.1104V98.9104C89.9242 99.5304 89.5742 99.9604 88.9842 99.9604Z" fill="#1E2026"/>
<path d="M93.7962 101V98.3104H95.0462L96.3462 101H97.8162L96.3862 98.1604C97.2462 97.8704 97.6862 97.1404 97.6862 96.1804C97.6862 94.8604 96.8962 94.0204 95.6262 94.0204H92.4762V101H93.7962ZM95.4962 97.2004H93.7962V95.1704H95.4962C96.0062 95.1704 96.3162 95.4404 96.3162 95.9504V96.4104C96.3162 96.9204 96.0062 97.2004 95.4962 97.2004Z" fill="#1E2026"/>
<path d="M45.952 111.92C45.952 111.976 45.976 112 46.032 112H46.544C46.6 112 46.624 111.976 46.624 111.92V106.496C46.624 106.44 46.6 106.416 46.544 106.416H46.064C46.024 106.416 45.976 106.432 45.936 106.464L45 107.144C44.96 107.168 44.944 107.208 44.944 107.256V107.848C44.944 107.92 45.008 107.912 45.032 107.896L45.928 107.264H45.952V111.92Z" fill="#76808F"/>
<path d="M50.5039 112.096C51.2959 112.096 51.7999 111.744 52.0319 111.032C52.1199 110.76 52.1599 110.152 52.1599 109.208C52.1599 108.264 52.1199 107.656 52.0319 107.384C51.7999 106.672 51.2959 106.32 50.5039 106.32C49.7119 106.32 49.2079 106.672 48.9759 107.384C48.8879 107.656 48.8479 108.264 48.8479 109.208C48.8479 110.152 48.8879 110.76 48.9759 111.032C49.2079 111.744 49.7119 112.096 50.5039 112.096ZM50.5039 111.456C50.0639 111.456 49.7839 111.264 49.6559 110.896C49.5919 110.712 49.5679 110.152 49.5679 109.208C49.5679 108.264 49.5999 107.704 49.6559 107.52C49.7679 107.144 50.0639 106.96 50.5039 106.96C50.9439 106.96 51.2239 107.152 51.3519 107.52C51.4159 107.704 51.4399 108.264 51.4399 109.208C51.4399 110.152 51.4079 110.712 51.3519 110.896C51.2399 111.272 50.9439 111.456 50.5039 111.456Z" fill="#76808F"/>
<path d="M54.8398 112.096C55.6318 112.096 56.1358 111.744 56.3678 111.032C56.4558 110.76 56.4958 110.152 56.4958 109.208C56.4958 108.264 56.4558 107.656 56.3678 107.384C56.1358 106.672 55.6318 106.32 54.8398 106.32C54.0478 106.32 53.5438 106.672 53.3118 107.384C53.2238 107.656 53.1838 108.264 53.1838 109.208C53.1838 110.152 53.2238 110.76 53.3118 111.032C53.5438 111.744 54.0478 112.096 54.8398 112.096ZM54.8398 111.456C54.3998 111.456 54.1198 111.264 53.9918 110.896C53.9278 110.712 53.9038 110.152 53.9038 109.208C53.9038 108.264 53.9358 107.704 53.9918 107.52C54.1038 107.144 54.3998 106.96 54.8398 106.96C55.2798 106.96 55.5598 107.152 55.6878 107.52C55.7518 107.704 55.7758 108.264 55.7758 109.208C55.7758 110.152 55.7438 110.712 55.6878 110.896C55.5758 111.272 55.2798 111.456 54.8398 111.456Z" fill="#76808F"/>
<path d="M57.5678 111.92C57.5678 111.976 57.5918 112 57.6478 112H58.2558C58.3118 112 58.3358 111.976 58.3358 111.92V111.232C58.3358 111.176 58.3118 111.152 58.2558 111.152H57.6478C57.5918 111.152 57.5678 111.176 57.5678 111.232V111.92Z" fill="#76808F"/>
<path d="M61.0664 112.096C62.0584 112.096 62.7864 111.424 62.7864 110.36C62.7864 109.368 62.0984 108.704 61.1944 108.704C60.9464 108.704 60.7544 108.744 60.6344 108.832L60.6104 108.816L61.8664 106.496C61.8904 106.44 61.8744 106.416 61.8104 106.416H61.2584C61.2024 106.416 61.1704 106.432 61.1464 106.472L59.7304 109.112C59.4824 109.568 59.3544 109.992 59.3544 110.384C59.3544 111.44 60.0664 112.096 61.0664 112.096ZM61.0664 111.456C60.3944 111.456 60.0584 110.928 60.0584 110.4C60.0584 109.872 60.3944 109.344 61.0664 109.344C61.7384 109.344 62.0744 109.872 62.0744 110.4C62.0744 110.928 61.7384 111.456 61.0664 111.456Z" fill="#76808F"/>
<path d="M64.6583 112H65.2103C65.2663 112 65.2983 111.984 65.3223 111.944L66.7383 109.304C66.9863 108.848 67.1143 108.424 67.1143 108.032C67.1143 106.976 66.4023 106.32 65.4103 106.32C64.4103 106.32 63.6823 106.992 63.6823 108.056C63.6823 109.048 64.3703 109.712 65.2743 109.712C65.5223 109.712 65.7143 109.672 65.8343 109.584L65.8583 109.6L64.6023 111.92C64.5783 111.976 64.5943 112 64.6583 112ZM64.3943 108.016C64.3943 107.304 64.8983 106.952 65.4023 106.952C65.8983 106.952 66.4023 107.304 66.4023 108.016C66.4023 108.72 65.8983 109.072 65.3943 109.072C64.8983 109.072 64.3943 108.72 64.3943 108.016Z" fill="#76808F"/>
<path d="M69.7383 112.096C70.5303 112.096 71.0343 111.744 71.2663 111.032C71.3543 110.76 71.3943 110.152 71.3943 109.208C71.3943 108.264 71.3543 107.656 71.2663 107.384C71.0343 106.672 70.5303 106.32 69.7383 106.32C68.9463 106.32 68.4423 106.672 68.2103 107.384C68.1223 107.656 68.0823 108.264 68.0823 109.208C68.0823 110.152 68.1223 110.76 68.2103 111.032C68.4423 111.744 68.9463 112.096 69.7383 112.096ZM69.7383 111.456C69.2983 111.456 69.0183 111.264 68.8903 110.896C68.8263 110.712 68.8023 110.152 68.8023 109.208C68.8023 108.264 68.8343 107.704 68.8903 107.52C69.0023 107.144 69.2983 106.96 69.7383 106.96C70.1783 106.96 70.4583 107.152 70.5863 107.52C70.6503 107.704 70.6743 108.264 70.6743 109.208C70.6743 110.152 70.6423 110.712 70.5863 110.896C70.4743 111.272 70.1783 111.456 69.7383 111.456Z" fill="#76808F"/>
<path d="M74.0742 112.096C74.8662 112.096 75.3702 111.744 75.6022 111.032C75.6902 110.76 75.7302 110.152 75.7302 109.208C75.7302 108.264 75.6902 107.656 75.6022 107.384C75.3702 106.672 74.8662 106.32 74.0742 106.32C73.2822 106.32 72.7782 106.672 72.5462 107.384C72.4582 107.656 72.4182 108.264 72.4182 109.208C72.4182 110.152 72.4582 110.76 72.5462 111.032C72.7782 111.744 73.2822 112.096 74.0742 112.096ZM74.0742 111.456C73.6342 111.456 73.3542 111.264 73.2262 110.896C73.1622 110.712 73.1382 110.152 73.1382 109.208C73.1382 108.264 73.1702 107.704 73.2262 107.52C73.3382 107.144 73.6342 106.96 74.0742 106.96C74.5142 106.96 74.7942 107.152 74.9222 107.52C74.9862 107.704 75.0102 108.264 75.0102 109.208C75.0102 110.152 74.9782 110.712 74.9222 110.896C74.8102 111.272 74.5142 111.456 74.0742 111.456Z" fill="#76808F"/>
<path d="M78.4102 112.096C79.2022 112.096 79.7062 111.744 79.9382 111.032C80.0262 110.76 80.0662 110.152 80.0662 109.208C80.0662 108.264 80.0262 107.656 79.9382 107.384C79.7062 106.672 79.2022 106.32 78.4102 106.32C77.6182 106.32 77.1142 106.672 76.8822 107.384C76.7942 107.656 76.7542 108.264 76.7542 109.208C76.7542 110.152 76.7942 110.76 76.8822 111.032C77.1142 111.744 77.6182 112.096 78.4102 112.096ZM78.4102 111.456C77.9702 111.456 77.6902 111.264 77.5622 110.896C77.4982 110.712 77.4742 110.152 77.4742 109.208C77.4742 108.264 77.5062 107.704 77.5622 107.52C77.6742 107.144 77.9702 106.96 78.4102 106.96C78.8502 106.96 79.1302 107.152 79.2582 107.52C79.3222 107.704 79.3462 108.264 79.3462 109.208C79.3462 110.152 79.3142 110.712 79.2582 110.896C79.1462 111.272 78.8502 111.456 78.4102 111.456Z" fill="#76808F"/>
<path d="M82.7461 112.096C83.5381 112.096 84.0421 111.744 84.2741 111.032C84.3621 110.76 84.4021 110.152 84.4021 109.208C84.4021 108.264 84.3621 107.656 84.2741 107.384C84.0421 106.672 83.5381 106.32 82.7461 106.32C81.9541 106.32 81.4501 106.672 81.2181 107.384C81.1301 107.656 81.0901 108.264 81.0901 109.208C81.0901 110.152 81.1301 110.76 81.2181 111.032C81.4501 111.744 81.9541 112.096 82.7461 112.096ZM82.7461 111.456C82.3061 111.456 82.0261 111.264 81.8981 110.896C81.8341 110.712 81.8101 110.152 81.8101 109.208C81.8101 108.264 81.8421 107.704 81.8981 107.52C82.0101 107.144 82.3061 106.96 82.7461 106.96C83.1861 106.96 83.4661 107.152 83.5941 107.52C83.6581 107.704 83.6821 108.264 83.6821 109.208C83.6821 110.152 83.6501 110.712 83.5941 110.896C83.4821 111.272 83.1861 111.456 82.7461 111.456Z" fill="#76808F"/>
<path d="M87.082 112.096C88.106 112.096 88.81 111.432 88.81 110.448C88.81 109.832 88.49 109.32 88.018 109.072V109.048C88.394 108.848 88.682 108.408 88.682 107.864C88.682 107 88.066 106.32 87.082 106.32C86.114 106.32 85.482 107 85.482 107.864C85.482 108.408 85.77 108.848 86.146 109.048V109.072C85.674 109.32 85.354 109.832 85.354 110.448C85.354 111.432 86.058 112.096 87.082 112.096ZM86.194 107.848C86.194 107.264 86.642 106.96 87.082 106.96C87.53 106.96 87.97 107.256 87.97 107.848C87.97 108.44 87.522 108.744 87.082 108.744C86.634 108.744 86.194 108.448 86.194 107.848ZM87.082 111.456C86.402 111.456 86.058 110.936 86.058 110.416C86.058 109.904 86.394 109.392 87.082 109.392C87.77 109.392 88.106 109.904 88.106 110.424C88.106 110.936 87.762 111.456 87.082 111.456Z" fill="#76808F"/>
<path d="M90.45 112H90.994C91.05 112 91.082 111.976 91.106 111.928L93.026 107.088C93.042 107.056 93.042 107.032 93.042 107.008V106.496C93.042 106.44 93.018 106.416 92.962 106.416H89.978C89.922 106.416 89.898 106.44 89.898 106.496V107.8C89.898 107.856 89.922 107.888 89.978 107.888H90.474C90.53 107.888 90.554 107.856 90.554 107.8V107.104C90.554 107.072 90.57 107.056 90.602 107.056H92.306V107.088L90.402 111.912C90.378 111.976 90.386 112 90.45 112Z" fill="#76808F"/>
<path d="M96.2205 106.416V112H98.7565C99.5805 112 100.197 111.304 100.197 110.384C100.197 109.456 99.5005 109.112 99.1005 109.088V109.04C99.4685 108.984 100.005 108.688 100.005 107.856C100.005 106.984 99.4365 106.416 98.5165 106.416H96.2205ZM96.8925 108.832V107.008H98.4365C98.9645 107.008 99.2845 107.288 99.2845 107.784V108.056C99.2845 108.552 98.9645 108.832 98.4365 108.832H96.8925ZM96.8925 111.408V109.408H98.5485C99.1245 109.408 99.4765 109.712 99.4765 110.272V110.544C99.4765 111.104 99.1245 111.408 98.5485 111.408H96.8925Z" fill="#76808F"/>
<path d="M102.799 108.592L104.839 112H105.615V106.416H104.959V111.064H104.935L104.263 109.824L102.223 106.416H101.447V112H102.103V107.352H102.127L102.799 108.592Z" fill="#76808F"/>
<path d="M107.103 106.416V112H109.639C110.463 112 111.079 111.304 111.079 110.384C111.079 109.456 110.383 109.112 109.983 109.088V109.04C110.351 108.984 110.887 108.688 110.887 107.856C110.887 106.984 110.319 106.416 109.399 106.416H107.103ZM107.775 108.832V107.008H109.319C109.847 107.008 110.167 107.288 110.167 107.784V108.056C110.167 108.552 109.847 108.832 109.319 108.832H107.775ZM107.775 111.408V109.408H109.431C110.007 109.408 110.359 109.712 110.359 110.272V110.544C110.359 111.104 110.007 111.408 109.431 111.408H107.775Z" fill="#76808F"/>
<rect x="194" y="97" width="12" height="12" rx="4" fill="#F5F5F5"/>
<path d="M203 100V103.435H202V101.71L197.71 106L197 105.29L201.29 101H199.575V100H203Z" fill="#1E2026"/>
<path d="M22 102C22 105.314 19.3137 108 16 108C12.6863 108 10 105.314 10 102C10 98.6863 12.6863 96 16 96C19.3137 96 22 98.6863 22 102Z" fill="#F5F5F5"/>
<path fill-rule="evenodd" clip-rule="evenodd" d="M16 107C18.7614 107 21 104.761 21 102C21 99.2386 18.7614 97 16 97C13.2386 97 11 99.2386 11 102C11 104.761 13.2386 107 16 107ZM16 108C19.3137 108 22 105.314 22 102C22 98.6863 19.3137 96 16 96C12.6863 96 10 98.6863 10 102C10 105.314 12.6863 108 16 108Z" fill="#E6E8EA"/>
</svg>
