<svg width="216" height="80" viewBox="0 0 216 80" fill="none" xmlns="http://www.w3.org/2000/svg">
<path fill-rule="evenodd" clip-rule="evenodd" d="M75.5 0H74.5V34.0309C72.5268 34.277 71 35.9602 71 38C71 40.2091 72.7909 42 75 42C77.2091 42 79 40.2091 79 38C79 35.9602 77.4732 34.277 75.5 34.0309V0ZM74.5 35.0415V37H75.5V35.0415C76.9189 35.2795 78 36.5135 78 38C78 39.6569 76.6569 41 75 41C73.3431 41 72 39.6569 72 38C72 36.5135 73.0811 35.2795 74.5 35.0415Z" fill="#76808F"/>
<path fill-rule="evenodd" clip-rule="evenodd" d="M75 37C73.8954 37 73 37.8954 73 39H71C70.4477 39 70 39.4477 70 40H64C63.4477 40 63 40.4477 63 41V46H52C50.1362 46 48.5701 47.2748 48.126 49H47.5H42C40.8954 49 40 49.8954 40 51H11V52.5H40V54H11V55.5H40V55C40 56.1046 40.8954 57 42 57H47.5H48.126C48.5701 58.7252 50.1362 60 52 60H63V65C63 65.5523 63.4477 66 64 66H132H200.5H201H202V65V64.5V41.5V41V40H201H200.5H132H112C112 39.4477 111.552 39 111 39H103C102.448 39 102 39.4477 102 40H80C80 39.4477 79.5523 39 79 39H77C77 37.8954 76.1046 37 75 37ZM132 64.5H200.5V41.5H132C125.649 41.5 120.5 46.6487 120.5 53C120.5 59.3513 125.649 64.5 132 64.5ZM125.932 41.5C121.809 43.6798 119 48.0118 119 53C119 57.9882 121.809 62.3202 125.932 64.5H64.5V60V58.5V47.5V46V41.5H125.932ZM63 47.5V58.5H52C50.6193 58.5 49.5 57.3807 49.5 56V50C49.5 48.6193 50.6193 47.5 52 47.5H63ZM42 50.5H47.5V55.5H42C41.7239 55.5 41.5 55.2761 41.5 55V51C41.5 50.7239 41.7239 50.5 42 50.5ZM133 59.5C136.59 59.5 139.5 56.5899 139.5 53C139.5 49.4101 136.59 46.5 133 46.5C129.41 46.5 126.5 49.4101 126.5 53C126.5 56.5899 129.41 59.5 133 59.5ZM133 61C137.418 61 141 57.4183 141 53C141 48.5817 137.418 45 133 45C128.582 45 125 48.5817 125 53C125 57.4183 128.582 61 133 61Z" fill="#76808F"/>
<rect x="73.5" y="47.5" width="35" height="11" rx="0.5" stroke="#76808F"/>
</svg>
