<svg width="64" height="64" viewBox="0 0 64 64" fill="none" xmlns="http://www.w3.org/2000/svg">
<path fill-rule="evenodd" clip-rule="evenodd" d="M4.6037 16.0014L32 0.181824L59.5568 16.0909V47.9091L59.3963 47.9986L32 63.8182L4.44319 47.9126V16.0945L4.6037 16.0014ZM32 60.9773L57.0923 46.4886V17.5114L32 3.02273L6.90768 17.5114V46.4886L32 60.9773ZM12.331 18.1548L17.9766 37.5376V14.8999L20.4375 13.4759V50.517L18.9354 49.6513L12.853 28.7656V46.1456L10.3921 44.7216V19.2784L12.331 18.1548ZM26.7266 54.152L24.2656 52.728V12.0163L32.0142 7.30824L42.1818 13.7976L40.858 15.8729L31.9858 10.206L26.7266 13.4041V30.7692H39.9993V33.2308H26.7266V54.152ZM47.0824 48.4922V19.6932L41.924 16.4808L43.2259 14.3913L53.8225 20.9815V23.8793L49.544 21.2244V47.0682L47.0824 48.4922Z" fill="#76808F"/>
</svg>
