<svg width="20" height="20" viewBox="0 0 20 20" fill="none" xmlns="http://www.w3.org/2000/svg">
<path d="M20 17C20 18.66 18.66 20 17 20H3C1.34 20 0 18.66 0 17V3C0 1.34 1.34 0 3 0H17C18.66 0 20 1.34 20 3V17Z" fill="#2DC100"/>
<path d="M12.8304 7.7576C11.4807 7.8301 10.304 8.23723 9.35029 9.16302C8.38546 10.1 7.94487 11.2433 8.06756 12.6598C7.53774 12.5929 7.05812 12.5204 6.57291 12.4814C6.4056 12.4646 6.2104 12.4869 6.0654 12.565C5.59693 12.8327 5.14519 13.1283 4.60979 13.4629C4.71018 13.0223 4.77152 12.6319 4.88306 12.2583C4.96672 11.985 4.92768 11.8344 4.67671 11.656C3.06494 10.5127 2.37897 8.80051 2.89205 7.03816C3.3661 5.40966 4.52613 4.41694 6.10444 3.90385C8.25718 3.20114 10.6832 3.92058 11.9882 5.62716C12.4623 6.24064 12.7523 6.93777 12.8304 7.7576ZM6.61753 7.20547C6.62868 6.882 6.34983 6.592 6.02078 6.58084C5.68058 6.56969 5.40173 6.83181 5.39058 7.16643C5.37942 7.50663 5.64154 7.77991 5.98174 7.78549C6.31637 7.79664 6.6008 7.54009 6.61753 7.20547ZM9.8578 6.58642C9.52318 6.59199 9.24432 6.87642 9.2499 7.19989C9.25548 7.53452 9.53433 7.79664 9.87453 7.79664C10.2203 7.79106 10.4769 7.52894 10.4769 7.18316C10.4713 6.84296 10.198 6.57526 9.8578 6.58642Z" fill="white"/>
<path d="M15.864 16.1734C15.4346 15.9838 15.0442 15.6993 14.6259 15.6547C14.2076 15.6101 13.7726 15.8499 13.3376 15.8945C12.0102 16.0284 10.8223 15.6603 9.84634 14.7568C7.9836 13.0335 8.2513 10.39 10.404 8.97898C12.317 7.72414 15.1278 8.14242 16.4775 9.88246C17.6542 11.3994 17.5148 13.4183 16.0815 14.6955C15.6632 15.0635 15.5126 15.3703 15.7803 15.8555C15.8305 15.9503 15.8361 16.0618 15.864 16.1734ZM10.9952 11.4608C11.2685 11.4608 11.4916 11.2488 11.5027 10.9811C11.5139 10.6967 11.2852 10.4569 11.0008 10.4569C10.7164 10.4569 10.4821 10.6967 10.4933 10.9756C10.4989 11.2433 10.7275 11.4608 10.9952 11.4608ZM14.1351 10.4569C13.873 10.4569 13.6443 10.6688 13.6332 10.9365C13.622 11.221 13.8451 11.4552 14.1239 11.4552C14.3972 11.4552 14.6147 11.2488 14.6203 10.9756C14.637 10.6967 14.414 10.4569 14.1351 10.4569Z" fill="white"/>
</svg>
