<svg width="55" height="8" viewBox="0 0 55 8" fill="none" xmlns="http://www.w3.org/2000/svg">
<path fill-rule="evenodd" clip-rule="evenodd" d="M6.4555 4.80917C6.58098 4.87961 6.74606 4.86868 6.88624 4.78049C7.1017 4.64507 7.21541 4.36722 7.19855 4.01776C7.19844 4.01598 7.19858 4.01434 7.19872 4.01267C7.19883 4.01141 7.19894 4.01013 7.19894 4.00878C7.19886 4.00754 7.19867 4.00634 7.19848 4.00513C7.19822 4.00347 7.19796 4.0018 7.19796 4C7.19796 2.19532 5.745 0.72722 3.95894 0.72722C2.17288 0.72722 0.719718 2.19532 0.719718 4C0.719041 4.53595 0.849874 5.06396 1.10085 5.53815L2.97553 2.54224C3.20177 2.19766 3.43469 2.17951 3.59035 2.22478C3.82562 2.29327 3.94953 2.52039 3.95894 2.9001V4.55044L4.7957 3.2002L4.79589 3.19989C4.93013 2.98268 5.28684 2.40553 5.76108 2.54302C6.04104 2.624 6.20847 2.9239 6.20847 3.34537V4.21815C6.20847 4.50985 6.29611 4.71961 6.4555 4.80917ZM7.91768 3.99102V4.0002C7.94238 4.61327 7.70575 5.12195 7.26658 5.39805C6.90427 5.62556 6.45962 5.64351 6.10594 5.44488C5.71363 5.22459 5.48856 4.77737 5.48856 4.21815V3.45951C5.46346 3.49561 5.43602 3.53737 5.40622 3.58576L4.47633 5.08605C4.16244 5.59337 3.86346 5.632 3.6678 5.57541C3.47233 5.51883 3.23922 5.32546 3.23922 4.72722V3.48176L1.54864 6.18341C2.1421 6.85151 3.00258 7.27278 3.95894 7.27278C4.77813 7.27293 5.56621 6.96058 6.16103 6.4C6.19548 6.3676 6.23608 6.34237 6.28045 6.32578C6.32482 6.30919 6.37207 6.30158 6.41943 6.3034C6.46679 6.30522 6.51332 6.31642 6.55627 6.33636C6.59923 6.3563 6.63776 6.38457 6.6696 6.41951C6.80487 6.56664 6.79625 6.79668 6.65038 6.93327C5.91655 7.62107 4.96058 8 3.95894 8C1.77606 8 0 6.20546 0 4C0 1.79434 1.77606 0 3.95874 0C6.13574 0 7.90749 1.7842 7.91749 3.98205L7.91768 3.99102ZM13.0086 2.76805C13.0086 2.6239 12.9056 2.4639 12.7868 2.39195C12.4224 2.1439 11.9712 2 11.496 2C10.2288 2 9.19922 3.04 9.19922 4.32C9.19922 5.6 10.229 6.64 11.496 6.64C12.0503 6.64 12.5888 6.4161 12.9848 6.08C13.0956 6.00805 13.1828 5.88 13.1828 5.7361C13.1828 5.51195 13.0086 5.3361 12.7868 5.3361C12.6986 5.33693 12.6128 5.36487 12.5412 5.4161C12.264 5.67195 11.8996 5.84 11.4879 5.84C10.6645 5.84 10.0942 5.1761 10.0942 4.3439C10.0942 3.51195 10.6645 2.84 11.4879 2.84C11.8364 2.84 12.169 2.96805 12.4305 3.16C12.478 3.1761 12.5334 3.19195 12.5888 3.19195C12.8106 3.19195 13.0086 3 13.0086 2.76805ZM16.6954 4.9839C16.6954 4.08805 15.9668 3.36 15.1037 3.36C14.2008 3.36 13.4485 4.08805 13.4485 4.9839C13.4485 5.88 14.2008 6.64 15.1037 6.64C15.9668 6.64 16.6954 5.88 16.6954 4.9839ZM15.8004 4.99195C15.8004 5.48 15.4759 5.84 15.0956 5.84C14.6839 5.84 14.3432 5.48 14.3432 4.99195C14.3432 4.4961 14.6839 4.2 15.0956 4.2C15.4759 4.2 15.8004 4.50415 15.8004 4.99195ZM17.2382 3.8561V6.1439C17.2382 6.39195 17.4362 6.6 17.6818 6.6C17.9273 6.6 18.1332 6.39195 18.1332 6.1439V3.8561C18.1332 3.60805 17.9273 3.4 17.6818 3.4C17.4362 3.4 17.2382 3.60805 17.2382 3.8561ZM17.6818 2C17.3965 2 17.1671 2.24 17.1671 2.5361C17.1671 2.8239 17.3965 3.0561 17.6818 3.0561C17.9746 3.0561 18.2124 2.8239 18.2124 2.5361C18.2124 2.24 17.9746 2 17.6818 2ZM19.8482 6.1439V4.9039C19.8482 4.51195 20.0143 4.1839 20.4104 4.1839C20.9726 4.1839 21.0201 4.51195 21.0201 4.9039V6.1439C21.0201 6.39195 21.2181 6.6 21.4637 6.6C21.7092 6.6 21.9151 6.39195 21.9151 6.1439V4.79195C21.9151 4.03195 21.5191 3.36 20.6241 3.36C20.3231 3.36 20.0065 3.4161 19.6423 3.75195C19.6423 3.56 19.4916 3.4 19.3017 3.4C19.1115 3.4 18.953 3.56 18.953 3.75195V6.1439C18.953 6.39195 19.1512 6.6 19.3965 6.6C19.6423 6.6 19.8482 6.39195 19.8482 6.1439ZM24.5962 5.2639C24.6518 5.32805 24.7229 5.3761 24.8258 5.3761C24.9128 5.3761 24.9841 5.32805 25.0397 5.2639L26.0849 4.1361V6.1439C26.0849 6.39195 26.2908 6.6 26.5364 6.6C26.7819 6.6 26.9799 6.39195 26.9799 6.1439V2.16829C26.9562 2.10415 26.8927 2.0561 26.8135 2.0561C26.7346 2.0561 26.6715 2.11986 26.624 2.16786L26.6236 2.16829L24.9603 4.03244C24.9128 4.08829 24.8496 4.12024 24.8179 4.12024C24.7861 4.12024 24.7229 4.08829 24.6753 4.0322L23.0123 2.16829L23.0113 2.16727C22.9636 2.11933 22.9007 2.0561 22.8223 2.0561C22.7863 2.05546 22.751 2.0659 22.7212 2.08597C22.6914 2.10605 22.6685 2.1348 22.6557 2.16829V6.1439C22.6557 6.39195 22.8537 6.6 23.0993 6.6C23.3448 6.6 23.5507 6.39195 23.5507 6.1439V4.1361L24.5962 5.2639ZM29.8747 4.99195C29.8747 5.48 29.5343 5.84 29.1304 5.84C28.7344 5.84 28.4175 5.4639 28.4175 4.99195C28.4175 4.51195 28.7344 4.1839 29.1304 4.1839C29.5264 4.1839 29.8747 4.50415 29.8747 4.99195ZM30.0646 6.1439L30.0808 6.24805C30.0808 6.44 30.231 6.6 30.4209 6.6C30.6111 6.6 30.7694 6.44 30.7694 6.24805V3.75195C30.7694 3.56 30.6111 3.4 30.4212 3.4C30.231 3.4 30.0805 3.56 30.0805 3.75195L30.0646 3.8561C29.6767 3.4 29.1777 3.36 29.0272 3.36C28.156 3.36 27.5225 4.08805 27.5225 4.9839C27.5225 5.88 28.1401 6.64 28.9797 6.64C29.336 6.64 29.8906 6.4878 30.0646 6.1439ZM33.1579 4.1839H33.2527C33.4667 4.1839 33.6566 3.99195 33.6566 3.7761C33.6566 3.5439 33.4588 3.36 33.2449 3.36H33.1579C32.8807 3.3761 32.6114 3.44 32.2788 3.75195C32.2788 3.56 32.1283 3.4 31.9382 3.4C31.748 3.4 31.5897 3.56 31.5897 3.75195V6.1439C31.5897 6.39195 31.7877 6.6 32.0333 6.6C32.2788 6.6 32.4847 6.39195 32.4847 6.1439V4.9039C32.4847 4.5361 32.5954 4.2161 33.1579 4.1839ZM36.7655 6.15195C36.7655 6.07195 36.7418 6 36.7021 5.9361L35.8705 4.93585L36.6861 4.04805C36.7258 3.9839 36.7418 3.91195 36.7418 3.84C36.7418 3.60805 36.5359 3.4 36.3141 3.4C36.1556 3.4 36.0289 3.52 35.9259 3.64L34.8964 4.7761V2.5122C34.8964 2.2639 34.6905 2.0561 34.445 2.0561C34.1994 2.0561 34.0014 2.2639 34.0014 2.5122V6.1439C34.0014 6.39195 34.1994 6.6 34.445 6.6C34.6905 6.6 34.8966 6.39195 34.8966 6.1439V5.16L35.9259 6.35195C36.0289 6.48 36.1636 6.6 36.322 6.6C36.5516 6.6 36.7655 6.3839 36.7655 6.15195ZM37.8152 4.7039C37.8152 4.32805 38.2112 4.2 38.4568 4.2C38.6945 4.2 39.1059 4.32 39.1059 4.7039H37.8152ZM37.8152 5.27195H39.6287C39.8188 5.27195 39.9772 5.11195 39.9772 4.92C39.9612 3.92 39.304 3.36 38.4408 3.36C37.3716 3.36 36.9123 4.1361 36.9123 5.0239C36.9123 6.15219 37.6647 6.64 38.5675 6.64C38.9079 6.64 39.2645 6.59195 39.5417 6.39195C39.6524 6.32805 39.7394 6.20805 39.7394 6.0722C39.7394 5.8722 39.5733 5.7039 39.3753 5.7039C39.2961 5.7039 39.201 5.7361 39.1456 5.77585C38.9636 5.8561 38.7261 5.88805 38.5594 5.88805C38.3298 5.88805 37.8152 5.80805 37.8152 5.27195ZM41.8742 6.64H42.1198C42.3335 6.64 42.5156 6.4561 42.5156 6.24C42.5156 6.0161 42.3335 5.84 42.1198 5.84H41.9931C41.7238 5.84 41.6921 5.71195 41.6921 5.1039V4.1839H42.0642C42.2781 4.1839 42.4683 3.99195 42.4683 3.7761C42.4683 3.5439 42.2781 3.36 42.0642 3.36H41.6921V2.51195C41.6921 2.2639 41.486 2.05585 41.2407 2.05585C40.9952 2.05585 40.7972 2.2639 40.7972 2.51195V3.36H40.5675C40.3536 3.36 40.1637 3.5439 40.1637 3.7761C40.1637 3.99195 40.3536 4.1839 40.5675 4.1839H40.7972V5.28C40.7972 6.3439 41.1929 6.64 41.8742 6.64ZM46.6778 2.76805C46.6778 2.6239 46.5747 2.4639 46.456 2.39195C46.0916 2.1439 45.6405 2 45.165 2C43.8978 2 42.8685 3.04 42.8685 4.32C42.8685 5.6 43.898 6.64 45.165 6.64C45.7194 6.64 46.258 6.4161 46.6541 6.08C46.7648 6.00805 46.8518 5.88 46.8518 5.7361C46.8518 5.51195 46.6778 5.3361 46.456 5.3361C46.3679 5.33693 46.2821 5.36487 46.2105 5.4161C45.9333 5.67195 45.5689 5.84 45.1572 5.84C44.3335 5.84 43.7632 5.1761 43.7632 4.3439C43.7632 3.51195 44.3337 2.84 45.1572 2.84C45.5057 2.84 45.8382 2.96805 46.0997 3.16C46.147 3.1761 46.2026 3.19195 46.258 3.19195C46.4798 3.19195 46.6778 3 46.6778 2.76805ZM49.4697 4.99195C49.4697 5.48 49.1292 5.84 48.7254 5.84C48.3296 5.84 48.0125 5.4639 48.0125 4.99195C48.0125 4.51195 48.3293 4.1839 48.7251 4.1839C49.1212 4.1839 49.4697 4.50415 49.4697 4.99195ZM49.6598 6.1439L49.6755 6.24805C49.6755 6.44 49.826 6.6 50.0162 6.6C50.2061 6.6 50.3646 6.44 50.3646 6.24805V3.75195C50.3646 3.56 50.2061 3.4 50.0162 3.4C49.826 3.4 49.6755 3.56 49.6755 3.75195L49.6598 3.8561C49.2716 3.4 48.7727 3.36 48.6222 3.36C47.7512 3.36 47.1175 4.08805 47.1175 4.9839C47.1175 5.88 47.7353 6.64 48.5747 6.64C48.9312 6.64 49.4856 6.4878 49.6598 6.1439ZM53.5366 4.99195C53.5366 5.4639 53.2199 5.84 52.8239 5.84C52.42 5.84 52.0794 5.48 52.0794 4.99195C52.0794 4.5039 52.4279 4.1839 52.8239 4.1839C53.2199 4.1839 53.5366 4.51195 53.5366 4.99195ZM52.0794 7.51195V6.3761C52.3249 6.56 52.7131 6.64 52.9744 6.64C53.814 6.64 54.4316 5.88 54.4316 4.9839C54.4316 4.08805 53.7981 3.36 52.9268 3.36C52.618 3.36 52.2061 3.44 51.8738 3.7839C51.8738 3.56 51.7231 3.4 51.5331 3.4C51.343 3.4 51.1844 3.56 51.1844 3.75195V7.51195C51.1844 7.76 51.3827 7.96805 51.628 7.96805C51.8735 7.96805 52.0794 7.76 52.0794 7.51195Z" fill="currentColor" />
</svg>
