<svg width="91" height="14" viewBox="0 0 91 14" fill="none" xmlns="http://www.w3.org/2000/svg">
<path d="M17.4655 10.8253C17.2549 10.8253 17.106 10.7814 17.0188 10.6945C16.9389 10.6068 16.8989 10.4689 16.8989 10.2801V3.97165C16.8989 3.78286 16.9425 3.64498 17.0297 3.55731C17.1168 3.46327 17.2621 3.41589 17.4655 3.41589H20.1349C21.1518 3.41589 21.9 3.63013 22.3794 4.05862C22.8588 4.4871 23.0985 5.12629 23.0985 5.97619C23.0985 6.81902 22.8588 7.45468 22.3794 7.88316C21.9073 8.30458 21.1591 8.51529 20.1349 8.51529H19.0998V10.2801C19.0998 10.4689 19.0563 10.6068 18.9691 10.6945C18.8819 10.7814 18.733 10.8253 18.5224 10.8253H17.4655ZM19.9606 6.93498C20.2584 6.93498 20.4872 6.85508 20.647 6.69528C20.8141 6.53548 20.8976 6.29579 20.8976 5.97619C20.8976 5.64953 20.8141 5.40629 20.647 5.24649C20.4872 5.08669 20.2584 5.0068 19.9606 5.0068H19.0998V6.93498H19.9606Z" fill="#191326"/>
<path d="M25.6716 10.9886C24.9889 10.9886 24.4405 10.7709 24.0264 10.3346C23.6196 9.89197 23.4163 9.27046 23.4163 8.47147C23.4163 7.86127 23.5543 7.32743 23.8302 6.86995C24.1136 6.41248 24.5095 6.06035 25.0179 5.81288C25.5337 5.55904 26.1256 5.43176 26.7939 5.43176C27.3459 5.43176 27.8326 5.49328 28.2539 5.61701C28.6824 5.73297 29.0747 5.90409 29.4306 6.12894V10.4873C29.4306 10.6252 29.4052 10.7157 29.3543 10.7596C29.3035 10.8034 29.2018 10.8253 29.0493 10.8253H27.9379C27.858 10.8253 27.7963 10.814 27.7527 10.7921C27.7091 10.7631 27.6728 10.72 27.6438 10.6613L27.5021 10.3346C27.2914 10.5602 27.0372 10.7235 26.7394 10.8253C26.4489 10.9342 26.0929 10.9886 25.6716 10.9886ZM26.4888 9.50661C26.7721 9.50661 26.9936 9.43733 27.1534 9.29945C27.3132 9.16157 27.3931 8.9657 27.3931 8.71116V7.01137C27.2552 6.94632 27.0808 6.91379 26.8702 6.91379C26.4852 6.91379 26.1765 7.04813 25.944 7.31682C25.7188 7.5855 25.6063 7.96308 25.6063 8.44955C25.6063 9.1545 25.9004 9.50661 26.4888 9.50661Z" fill="#191326"/>
<path d="M30.947 10.8253C30.7363 10.8253 30.5874 10.7815 30.5002 10.6945C30.4131 10.6068 30.3695 10.4689 30.3695 10.2802V5.93308C30.3695 5.80227 30.3913 5.7153 30.4348 5.67146C30.4857 5.62055 30.5874 5.5951 30.7399 5.5951H31.8622C31.9493 5.5951 32.0147 5.60995 32.0583 5.63894C32.1091 5.66015 32.1382 5.70399 32.1455 5.76974L32.1999 6.09641C32.4033 5.89277 32.6685 5.73297 32.9953 5.61702C33.3294 5.49328 33.6999 5.43176 34.1067 5.43176C34.695 5.43176 35.1708 5.59864 35.534 5.93308C35.8972 6.25975 36.0788 6.74622 36.0788 7.39319V10.2802C36.0788 10.4689 36.0352 10.6068 35.948 10.6945C35.8681 10.7815 35.7228 10.8253 35.5122 10.8253H34.4553C34.2447 10.8253 34.0922 10.7815 33.9977 10.6945C33.9105 10.6068 33.867 10.4689 33.867 10.2802V7.5346C33.867 7.31682 33.8197 7.16056 33.7253 7.06581C33.6309 6.97177 33.482 6.9244 33.2786 6.9244C33.0607 6.9244 32.8863 6.98238 32.7556 7.09904C32.6321 7.215 32.5704 7.3748 32.5704 7.57844V10.2802C32.5704 10.4689 32.5268 10.6068 32.4397 10.6945C32.3598 10.7815 32.2145 10.8253 32.0038 10.8253H30.947Z" fill="#191326"/>
<path d="M39.9299 10.9886C38.913 10.9886 38.1285 10.7525 37.5765 10.2802C37.0245 9.80783 36.7484 9.12197 36.7484 8.22116C36.7484 7.66894 36.8755 7.18247 37.1297 6.76106C37.384 6.33965 37.7508 6.01298 38.2302 5.78035C38.7169 5.54773 39.2907 5.43176 39.9517 5.43176C40.4529 5.43176 40.8742 5.47914 41.2156 5.57318C41.5642 5.66792 41.8729 5.81288 42.1417 6.00944C42.2216 6.06035 42.2616 6.1254 42.2616 6.2053C42.2616 6.26328 42.2325 6.33965 42.1744 6.43439L41.7276 7.20792C41.6768 7.30904 41.6151 7.35995 41.5425 7.35995C41.4988 7.35995 41.4298 7.33096 41.3354 7.27298C41.1393 7.14924 40.9541 7.05874 40.7798 7.00076C40.6127 6.94278 40.402 6.91379 40.1478 6.91379C39.7846 6.91379 39.4905 7.02974 39.2653 7.26237C39.0474 7.49429 38.9384 7.81389 38.9384 8.22116C38.9384 8.6348 39.051 8.95439 39.2762 9.17995C39.5014 9.39773 39.8101 9.50661 40.2023 9.50661C40.4347 9.50661 40.6454 9.4741 40.8343 9.40834C41.0231 9.34329 41.2156 9.25207 41.4117 9.13611C41.5134 9.07813 41.586 9.04914 41.6296 9.04914C41.695 9.04914 41.7531 9.10005 41.8039 9.20187L42.2942 10.0405C42.3306 10.1133 42.3487 10.1713 42.3487 10.2151C42.3487 10.2802 42.3051 10.3417 42.218 10.4004C41.9129 10.5962 41.5787 10.7412 41.2156 10.8359C40.8597 10.9377 40.4311 10.9886 39.9299 10.9886Z" fill="#191326"/>
<path d="M45.1114 10.9886C44.4286 10.9886 43.8801 10.7709 43.4662 10.3346C43.0594 9.89197 42.856 9.27046 42.856 8.47147C42.856 7.86127 42.994 7.32743 43.27 6.86995C43.5533 6.41248 43.9492 6.06035 44.4576 5.81288C44.9733 5.55904 45.5654 5.43176 46.2336 5.43176C46.7856 5.43176 47.2723 5.49328 47.6936 5.61701C48.1221 5.73297 48.5144 5.90409 48.8704 6.12894V10.4873C48.8704 10.6252 48.8449 10.7157 48.7941 10.7596C48.7432 10.8034 48.6416 10.8253 48.489 10.8253H47.3777C47.2978 10.8253 47.236 10.814 47.1924 10.7921C47.1489 10.7631 47.1125 10.72 47.0835 10.6613L46.9418 10.3346C46.7312 10.5602 46.4769 10.7235 46.1791 10.8253C45.8886 10.9342 45.5326 10.9886 45.1114 10.9886ZM45.9285 9.50661C46.2119 9.50661 46.4334 9.43733 46.5932 9.29945C46.753 9.16157 46.8329 8.9657 46.8329 8.71116V7.01137C46.6949 6.94632 46.5206 6.91379 46.3099 6.91379C45.9249 6.91379 45.6162 7.04813 45.3837 7.31682C45.1586 7.5855 45.046 7.96308 45.046 8.44955C45.046 9.1545 45.3402 9.50661 45.9285 9.50661Z" fill="#191326"/>
<path d="M55.7145 10.4109C55.7653 10.4689 55.7907 10.5347 55.7907 10.6068C55.7907 10.6726 55.769 10.727 55.7253 10.7708C55.6818 10.8069 55.6237 10.8253 55.5511 10.8253H53.8622C53.7605 10.8253 53.6842 10.8175 53.6334 10.8034C53.5899 10.7814 53.5426 10.7411 53.4918 10.6832L52.01 8.66801V10.2801C52.01 10.4689 51.9664 10.6068 51.8792 10.6945C51.7921 10.7814 51.6432 10.8253 51.4325 10.8253H50.3757C50.165 10.8253 50.0161 10.7814 49.9289 10.6945C49.849 10.6068 49.8091 10.4689 49.8091 10.2801V3.97165C49.8091 3.78286 49.8526 3.64498 49.9398 3.55731C50.027 3.46327 50.1723 3.41589 50.3757 3.41589H51.4325C51.6432 3.41589 51.7921 3.46327 51.8792 3.55731C51.9664 3.64498 52.01 3.78286 52.01 3.97165V7.62155L53.4482 5.74781C53.4918 5.68983 53.539 5.64952 53.5899 5.6276C53.6407 5.60568 53.717 5.59508 53.8187 5.59508H55.5075C55.5801 5.59508 55.6346 5.617 55.6709 5.66014C55.7145 5.6969 55.7363 5.74781 55.7363 5.81286C55.7363 5.88568 55.7109 5.95074 55.66 6.00942L53.7969 8.14477L55.7145 10.4109Z" fill="#191326"/>
<path d="M59.2524 10.9886C58.6422 10.9886 58.0974 10.8868 57.618 10.6832C57.1459 10.4803 56.7718 10.1748 56.4958 9.76824C56.2198 9.36167 56.0818 8.86389 56.0818 8.27561C56.0818 7.35288 56.3433 6.64864 56.8663 6.16146C57.3892 5.675 58.1411 5.43176 59.1216 5.43176C60.0805 5.43176 60.8069 5.67146 61.3008 6.15086C61.802 6.62318 62.0526 7.28005 62.0526 8.12288C62.0526 8.48631 61.8928 8.66803 61.5732 8.66803H58.152C58.152 8.97985 58.2681 9.21955 58.5006 9.38712C58.7403 9.55399 59.0998 9.63743 59.5792 9.63743C59.8771 9.63743 60.124 9.61197 60.3202 9.56106C60.5235 9.50308 60.727 9.41965 60.9303 9.31076C61.0175 9.27399 61.0756 9.25632 61.1046 9.25632C61.17 9.25632 61.2245 9.29945 61.2681 9.38712L61.6385 10.0843C61.6749 10.1564 61.693 10.2116 61.693 10.2476C61.693 10.3127 61.6494 10.3749 61.5622 10.4329C61.2645 10.6287 60.9267 10.7709 60.549 10.8578C60.1713 10.9448 59.739 10.9886 59.2524 10.9886ZM60.0914 7.58904C60.0914 7.31328 60.0115 7.09904 59.8517 6.94631C59.6919 6.79358 59.4521 6.71722 59.1325 6.71722C58.8129 6.71722 58.5696 6.79712 58.4025 6.95692C58.2355 7.10965 58.152 7.32035 58.152 7.58904H60.0914Z" fill="#191326"/>
<path d="M65.787 10.9886C65.1768 10.9886 64.5993 10.9264 64.0546 10.8034C63.5098 10.6726 63.0704 10.4908 62.7362 10.2582C62.6128 10.1783 62.551 10.0949 62.551 10.0079C62.551 9.94994 62.5728 9.88772 62.6164 9.82267L63.1503 8.97277C63.2084 8.8858 63.2664 8.84196 63.3246 8.84196C63.3609 8.84196 63.4226 8.86741 63.5098 8.91832C63.7786 9.07105 64.0836 9.19408 64.425 9.28883C64.7664 9.38287 65.1042 9.43024 65.4384 9.43024C65.7797 9.43024 66.0303 9.37933 66.1901 9.27751C66.3572 9.1764 66.4407 9.01236 66.4407 8.78751C66.4407 8.56974 66.3499 8.39863 66.1683 8.2756C65.994 8.15186 65.6635 7.9956 65.1768 7.80681C64.4432 7.53105 63.8694 7.22206 63.4553 6.88055C63.0485 6.53196 62.8452 6.06034 62.8452 5.46428C62.8452 4.74519 63.103 4.1965 63.6188 3.81893C64.1345 3.44135 64.8209 3.25256 65.678 3.25256C66.2736 3.25256 66.7821 3.30701 67.2034 3.4159C67.632 3.51772 67.9951 3.67751 68.2929 3.89529C68.4165 3.99004 68.4782 4.07701 68.4782 4.15691C68.4782 4.20782 68.4564 4.2658 68.4128 4.33155L67.8789 5.18075C67.8135 5.26842 67.7554 5.31155 67.7046 5.31155C67.6683 5.31155 67.6065 5.2861 67.5194 5.2359C67.0981 4.95944 66.5969 4.82155 66.0158 4.82155C65.7034 4.82155 65.4637 4.87246 65.2967 4.97428C65.1296 5.0761 65.0461 5.24296 65.0461 5.47559C65.0461 5.63539 65.0897 5.76549 65.1768 5.86731C65.264 5.96913 65.3802 6.06034 65.5255 6.14024C65.678 6.21236 65.9105 6.30711 66.2228 6.42307L66.4298 6.49943C66.9673 6.71014 67.3887 6.91378 67.6937 7.10964C68.0061 7.29842 68.2421 7.53458 68.4019 7.81811C68.5617 8.09387 68.6416 8.44246 68.6416 8.86387C68.6416 9.51014 68.3983 10.0263 67.9116 10.4109C67.4322 10.7956 66.724 10.9886 65.787 10.9886Z" fill="#191326"/>
<path d="M70.9566 10.8253C70.8477 10.8253 70.7643 10.8069 70.706 10.7708C70.6479 10.7341 70.6043 10.6613 70.5752 10.5524L69.1697 5.8454C69.1552 5.80227 69.1479 5.76974 69.1479 5.74782C69.1479 5.646 69.2206 5.59509 69.3659 5.59509H70.8039C70.8987 5.59509 70.9672 5.61348 71.0111 5.64954C71.0549 5.67853 71.0839 5.72944 71.0981 5.80227L71.6863 8.2756L72.4273 6.28166C72.4641 6.19469 72.5002 6.136 72.5362 6.10701C72.5801 6.07095 72.6529 6.05257 72.7547 6.05257H73.4406C73.5424 6.05257 73.6117 6.07095 73.6477 6.10701C73.6916 6.136 73.7312 6.19469 73.7679 6.28166L74.4976 8.2756L75.0972 5.80227C75.1184 5.72944 75.1474 5.67853 75.1842 5.64954C75.2203 5.61348 75.286 5.59509 75.3801 5.59509H76.8296C76.9745 5.59509 77.0473 5.646 77.0473 5.74782C77.0473 5.76974 77.0403 5.80227 77.0254 5.8454L75.6092 10.5524C75.5802 10.6613 75.5363 10.7341 75.4783 10.7708C75.4274 10.8069 75.3475 10.8253 75.2386 10.8253H74.171C74.0692 10.8253 73.9928 10.8069 73.9419 10.7708C73.891 10.727 73.8478 10.6542 73.8111 10.5524L73.092 8.58034L72.3729 10.5524C72.3439 10.6542 72.3001 10.727 72.2421 10.7708C72.1912 10.8069 72.1155 10.8253 72.0137 10.8253H70.9566Z" fill="#191326"/>
<path d="M79.8091 10.9886C79.1261 10.9886 78.5781 10.7709 78.1638 10.3346C77.7572 9.89197 77.5536 9.27046 77.5536 8.47147C77.5536 7.86127 77.6915 7.32743 77.9679 6.86995C78.2508 6.41248 78.6467 6.06035 79.1551 5.81288C79.6713 5.55904 80.2631 5.43176 80.9313 5.43176C81.4835 5.43176 81.97 5.49328 82.3914 5.61701C82.8199 5.73297 83.2123 5.90409 83.5679 6.12894V10.4873C83.5679 10.6252 83.5425 10.7157 83.4916 10.7596C83.4407 10.8034 83.3395 10.8253 83.1868 10.8253H82.0753C81.9954 10.8253 81.9339 10.814 81.8901 10.7921C81.8462 10.7631 81.8102 10.72 81.7812 10.6613L81.6398 10.3346C81.429 10.5602 81.1745 10.7235 80.8768 10.8253C80.5862 10.9342 80.2306 10.9886 79.8091 10.9886ZM80.6265 9.50661C80.9094 9.50661 81.1314 9.43733 81.2912 9.29945C81.451 9.16157 81.5309 8.9657 81.5309 8.71116V7.01137C81.3923 6.94632 81.2183 6.91379 81.0076 6.91379C80.6223 6.91379 80.314 7.04813 80.0814 7.31682C79.8565 7.5855 79.7434 7.96308 79.7434 8.44955C79.7434 9.1545 80.0382 9.50661 80.6265 9.50661Z" fill="#191326"/>
<path d="M85.0732 13.0257C84.8625 13.0257 84.714 12.9826 84.6263 12.8949C84.5464 12.8079 84.5068 12.6701 84.5068 12.4813V6.23783C84.8335 6.0052 85.2443 5.81288 85.7378 5.66015C86.2321 5.50813 86.7475 5.43176 87.2849 5.43176C89.479 5.43176 90.5756 6.36157 90.5756 8.22116C90.5756 9.06329 90.343 9.73571 89.8785 10.2363C89.4132 10.7376 88.7563 10.9886 87.9064 10.9886C87.6667 10.9886 87.4341 10.9597 87.2086 10.901C86.9908 10.843 86.8091 10.7631 86.6641 10.6613V12.4813C86.6641 12.6701 86.6203 12.8079 86.5333 12.8949C86.4463 12.9826 86.2971 13.0257 86.0864 13.0257H85.0732ZM87.4376 9.51722C87.7502 9.51722 87.9828 9.40127 88.1348 9.16864C88.2946 8.92894 88.3745 8.60934 88.3745 8.20985C88.3745 7.73823 88.2805 7.40732 88.0917 7.21853C87.91 7.02267 87.6264 6.9244 87.2418 6.9244C86.9943 6.9244 86.7985 6.95692 86.6535 7.02267V8.755C86.6535 9.00176 86.7221 9.19055 86.86 9.32136C86.9985 9.45217 87.1909 9.51722 87.4376 9.51722Z" fill="#191326"/>
<path fill-rule="evenodd" clip-rule="evenodd" d="M2.48516 2.18838C2.27274 1.0507 3.14552 0 4.30263 0C5.32374 0 6.15151 0.827982 6.15151 1.84899V4.12859C6.40693 4.1102 6.66646 4.10101 6.92929 4.10101C7.18179 4.10101 7.43124 4.10949 7.67695 4.12646V1.84899C7.67695 0.827982 8.50472 0 9.52587 0C10.683 0 11.5557 1.0507 11.3433 2.18838L10.843 4.86747C12.5601 5.61697 13.8586 6.91939 13.8586 8.55556V9.54545C13.8586 10.891 12.9685 12.0174 11.724 12.7782C10.4699 13.5446 8.77333 14 6.92929 14C5.08529 14 3.38869 13.5446 2.13456 12.7782C0.890145 12.0174 0 10.891 0 9.54545V8.55556C0 6.92788 1.2851 5.63111 2.98778 4.8795L2.48516 2.18838ZM10.2018 5.21959L10.7873 2.08444C10.9347 1.29535 10.329 0.565657 9.52587 0.565657C8.81717 0.565657 8.2426 1.14051 8.2426 1.84899V4.7494C8.05693 4.72606 7.86821 4.70697 7.67695 4.69354C7.43174 4.67586 7.18221 4.66667 6.92929 4.66667C6.66599 4.66667 6.40643 4.67657 6.15151 4.69566C5.96021 4.7098 5.77153 4.72889 5.58586 4.75363V1.84899C5.58586 1.14051 5.01133 0.565657 4.30263 0.565657C3.49953 0.565657 2.89378 1.29535 3.0412 2.08444L3.62862 5.2302C1.79226 5.91182 0.565656 7.14636 0.565656 8.55556V9.54545C0.565656 11.6935 3.41476 13.4343 6.92929 13.4343C10.4439 13.4343 13.2929 11.6935 13.2929 9.54545V8.55556C13.2929 7.13929 12.0538 5.89979 10.2018 5.21959Z" fill="#633001"/>
<path d="M13.2929 9.54544C13.2929 11.6935 10.4439 13.4343 6.92931 13.4343C3.41477 13.4343 0.565674 11.6935 0.565674 9.54544V8.55554H13.2929V9.54544Z" fill="#FEDC90"/>
<path fill-rule="evenodd" clip-rule="evenodd" d="M3.04122 2.08446C2.8938 1.29537 3.49954 0.565674 4.30265 0.565674C5.01135 0.565674 5.58587 1.14052 5.58587 1.84901V4.75365C6.01896 4.69638 6.46841 4.66668 6.92931 4.66668C7.3795 4.66668 7.81887 4.69497 8.24262 4.74941V1.84901C8.24262 1.14052 8.81719 0.565674 9.52588 0.565674C10.329 0.565674 10.9347 1.29537 10.7873 2.08446L10.2018 5.21961C12.0538 5.89981 13.2929 7.13931 13.2929 8.55557C13.2929 10.7036 10.4439 12.4445 6.92931 12.4445C3.41477 12.4445 0.565674 10.7036 0.565674 8.55557C0.565674 7.14638 1.79228 5.91183 3.62864 5.23022L3.04122 2.08446Z" fill="#D1884F"/>
<path d="M5.16158 8.27276C5.16158 8.85822 4.84501 9.33337 4.45451 9.33337C4.06401 9.33337 3.74744 8.85822 3.74744 8.27276C3.74744 7.68731 4.06401 7.21216 4.45451 7.21216C4.84501 7.21216 5.16158 7.68731 5.16158 8.27276Z" fill="#633001"/>
<path d="M10.0404 8.27276C10.0404 8.85822 9.72381 9.33337 9.33329 9.33337C8.94278 9.33337 8.62622 8.85822 8.62622 8.27276C8.62622 7.68731 8.94278 7.21216 9.33329 7.21216C9.72381 7.21216 10.0404 7.68731 10.0404 8.27276Z" fill="#633001"/>
</svg>
