<svg width="92" height="14" viewBox="0 0 92 14" fill="none" xmlns="http://www.w3.org/2000/svg">
<path d="M17.9655 10.8254C17.7549 10.8254 17.606 10.7816 17.5188 10.6946C17.4389 10.6069 17.3989 10.469 17.3989 10.2803V3.97177C17.3989 3.78298 17.4425 3.64511 17.5297 3.55743C17.6168 3.46339 17.7621 3.41602 17.9655 3.41602H20.6349C21.6518 3.41602 22.4 3.63026 22.8794 4.05874C23.3588 4.48723 23.5985 5.12642 23.5985 5.97632C23.5985 6.81914 23.3588 7.4548 22.8794 7.88328C22.4073 8.3047 21.6591 8.51541 20.6349 8.51541H19.5998V10.2803C19.5998 10.469 19.5563 10.6069 19.4691 10.6946C19.3819 10.7816 19.233 10.8254 19.0224 10.8254H17.9655ZM20.4606 6.9351C20.7584 6.9351 20.9872 6.8552 21.147 6.6954C21.3141 6.5356 21.3976 6.29591 21.3976 5.97632C21.3976 5.64965 21.3141 5.40641 21.147 5.24661C20.9872 5.08682 20.7584 5.00692 20.4606 5.00692H19.5998V6.9351H20.4606Z" fill="#E6E8EA"/>
<path d="M26.1718 10.9885C25.4891 10.9885 24.9407 10.7707 24.5266 10.3345C24.1199 9.89185 23.9165 9.27034 23.9165 8.47135C23.9165 7.86115 24.0545 7.3273 24.3305 6.86983C24.6138 6.41235 25.0097 6.06023 25.5182 5.81275C26.0339 5.55891 26.6259 5.43164 27.2941 5.43164C27.8462 5.43164 28.3329 5.49316 28.7541 5.61689C29.1827 5.73285 29.5749 5.90397 29.9308 6.12882V10.4872C29.9308 10.6251 29.9055 10.7156 29.8546 10.7594C29.8037 10.8033 29.702 10.8252 29.5495 10.8252H28.4381C28.3582 10.8252 28.2965 10.8139 28.253 10.792C28.2093 10.763 28.1731 10.7198 28.144 10.6611L28.0023 10.3345C27.7917 10.56 27.5375 10.7234 27.2397 10.8252C26.9491 10.9341 26.5932 10.9885 26.1718 10.9885ZM26.9891 9.50649C27.2723 9.50649 27.4939 9.4372 27.6537 9.29932C27.8135 9.16145 27.8934 8.96558 27.8934 8.71104V7.01124C27.7554 6.94619 27.581 6.91367 27.3704 6.91367C26.9854 6.91367 26.6767 7.04801 26.4443 7.31669C26.2191 7.58538 26.1065 7.96296 26.1065 8.44942C26.1065 9.15437 26.4007 9.50649 26.9891 9.50649Z" fill="#E6E8EA"/>
<path d="M31.4471 10.8252C31.2364 10.8252 31.0875 10.7813 31.0004 10.6944C30.9132 10.6067 30.8696 10.4688 30.8696 10.28V5.93296C30.8696 5.80215 30.8914 5.71518 30.935 5.67134C30.9858 5.62043 31.0875 5.59498 31.2401 5.59498H32.3623C32.4494 5.59498 32.5148 5.60983 32.5584 5.63882C32.6092 5.66003 32.6383 5.70387 32.6456 5.76962L32.7 6.09629C32.9034 5.89265 33.1686 5.73285 33.4954 5.61689C33.8296 5.49316 34.2 5.43164 34.6068 5.43164C35.1951 5.43164 35.6709 5.59852 36.0341 5.93296C36.3973 6.25963 36.5789 6.74609 36.5789 7.39306V10.28C36.5789 10.4688 36.5353 10.6067 36.4481 10.6944C36.3682 10.7813 36.2229 10.8252 36.0123 10.8252H34.9554C34.7448 10.8252 34.5923 10.7813 34.4978 10.6944C34.4106 10.6067 34.3671 10.4688 34.3671 10.28V7.53448C34.3671 7.3167 34.3199 7.16044 34.2255 7.06569C34.131 6.97165 33.9821 6.92428 33.7787 6.92428C33.5608 6.92428 33.3864 6.98225 33.2557 7.09892C33.1323 7.21488 33.0705 7.37468 33.0705 7.57832V10.28C33.0705 10.4688 33.0269 10.6067 32.9398 10.6944C32.8599 10.7813 32.7146 10.8252 32.504 10.8252H31.4471Z" fill="#E6E8EA"/>
<path d="M40.4301 10.9885C39.4131 10.9885 38.6287 10.7524 38.0766 10.28C37.5246 9.80771 37.2485 9.12185 37.2485 8.22104C37.2485 7.66882 37.3757 7.18235 37.6299 6.76094C37.8841 6.33952 38.2509 6.01286 38.7303 5.78023C39.217 5.5476 39.7909 5.43164 40.4518 5.43164C40.953 5.43164 41.3743 5.47901 41.7157 5.57305C42.0644 5.6678 42.3731 5.81276 42.6418 6.00932C42.7217 6.06023 42.7617 6.12528 42.7617 6.20518C42.7617 6.26316 42.7326 6.33952 42.6745 6.43427L42.2278 7.2078C42.1769 7.30891 42.1152 7.35983 42.0426 7.35983C41.999 7.35983 41.93 7.33084 41.8356 7.27286C41.6394 7.14912 41.4542 7.05862 41.2799 7.00064C41.1128 6.94266 40.9022 6.91367 40.648 6.91367C40.2848 6.91367 39.9906 7.02962 39.7654 7.26225C39.5475 7.49417 39.4385 7.81377 39.4385 8.22104C39.4385 8.63468 39.5511 8.95427 39.7763 9.17983C40.0015 9.3976 40.3102 9.50649 40.7024 9.50649C40.9348 9.50649 41.1455 9.47397 41.3344 9.40822C41.5232 9.34317 41.7157 9.25195 41.9119 9.13599C42.0135 9.07801 42.0861 9.04902 42.1298 9.04902C42.1951 9.04902 42.2532 9.09993 42.3041 9.20175L42.7943 10.0403C42.8307 10.1132 42.8489 10.1711 42.8489 10.215C42.8489 10.28 42.8052 10.3415 42.7181 10.4002C42.413 10.5961 42.0789 10.741 41.7157 10.8358C41.3598 10.9376 40.9312 10.9885 40.4301 10.9885Z" fill="#E6E8EA"/>
<path d="M45.6114 10.9885C44.9286 10.9885 44.3801 10.7707 43.9662 10.3345C43.5594 9.89185 43.356 9.27034 43.356 8.47135C43.356 7.86115 43.494 7.3273 43.77 6.86983C44.0533 6.41235 44.4492 6.06023 44.9576 5.81275C45.4733 5.55891 46.0654 5.43164 46.7336 5.43164C47.2856 5.43164 47.7723 5.49316 48.1936 5.61689C48.6221 5.73285 49.0144 5.90397 49.3704 6.12882V10.4872C49.3704 10.6251 49.3449 10.7156 49.2941 10.7594C49.2432 10.8033 49.1416 10.8252 48.989 10.8252H47.8777C47.7978 10.8252 47.736 10.8139 47.6924 10.792C47.6489 10.763 47.6125 10.7198 47.5835 10.6611L47.4418 10.3345C47.2312 10.56 46.9769 10.7234 46.6791 10.8252C46.3886 10.9341 46.0326 10.9885 45.6114 10.9885ZM46.4285 9.50649C46.7119 9.50649 46.9334 9.4372 47.0932 9.29932C47.253 9.16145 47.3329 8.96558 47.3329 8.71104V7.01124C47.1949 6.94619 47.0206 6.91367 46.8099 6.91367C46.4249 6.91367 46.1162 7.04801 45.8837 7.31669C45.6586 7.58538 45.546 7.96296 45.546 8.44942C45.546 9.15437 45.8402 9.50649 46.4285 9.50649Z" fill="#E6E8EA"/>
<path d="M56.2145 10.4111C56.2653 10.469 56.2907 10.5348 56.2907 10.6069C56.2907 10.6727 56.269 10.7271 56.2253 10.771C56.1818 10.807 56.1237 10.8254 56.0511 10.8254H54.3622C54.2605 10.8254 54.1842 10.8176 54.1334 10.8035C54.0899 10.7816 54.0426 10.7413 53.9918 10.6833L52.51 8.66813V10.2803C52.51 10.469 52.4664 10.6069 52.3792 10.6946C52.2921 10.7816 52.1432 10.8254 51.9325 10.8254H50.8757C50.665 10.8254 50.5161 10.7816 50.4289 10.6946C50.349 10.6069 50.3091 10.469 50.3091 10.2803V3.97177C50.3091 3.78298 50.3526 3.64511 50.4398 3.55743C50.527 3.46339 50.6723 3.41602 50.8757 3.41602H51.9325C52.1432 3.41602 52.2921 3.46339 52.3792 3.55743C52.4664 3.64511 52.51 3.78298 52.51 3.97177V7.62167L53.9482 5.74793C53.9918 5.68995 54.039 5.64965 54.0899 5.62773C54.1407 5.60581 54.217 5.5952 54.3187 5.5952H56.0075C56.0801 5.5952 56.1346 5.61713 56.1709 5.66026C56.2145 5.69703 56.2363 5.74793 56.2363 5.81298C56.2363 5.88581 56.2109 5.95086 56.16 6.00955L54.2969 8.1449L56.2145 10.4111Z" fill="#E6E8EA"/>
<path d="M59.7521 10.9885C59.142 10.9885 58.5972 10.8867 58.1178 10.6831C57.6457 10.4801 57.2716 10.1747 56.9955 9.76811C56.7196 9.36155 56.5815 8.86377 56.5815 8.27549C56.5815 7.35276 56.843 6.64851 57.366 6.16134C57.889 5.67488 58.6408 5.43164 59.6214 5.43164C60.5802 5.43164 61.3066 5.67134 61.8005 6.15074C62.3017 6.62306 62.5523 7.27993 62.5523 8.12276C62.5523 8.48619 62.3925 8.66791 62.0729 8.66791H58.6517C58.6517 8.97972 58.7679 9.21943 59.0004 9.387C59.2401 9.55387 59.5996 9.63731 60.079 9.63731C60.3768 9.63731 60.6238 9.61185 60.8199 9.56094C61.0233 9.50296 61.2267 9.41953 61.4301 9.31064C61.5173 9.27387 61.5754 9.25619 61.6044 9.25619C61.6698 9.25619 61.7242 9.29932 61.7678 9.387L62.1383 10.0842C62.1746 10.1563 62.1928 10.2114 62.1928 10.2475C62.1928 10.3126 62.1492 10.3748 62.062 10.4328C61.7642 10.6286 61.4265 10.7707 61.0487 10.8577C60.671 10.9447 60.2388 10.9885 59.7521 10.9885ZM60.5911 7.58892C60.5911 7.31316 60.5112 7.09892 60.3514 6.94619C60.1916 6.79346 59.9519 6.7171 59.6323 6.7171C59.3127 6.7171 59.0694 6.797 58.9023 6.9568C58.7352 7.10953 58.6517 7.32023 58.6517 7.58892H60.5911Z" fill="#E6E8EA"/>
<path d="M66.2868 10.988C65.6766 10.988 65.0991 10.9258 64.5544 10.8028C64.0096 10.672 63.5701 10.4902 63.236 10.2576C63.1125 10.1777 63.0508 10.0943 63.0508 10.0073C63.0508 9.94933 63.0726 9.88711 63.1161 9.82206L63.65 8.97216C63.7081 8.88519 63.7662 8.84135 63.8243 8.84135C63.8607 8.84135 63.9224 8.8668 64.0096 8.91771C64.2783 9.07044 64.5834 9.19347 64.9248 9.28821C65.2662 9.38226 65.6039 9.42963 65.9381 9.42963C66.2795 9.42963 66.5301 9.37872 66.6899 9.2769C66.8569 9.17579 66.9404 9.01175 66.9404 8.7869C66.9404 8.56913 66.8497 8.39802 66.6681 8.27499C66.4937 8.15125 66.1632 7.99499 65.6766 7.8062C64.943 7.53044 64.3691 7.22145 63.9551 6.87994C63.5483 6.53135 63.3449 6.05973 63.3449 5.46367C63.3449 4.74458 63.6028 4.19589 64.1185 3.81832C64.6343 3.44074 65.3206 3.25195 66.1778 3.25195C66.7734 3.25195 67.2819 3.3064 67.7032 3.41529C68.1317 3.51711 68.4949 3.6769 68.7927 3.89468C68.9162 3.98943 68.9779 4.0764 68.9779 4.1563C68.9779 4.20721 68.9562 4.26519 68.9125 4.33094L68.3787 5.18014C68.3133 5.26781 68.2552 5.31094 68.2043 5.31094C68.1681 5.31094 68.1063 5.28549 68.0192 5.23529C67.5978 4.95882 67.0966 4.82094 66.5156 4.82094C66.2032 4.82094 65.9635 4.87185 65.7964 4.97367C65.6294 5.07549 65.5458 5.24235 65.5458 5.47498C65.5458 5.63478 65.5894 5.76488 65.6766 5.8667C65.7637 5.96852 65.88 6.05973 66.0252 6.13963C66.1778 6.21175 66.4102 6.3065 66.7225 6.42246L66.9296 6.49882C67.4671 6.70953 67.8884 6.91317 68.1934 7.10903C68.5058 7.29781 68.7419 7.53397 68.9017 7.8175C69.0615 8.09326 69.1413 8.44185 69.1413 8.86326C69.1413 9.50953 68.898 10.0257 68.4114 10.4103C67.932 10.795 67.2238 10.988 66.2868 10.988Z" fill="#E6E8EA"/>
<path d="M71.4566 10.824C71.3477 10.824 71.2643 10.8056 71.206 10.7695C71.1479 10.7327 71.1043 10.6599 71.0752 10.551L69.6697 5.84406C69.6552 5.80092 69.6479 5.7684 69.6479 5.74648C69.6479 5.64466 69.7206 5.59375 69.8659 5.59375H71.3039C71.3987 5.59375 71.4672 5.61214 71.5111 5.6482C71.5549 5.67719 71.5839 5.7281 71.5981 5.80093L72.1863 8.27426L72.9273 6.28031C72.9641 6.19334 73.0002 6.13466 73.0362 6.10567C73.0801 6.06961 73.1529 6.05122 73.2547 6.05122H73.9406C74.0424 6.05122 74.1117 6.06961 74.1477 6.10567C74.1916 6.13466 74.2312 6.19334 74.2679 6.28031L74.9976 8.27426L75.5972 5.80093C75.6184 5.7281 75.6474 5.67719 75.6842 5.6482C75.7203 5.61214 75.786 5.59375 75.8801 5.59375H77.3296C77.4745 5.59375 77.5473 5.64466 77.5473 5.74648C77.5473 5.7684 77.5403 5.80092 77.5254 5.84406L76.1092 10.551C76.0802 10.6599 76.0363 10.7327 75.9783 10.7695C75.9274 10.8056 75.8475 10.824 75.7386 10.824H74.671C74.5692 10.824 74.4928 10.8056 74.4419 10.7695C74.391 10.7257 74.3478 10.6528 74.3111 10.551L73.592 8.579L72.8729 10.551C72.8439 10.6528 72.8001 10.7257 72.7421 10.7695C72.6912 10.8056 72.6155 10.824 72.5137 10.824H71.4566Z" fill="#E6E8EA"/>
<path d="M80.3093 10.9885C79.6262 10.9885 79.0783 10.7707 78.6639 10.3345C78.2573 9.89185 78.0537 9.27034 78.0537 8.47135C78.0537 7.86115 78.1916 7.3273 78.4681 6.86983C78.7509 6.41235 79.1468 6.06023 79.6552 5.81275C80.1714 5.55891 80.7632 5.43164 81.4314 5.43164C81.9836 5.43164 82.4701 5.49316 82.8915 5.61689C83.32 5.73285 83.7124 5.90397 84.0681 6.12882V10.4872C84.0681 10.6251 84.0426 10.7156 83.9917 10.7594C83.9408 10.8033 83.8397 10.8252 83.6869 10.8252H82.5754C82.4955 10.8252 82.434 10.8139 82.3902 10.792C82.3463 10.763 82.3103 10.7198 82.2813 10.6611L82.1399 10.3345C81.9292 10.56 81.6746 10.7234 81.3769 10.8252C81.0863 10.9341 80.7307 10.9885 80.3093 10.9885ZM81.1266 9.50649C81.4095 9.50649 81.6315 9.4372 81.7913 9.29932C81.9511 9.16145 82.031 8.96558 82.031 8.71104V7.01124C81.8924 6.94619 81.7185 6.91367 81.5078 6.91367C81.1224 6.91367 80.8141 7.04801 80.5815 7.31669C80.3566 7.58538 80.2435 7.96296 80.2435 8.44942C80.2435 9.15437 80.5384 9.50649 81.1266 9.50649Z" fill="#E6E8EA"/>
<path d="M85.5732 13.0256C85.3625 13.0256 85.214 12.9825 85.1263 12.8948C85.0464 12.8078 85.0068 12.6699 85.0068 12.4811V6.2377C85.3335 6.00508 85.7443 5.81276 86.2378 5.66003C86.7321 5.50801 87.2475 5.43164 87.7849 5.43164C89.979 5.43164 91.0756 6.36144 91.0756 8.22104C91.0756 9.06316 90.843 9.73559 90.3785 10.2362C89.9132 10.7375 89.2563 10.9885 88.4064 10.9885C88.1667 10.9885 87.9341 10.9595 87.7086 10.9008C87.4908 10.8429 87.3091 10.763 87.1641 10.6611V12.4811C87.1641 12.6699 87.1203 12.8078 87.0333 12.8948C86.9463 12.9825 86.7971 13.0256 86.5864 13.0256H85.5732ZM87.9376 9.5171C88.2502 9.5171 88.4828 9.40114 88.6348 9.16852C88.7946 8.92882 88.8745 8.60922 88.8745 8.20973C88.8745 7.73811 88.7805 7.4072 88.5917 7.21841C88.41 7.02255 88.1264 6.92428 87.7418 6.92428C87.4943 6.92428 87.2985 6.95679 87.1535 7.02255V8.75487C87.1535 9.00164 87.2221 9.19043 87.36 9.32124C87.4985 9.45205 87.6909 9.5171 87.9376 9.5171Z" fill="#E6E8EA"/>
<path fill-rule="evenodd" clip-rule="evenodd" d="M2.98516 2.18838C2.77274 1.0507 3.64552 0 4.80263 0C5.82374 0 6.65151 0.827982 6.65151 1.84899V4.12859C6.90693 4.1102 7.16646 4.10101 7.42929 4.10101C7.68179 4.10101 7.93124 4.10949 8.17695 4.12646V1.84899C8.17695 0.827982 9.00472 0 10.0259 0C11.183 0 12.0557 1.0507 11.8433 2.18838L11.343 4.86747C13.0601 5.61697 14.3586 6.91939 14.3586 8.55556V9.54545C14.3586 10.891 13.4685 12.0174 12.224 12.7782C10.9699 13.5446 9.27333 14 7.42929 14C5.58529 14 3.88869 13.5446 2.63456 12.7782C1.39015 12.0174 0.5 10.891 0.5 9.54545V8.55556C0.5 6.92788 1.7851 5.63111 3.48778 4.8795L2.98516 2.18838ZM10.7018 5.21959L11.2873 2.08444C11.4347 1.29535 10.829 0.565657 10.0259 0.565657C9.31717 0.565657 8.7426 1.14051 8.7426 1.84899V4.7494C8.55693 4.72606 8.36821 4.70697 8.17695 4.69354C7.93174 4.67586 7.68221 4.66667 7.42929 4.66667C7.16599 4.66667 6.90643 4.67657 6.65151 4.69566C6.46021 4.7098 6.27153 4.72889 6.08586 4.75363V1.84899C6.08586 1.14051 5.51133 0.565657 4.80263 0.565657C3.99953 0.565657 3.39378 1.29535 3.5412 2.08444L4.12862 5.2302C2.29226 5.91182 1.06566 7.14636 1.06566 8.55556V9.54545C1.06566 11.6935 3.91476 13.4343 7.42929 13.4343C10.9439 13.4343 13.7929 11.6935 13.7929 9.54545V8.55556C13.7929 7.13929 12.5538 5.89979 10.7018 5.21959Z" fill="#633001"/>
<path d="M13.7927 9.54459C13.7927 11.6927 10.9436 13.4335 7.42906 13.4335C3.91453 13.4335 1.06543 11.6927 1.06543 9.54459V8.55469H13.7927V9.54459Z" fill="#FEDC90"/>
<path fill-rule="evenodd" clip-rule="evenodd" d="M3.54098 2.08519C3.39355 1.2961 3.9993 0.566406 4.8024 0.566406C5.51111 0.566406 6.08563 1.14126 6.08563 1.84974V4.75438C6.51871 4.69711 6.96817 4.66741 7.42906 4.66741C7.87926 4.66741 8.31863 4.6957 8.74238 4.75015V1.84974C8.74238 1.14126 9.31694 0.566406 10.0256 0.566406C10.8287 0.566406 11.4345 1.2961 11.2871 2.08519L10.7016 5.22034C12.5536 5.90054 13.7927 7.14004 13.7927 8.5563C13.7927 10.7044 10.9436 12.4452 7.42906 12.4452C3.91453 12.4452 1.06543 10.7044 1.06543 8.5563C1.06543 7.14711 2.29203 5.91256 4.1284 5.23095L3.54098 2.08519Z" fill="#D1884F"/>
<path d="M5.6617 8.2735C5.6617 8.85895 5.34513 9.3341 4.95463 9.3341C4.56413 9.3341 4.24756 8.85895 4.24756 8.2735C4.24756 7.68804 4.56413 7.21289 4.95463 7.21289C5.34513 7.21289 5.6617 7.68804 5.6617 8.2735Z" fill="#633001"/>
<path d="M10.5406 8.2735C10.5406 8.85895 10.2241 9.3341 9.83354 9.3341C9.44302 9.3341 9.12646 8.85895 9.12646 8.2735C9.12646 7.68804 9.44302 7.21289 9.83354 7.21289C10.2241 7.21289 10.5406 7.68804 10.5406 8.2735Z" fill="#633001"/>
</svg>
