<svg width="64" height="64" viewBox="0 0 64 64" xmlns="http://www.w3.org/2000/svg">
<path d="M53.6278 5.0496e-05H24.3733V39.4663H63.8717V10.2118C63.8717 8.8681 63.6065 7.53757 63.0913 6.29652C62.5761 5.05547 61.821 3.92831 60.8694 2.97963C59.9177 2.03096 58.7882 1.27944 57.5455 0.76814C56.3029 0.256842 54.9715 -0.00417509 53.6278 5.0496e-05Z"/>
<path d="M15.2534 0H10.2118C7.50345 0 4.90604 1.07588 2.99096 2.99096C1.07588 4.90604 0 7.50345 0 10.2118L0 15.2534H15.2534V0Z" />
<path d="M0 24.373H15.2534V39.6265H0V24.373Z" />
<path d="M48.7466 63.8711H53.7882C55.132 63.8711 56.4625 63.6059 57.7036 63.0907C58.9446 62.5755 60.0718 61.8204 61.0204 60.8688C61.9691 59.9171 62.7206 58.7876 63.2319 57.5449C63.7432 56.3023 64.0043 54.9709 64 53.6272V48.7461H48.7466V63.8711Z" />
<path d="M24.3733 48.7461H39.6267V63.9995H24.3733V48.7461Z" />
<path d="M0 48.7461V53.7878C0 56.4961 1.07588 59.0935 2.99096 61.0086C4.90604 62.9237 7.50345 63.9995 10.2118 63.9995H15.2534V48.7461H0Z" />
</svg>
