<svg width="131" height="32" viewBox="0 0 131 32" fill="none" xmlns="http://www.w3.org/2000/svg">
<path d="M22.4915 2.11781e-05H10.2222V16.5522H26.7878V4.28285C26.7878 3.71929 26.6766 3.16126 26.4605 2.64077C26.2445 2.12027 25.9278 1.64753 25.5287 1.24966C25.1295 0.851787 24.6558 0.536597 24.1346 0.322158C23.6135 0.10772 23.0551 -0.00175104 22.4915 2.11781e-05Z" fill="#142533"/>
<path d="M6.39731 0H4.28283C3.14695 0 2.0576 0.451225 1.25441 1.25441C0.451225 2.0576 0 3.14695 0 4.28283L0 6.39731H6.39731V0Z" fill="#142533"/>
<path d="M0 10.2217H6.39731V16.619H0V10.2217Z" fill="#142533"/>
<path d="M20.4443 26.7878H22.5588C23.1224 26.7878 23.6804 26.6765 24.2009 26.4605C24.7214 26.2444 25.1941 25.9277 25.592 25.5286C25.9899 25.1295 26.3051 24.6557 26.5195 24.1346C26.7339 23.6134 26.8434 23.055 26.8416 22.4915V20.4443H20.4443V26.7878Z" fill="#142533"/>
<path d="M10.2222 20.4443H16.6195V26.8416H10.2222V20.4443Z" fill="#142533"/>
<path d="M0 20.4443V22.5588C0 23.6947 0.451225 24.784 1.25441 25.5872C2.0576 26.3904 3.14695 26.8416 4.28283 26.8416H6.39731V20.4443H0Z" fill="#142533"/>
<path d="M43.1381 1.70996H40.6331V25.1308H53.899V22.8951H43.1381V1.70996Z" fill="#142533"/>
<path d="M61.9528 7.91895C57.0774 7.91895 53.6431 11.5418 53.6431 16.754V17.3466C53.7229 19.5513 54.6518 21.6399 56.2355 23.176C57.8192 24.712 59.9352 25.5765 62.1414 25.589H62.4646C64.7464 25.585 66.9523 24.7685 68.6868 23.2859V23.2186L67.5555 21.3735L67.4343 21.4408C66.0877 22.697 64.3195 23.4033 62.4781 23.4206C61.636 23.4394 60.7989 23.2862 60.0179 22.9705C59.237 22.6548 58.5287 22.1831 57.9362 21.5844C57.3438 20.9856 56.8796 20.2723 56.5722 19.4881C56.2647 18.7039 56.1204 17.8652 56.1481 17.0233H68.808V16.8886C68.808 16.8886 68.808 16.094 68.808 15.7035C68.9293 10.9492 66.1683 7.91895 61.9528 7.91895ZM56.2828 14.9088C56.4447 13.5567 57.0983 12.3113 58.119 11.4098C59.1397 10.5083 60.4563 10.0136 61.8181 10.02C63.9326 10.02 66.2491 11.2859 66.4377 14.9088H56.2828Z" fill="#142533"/>
<path d="M83.5017 9.89851V10.7739C82.9749 9.89625 82.2311 9.16887 81.3418 8.66176C80.4526 8.15464 79.4479 7.88484 78.4242 7.87831H78.1145C73.6296 7.87831 70.532 11.4339 70.532 16.646C70.532 21.8581 73.4949 25.4945 77.9125 25.4945C79.0372 25.5481 80.1552 25.2928 81.1452 24.7562C82.1353 24.2197 82.9595 23.4223 83.5286 22.4507V25.0231H85.899V1.70996H83.5017V9.89851ZM78.3569 23.2857C75.2593 23.2857 73.2121 20.5921 73.2121 16.6864C73.2121 12.7807 75.3805 10.1544 78.4242 10.1544C80.9428 10.1544 83.5017 12.2015 83.5017 16.6864C83.5017 21.5483 80.8081 23.2857 78.303 23.2857H78.3569Z" fill="#142533"/>
<path d="M100.404 10.2219V10.3566C99.9329 9.562 98.4918 7.85156 95.017 7.85156C90.5995 7.85156 87.6904 11.2186 87.6904 16.3633C87.6904 21.5081 90.7342 24.9963 95.219 24.9963C96.2519 25.073 97.2858 24.8618 98.2059 24.3863C99.126 23.9108 99.8962 23.1896 100.431 22.3027V24.6192C100.431 27.8516 98.384 29.6967 94.7477 29.6967C93.1804 29.7067 91.6335 29.3419 90.2359 28.6327L90.1147 28.5654L89.1854 30.6125L89.3201 30.6798C91.0162 31.5398 92.8866 32.0005 94.7881 32.0266C98.6803 32.0266 102.869 30.0468 102.869 24.5654V8.40375H100.404V10.2219ZM95.5153 22.8953C92.283 22.8953 90.1281 20.3903 90.1281 16.498C90.1281 12.6058 91.9733 10.2893 95.1382 10.2893C98.6265 10.2893 100.283 12.3364 100.283 16.498C100.283 20.6596 98.6803 22.8953 95.5153 22.8953Z" fill="#142533"/>
<path d="M112.808 7.91895C107.919 7.91895 104.552 11.5418 104.552 16.6866V17.2792C104.622 19.5075 105.557 21.6211 107.158 23.1722C108.759 24.7233 110.902 25.5901 113.131 25.589H113.468C115.742 25.576 117.938 24.755 119.663 23.2725L118.518 21.3062H118.384C117.042 22.5615 115.278 23.2679 113.441 23.286C112.598 23.3046 111.76 23.1515 110.979 22.8359C110.197 22.5204 109.488 22.0489 108.895 21.4504C108.301 20.8518 107.836 20.1387 107.527 19.3544C107.218 18.5701 107.072 17.7312 107.097 16.8886H119.865V16.754C119.865 16.754 119.865 15.9594 119.865 15.5688C119.865 10.9492 117.091 7.91895 112.808 7.91895ZM107.192 14.9088C107.357 13.5555 108.013 12.31 109.036 11.4087C110.059 10.5074 111.377 10.0132 112.741 10.02C114.842 10.02 117.158 11.2859 117.347 14.9088H107.192Z" fill="#142533"/>
<path d="M130.155 8.2421C129.818 8.2421 129.562 8.2421 129.226 8.10742C128.062 8.14098 126.937 8.53278 126.004 9.22937C125.071 9.92596 124.376 10.8934 124.013 11.9997V8.2421H121.576V24.929V25.0637H124.081V18.0064C124.089 16.9216 124.267 15.8448 124.606 14.8145C125.401 12.2421 127.178 10.599 129.293 10.599C129.557 10.5723 129.823 10.5723 130.087 10.599H130.222V8.2421H130.155Z" fill="#142533"/>
</svg>
