<svg width="64" height="64" viewBox="0 0 64 64" fill="none" xmlns="http://www.w3.org/2000/svg">
<circle cx="32" cy="32" r="30.75" stroke="currentColor" stroke-width="2.5"/>
<path fill-rule="evenodd" clip-rule="evenodd" d="M30.25 43C30.25 43.5523 30.6977 44 31.25 44H32.75C33.3023 44 33.75 43.5523 33.75 43V23.4275H35.5V26.856H37.25C40.1495 26.856 42.5 29.1585 42.5 31.9988C42.5 34.8392 40.1495 37.1417 37.25 37.1417H35.5V40.5703H37.25C42.0825 40.5703 46 36.7327 46 31.9988C46 27.265 42.0825 23.4274 37.25 23.4274H33.75V21C33.75 20.4477 33.3023 20 32.75 20H31.25C30.6977 20 30.25 20.4477 30.25 21V23.4274H26.75C21.9175 23.4274 18 27.265 18 31.9988C18 36.7327 21.9175 40.5703 26.75 40.5703H28.5V37.1417H26.75C23.8505 37.1417 21.5 34.8392 21.5 31.9988C21.5 29.1585 23.8505 26.856 26.75 26.856H28.5V23.4275H30.25V43Z" fill="currentColor"/>
</svg>
