<svg width="122" height="146" viewBox="0 0 122 146" xmlns="http://www.w3.org/2000/svg">
<path fill-rule="evenodd" clip-rule="evenodd" d="M46.5003 19.8111C46.4724 25.8615 48.9524 31.8009 53.2934 36.0898L53.2949 36.0913L64.4967 47.1822L75.6413 36.0947L75.6492 36.0867C80.0074 31.7993 82.4995 25.8495 82.5 19.7737C82.4909 9.9906 74.4316 2 64.5102 2H64.5001C54.5602 2 46.5003 10.0086 46.5003 19.8019V19.8111ZM84.5 19.7719C84.5 22.9576 83.8717 26.1084 82.6906 29.04C90.5212 32.0533 97.7159 36.6897 103.763 42.7369C115.106 54.0796 121.485 69.4591 121.5 85.5C121.5 97.4658 117.952 109.163 111.304 119.112C104.656 129.061 95.2073 136.816 84.1524 141.395C73.0974 145.974 60.9329 147.172 49.1971 144.838C37.4612 142.503 26.6811 136.741 18.2201 128.28C9.75899 119.819 3.99692 109.039 1.66252 97.303C-0.671888 85.5672 0.526214 73.4026 5.10531 62.3477C9.68442 51.2928 17.4389 41.844 27.388 35.1961C32.9802 31.4595 39.1246 28.7022 45.5586 27.0038L45.5617 27.0138C44.8549 24.6858 44.489 22.2535 44.5003 19.8019C44.5003 8.88533 53.4744 0 64.5001 0H64.5102C75.5157 0 84.4899 8.86532 84.5 19.7719ZM77.0518 37.5125C79.0884 35.509 80.75 33.1729 81.9828 30.6352C81.9606 30.6809 81.9383 30.7266 81.9158 30.7721C92.6066 34.8778 101.881 42.0282 108.575 51.3608C115.714 61.3141 119.562 73.251 119.579 85.5C119.574 87.6434 119.453 89.7849 119.214 91.915C116.43 87.9777 113.453 83.6754 111.743 81.121C109.477 77.7215 106.404 76.0121 103.888 76.7611C101.66 77.4526 100.373 79.9302 100.373 83.5794C100.373 85.5 99.9505 86.8445 99.2014 87.2478C98.4524 87.6511 96.8198 87.0558 96.2244 86.6908C92.5752 82.1389 83.99 72.0556 80.6481 73.2464C80.0143 73.4769 79.246 74.1299 79.246 75.9161C79.246 80.8917 82.2397 83.0262 84.4462 84.5995L84.4702 84.6165C86.0451 85.6921 86.9286 86.4604 86.9286 87.4207C86.6182 89.2 85.9659 90.9023 85.0079 92.4335C82.6126 96.7901 81.2955 101.657 81.1667 106.627C81.1667 113.196 77.3254 124.719 71.1794 128.541C70.0177 129.286 68.677 129.704 67.2982 129.751C65.9193 129.798 64.5531 129.473 63.3432 128.81C55.6607 124.969 56.2368 121.493 57.2932 115.788C57.7906 113.405 58.067 110.982 58.1191 108.548C58.1191 97.7153 53.2791 92.2223 43.7143 92.2223C38.4134 92.2223 34.9946 91.0507 33.5541 88.7459C32.1137 86.4411 32.6322 82.984 34.9754 78.24C36.3763 75.1872 38.7154 72.6615 41.6519 71.0309C44.5884 69.4003 47.9689 68.7499 51.3008 69.1746C54.0281 69.4435 67.7607 70.6535 70.7952 67.907C71.0334 67.7106 71.2256 67.4643 71.3583 67.1856C71.4911 66.9068 71.5611 66.6024 71.5635 66.2937C71.5635 61.4921 62.7862 57.6508 55.2381 57.6508C51.3025 57.8836 47.4426 58.8339 43.8488 60.455C41.9281 61.2232 39.124 62.2604 38.6246 61.7802C38.0614 61.1835 37.649 60.4607 37.4218 59.6723C37.1946 58.8838 37.1592 58.0524 37.3186 57.2475C37.7795 55.6342 39.3929 54.4434 42.0241 53.7712C48.8808 52.0618 50.0332 50.2372 52.5684 46.2039C53.0166 45.474 53.5351 44.6673 54.1241 43.7839C54.7181 42.8629 55.4225 42.2202 56.204 41.786L64.5001 50L77.0518 37.5125ZM51.8878 37.5125L54.8078 40.4036C53.9595 40.9475 53.1814 41.6963 52.5108 42.7083C51.9154 43.6302 51.3968 44.4369 50.9359 45.1859C48.5543 49.0272 47.6708 50.3908 41.5632 51.9273C37.3378 52.9645 35.9165 55.1156 35.4748 56.7481C35.2195 57.8772 35.251 59.0523 35.5663 60.1661C35.8817 61.2799 36.4709 62.297 37.2802 63.1246C38.6438 64.5075 41.1214 63.5664 44.5402 62.2412C47.9178 60.7187 51.5412 59.8145 55.2381 59.5715C62.9207 59.5715 69.6429 63.4127 69.6429 66.2937L69.5084 66.4858C67.5878 68.1759 57.466 67.8494 51.5505 67.2732C47.8246 66.8372 44.0558 67.579 40.773 69.3943C37.4902 71.2096 34.8583 74.0075 33.2468 77.395C30.5964 82.7151 30.1546 86.8637 31.9216 89.7446C33.6886 92.6256 37.7027 94.1429 43.7143 94.1429C52.2227 94.1429 56.1984 98.714 56.1984 108.548C56.1516 110.867 55.8815 113.176 55.3918 115.443C54.2778 121.032 53.4519 126.025 62.4981 130.635C63.9169 131.373 65.4892 131.768 67.0884 131.787C68.8994 131.766 70.6686 131.241 72.1973 130.27C79.246 125.833 83.0873 113.503 83.0873 106.627C83.2559 101.9 84.5744 97.2852 86.9286 93.1826C87.9641 91.4171 88.6184 89.4544 88.8492 87.4207C88.8492 85.3431 87.2036 84.1735 85.6206 83.0483L85.5841 83.0224C83.4138 81.4859 81.1667 79.8918 81.1667 75.8969C81.1365 75.6083 81.1829 75.3168 81.3011 75.0518C82.6648 74.6485 88.9837 80.6984 94.7456 88.0161L94.9568 88.2273C95.6822 88.7456 96.522 89.0809 97.4049 89.2046C98.2878 89.3284 99.1874 89.2369 100.027 88.938C101.564 88.1697 102.294 86.4604 102.294 83.5794C102.294 80.6984 103.081 79.0275 104.445 78.605C105.808 78.1824 108.382 79.5461 110.207 82.1965C110.629 82.8104 111.153 83.5748 111.747 84.4416L111.748 84.4432L111.748 84.4439L111.75 84.446C113.719 87.3212 116.46 91.3221 118.85 94.6999C116.645 108.461 109.613 120.988 99.0129 130.037C88.4126 139.085 74.9369 144.063 61 144.079C53.0254 144.08 45.1351 142.449 37.8153 139.284C30.4954 136.12 23.9011 131.49 18.4388 125.68C18.9765 109.719 16.8062 99.4823 11.7357 94.431C9.37336 92.0494 6.81891 83.2913 4.55257 69.8661C7.98287 57.5269 15.3574 46.6496 25.5499 38.8951C31.7402 34.1855 38.7632 30.785 46.1932 28.8374C47.4537 32.0682 49.387 35.0418 51.8878 37.5125ZM10.3913 95.7178C7.9713 93.3554 5.62812 86.2299 3.45781 74.5908V74.5332C1.80748 83.1635 2.13023 92.0553 4.40188 100.543C6.67354 109.031 10.8353 116.896 16.5757 123.548C16.8446 109.47 14.7703 100.116 10.3913 95.7178ZM60.5639 16.04C61.5959 15.032 62.9879 14.528 64.7639 14.528C66.3239 14.528 67.5959 14.936 68.5559 15.8C69.5159 16.64 69.9959 17.792 69.9959 19.256C69.9959 20.456 69.6839 21.44 69.1079 22.208C68.8919 22.448 68.1959 23.096 67.0439 24.104C66.6119 24.464 66.2999 24.872 66.0839 25.304C65.8439 25.784 65.7239 26.288 65.7239 26.864V27.2H62.9639V26.864C62.9639 25.952 63.1079 25.16 63.4439 24.512C63.7559 23.864 64.6919 22.856 66.2519 21.464L66.5399 21.128C66.9719 20.6 67.1879 20.024 67.1879 19.424C67.1879 18.632 66.9479 18.008 66.5159 17.552C66.0599 17.096 65.4119 16.88 64.5959 16.88C63.5399 16.88 62.7959 17.192 62.3399 17.864C61.9319 18.416 61.7399 19.208 61.7399 20.216H59.0039C59.0039 18.44 59.5079 17.048 60.5639 16.04ZM63.0119 28.88C63.3719 28.544 63.8039 28.376 64.3319 28.376C64.8599 28.376 65.3159 28.544 65.6759 28.88C66.0119 29.216 66.2039 29.648 66.2039 30.176C66.2039 30.704 66.0119 31.16 65.6519 31.496C65.2919 31.832 64.8599 32 64.3319 32C63.8039 32 63.3719 31.808 63.0119 31.472C62.6519 31.136 62.4839 30.704 62.4839 30.176C62.4839 29.648 62.6519 29.216 63.0119 28.88Z"/>
</svg>
