<svg width="64" height="64" viewBox="0 0 64 64" fill="none" xmlns="http://www.w3.org/2000/svg">
<path d="M42.477 16.2687C44.7534 16.2687 46.5987 14.4177 46.5987 12.1344C46.5987 9.85102 44.7534 8 42.477 8C40.2006 8 38.3552 9.85102 38.3552 12.1344C38.3552 14.4177 40.2006 16.2687 42.477 16.2687ZM39.6742 24.8681C39.6742 31.2615 34.5072 36.4444 28.1334 36.4444C21.7595 36.4444 16.5925 31.2615 16.5925 24.8681C16.5925 18.4748 21.7595 13.2919 28.1334 13.2919C34.5072 13.2919 39.6742 18.4748 39.6742 24.8681ZM0.251709 52.5133H2.21438V45.1469L5.23734 52.5133H6.8202L9.82746 45.1469V52.5133H11.7901V41.4001H9.38427L6.02891 49.608L2.67355 41.4001H0.251709V52.5133ZM17.1598 52.6404C19.5814 52.6404 21.3225 50.894 21.3225 48.5126C21.3225 46.1312 19.5814 44.3849 17.1598 44.3849C14.7225 44.3849 12.9814 46.1312 12.9814 48.5126C12.9814 50.894 14.7225 52.6404 17.1598 52.6404ZM17.1598 50.9575C15.8302 50.9575 14.9441 49.9573 14.9441 48.5126C14.9441 47.0679 15.8302 46.0677 17.1598 46.0677C18.4737 46.0677 19.3598 47.0679 19.3598 48.5126C19.3598 49.9573 18.4737 50.9575 17.1598 50.9575ZM30.2333 48.5126C30.2333 50.894 28.4923 52.6404 26.0707 52.6404C23.6334 52.6404 21.8923 50.894 21.8923 48.5126C21.8923 46.1312 23.6334 44.3849 26.0707 44.3849C28.4923 44.3849 30.2333 46.1312 30.2333 48.5126ZM23.855 48.5126C23.855 49.9573 24.7411 50.9575 26.0707 50.9575C27.3846 50.9575 28.2707 49.9573 28.2707 48.5126C28.2707 47.0679 27.3846 46.0677 26.0707 46.0677C24.7411 46.0677 23.855 47.0679 23.855 48.5126ZM31.2307 52.5134H33.1777V48.1475C33.1777 46.9727 33.9373 46.1154 35.0293 46.1154C36.0265 46.1154 36.6912 46.8774 36.6912 47.9729V52.5134H38.6379V47.5601C38.6379 45.6867 37.4668 44.3849 35.6624 44.3849C34.523 44.3849 33.6209 44.877 33.1777 45.7502V44.5119H31.2307V52.5134ZM42.3595 52.5133H40.2544V41.4001H44.702C47.0128 41.4001 48.3898 42.829 48.3898 44.8452C48.3898 46.8615 47.0128 48.2903 44.702 48.2903H42.3595V52.5133ZM42.3595 43.1624V46.5281H44.6069C45.8414 46.5281 46.348 45.7343 46.348 44.8452C46.348 43.9562 45.8414 43.1624 44.6069 43.1624H42.3595ZM52.1274 44.3849C50.0539 44.3849 48.7086 45.6232 48.6135 47.2108H50.3546C50.3863 46.4964 51.0037 45.8455 52.0323 45.8455C53.0612 45.8455 53.6626 46.4011 53.6626 47.1791C53.6626 47.4966 53.4727 47.7188 53.0769 47.7188H51.6051C49.8166 47.7188 48.6135 48.6873 48.6135 50.2431C48.6135 51.6243 49.6898 52.6404 51.2727 52.6404C52.4124 52.6404 53.3302 52.1165 53.6626 51.3227V52.5134H55.5778V47.3696C55.5778 45.5597 54.1532 44.3849 52.1274 44.3849ZM51.7316 51.1957C51.0037 51.1957 50.4971 50.7829 50.4971 50.1637C50.4971 49.4652 51.0511 49.0048 51.8741 49.0048H53.6626V49.1318C53.6626 50.3384 52.9504 51.1957 51.7316 51.1957ZM61.464 44.5118H63.4583L60.6727 52.1323L59.4382 55.752H57.5863L58.71 52.5133L55.7979 44.5118H57.7762L59.6281 50.0049L61.464 44.5118Z" />
</svg>
