<svg xmlns="http://www.w3.org/2000/svg" width="25" height="25.004" viewBox="0 0 25 25.004">
    <path fill="#cda349" d="M14.5 2a3.584 3.584 0 0 0-2.543 1.054L9.628 5.383l4.872 4.874 4.874-4.874-2.327-2.329A3.589 3.589 0 0 0 14.5 2zM8.268 6.743l-5.214 5.214a3.6 3.6 0 0 0 0 5.088l2.329 2.329 7.759-7.757zm12.466 0l-4.872 4.872 3.927 3.929 4.874-4.874zm5.284 5.3l-4.867 4.865 2.47 2.47 2.329-2.329a3.592 3.592 0 0 0 .068-5.008zm-11.518.934l-7.757 7.759 5.214 5.214a3.6 3.6 0 0 0 5.088 0l5.214-5.214z" transform="translate(-2 -2)"/>
</svg>
