<svg xmlns="http://www.w3.org/2000/svg" viewBox="0 0 61.84 61.84"><defs><style>.cls-1{fill:#464646;}</style></defs><g id="Layer_2" data-name="Layer 2"><g id="Layer_1-2" data-name="Layer 1"><g id="Layer_1-2-2" data-name="Layer 1-2"><path class="cls-1" d="M18.91,26l12-12,12,12,7-7-19-19-19,19,7,7M0,30.92l7-7,7,7-7,7Zm18.91,4.94,12,12,12-12,7,7h0l-19,19-19-19h0l7-7m29-4.94,7-7,7,7-7,7Z"/><path class="cls-1" d="M38,30.92h0l-7.09-7.09-5.24,5.24h0l-.6.6-1.24,1.24h0L30.92,38,38,30.92h0"/></g></g></g></svg>