<svg xmlns="http://www.w3.org/2000/svg" viewBox="0 0 51.66 52.21"><defs><style>.cls-1{fill:#464646;}</style></defs><g id="Layer_2" data-name="Layer 2"><g id="Layer_1-2" data-name="Layer 1"><path class="cls-1" d="M16.66,17a.16.16,0,0,1,.1,0h0Zm-5.77,2.91v.05h0A.09.09,0,0,1,10.89,19.88ZM32,41.19s0,0,0,0l.39,0C32.2,41.19,32.07,41.2,32,41.19Zm3-5.93h0l.1,0Zm3.85,4.52.43-.17h0Z"/><path class="cls-1" d="M16.66,17a.16.16,0,0,1,.1,0h0Zm0,0a.16.16,0,0,1,.1,0h0ZM34.91,35.26h0l.1,0Zm4.28,4.35h0c.06-.15.12-.3.17-.45C39.32,39.31,39.26,39.45,39.19,39.61Zm1.58-7.33c0,.13,0,.26,0,.38,0-.13,0-.25,0-.39Z"/><path class="cls-1" d="M31.27,0a20.4,20.4,0,0,0-18.8,12.6A20.65,20.65,0,0,0,20.4,52.21a20.4,20.4,0,0,0,18.79-12.6l-.43.17.43-.17c.07-.16.13-.3.18-.45,0,.15-.11.3-.17.45A20.65,20.65,0,0,0,31.27,0Zm.67,41.21a14.85,14.85,0,0,1-11.54,5.5,15.15,15.15,0,0,1-9.51-26.78v-.05a.09.09,0,0,0,0,.05c0,.23,0,.45,0,.68A20.5,20.5,0,0,0,31.27,41.22c.23,0,.45,0,.68,0s.25,0,.38,0Zm3-6,.1,0-.1,0h0a14.08,14.08,0,0,1-3.64.46,15,15,0,0,1-15-15.11A15.22,15.22,0,0,1,16.76,17a.16.16,0,0,0-.1,0l.1,0h0a14.52,14.52,0,0,1,3.64-.46,15,15,0,0,1,15,15.11A15.22,15.22,0,0,1,34.91,35.26Zm5.87-3c0,.14,0,.26,0,.39,0-.12,0-.25,0-.38s0-.45,0-.68A20.5,20.5,0,0,0,20.4,11l-.68,0h0A14.87,14.87,0,0,1,31.27,5.5a15.14,15.14,0,0,1,9.51,26.77Z"/><path class="cls-1" d="M32,41.19s0,0,0,0l.39,0C32.2,41.19,32.07,41.2,32,41.19Zm6.81-1.41.43-.17h0Zm.43-.17h0c.06-.15.12-.3.17-.45C39.32,39.31,39.26,39.45,39.19,39.61Zm1.58-7.33c0,.13,0,.26,0,.38,0-.13,0-.25,0-.39ZM19.72,11h0Zm-8.83,8.88v.05h0A.09.09,0,0,1,10.89,19.88Z"/></g></g></svg>