<svg xmlns="http://www.w3.org/2000/svg" width="25" height="25" viewBox="0 0 25 25">
    <path fill="#cda349" d="M14 2a12.5 12.5 0 1 0 12.5 12.5A12.5 12.5 0 0 0 14 2zm0 2.083A10.417 10.417 0 1 1 3.583 14.5 10.428 10.428 0 0 1 14 4.083zm-1.042 2.084v2.514a5.031 5.031 0 0 0-4.167 4.777v2.083a5.031 5.031 0 0 0 4.167 4.777v2.515h2.083V20.42a5.1 5.1 0 0 0 3.841-3.064l-1.949-.728a3.127 3.127 0 0 1-6.059-1.086v-2.084a3.127 3.127 0 0 1 6.059-1.086l1.949-.728a5.1 5.1 0 0 0-3.84-3.064V6.167z" transform="translate(-1.5 -2)"/>
</svg>
