<svg xmlns="http://www.w3.org/2000/svg" width="20" height="18.571" viewBox="0 0 20 18.571">
    <path id="copy" fill="#fafafa" d="M3.143 1A2.151 2.151 0 0 0 1 3.143v11.428a2.151 2.151 0 0 0 2.143 2.143h2.143v.714a2.151 2.151 0 0 0 2.143 2.143h11.428A2.151 2.151 0 0 0 21 17.429V6a2.151 2.151 0 0 0-2.143-2.143h-2.143v-.714A2.151 2.151 0 0 0 14.571 1zm0 1.429h11.428a.705.705 0 0 1 .714.714v11.428a.705.705 0 0 1-.714.714H3.143a.705.705 0 0 1-.714-.714V3.143a.705.705 0 0 1 .714-.714zm13.571 2.857h2.143a.705.705 0 0 1 .714.714v11.429a.705.705 0 0 1-.714.714H7.429a.705.705 0 0 1-.714-.714v-.714h7.857a2.151 2.151 0 0 0 2.143-2.143z" transform="translate(-1 -1)"/>
</svg>
