<svg id="Layer_1" data-name="Layer 1" xmlns="http://www.w3.org/2000/svg" viewBox="0 0 53.873 61.842"><defs><style>.cls-1{fill:#464646;}</style></defs><title>Logo chains</title><path class="cls-1" d="M48.45,37.792a83.393,83.393,0,0,0-8.55-6.733,83.256,83.256,0,0,0,8.55-6.732c2.557-2.345,6.663-6.6,5.423-8.747s-6.979-.72-10.29.321l-.039.013a2.18,2.18,0,0,0-4,1.205c0,.069.014.134.02.2-1.964.759-4.033,1.649-6.17,2.653A83.185,83.185,0,0,0,31.822,9.057C31.068,5.674,29.432,0,26.946,0s-4.121,5.674-4.875,9.057A82.837,82.837,0,0,0,20.5,19.879,83.13,83.13,0,0,0,10.517,15.9C7.207,14.86,1.468,13.434.228,15.58c-1.159,2.006,2.349,5.852,4.9,8.261a2.163,2.163,0,0,0,3.03,2.66C9.967,27.993,12,29.525,14.2,31.059a83.146,83.146,0,0,0-8.55,6.733c-2.558,2.344-6.663,6.6-5.423,8.746.472.817,1.6,1.117,2.99,1.117a27.455,27.455,0,0,0,7.3-1.438,83.012,83.012,0,0,0,10.01-3.989c.224,2.559.523,4.98.9,7.2a2.177,2.177,0,0,0,.786,3.955c.806,3.411,2.394,8.454,4.737,8.454,2.486,0,4.122-5.674,4.876-9.057a82.562,82.562,0,0,0,1.552-10.65,83.456,83.456,0,0,0,10.209,4.082,27.463,27.463,0,0,0,7.3,1.438c1.393,0,2.517-.3,2.99-1.117C55.113,44.391,51.007,40.136,48.45,37.792ZM40.124,18.586A2.167,2.167,0,0,0,43.9,17.253l.1-.033a24.317,24.317,0,0,1,6.882-1.376c1.175,0,1.689.244,1.795.428.226.391-.237,2.523-5.16,7.036a83.1,83.1,0,0,1-8.832,6.915c-1.562-1.059-3.2-2.115-4.9-3.157-.053-1.921-.145-3.8-.275-5.621C35.809,20.353,38.028,19.4,40.124,18.586ZM29.8,35.82q-1.38.8-2.751,1.545-1.369-.75-2.75-1.545-1.439-.831-2.829-1.678-.036-1.595-.038-3.221,0-1.482.032-2.94,1.393-.849,2.835-1.682,1.378-.8,2.75-1.546,1.371.75,2.751,1.546,1.332.768,2.625,1.553.033,1.519.033,3.069,0,1.692-.041,3.35Q31.13,35.053,29.8,35.82Zm2.567.093c-.051,1.4-.122,2.766-.214,4.105q-1.806-.888-3.658-1.873c.664-.369,1.329-.743,2-1.128Q31.44,36.47,32.368,35.913ZM25.6,38.145q-1.95,1.038-3.858,1.97c-.1-1.41-.174-2.856-.226-4.33q1.034.621,2.089,1.232C24.275,37.4,24.94,37.776,25.6,38.145Zm-5.531-4.867q-1.764-1.1-3.427-2.219,1.657-1.111,3.422-2.215c-.01.688-.017,1.38-.017,2.077C20.051,31.712,20.06,32.5,20.073,33.278Zm1.436-6.938q.073-2.218.218-4.346,1.912.934,3.877,1.98-1,.553-1.995,1.127Q22.545,25.715,21.509,26.34ZM28.5,23.973q1.859-.987,3.677-1.881c.089,1.343.158,2.72.206,4.12q-.934-.558-1.887-1.111C29.825,24.717,29.16,24.343,28.5,23.973Zm5.327,4.739q1.872,1.166,3.631,2.347Q35.7,32.24,33.818,33.41q.023-1.236.024-2.489C33.842,30.179,33.834,29.444,33.823,28.712ZM23.42,9.357c1.452-6.509,3.073-7.975,3.526-7.975s2.075,1.466,3.527,7.975a83.167,83.167,0,0,1,1.592,11.252c-1.644.8-3.321,1.657-5.015,2.572-1.762-.952-3.506-1.844-5.213-2.669A82.618,82.618,0,0,1,23.42,9.357ZM9.131,25.512a2.173,2.173,0,0,0-3.149-2.77c-4.347-4.123-4.773-6.1-4.557-6.47.106-.184.62-.428,1.8-.428A24.315,24.315,0,0,1,10.1,17.22a82.918,82.918,0,0,1,10.285,4.131c-.137,1.89-.233,3.845-.286,5.844-1.622,1-3.188,2.013-4.684,3.028C13.12,28.637,11,27.053,9.131,25.512ZM10.1,44.9c-6.372,2-8.452,1.34-8.678.949s.238-2.523,5.16-7.036A82.861,82.861,0,0,1,15.418,31.9q2.249,1.524,4.692,3.032c.057,2,.157,3.945.3,5.83A82.853,82.853,0,0,1,10.1,44.9Zm20.37,7.586c-1.452,6.51-3.073,7.975-3.527,7.975-.436,0-1.954-1.359-3.361-7.261a2.168,2.168,0,0,0-.82-4.115c-.382-2.3-.685-4.823-.906-7.488,1.7-.821,3.437-1.71,5.191-2.658,1.686.911,3.355,1.767,4.992,2.562A82.432,82.432,0,0,1,30.473,52.484Zm22.2-6.637c-.226.391-2.3,1.056-8.677-.949a83.265,83.265,0,0,1-10.506-4.234c.134-1.815.231-3.689.287-5.606,1.7-1.044,3.34-2.1,4.9-3.162a82.842,82.842,0,0,1,8.832,6.915C52.438,43.324,52.9,45.455,52.675,45.847Z"/><path class="cls-1" d="M26.944,27.359a3.7,3.7,0,1,0,3.7,3.7A3.7,3.7,0,0,0,26.944,27.359Z"/></svg>