<svg xmlns="http://www.w3.org/2000/svg" viewBox="0 0 54.1 61.84"><defs><style>.cls-1{fill:#464646;}</style></defs><g id="Layer_2" data-name="Layer 2"><g id="Layer_1-2" data-name="Layer 1"><path class="cls-1" d="M48.45,37.79a83.54,83.54,0,0,0-8.55-6.73,83.54,83.54,0,0,0,8.55-6.73c2.56-2.35,6.66-6.6,5.42-8.75s-7-.72-10.29.32h0a2.18,2.18,0,0,0-4,1.21,1.36,1.36,0,0,0,0,.2c-2,.76-4,1.65-6.17,2.65A81.63,81.63,0,0,0,31.82,9.06C31.07,5.67,29.43,0,27,0s-4.13,5.67-4.88,9.06A83.85,83.85,0,0,0,20.5,19.88a83.91,83.91,0,0,0-10-4c-3.31-1-9-2.47-10.29-.32s2.35,5.85,4.9,8.26a2.17,2.17,0,0,0,3,2.66c1.81,1.49,3.84,3,6,4.56a83.54,83.54,0,0,0-8.55,6.73C3.09,40.14-1,44.39.23,46.54c.47.82,1.59,1.11,3,1.11a27.64,27.64,0,0,0,7.3-1.43,83.36,83.36,0,0,0,10-4c.22,2.56.52,5,.89,7.2a2.18,2.18,0,0,0,.79,4C23,56.8,24.6,61.84,27,61.84s4.12-5.67,4.87-9.05a82.2,82.2,0,0,0,1.55-10.65,84.86,84.86,0,0,0,10.21,4.08,27.64,27.64,0,0,0,7.3,1.43c1.4,0,2.52-.29,3-1.11C55.11,44.39,51,40.14,48.45,37.79Zm-8.33-19.2a2.18,2.18,0,0,0,3.78-1.34l.1,0a24.48,24.48,0,0,1,6.88-1.38c1.17,0,1.69.25,1.8.43.22.39-.24,2.52-5.16,7a82.82,82.82,0,0,1-8.84,6.91c-1.56-1.06-3.2-2.11-4.89-3.15-.06-1.93-.15-3.8-.28-5.62C35.81,20.35,38,19.39,40.12,18.59ZM29.8,35.82c-.92.53-1.84,1-2.75,1.55-.91-.5-1.83-1-2.75-1.55s-1.9-1.11-2.83-1.68c0-1.06,0-2.14,0-3.22s0-2,0-2.94c.93-.56,1.88-1.13,2.84-1.68s1.84-1.05,2.75-1.55c.91.5,1.83,1,2.75,1.55s1.76,1,2.63,1.55c0,1,0,2,0,3.07s0,2.25,0,3.35C31.56,34.79,30.69,35.31,29.8,35.82Zm2.57.09c0,1.4-.12,2.77-.22,4.11-1.2-.59-2.42-1.22-3.65-1.88.66-.36,1.33-.74,2-1.12ZM25.6,38.14c-1.3.7-2.58,1.35-3.85,2-.1-1.41-.18-2.85-.23-4.32L23.61,37C24.28,37.4,24.94,37.78,25.6,38.14Zm-5.53-4.86c-1.17-.74-2.32-1.48-3.42-2.22Q18.3,30,20.07,28.84c0,.69,0,1.38,0,2.08S20.06,32.5,20.07,33.28Zm1.44-6.94c0-1.48.12-2.93.22-4.35,1.27.63,2.57,1.29,3.87,2l-2,1.13C22.9,25.51,22.2,25.92,21.51,26.34Zm7-2.37c1.23-.66,2.46-1.28,3.67-1.88.09,1.35.16,2.72.21,4.12L30.49,25.1Zm5.32,4.74c1.25.78,2.46,1.56,3.63,2.35-1.17.79-2.38,1.57-3.63,2.35,0-.82,0-1.65,0-2.49S33.83,29.44,33.82,28.71ZM23.42,9.36c1.45-6.51,3.07-8,3.53-8s2.07,1.47,3.52,8a82.48,82.48,0,0,1,1.59,11.25c-1.64.8-3.32,1.66-5,2.57-1.76-.95-3.51-1.84-5.21-2.67A82.77,82.77,0,0,1,23.42,9.36ZM9.13,25.51a2.15,2.15,0,0,0,.23-1,2.19,2.19,0,0,0-2.18-2.18,2.23,2.23,0,0,0-1.2.36c-4.35-4.12-4.77-6.09-4.55-6.47.1-.18.62-.43,1.79-.43a24.48,24.48,0,0,1,6.88,1.38,82.33,82.33,0,0,1,10.29,4.13c-.14,1.89-.23,3.85-.29,5.85-1.62,1-3.19,2-4.68,3C13.12,28.64,11,27.05,9.13,25.51Zm1,19.39c-6.37,2-8.45,1.34-8.67,1s.23-2.53,5.15-7a83.84,83.84,0,0,1,8.84-6.91c1.5,1,3.07,2,4.69,3,.06,2,.16,3.94.3,5.83A83.3,83.3,0,0,1,10.1,44.9Zm20.37,7.58c-1.45,6.51-3.07,8-3.52,8s-2-1.36-3.36-7.26a2.17,2.17,0,0,0-.83-4.12c-.38-2.3-.68-4.82-.9-7.48,1.7-.83,3.44-1.71,5.19-2.66,1.69.91,3.36,1.76,5,2.56A80.8,80.8,0,0,1,30.47,52.48Zm22.21-6.63c-.23.39-2.31,1-8.68-1a82.87,82.87,0,0,1-10.51-4.24c.14-1.81.23-3.69.29-5.6,1.7-1.05,3.34-2.1,4.9-3.16a82.82,82.82,0,0,1,8.84,6.91C52.44,43.32,52.9,45.46,52.68,45.85Z"/><path class="cls-1" d="M26.94,27.36a3.7,3.7,0,1,0,3.7,3.7A3.7,3.7,0,0,0,26.94,27.36Z"/></g></g></svg>