<svg xmlns="http://www.w3.org/2000/svg" viewBox="0 0 46.23 61.84"><defs><style>.cls-1,.cls-2{fill:#464646;}.cls-1{opacity:0.5;}</style></defs><g id="Layer_2" data-name="Layer 2"><g id="Layer_1-2" data-name="Layer 1"><path class="cls-1" d="M27.93,58.65v.26a3.81,3.81,0,0,1-4.62,2.82h-.11a3.89,3.89,0,0,1-3-4.63.09.09,0,0,1,0-.05,3.9,3.9,0,0,1,4.62-3A4,4,0,0,1,27.93,58.65Z"/><path class="cls-2" d="M46.11,21.08A23.41,23.41,0,0,0,23.43,0,23.52,23.52,0,0,0,0,23.43,24.35,24.35,0,0,0,1.23,31a3.35,3.35,0,0,0,4.12,2.05,3.34,3.34,0,0,0,2-4.11,15.18,15.18,0,0,1-.91-6A16.9,16.9,0,1,1,24.35,40.39s-3.28.2-4.92.4c-.6.09-1.2.21-1.79.36a.23.23,0,0,1-.31,0h0a.23.23,0,0,1,0-.27l.51-2.77,3.09-13.89a3.21,3.21,0,1,0-6.28-1.35S7.3,56.87,7.3,57.18a3.09,3.09,0,0,0,2.23,3.75l.05,0h.17a3.09,3.09,0,0,0,3.76-2.22l0-.08a.43.43,0,0,1,0-.16c.09-.4,1-4.92,1-4.92A8.36,8.36,0,0,1,21.45,47c.71-.11,3.69-.31,3.69-.31A23.4,23.4,0,0,0,46.11,21.08Z"/></g></g></svg>