<svg xmlns="http://www.w3.org/2000/svg" width="20" height="11.916" viewBox="0 0 20 11.916">
    <path fill="#fafafa" d="M9.948 4A11.027 11.027 0 0 0 .08 9.679l-.134.279.134.279a11.027 11.027 0 0 0 9.868 5.679 11.027 11.027 0 0 0 9.868-5.679l.129-.279-.129-.279A11.027 11.027 0 0 0 9.948 4zm0 1.324a4.634 4.634 0 1 1-4.634 4.634 4.626 4.626 0 0 1 4.634-4.634zM5.236 6.353a5.836 5.836 0 0 0 0 7.21A8.34 8.34 0 0 1 1.5 9.958a8.34 8.34 0 0 1 3.736-3.605zm9.423 0a8.339 8.339 0 0 1 3.739 3.6 8.34 8.34 0 0 1-3.739 3.6 5.836 5.836 0 0 0 0-7.21zM9.948 7.972a1.986 1.986 0 1 0 1.986 1.986 1.987 1.987 0 0 0-1.986-1.986z" transform="translate(.055 -4)"/>
</svg>
