<svg width="190" height="81" viewBox="0 0 190 81" fill="none" xmlns="http://www.w3.org/2000/svg">
<g filter="url(#filter0_f_91_4530)">
<ellipse cx="113" cy="24.0161" rx="87.7595" ry="73.0256" transform="rotate(-9.89193 113 24.0161)" fill="url(#paint0_radial_91_4530)"/>
</g>
<mask id="path-2-inside-1_91_4530" fill="white">
<path fill-rule="evenodd" clip-rule="evenodd" d="M139.141 -8.58054C134.643 -13.0781 128.545 -15.6086 122.185 -15.6174C115.821 -15.614 109.719 -13.0836 105.221 -8.58243C100.723 -4.08128 98.1964 2.02204 98.197 8.38558C98.1912 12.3972 99.2026 16.3449 101.137 19.8596C104.132 17.4206 107.54 15.5387 111.2 14.3031C110.206 12.4862 109.693 10.446 109.707 8.37534C109.683 6.72153 109.988 5.0795 110.605 3.5447C111.221 2.00991 112.137 0.612967 113.298 -0.564924C114.459 -1.74281 115.843 -2.67815 117.369 -3.31657C118.894 -3.95499 120.532 -4.28376 122.186 -4.28376C123.84 -4.28376 125.477 -3.95499 127.003 -3.31657C128.529 -2.67815 129.913 -1.74281 131.074 -0.564924C132.235 0.612967 133.15 2.00991 133.767 3.5447C134.383 5.0795 134.689 6.72153 134.665 8.37534C134.659 10.4397 134.149 12.4713 133.177 14.2929C136.837 15.5284 140.245 17.4104 143.24 19.8494C145.174 16.3347 146.186 12.387 146.18 8.37534C146.171 2.01453 143.639 -4.083 139.141 -8.58054ZM46.5734 67.12C51.071 71.6176 57.1686 74.1482 63.5291 74.157C66.6813 74.1584 69.8028 73.5388 72.7155 72.3338C75.6282 71.1288 78.275 69.3619 80.5048 67.1339C82.7347 64.906 84.5038 62.2607 85.7113 59.349C86.9189 56.4373 87.541 53.3164 87.5424 50.1642H76.0197C76.0197 51.8032 75.6969 53.4261 75.0697 54.9402C74.4425 56.4544 73.5232 57.8303 72.3643 58.9892C71.2054 60.1481 69.8296 61.0674 68.3154 61.6946C66.8012 62.3218 65.1783 62.6446 63.5394 62.6446C61.9004 62.6446 60.2775 62.3218 58.7634 61.6946C57.2492 61.0674 55.8734 60.1481 54.7145 58.9892C53.5555 57.8303 52.6362 56.4544 52.0091 54.9402C51.3819 53.4261 51.059 51.8032 51.059 50.1642H39.5364C39.5452 56.5248 42.0758 62.6224 46.5734 67.12ZM47.9559 35.7216C52.5643 38.8062 57.9838 40.455 63.5291 40.4596C67.2114 40.4626 70.8582 39.7403 74.2614 38.3339C77.6645 36.9274 80.7572 34.8644 83.363 32.2627C85.9688 29.6609 88.0366 26.5714 89.4483 23.1705C90.86 19.7695 91.588 16.1238 91.5907 12.4416C91.5947 6.89618 89.9543 1.47412 86.8769 -3.13898C83.7995 -7.75208 79.4232 -11.349 74.3016 -13.475C69.1799 -15.601 63.5428 -16.1605 58.1032 -15.0828C52.6635 -14.0052 47.6656 -11.3386 43.7414 -7.42051C39.8171 -3.50238 37.1429 1.49141 36.0568 6.92938C34.9706 12.3674 35.5214 18.0053 37.6394 23.1302C39.7575 28.2552 43.3476 32.637 47.9559 35.7216ZM106.598 69.4398C111.213 72.5194 116.637 74.1611 122.185 74.157C129.612 74.1428 136.731 71.1861 141.983 65.9343C147.234 60.6825 150.191 53.5636 150.205 46.1364C150.209 40.5887 148.568 35.1644 145.488 30.5499C142.408 25.9355 138.029 22.3382 132.905 20.2133C127.78 18.0884 122.14 17.5314 116.699 18.6127C111.257 19.694 106.259 22.3651 102.336 26.2879C98.4133 30.2108 95.7422 35.2091 94.6609 40.6504C93.5796 46.0918 94.1367 51.7316 96.2616 56.8563C98.3865 61.9809 101.984 66.3601 106.598 69.4398ZM135.943 55.3292C137.761 52.6081 138.731 49.409 138.731 46.1364C138.733 43.9631 138.306 41.8109 137.474 39.8027C136.643 37.7946 135.425 35.97 133.888 34.4332C132.351 32.8965 130.527 31.6777 128.518 30.8466C126.51 30.0156 124.358 29.5885 122.185 29.5899C118.912 29.5899 115.713 30.5603 112.992 32.3785C110.271 34.1966 108.15 36.7808 106.898 39.8043C105.645 42.8278 105.318 46.1548 105.956 49.3645C106.595 52.5742 108.17 55.5225 110.484 57.8366C112.799 60.1507 115.747 61.7266 118.957 62.365C122.166 63.0035 125.493 62.6758 128.517 61.4234C131.54 60.1711 134.124 58.0503 135.943 55.3292ZM77.2871 21.6343C79.1053 18.9133 80.0757 15.7142 80.0757 12.4416C80.0689 8.05522 78.3235 3.85047 75.2218 0.748858C72.1202 -2.35276 67.9155 -4.09823 63.5291 -4.105C60.2565 -4.105 57.0574 -3.13456 54.3364 -1.3164C51.6153 0.501761 49.4945 3.08598 48.2421 6.10947C46.9897 9.13296 46.6621 12.4599 47.3005 15.6696C47.939 18.8794 49.5149 21.8277 51.829 24.1417C54.143 26.4558 57.0914 28.0317 60.3011 28.6702C63.5108 29.3086 66.8377 28.981 69.8612 27.7286C72.8847 26.4762 75.4689 24.3554 77.2871 21.6343Z"/>
</mask>
<path d="M122.185 -15.6174L122.187 -17.1174L122.184 -17.1174L122.185 -15.6174ZM105.221 -8.58243L106.282 -7.52211L106.282 -7.52211L105.221 -8.58243ZM98.197 8.38558L99.697 8.38775L99.697 8.38542L98.197 8.38558ZM101.137 19.8596L99.8224 20.5827L100.689 22.1582L102.084 21.0227L101.137 19.8596ZM111.2 14.3031L111.68 15.7243L113.374 15.1524L112.516 13.5835L111.2 14.3031ZM109.707 8.37534L111.207 8.38573L111.207 8.36979L111.207 8.35386L109.707 8.37534ZM110.605 3.5447L109.213 2.98559L109.213 2.9856L110.605 3.5447ZM117.369 -3.31657L116.79 -4.70033L116.79 -4.70033L117.369 -3.31657ZM131.074 -0.564924L132.142 -1.61796L132.142 -1.61796L131.074 -0.564924ZM133.767 3.5447L135.159 2.9856L135.159 2.98559L133.767 3.5447ZM134.665 8.37534L133.165 8.35385L133.165 8.36252L133.165 8.3712L134.665 8.37534ZM133.177 14.2929L131.854 13.5871L131.021 15.1482L132.698 15.7141L133.177 14.2929ZM143.24 19.8494L142.293 21.0125L143.688 22.148L144.555 20.5725L143.24 19.8494ZM146.18 8.37534L147.68 8.37317L147.68 8.37311L146.18 8.37534ZM63.5291 74.157L63.5271 75.657L63.5285 75.657L63.5291 74.157ZM46.5734 67.12L47.6341 66.0593L47.6341 66.0593L46.5734 67.12ZM72.7155 72.3338L73.2889 73.7199L73.2889 73.7199L72.7155 72.3338ZM80.5048 67.1339L79.4446 66.0728L79.4446 66.0728L80.5048 67.1339ZM85.7113 59.349L84.3258 58.7744L84.3258 58.7744L85.7113 59.349ZM87.5424 50.1642L89.0424 50.1649L89.043 48.6642H87.5424V50.1642ZM76.0197 50.1642V48.6642H74.5197V50.1642H76.0197ZM75.0697 54.9402L73.6839 54.3662L73.6839 54.3662L75.0697 54.9402ZM68.3154 61.6946L68.8894 63.0804L68.8894 63.0804L68.3154 61.6946ZM58.7634 61.6946L58.1893 63.0804L58.1893 63.0804L58.7634 61.6946ZM54.7145 58.9892L55.7751 57.9285L55.7751 57.9285L54.7145 58.9892ZM52.0091 54.9402L53.3949 54.3662L53.3949 54.3662L52.0091 54.9402ZM51.059 50.1642H52.559V48.6642H51.059V50.1642ZM39.5364 50.1642V48.6642H38.0343L38.0364 50.1663L39.5364 50.1642ZM63.5291 40.4596L63.5279 41.9596L63.5279 41.9596L63.5291 40.4596ZM47.9559 35.7216L47.1216 36.9681L47.1216 36.9681L47.9559 35.7216ZM74.2614 38.3339L73.6884 36.9476L73.6884 36.9476L74.2614 38.3339ZM83.363 32.2627L84.4229 33.3242L84.4229 33.3242L83.363 32.2627ZM89.4483 23.1705L88.0629 22.5954L88.0629 22.5954L89.4483 23.1705ZM91.5907 12.4416L93.0907 12.4427L93.0907 12.4427L91.5907 12.4416ZM58.1032 -15.0828L58.3947 -13.6114L58.3947 -13.6114L58.1032 -15.0828ZM43.7414 -7.42051L42.6815 -8.482L42.6815 -8.482L43.7414 -7.42051ZM36.0568 6.92938L37.5277 7.22318L37.5277 7.22317L36.0568 6.92938ZM37.6394 23.1302L39.0257 22.5573L39.0257 22.5573L37.6394 23.1302ZM122.185 74.157L122.186 75.657L122.188 75.657L122.185 74.157ZM106.598 69.4398L105.766 70.6874L105.766 70.6874L106.598 69.4398ZM150.205 46.1364L151.705 46.1393L151.705 46.1375L150.205 46.1364ZM145.488 30.5499L144.24 31.3826L144.24 31.3826L145.488 30.5499ZM132.905 20.2133L132.33 21.5989L132.33 21.5989L132.905 20.2133ZM116.699 18.6127L116.406 17.1414L116.406 17.1414L116.699 18.6127ZM102.336 26.2879L101.276 25.2273L101.276 25.2273L102.336 26.2879ZM94.6609 40.6504L93.1897 40.3581L93.1897 40.3581L94.6609 40.6504ZM96.2616 56.8563L94.8759 57.4308L94.8759 57.4308L96.2616 56.8563ZM138.731 46.1364L137.231 46.1355V46.1364H138.731ZM135.943 55.3292L137.19 56.1626L137.19 56.1626L135.943 55.3292ZM128.518 30.8466L129.092 29.4607L129.092 29.4607L128.518 30.8466ZM122.185 29.5899L122.185 31.0899L122.186 31.0899L122.185 29.5899ZM106.898 39.8043L108.283 40.3784L108.283 40.3784L106.898 39.8043ZM105.956 49.3645L107.427 49.0719L107.427 49.0719L105.956 49.3645ZM110.484 57.8366L109.424 58.8973L109.424 58.8973L110.484 57.8366ZM118.957 62.365L119.249 60.8939L119.249 60.8939L118.957 62.365ZM128.517 61.4234L129.091 62.8093L129.091 62.8093L128.517 61.4234ZM80.0757 12.4416L81.5757 12.4416L81.5757 12.4392L80.0757 12.4416ZM77.2871 21.6343L78.5343 22.4677L78.5343 22.4677L77.2871 21.6343ZM75.2218 0.748858L74.1612 1.80952L74.1612 1.80952L75.2218 0.748858ZM63.5291 -4.105L63.5315 -5.605H63.5291V-4.105ZM54.3364 -1.3164L55.1697 -0.0691915L55.1697 -0.0691917L54.3364 -1.3164ZM48.2421 6.10947L49.6279 6.68349L49.6279 6.68349L48.2421 6.10947ZM47.3005 15.6696L45.8293 15.9623L45.8293 15.9623L47.3005 15.6696ZM51.829 24.1417L52.8896 23.0811L52.8896 23.0811L51.829 24.1417ZM69.8612 27.7286L69.2872 26.3428L69.2872 26.3428L69.8612 27.7286ZM122.183 -14.1174C128.146 -14.1092 133.863 -11.7366 138.081 -7.51982L140.202 -9.64125C135.423 -14.4196 128.945 -17.1081 122.187 -17.1174L122.183 -14.1174ZM106.282 -7.52211C110.499 -11.7419 116.22 -14.1142 122.185 -14.1174L122.184 -17.1174C115.423 -17.1138 108.94 -14.4252 104.16 -9.64275L106.282 -7.52211ZM99.697 8.38542C99.6964 2.41959 102.065 -3.30228 106.282 -7.52211L104.16 -9.64275C99.3808 -4.86029 96.6963 1.62449 96.697 8.38574L99.697 8.38542ZM102.451 19.1365C100.639 15.8439 99.6916 12.1458 99.697 8.38775L96.697 8.38341C96.6909 12.6487 97.7661 16.8459 99.8224 20.5827L102.451 19.1365ZM110.72 12.8819C106.89 14.1749 103.324 16.1442 100.189 18.6965L102.084 21.0227C104.94 18.697 108.19 16.9025 111.68 15.7243L110.72 12.8819ZM108.207 8.36495C108.191 10.6906 108.768 12.982 109.884 15.0227L112.516 13.5835C111.645 11.9904 111.194 10.2014 111.207 8.38573L108.207 8.36495ZM109.213 2.9856C108.522 4.70486 108.181 6.54424 108.207 8.39683L111.207 8.35386C111.186 6.89881 111.454 5.45414 111.997 4.1038L109.213 2.9856ZM112.23 -1.61796C110.929 -0.298496 109.904 1.26634 109.213 2.98559L111.997 4.10381C112.539 2.75347 113.345 1.52443 114.366 0.488114L112.23 -1.61796ZM116.79 -4.70033C115.081 -3.98518 113.531 -2.93742 112.23 -1.61796L114.366 0.488114C115.388 -0.548207 116.605 -1.37113 117.948 -1.93282L116.79 -4.70033ZM122.186 -5.78376C120.333 -5.78376 118.499 -5.41548 116.79 -4.70033L117.948 -1.93282C119.29 -2.49451 120.731 -2.78376 122.186 -2.78376V-5.78376ZM127.582 -4.70033C125.873 -5.41548 124.039 -5.78376 122.186 -5.78376V-2.78376C123.641 -2.78376 125.082 -2.49451 126.424 -1.93282L127.582 -4.70033ZM132.142 -1.61796C130.841 -2.93742 129.291 -3.98518 127.582 -4.70033L126.424 -1.93282C127.767 -1.37113 128.984 -0.548207 130.006 0.488114L132.142 -1.61796ZM135.159 2.98559C134.468 1.26633 133.443 -0.298503 132.142 -1.61796L130.006 0.48811C131.027 1.52444 131.833 2.75349 132.375 4.10381L135.159 2.98559ZM136.165 8.39683C136.191 6.54425 135.849 4.70486 135.159 2.9856L132.375 4.1038C132.917 5.45413 133.186 6.8988 133.165 8.35385L136.165 8.39683ZM134.501 14.9986C135.587 12.961 136.159 10.6886 136.165 8.37949L133.165 8.3712C133.16 10.1908 132.71 11.9815 131.854 13.5871L134.501 14.9986ZM144.188 18.6862C141.053 16.134 137.487 14.1646 133.657 12.8717L132.698 15.7141C136.187 16.8922 139.437 18.6868 142.293 21.0125L144.188 18.6862ZM144.68 8.37752C144.685 12.1356 143.738 15.8337 141.926 19.1262L144.555 20.5725C146.611 16.8356 147.686 12.6384 147.68 8.37317L144.68 8.37752ZM138.081 -7.51982C142.298 -3.30305 144.671 2.41384 144.68 8.37758L147.68 8.37311C147.67 1.61522 144.981 -4.86296 140.202 -9.64125L138.081 -7.51982ZM63.5312 72.657C57.5677 72.6487 51.8509 70.2761 47.6341 66.0593L45.5128 68.1806C50.2912 72.959 56.7694 75.6476 63.5271 75.657L63.5312 72.657ZM72.142 70.9477C69.4114 72.0775 66.4849 72.6583 63.5298 72.657L63.5285 75.657C66.8776 75.6584 70.1942 75.0002 73.2889 73.7199L72.142 70.9477ZM79.4446 66.0728C77.3541 68.1615 74.8727 69.818 72.142 70.9477L73.2889 73.7199C76.3836 72.4395 79.1959 70.5622 81.565 68.195L79.4446 66.0728ZM84.3258 58.7744C83.1937 61.5041 81.5351 63.9841 79.4446 66.0728L81.565 68.195C83.9342 65.8279 85.814 63.0172 87.0969 59.9236L84.3258 58.7744ZM86.0424 50.1636C86.0411 53.1187 85.4578 56.0447 84.3258 58.7744L87.0969 59.9236C88.3799 56.83 89.041 53.514 89.0424 50.1649L86.0424 50.1636ZM76.0197 51.6642H87.5424V48.6642H76.0197V51.6642ZM76.4555 55.5143C77.1581 53.8181 77.5197 52.0002 77.5197 50.1642H74.5197C74.5197 51.6062 74.2357 53.034 73.6839 54.3662L76.4555 55.5143ZM73.425 60.0498C74.7232 58.7516 75.7529 57.2104 76.4555 55.5143L73.6839 54.3662C73.1321 55.6984 72.3233 56.9089 71.3037 57.9285L73.425 60.0498ZM68.8894 63.0804C70.5856 62.3778 72.1268 61.348 73.425 60.0498L71.3037 57.9285C70.284 58.9481 69.0736 59.7569 67.7414 60.3087L68.8894 63.0804ZM63.5394 64.1446C65.3753 64.1446 67.1933 63.783 68.8894 63.0804L67.7414 60.3087C66.4092 60.8606 64.9813 61.1446 63.5394 61.1446V64.1446ZM58.1893 63.0804C59.8855 63.783 61.7035 64.1446 63.5394 64.1446V61.1446C62.0974 61.1446 60.6696 60.8606 59.3374 60.3087L58.1893 63.0804ZM53.6538 60.0498C54.952 61.348 56.4932 62.3778 58.1893 63.0804L59.3374 60.3087C58.0052 59.7569 56.7947 58.9481 55.7751 57.9285L53.6538 60.0498ZM50.6232 55.5143C51.3258 57.2104 52.3556 58.7516 53.6538 60.0498L55.7751 57.9285C54.7555 56.9089 53.9467 55.6984 53.3949 54.3662L50.6232 55.5143ZM49.559 50.1642C49.559 52.0002 49.9207 53.8181 50.6232 55.5143L53.3949 54.3662C52.8431 53.034 52.559 51.6062 52.559 50.1642H49.559ZM39.5364 51.6642H51.059V48.6642H39.5364V51.6642ZM47.6341 66.0593C43.4173 61.8425 41.0446 56.1256 41.0364 50.1622L38.0364 50.1663C38.0457 56.924 40.7343 63.4022 45.5128 68.1806L47.6341 66.0593ZM63.5304 38.9596C58.2817 38.9553 53.1521 37.3947 48.7903 34.4751L47.1216 36.9681C51.9764 40.2178 57.6859 41.9548 63.5279 41.9596L63.5304 38.9596ZM73.6884 36.9476C70.4674 38.2788 67.0157 38.9625 63.5304 38.9596L63.5279 41.9596C67.4072 41.9628 71.2491 41.2018 74.8343 39.7201L73.6884 36.9476ZM82.3032 31.2012C79.8368 33.6638 76.9095 35.6164 73.6884 36.9476L74.8343 39.7201C78.4195 38.2385 81.6777 36.0651 84.4229 33.3242L82.3032 31.2012ZM88.0629 22.5954C86.7267 25.8144 84.7696 28.7386 82.3032 31.2012L84.4229 33.3242C87.1681 30.5832 89.3465 27.3284 90.8337 23.7455L88.0629 22.5954ZM90.0907 12.4405C90.0881 15.9258 89.3991 19.3764 88.0629 22.5954L90.8337 23.7455C92.3209 20.1627 93.0879 16.3219 93.0907 12.4427L90.0907 12.4405ZM85.6291 -2.30655C88.5419 2.05976 90.0945 7.19175 90.0907 12.4405L93.0907 12.4427C93.095 6.60061 91.3668 0.888485 88.1247 -3.97141L85.6291 -2.30655ZM73.7265 -12.0896C78.5742 -10.0774 82.7163 -6.67286 85.6291 -2.30655L88.1247 -3.97141C84.8827 -8.8313 80.2723 -12.6207 74.8766 -14.8604L73.7265 -12.0896ZM58.3947 -13.6114C63.5433 -14.6315 68.8788 -14.1019 73.7265 -12.0896L74.8766 -14.8604C69.481 -17.1001 63.5423 -17.6896 57.8117 -16.5542L58.3947 -13.6114ZM44.8012 -6.35903C48.5155 -10.0676 53.246 -12.5914 58.3947 -13.6114L57.8117 -16.5542C52.081 -15.4189 46.8157 -12.6097 42.6815 -8.482L44.8012 -6.35903ZM37.5277 7.22317C38.5557 2.07612 41.0869 -2.65051 44.8012 -6.35903L42.6815 -8.482C38.5474 -4.35425 35.73 0.906693 34.5858 6.63559L37.5277 7.22317ZM39.0257 22.5573C37.021 17.7066 36.4997 12.3702 37.5277 7.22318L34.5858 6.63559C33.4416 12.3645 34.0218 18.304 36.2531 23.7032L39.0257 22.5573ZM48.7903 34.4751C44.4285 31.5555 41.0304 27.4081 39.0257 22.5573L36.2531 23.7032C38.4845 29.1023 42.2667 33.7185 47.1216 36.9681L48.7903 34.4751ZM122.184 72.657C116.933 72.6608 111.798 71.107 107.431 68.1921L105.766 70.6874C110.627 73.9318 116.341 75.6613 122.186 75.657L122.184 72.657ZM140.922 64.8736C135.951 69.8448 129.212 72.6436 122.182 72.657L122.188 75.657C130.012 75.642 137.511 72.5273 143.043 66.9949L140.922 64.8736ZM148.705 46.1336C148.692 53.1639 145.893 59.9024 140.922 64.8736L143.043 66.9949C148.576 61.4625 151.69 53.9633 151.705 46.1393L148.705 46.1336ZM144.24 31.3826C147.155 35.7502 148.709 40.8843 148.705 46.1353L151.705 46.1375C151.71 40.293 149.98 34.5786 146.736 29.7173L144.24 31.3826ZM132.33 21.5989C137.181 23.6101 141.325 27.015 144.24 31.3826L146.736 29.7173C143.491 24.8559 138.878 21.0663 133.479 18.8277L132.33 21.5989ZM116.991 20.0839C122.141 19.0604 127.479 19.5877 132.33 21.5989L133.479 18.8277C128.08 16.5891 122.139 16.0023 116.406 17.1414L116.991 20.0839ZM103.397 27.3486C107.11 23.6356 111.841 21.1074 116.991 20.0839L116.406 17.1414C110.674 18.2806 105.408 21.0946 101.276 25.2273L103.397 27.3486ZM96.1322 40.9428C97.1556 35.7925 99.6838 31.0616 103.397 27.3486L101.276 25.2273C97.1428 29.3599 94.3289 34.6256 93.1897 40.3581L96.1322 40.9428ZM97.6472 56.2817C95.6359 51.4312 95.1087 46.0931 96.1322 40.9428L93.1897 40.3581C92.0505 46.0905 92.6374 52.032 94.8759 57.4308L97.6472 56.2817ZM107.431 68.1921C103.063 65.2772 99.6584 61.1323 97.6472 56.2817L94.8759 57.4308C97.1145 62.8296 100.904 67.4431 105.766 70.6874L107.431 68.1921ZM137.231 46.1364C137.231 49.1123 136.349 52.0214 134.695 54.4958L137.19 56.1626C139.173 53.1948 140.231 49.7057 140.231 46.1364H137.231ZM136.088 40.3763C136.844 42.2023 137.232 44.1593 137.231 46.1355L140.231 46.1373C140.233 43.7669 139.767 41.4194 138.86 39.2291L136.088 40.3763ZM132.827 35.4939C134.225 36.8913 135.333 38.5504 136.088 40.3763L138.86 39.2291C137.954 37.0389 136.625 35.0487 134.949 33.3726L132.827 35.4939ZM127.945 32.2326C129.771 32.9883 131.43 34.0965 132.827 35.4939L134.949 33.3726C133.272 31.6964 131.282 30.3671 129.092 29.4607L127.945 32.2326ZM122.186 31.0899C124.162 31.0886 126.119 31.477 127.945 32.2326L129.092 29.4607C126.902 28.5542 124.554 28.0884 122.184 28.0899L122.186 31.0899ZM113.825 33.6257C116.3 31.9723 119.209 31.0899 122.185 31.0899V28.0899C118.615 28.0899 115.126 29.1483 112.159 31.1313L113.825 33.6257ZM108.283 40.3784C109.422 37.629 111.351 35.279 113.825 33.6257L112.159 31.1313C109.191 33.1142 106.878 35.9327 105.512 39.2303L108.283 40.3784ZM107.427 49.0719C106.847 46.1531 107.145 43.1277 108.283 40.3784L105.512 39.2303C104.146 42.5279 103.789 46.1564 104.485 49.6571L107.427 49.0719ZM111.545 56.7759C109.441 54.6716 108.008 51.9906 107.427 49.0719L104.485 49.6571C105.181 53.1578 106.9 56.3734 109.424 58.8973L111.545 56.7759ZM119.249 60.8939C116.331 60.3133 113.649 58.8802 111.545 56.7759L109.424 58.8973C111.948 61.4211 115.163 63.1399 118.664 63.8362L119.249 60.8939ZM127.943 60.0376C125.193 61.1765 122.168 61.4744 119.249 60.8939L118.664 63.8362C122.165 64.5325 125.793 64.1752 129.091 62.8093L127.943 60.0376ZM134.695 54.4958C133.042 56.9702 130.692 58.8988 127.943 60.0376L129.091 62.8093C132.388 61.4434 135.207 59.1303 137.19 56.1626L134.695 54.4958ZM78.5757 12.4416C78.5757 15.4175 77.6932 18.3266 76.0399 20.801L78.5343 22.4677C80.5173 19.4999 81.5757 16.0108 81.5757 12.4416H78.5757ZM74.1612 1.80952C76.9821 4.63039 78.5695 8.45456 78.5757 12.4439L81.5757 12.4392C81.5683 7.65588 79.6649 3.07055 76.2825 -0.311803L74.1612 1.80952ZM63.5268 -2.605C67.5161 -2.59884 71.3403 -1.01136 74.1612 1.80952L76.2825 -0.311802C72.9002 -3.69416 68.3148 -5.59761 63.5315 -5.605L63.5268 -2.605ZM55.1697 -0.0691917C57.6441 -1.72253 60.5532 -2.605 63.5291 -2.605V-5.605C59.9599 -5.605 56.4707 -4.54658 53.503 -2.5636L55.1697 -0.0691917ZM49.6279 6.68349C50.7668 3.93409 52.6953 1.58414 55.1697 -0.0691915L53.503 -2.5636C50.5353 -0.580622 48.2222 2.23786 46.8563 5.53544L49.6279 6.68349ZM48.7717 15.377C48.1911 12.4582 48.4891 9.43289 49.6279 6.68349L46.8563 5.53544C45.4904 8.83302 45.133 12.4616 45.8293 15.9623L48.7717 15.377ZM52.8896 23.0811C50.7853 20.9768 49.3523 18.2957 48.7717 15.377L45.8293 15.9623C46.5257 19.463 48.2444 22.6785 50.7683 25.2024L52.8896 23.0811ZM60.5937 27.199C57.675 26.6184 54.9939 25.1854 52.8896 23.0811L50.7683 25.2024C53.2922 27.7263 56.5077 29.445 60.0084 30.1414L60.5937 27.199ZM69.2872 26.3428C66.5378 27.4816 63.5125 27.7796 60.5937 27.199L60.0084 30.1414C63.5091 30.8377 67.1377 30.4803 70.4353 29.1144L69.2872 26.3428ZM76.0399 20.801C74.3866 23.2754 72.0366 25.2039 69.2872 26.3428L70.4353 29.1144C73.7328 27.7485 76.5513 25.4354 78.5343 22.4677L76.0399 20.801Z" fill="url(#paint1_linear_91_4530)" fill-opacity="0.4" mask="url(#path-2-inside-1_91_4530)"/>
<defs>
<filter id="filter0_f_91_4530" x="0.62793" y="-74.5015" width="224.744" height="197.035" filterUnits="userSpaceOnUse" color-interpolation-filters="sRGB">
<feFlood flood-opacity="0" result="BackgroundImageFix"/>
<feBlend mode="normal" in="SourceGraphic" in2="BackgroundImageFix" result="shape"/>
<feGaussianBlur stdDeviation="12.5" result="effect1_foregroundBlur_91_4530"/>
</filter>
<radialGradient id="paint0_radial_91_4530" cx="0" cy="0" r="1" gradientUnits="userSpaceOnUse" gradientTransform="translate(108.313 28.4942) rotate(86.0883) scale(68.7075 84.8076)">
<stop stop-color="#ECCF40" stop-opacity="0.23"/>
<stop offset="0.307292" stop-color="#ECCF40" stop-opacity="0.22"/>
<stop offset="1" stop-color="#ECCF40" stop-opacity="0"/>
</radialGradient>
<linearGradient id="paint1_linear_91_4530" x1="93.0267" y1="-36.0207" x2="93.0267" y2="82.3183" gradientUnits="userSpaceOnUse">
<stop stop-color="white" stop-opacity="0.4"/>
<stop offset="1" stop-color="white" stop-opacity="0.1"/>
</linearGradient>
</defs>
</svg>
