<svg xmlns="http://www.w3.org/2000/svg" viewBox="0 0 39.99 61.84"><defs><style>.cls-1{fill:#cca349;}</style></defs><g id="Layer_2" data-name="Layer 2"><g id="Layer_1-2" data-name="Layer 1"><path class="cls-1" d="M26.3,19c0-8.87-4.27-16.5-7.54-19,0,0-.23-.14-.23.22-.27,17.14-9,21.82-13.77,28.05-11,14.46-.78,30.28,9.68,33.18,5.86,1.64-1.36-2.9-2.27-12.45C11.08,37.44,26.3,28.62,26.3,19"/><path class="cls-1" d="M32,24.89a.21.21,0,0,0-.22,0l0,.05c-.18,2.13-2.55,6.77-5.5,11-10,14.36-4.32,21.27-1.09,25,1.86,2.18,0,0,4.68-2.23.36-.18,9.09-4.82,10-15.32A21.52,21.52,0,0,0,32,24.89"/></g></g></svg>