<svg xmlns="http://www.w3.org/2000/svg" width="25" height="25.025" viewBox="0 0 25 25.025">
    <path fill="#fafafa" d="M18.827 6a12.463 12.463 0 0 0-8.511 3.192.658.658 0 0 0-.022.949.639.639 0 0 0 .885.022 11.209 11.209 0 0 1 14.13-.691h-1.015a.682.682 0 0 0-.69.6.659.659 0 0 0 .647.69h2.8a.636.636 0 0 0 .647-.647V7.359a.682.682 0 0 0-.6-.691.659.659 0 0 0-.69.647v1.36A12.465 12.465 0 0 0 18.827 6zm10.68 7.081a.626.626 0 0 0-.25.059.648.648 0 0 0-.324.863 11.217 11.217 0 0 1-16.914 13.548h1.057a.647.647 0 1 0 0-1.294h-2.8a.636.636 0 0 0-.647.647v2.8a.647.647 0 1 0 1.294 0v-1.355a12.59 12.59 0 0 0 7.745 2.675 12.523 12.523 0 0 0 11.455-17.56.663.663 0 0 0-.617-.383zm-21.771.163a.641.641 0 0 0-.592.391 12.934 12.934 0 0 0-.949 3.9.637.637 0 0 0 .6.69h.043a.641.641 0 0 0 .647-.6 11.354 11.354 0 0 1 .841-3.5.659.659 0 0 0-.345-.841.651.651 0 0 0-.245-.039zm-.4 8.222a.626.626 0 1 0 .626.626.626.626 0 0 0-.626-.626z" transform="translate(-6.193 -5.999)"/>
</svg>
