<svg xmlns="http://www.w3.org/2000/svg" width="20" height="20" viewBox="0 0 20 20">
    <path id="icons8-key" fill="#fafafa" d="M16.077 3a6.948 6.948 0 0 0-6.923 6.923 7.039 7.039 0 0 0 .12 1.106l-6.058 6.034L3 17.3V23h5.385v-2.308h2.308v-2.307H13V16.1a7.042 7.042 0 0 0 3.077.745 6.923 6.923 0 1 0 0-13.845zm0 1.538a5.385 5.385 0 1 1 0 10.769 5.658 5.658 0 0 1-2.62-.673l-.192-.1h-1.8v2.308H9.154v2.308H6.846v2.308H4.538v-3.51l6.082-6.106.288-.264-.072-.409a7.792 7.792 0 0 1-.144-1.25 5.4 5.4 0 0 1 5.385-5.381zm1.538 2.308a1.538 1.538 0 1 0 1.538 1.538 1.538 1.538 0 0 0-1.538-1.538z" transform="translate(-3 -3)"/>
</svg>
