<svg xmlns="http://www.w3.org/2000/svg" width="20" height="20" viewBox="0 0 20 20">
    <path id="icons8-qr_code" fill="#fafafa" d="M3.143 1A2.151 2.151 0 0 0 1 3.143V6a2.151 2.151 0 0 0 2.143 2.143h.714v1.428h1.429V8.143H6A2.151 2.151 0 0 0 8.143 6V3.143A2.151 2.151 0 0 0 6 1zm2.143 8.571V11h1.428V9.571zm0 1.429H3.857v1.429h1.429zm-1.429 0V9.571H2.429V11zM16 1a2.151 2.151 0 0 0-2.143 2.143V6A2.151 2.151 0 0 0 16 8.143h.714v1.428h1.429V8.143h.714A2.151 2.151 0 0 0 21 6V3.143A2.151 2.151 0 0 0 18.857 1zm2.143 8.571V11h1.429V9.571zm0 1.429h-1.429v1.429h1.429zm0 1.429v1.429h1.429v-1.429zm0 1.429h-1.429v1.429h1.429zm-1.429 0v-1.429h-1.428v1.429zM3.143 2.429H6a.705.705 0 0 1 .714.714V6A.705.705 0 0 1 6 6.714H3.143A.705.705 0 0 1 2.429 6V3.143a.705.705 0 0 1 .714-.714zm7.857 0v1.428H9.571v1.429H11v1.428h1.429V2.429zm5 0h2.857a.705.705 0 0 1 .714.714V6a.705.705 0 0 1-.714.714H16A.705.705 0 0 1 15.286 6V3.143A.705.705 0 0 1 16 2.429zM3.857 3.857v1.429h1.429V3.857zm12.857 0v1.429h1.429V3.857zM8.143 8.143v1.428h4.286V11h1.429V8.143zM9.571 11v1.429H8.143v1.429h5.714v-1.429H11V11zm-6.428 2.857A2.151 2.151 0 0 0 1 16v2.857A2.151 2.151 0 0 0 3.143 21H6a2.151 2.151 0 0 0 2.143-2.143V16A2.151 2.151 0 0 0 6 13.857zm0 1.429H6a.705.705 0 0 1 .714.714v2.857a.705.705 0 0 1-.714.714H3.143a.705.705 0 0 1-.714-.714V16a.705.705 0 0 1 .714-.714zm6.429 0v4.286H11v-4.286zm-5.715 1.428v1.429h1.429v-1.429zm10 0v1.429h1.429v-1.429zm1.429 1.429v1.429h1.429v-1.429zm1.429 0h1.429v-1.429h-1.43zm1.429 0v1.429h1.429v-1.429z" transform="translate(-1 -1)"/>
</svg>
