<svg xmlns="http://www.w3.org/2000/svg" width="25" height="21.154" viewBox="0 0 25 21.154">
    <path id="icons8-wallet_app" fill="#cda349" d="M4.885 4A2.9 2.9 0 0 0 2 6.885v15.384a2.884 2.884 0 0 0 2.885 2.885h19.23A2.884 2.884 0 0 0 27 22.269V6.885A2.9 2.9 0 0 0 24.115 4zm0 1.923h19.23a.946.946 0 0 1 .962.962v1.141a2.823 2.823 0 0 0-.962-.18H4.885a2.823 2.823 0 0 0-.962.18V6.885a.946.946 0 0 1 .962-.962zm0 3.846h19.23a.946.946 0 0 1 .962.962v1.142a2.823 2.823 0 0 0-.962-.18H4.885a2.823 2.823 0 0 0-.962.18v-1.142a.946.946 0 0 1 .962-.962zm0 3.846h19.23a.946.946 0 0 1 .962.962v.962h-4.808a3.112 3.112 0 0 0-2.783 1.72l-.2.406a3.112 3.112 0 0 1-5.566 0l-.2-.406a3.113 3.113 0 0 0-2.783-1.72H3.923v-.962a.946.946 0 0 1 .962-.962z" transform="translate(-2 -4)"/>
</svg>
