<svg xmlns="http://www.w3.org/2000/svg" width="17.857" height="25" viewBox="0 0 17.857 25">
    <path fill="#cda349" d="M18.929 4a6.557 6.557 0 0 0-6.548 6.548v3.478a8.929 8.929 0 1 0 13.1 0v-3.478A6.557 6.557 0 0 0 18.929 4zm0 1.19a5.347 5.347 0 0 1 5.357 5.357v2.4a8.855 8.855 0 0 0-10.714 0v-2.4a5.347 5.347 0 0 1 5.357-5.357zm0 7.143a7.738 7.738 0 1 1-7.738 7.738 7.729 7.729 0 0 1 7.738-7.738zm0 5.952a1.78 1.78 0 0 0-.6 3.46v1.3a.6.6 0 0 0 1.19 0v-1.3a1.78 1.78 0 0 0-.6-3.46z" transform="translate(-10 -4)"/>
</svg>
