<svg xmlns="http://www.w3.org/2000/svg" width="20" height="15.836" viewBox="0 0 20 15.836">
    <path id="invisible" fill="#fafafa" d="M3.577 2.023l-.936.931 2.607 2.608a10.6 10.6 0 0 0-5.225 4.759L-.1 10.6l.124.279a10.791 10.791 0 0 0 9.871 5.68 11.535 11.535 0 0 0 5.187-1.159l2.457 2.457.936-.942-3.175-3.169-.243-.238c.005 0 .005 0 .005-.005l-.967-.967h-.005L11.849 10.3s.005-.005 0-.005l-1.64-1.645H10.2L7.958 6.4h.005L6.634 5.076s-.005-.005-.005 0zm6.316 2.618a12.576 12.576 0 0 0-1.7.124l1.255 1.242c.15-.01.295-.041.445-.041a4.642 4.642 0 0 1 4.64 4.635 4.531 4.531 0 0 1-.046.455l1.133 1.128a5.685 5.685 0 0 0 .238-1.583 5.888 5.888 0 0 0-1.179-3.523 9.345 9.345 0 0 1 3.74 3.523 9.419 9.419 0 0 1-2.028 2.354l.957.957a10.075 10.075 0 0 0 2.426-3.032l.126-.28-.129-.279a10.794 10.794 0 0 0-9.878-5.68zM5.1 7.1a5.833 5.833 0 0 0 .021 7.02 9.311 9.311 0 0 1-3.743-3.52A9.493 9.493 0 0 1 5.1 7.1zm1.733.041L8.7 9.018a1.981 1.981 0 1 0 2.773 2.773l1.878 1.878a4.623 4.623 0 1 1-6.52-6.524z" transform="translate(.102 -2.023)"/>
</svg>
