<svg xmlns="http://www.w3.org/2000/svg" viewBox="0 0 75.68 46.22"><defs><style>.cls-1{fill:#464646;}</style></defs><g id="Layer_2" data-name="Layer 2"><g id="Layer_1-2" data-name="Layer 1"><path class="cls-1" d="M71.25,2.47a9.15,9.15,0,0,0-5-2.43C64-.27,61.6,1.29,60,2.32s-4.62,4.05-5.87,5-4.45,1.77-9.59,4.86-25.34,16-25.34,16l5.26.06L1,40.33H3.37L0,42.89a7.6,7.6,0,0,0,5.47-.79v.73s27.9-11,33.29-8.15l-3.29,1c.29,0,5.59.35,5.59.35a7.51,7.51,0,0,0,3.37,5.44c3.2,2.1,3.26,3.26,3.26,3.26S46,45.37,46,46.22a17.45,17.45,0,0,1,4.73-.68,18.2,18.2,0,0,1,4.27.68s-.18-.92-2.39-1.53-4.4-3-5.47-4.34a6.12,6.12,0,0,1-.9-6c.77-2,3.44-3.09,8.95-5.93,6.51-3.37,8-5.87,8.92-7.82s2.27-5.82,3-7.64a10,10,0,0,1,3.13-4.34,40.83,40.83,0,0,1,5.37-2.38S72.33,3.32,71.25,2.47Z"/></g></g></svg>