<svg xmlns="http://www.w3.org/2000/svg" width="44" height="35" fill="none" viewBox="0 0 44 35">
    <path fill="url(#paint0_linear)" d="M11.283 30.536c-2.59 0-4.689-2.191-4.689-4.87H2.261c0 5.149 4.054 9.332 9.022 9.332 4.978 0 9.022-4.183 9.022-9.332h-4.333c.01 2.679-2.1 4.87-4.69 4.87z"/>
    <path fill="url(#paint1_linear)" d="M11.283 21.892c5.816 0 10.553-4.89 10.553-10.895 0-6.015-4.737-10.915-10.553-10.915C5.468.082.75 4.982.75 10.997c0 6.015 4.727 10.895 10.533 10.895zm0-17.329c3.438 0 6.22 2.879 6.22 6.434 0 3.535-2.782 6.433-6.22 6.433-3.418 0-6.22-2.898-6.22-6.433 0-3.555 2.802-6.434 6.22-6.434z"/>
    <path fill="url(#paint2_linear)" d="M29.211 11.714c-.375-.707-.558-1.504-.558-2.3 0-2.68 2.108-4.85 4.689-4.85 2.59 0 4.689 2.18 4.689 4.85 0 .796-.193 1.593-.559 2.3 1.396.488 2.667 1.225 3.784 2.161.722-1.364 1.107-2.898 1.107-4.462 0-5.148-4.053-9.331-9.021-9.331-4.978 0-9.022 4.183-9.022 9.331 0 1.564.375 3.098 1.107 4.462 1.117-.936 2.388-1.673 3.784-2.161z"/>
    <path fill="url(#paint3_linear)" d="M33.342 13.188c-5.816 0-10.553 4.89-10.553 10.914 0 6.015 4.737 10.895 10.553 10.895 5.815 0 10.533-4.89 10.533-10.895 0-6.035-4.718-10.915-10.533-10.915zm0 17.327c-3.438 0-6.22-2.878-6.22-6.423 0-3.555 2.782-6.433 6.22-6.433 3.437 0 6.22 2.878 6.22 6.433 0 3.545-2.783 6.423-6.22 6.423z"/>
    <defs>
        <linearGradient id="paint0_linear" x1="11.974" x2="11.651" y1="34.998" y2="25.704" gradientUnits="userSpaceOnUse">
            <stop stop-color="#BA9A48"/>
            <stop offset="1" stop-color="#EBCB79"/>
        </linearGradient>
        <linearGradient id="paint1_linear" x1="12.1" x2="10.597" y1="21.892" y2=".248" gradientUnits="userSpaceOnUse">
            <stop stop-color="#BA9A48"/>
            <stop offset="1" stop-color="#EBCB79"/>
        </linearGradient>
        <linearGradient id="paint2_linear" x1="34.032" x2="33.328" y1="13.875" y2=".157" gradientUnits="userSpaceOnUse">
            <stop stop-color="#BA9A48"/>
            <stop offset="1" stop-color="#EBCB79"/>
        </linearGradient>
        <linearGradient id="paint3_linear" x1="34.139" x2="32.636" y1="34.997" y2="13.354" gradientUnits="userSpaceOnUse">
            <stop stop-color="#BA9A48"/>
            <stop offset="1" stop-color="#EBCB79"/>
        </linearGradient>
    </defs>
</svg>
