<?xml version="1.0" encoding="UTF-8" standalone="no"?>
<!DOCTYPE svg PUBLIC "-//W3C//DTD SVG 1.1//EN" "http://www.w3.org/Graphics/SVG/1.1/DTD/svg11.dtd">
<svg xmlns="http://www.w3.org/2000/svg" xmlns:xlink="http://www.w3.org/1999/xlink" version="1.1" width="19pt" height="20pt" viewBox="0 0 19 20">
<g enable-background="new">
<path transform="matrix(1,0,0,1,-3,-2)" d="M 12.230769 2 C 11.381101 2 10.692307 2.688793 10.692307 3.5384622 C 10.692307 4.38813 11.3811 5.0769226 12.230768 5.076923 C 13.080439 5.076923 13.769231 4.38813 13.769231 3.538461 C 13.769231 2.6887933 13.080439 2.0000005 12.23077 2 L 12.230769 2 Z M 4.5384619 6.6153848 C 3.6887928 6.6153848 2.9999998 7.3041775 3 8.153847 C 3 9.003515 3.6887928 9.692307 4.538461 9.692307 C 5.388131 9.692307 6.0769236 9.003515 6.0769236 8.153846 C 6.0769236 7.3041775 5.388131 6.6153848 4.5384628 6.6153848 L 4.5384619 6.6153848 Z M 19.923079 6.6153848 C 19.073409 6.6153848 18.384617 7.3041775 18.384617 8.153847 C 18.384617 9.003515 19.073409 9.692307 19.923079 9.692307 C 20.772747 9.692307 21.46154 9.003515 21.46154 8.153847 C 21.46154 7.3041775 20.772746 6.6153848 19.923079 6.6153848 Z M 12.230769 7.3846156 C 10.646923 7.3846156 9.990685 8.427873 9.990685 9.684795 C 9.990685 10.107872 10.1875 10.533654 10.1875 10.533654 C 10.10827 10.580577 9.977139 10.728041 10.010217 10.991887 C 10.071754 11.483425 10.279051 11.609122 10.411358 11.619892 C 10.462128 12.078353 11.003882 12.728918 11.171575 12.814303 L 11.171575 13.548979 C 10.799267 14.698979 8.384616 14.443077 8.384616 16.615386 L 16.076924 16.615386 C 16.076924 14.443077 13.661539 14.698979 13.288462 13.548979 L 13.288462 12.814303 C 13.456154 12.728918 13.998677 12.078353 14.048677 11.619892 C 14.1809849 11.609892 14.3890509 11.484195 14.44982 10.991887 C 14.482898 10.728041 14.351768 10.580577 14.272536 10.533654 C 14.272536 10.533654 14.469351 10.148642 14.469351 9.684795 C 14.469351 8.754026 14.113906 7.9600365 13.35006 7.9600365 C 13.350829 7.9592669 13.085384 7.3846156 12.230769 7.3846156 Z M 4.5384619 14.307693 C 3.6887928 14.307693 2.9999998 14.996486 3 15.846154 C 3 16.695822 3.6887928 17.384615 4.538461 17.384615 C 5.388131 17.384615 6.0769236 16.695822 6.0769236 15.846154 C 6.0769236 14.996485 5.38813 14.307693 4.5384619 14.307693 Z M 19.923079 14.307693 C 19.073409 14.307693 18.384617 14.996486 18.384617 15.846154 C 18.384617 16.695822 19.073409 17.384615 19.923079 17.384615 C 20.772747 17.384615 21.46154 16.695822 21.46154 15.846154 C 21.46154 14.996485 20.772746 14.307693 19.923079 14.307693 Z M 12.230769 18.923077 C 11.381101 18.923077 10.692307 19.61187 10.692307 20.461539 C 10.692307 21.311207 11.381101 22 12.230769 22 C 13.080439 22 13.769231 21.311207 13.769231 20.461539 C 13.769231 19.61187 13.080438 18.923077 12.230769 18.923077 Z " fill="#fafafa"/>
</g>
</svg>
