<svg xmlns="http://www.w3.org/2000/svg" viewBox="0 0 61.91 61.84"><defs><style>.cls-1{fill:#cca349;}</style></defs><g id="Layer_2" data-name="Layer 2"><g id="Layer_1-2" data-name="Layer 1"><path class="cls-1" d="M49.61,3.16,36.69,22.33a1.38,1.38,0,0,0,2.06,1.79L51.47,13.06a.49.49,0,0,1,.82.41V48a.51.51,0,0,1-.89.34l-38.48-46A6.35,6.35,0,0,0,7.9,0H6.53A6.58,6.58,0,0,0,0,6.6V55.25a6.6,6.6,0,0,0,12.23,3.43L25.15,39.51a1.38,1.38,0,0,0-2.06-1.79l-12.71,11a.5.5,0,0,1-.83-.41V13.81a.51.51,0,0,1,.89-.34l38.48,46a6.48,6.48,0,0,0,5,2.33h1.37a6.59,6.59,0,0,0,6.6-6.59V6.6A6.59,6.59,0,0,0,55.31,0,6.67,6.67,0,0,0,49.61,3.16Z"/></g></g></svg>