<!-- Generated by IcoMoon.io -->
<svg version="1.1" xmlns="http://www.w3.org/2000/svg" width="32" height="32" viewBox="0 0 32 32">
<title>app_polygon</title>
<path fill="#464646" d="M22.858 11.172c-0.257-0.137-0.544-0.209-0.835-0.209s-0.578 0.072-0.836 0.209l-3.899 2.298-2.646 1.462-3.829 2.298c-0.257 0.137-0.544 0.209-0.835 0.209s-0.578-0.072-0.835-0.209l-2.994-1.81c-0.254-0.15-0.465-0.364-0.612-0.62s-0.224-0.547-0.223-0.842v-3.481c0.002-0.295 0.080-0.584 0.226-0.841s0.356-0.47 0.609-0.622l2.994-1.741c0.257-0.137 0.544-0.209 0.835-0.209s0.578 0.072 0.835 0.209l2.994 1.81c0.254 0.15 0.465 0.364 0.612 0.62s0.223 0.546 0.224 0.842v2.298l2.646-1.532v-2.367c-0.002-0.295-0.080-0.585-0.226-0.841s-0.356-0.47-0.609-0.622l-5.57-3.272c-0.257-0.137-0.544-0.209-0.835-0.209s-0.578 0.072-0.835 0.209l-5.709 3.343c-0.256 0.13-0.47 0.33-0.617 0.576s-0.223 0.529-0.218 0.816v6.544c0.002 0.295 0.080 0.584 0.226 0.841s0.356 0.47 0.609 0.622l5.64 3.272c0.257 0.137 0.544 0.209 0.835 0.209s0.578-0.072 0.835-0.209l3.829-2.228 2.646-1.532 3.829-2.228c0.257-0.137 0.544-0.209 0.835-0.209s0.578 0.072 0.835 0.209l2.994 1.741c0.254 0.15 0.465 0.364 0.612 0.62s0.224 0.547 0.224 0.842v3.481c-0.002 0.295-0.080 0.584-0.226 0.841s-0.356 0.47-0.609 0.622l-2.924 1.741c-0.257 0.137-0.544 0.209-0.835 0.209s-0.578-0.072-0.836-0.209l-2.994-1.741c-0.254-0.15-0.465-0.364-0.612-0.62s-0.224-0.547-0.224-0.842v-2.228l-2.646 1.532v2.298c0.002 0.295 0.080 0.584 0.226 0.841s0.356 0.47 0.609 0.622l5.64 3.272c0.257 0.137 0.544 0.209 0.836 0.209s0.578-0.072 0.835-0.209l5.64-3.272c0.254-0.15 0.465-0.364 0.612-0.62s0.224-0.547 0.224-0.842v-6.614c-0.002-0.295-0.080-0.584-0.226-0.84s-0.356-0.47-0.609-0.622l-5.64-3.272z"></path>
</svg>
