<svg xmlns="http://www.w3.org/2000/svg" width="20" height="17.145" viewBox="0 0 20 17.145">
    <path id="rename" fill="#fafafa" d="M10.983 2l.033 1.429a6.166 6.166 0 0 1 1.571.206 2.458 2.458 0 0 1 .943.472.888.888 0 0 1 .326.751v11.428a.888.888 0 0 1-.326.751 2.461 2.461 0 0 1-.943.472 6.168 6.168 0 0 1-1.571.206l-.033 1.429a7.271 7.271 0 0 0 2-.262 3.721 3.721 0 0 0 1.512-.79c.036-.033.066-.076.1-.112.019.018.036.041.056.059a3.93 3.93 0 0 0 1.5.79 7.755 7.755 0 0 0 1.987.315l.017-1.429a6.687 6.687 0 0 1-1.585-.254 2.684 2.684 0 0 1-.96-.488.807.807 0 0 1-.321-.686V4.857a.807.807 0 0 1 .321-.686 2.683 2.683 0 0 1 .96-.488 6.683 6.683 0 0 1 1.585-.254L18.134 2a7.756 7.756 0 0 0-1.987.315 3.929 3.929 0 0 0-1.5.79c-.02.018-.037.04-.056.059-.035-.036-.064-.079-.1-.112a3.72 3.72 0 0 0-1.512-.79A7.27 7.27 0 0 0 10.983 2zm-7.84 4.286A2.154 2.154 0 0 0 1 8.429v4.286a2.154 2.154 0 0 0 2.143 2.143h9.286v-1.429H3.143a.7.7 0 0 1-.714-.714V8.429a.7.7 0 0 1 .714-.714h9.286V6.286zm13.571 0v1.429h2.143a.7.7 0 0 1 .714.714v4.286a.7.7 0 0 1-.714.714h-2.143v1.429h2.143A2.154 2.154 0 0 0 21 12.715V8.429a2.154 2.154 0 0 0-2.143-2.143zM3.857 9.143V12h5.714V9.143z" transform="translate(-1 -1.999)"/>
</svg>
