<svg xmlns="http://www.w3.org/2000/svg" viewBox="0 0 63.8 50"><defs><style>.cls-1{fill:#cca349;}</style></defs><g id="Layer_2" data-name="Layer 2"><g id="Layer_1-2" data-name="Layer 1"><path class="cls-1" d="M10.37,38.17a2.08,2.08,0,0,1,1.47-.61H62.76a1,1,0,0,1,.74,1.78l-10.07,10A2.08,2.08,0,0,1,52,50H1a1,1,0,0,1-.73-1.78Zm0-37.56A2.08,2.08,0,0,1,11.84,0H62.76a1,1,0,0,1,.74,1.78L53.43,11.83a2.08,2.08,0,0,1-1.47.61H1a1,1,0,0,1-.73-1.78ZM53.43,19.27A2.08,2.08,0,0,0,52,18.66H1a1,1,0,0,0-.73,1.78l10.06,10a2.08,2.08,0,0,0,1.47.61H62.76a1,1,0,0,0,.74-1.78Z"/></g></g></svg>