<svg id="Layer_1" data-name="Layer 1" xmlns="http://www.w3.org/2000/svg" viewBox="0 0 55.114 55.629"><defs><style>.cls-1,.cls-2{fill:#cca349;}.cls-2{opacity:0.51;}</style></defs><title>Logo chains</title><path class="cls-1" d="M18.413,1.616A27.666,27.666,0,0,1,35.939,1.24,28.134,28.134,0,0,1,52.831,16.114a17.149,17.149,0,0,1,1.847,6.293A64.291,64.291,0,0,0,41.4,17.014c-7.3-2.632-14.946-4.46-21.857-8.078-1.609-.961-3.66-1.946-4.1-3.95-.176-1.733,1.656-2.7,2.965-3.37"/><path class="cls-1" d="M1.587,18.466A27.188,27.188,0,0,1,9.441,7.009a35.3,35.3,0,0,0,9.4,20.243A33.827,33.827,0,0,0,43.378,37.724c3.646.114,7.211-.729,10.767-1.409-3.5,12.642-17.354,21.033-30.191,19.015A27.872,27.872,0,0,1,1.587,18.466Z"/><path class="cls-2" d="M41.127,16.862A64.391,64.391,0,0,1,54.4,22.255l.28.148a28.587,28.587,0,0,1,.153,8.758,26.02,26.02,0,0,1-5.555-3.818c-3.408-2.837-6.887-6.083-8.153-10.481"/></svg>