<svg width="261" height="253" viewBox="0 0 261 253" fill="none" xmlns="http://www.w3.org/2000/svg">
    <g filter="url(#mjursuhgha)">
        <g filter="url(#jyzhvcn2fb)">
            <ellipse cx="184.301" cy="93.961" rx="159.342" ry="132.59" transform="rotate(-9.892 184.301 93.961)" fill="url(#v4k758xefc)"/>
        </g>
        <mask id="vd3yeegv4e" fill="#fff">
            <path fill-rule="evenodd" clip-rule="evenodd" d="M231.765 34.777A43.627 43.627 0 0 0 200.978 22a43.574 43.574 0 0 0-43.554 43.581 43.095 43.095 0 0 0 5.337 20.833 58.64 58.64 0 0 1 18.272-10.088 22.113 22.113 0 0 1-2.711-10.763 22.65 22.65 0 0 1 6.52-16.233 22.67 22.67 0 0 1 16.138-6.752 22.656 22.656 0 0 1 21.027 14.214 22.668 22.668 0 0 1 1.631 8.77 22.973 22.973 0 0 1-2.702 10.745 58.652 58.652 0 0 1 18.272 10.089 43.095 43.095 0 0 0 5.337-20.833 43.627 43.627 0 0 0-12.78-30.786zM63.693 172.223A43.624 43.624 0 0 0 94.48 185a43.585 43.585 0 0 0 40.275-26.886 43.586 43.586 0 0 0 3.325-16.677h-20.921a22.675 22.675 0 0 1-6.637 16.023 22.664 22.664 0 0 1-32.047 0 22.659 22.659 0 0 1-6.637-16.023h-20.92a43.622 43.622 0 0 0 12.776 30.786zm2.51-57.009a50.904 50.904 0 0 0 64.288-6.28 50.908 50.908 0 1 0-64.288 6.28zm106.475 61.221a50.912 50.912 0 0 0 28.3 8.565 50.973 50.973 0 0 0 50.875-50.876 50.914 50.914 0 1 0-79.175 42.311zm53.279-25.62a30.043 30.043 0 0 0 5.063-16.691 30.012 30.012 0 0 0-8.793-21.249 30.041 30.041 0 0 0-21.249-8.794 30.043 30.043 0 1 0 24.979 46.734zM119.459 89.637a30.044 30.044 0 0 0 5.063-16.691 30.09 30.09 0 0 0-30.043-30.043 30.044 30.044 0 1 0 24.98 46.734z"/>
        </mask>
        <path d="m200.978 22 .002-1.5h-.003l.001 1.5zm30.787 12.777-1.061 1.06 1.061-1.06zM157.424 65.58l1.5.002v-.002h-1.5zm5.337 20.833-1.314.723.867 1.576 1.394-1.136-.947-1.163zm18.272-10.088.479 1.42 1.694-.571-.857-1.569-1.316.72zm-2.711-10.763 1.5.01v-.032l-1.5.022zm13.911-21.229.579 1.384-.579-1.384zm17.493 0-.579 1.384.579-1.384zm13.912 21.229-1.5-.022v.018l1.5.004zm-2.702 10.744-1.323-.706-.833 1.561 1.677.566.479-1.421zm18.272 10.089-.947 1.163 1.394 1.135.867-1.575-1.314-.723zm5.337-20.833 1.5-.002-1.5.002zM94.479 185l-.002 1.5h.001V185zm-30.786-12.777 1.06-1.061-1.06 1.061zm47.465 9.467-.573-1.386.573 1.386zm14.143-9.442-1.06-1.061 1.06 1.061zm9.453-14.134-1.385-.575 1.385.575zm3.325-16.677 1.5.001v-1.501h-1.5v1.5zm-20.921 0v-1.5h-1.5v1.5h1.5zm-1.725 8.672-1.386-.574 1.386.574zm-4.912 7.351 1.06 1.061-1.06-1.061zm-7.352 4.912.574 1.386-.574-1.386zm-17.343 0-.574 1.386.574-1.386zm-7.352-4.912-1.06 1.061 1.06-1.061zm-4.912-7.351-1.385.574 1.385-.574zm-1.725-8.672h1.5v-1.5h-1.5v1.5zm-20.92 0v-1.5h-1.503l.002 1.502 1.5-.002zm43.562-17.62-.001 1.5v-1.5zm-28.276-8.603-.834 1.247.834-1.247zm47.762 4.743-.573-1.386.573 1.386zm27.574-27.531 1.386.575-1.386-.575zm3.89-19.48-1.5-.001h1.5zM114.038 25.89l-.575 1.385.575-1.385zm-29.41-2.92.29 1.472-.29-1.471zM58.55 36.884l-1.06-1.062 1.06 1.062zM44.598 62.937l-1.47-.293 1.47.293zm2.874 29.416-1.386.573 1.386-.573zM200.978 185l.001 1.5h.001l-.002-1.5zm-28.3-8.565-.833 1.248.833-1.248zm79.175-42.311 1.5.003v-.002l-1.5-.001zm-8.564-28.3 1.247-.832-1.247.832zm-22.848-18.767-.574 1.385.574-1.385zm-29.424-2.907.292 1.471-.292-1.47zm-40.013 40.013-1.472-.292 1.472.292zm2.906 29.425-1.386.574 1.386-.574zm77.11-19.464-1.5-.001v.001h1.5zm-5.063 16.691-1.247-.833 1.247.833zm2.782-28.191-1.386.574 1.386-.574zm-16.262-16.261.574-1.386-.574 1.386zm-11.499-2.282v1.5-1.5zm-27.757 18.546 1.386.574-1.386-.574zm21.895 40.963-.292 1.471.292-1.471zm17.358-1.71.574 1.386-.574-1.386zm-87.952-88.934h1.5v-.003l-1.5.003zm-8.813-21.23-1.061 1.06 1.061-1.06zm-21.23-8.813.002-1.5h-.002v1.5zm-16.691 5.063.833 1.247-.833-1.247zm-12.775 30.84-1.471.293 1.471-.292zm23.605 23.605.293-1.471-.293 1.471zM200.975 23.5a42.128 42.128 0 0 1 29.729 12.337l2.122-2.121A45.128 45.128 0 0 0 200.98 20.5l-.005 3zm-29.736 12.334A42.075 42.075 0 0 1 200.978 23.5l-.001-3a45.075 45.075 0 0 0-31.86 13.213l2.122 2.12zM158.924 65.58a42.075 42.075 0 0 1 12.315-29.748l-2.122-2.12a45.076 45.076 0 0 0-13.193 31.869h3zm5.151 20.11a41.588 41.588 0 0 1-5.151-20.108l-3-.004a44.58 44.58 0 0 0 5.523 21.558l2.628-1.446zm16.478-10.787a60.137 60.137 0 0 0-18.739 10.347l1.894 2.326a57.161 57.161 0 0 1 17.804-9.83l-.959-2.843zm-3.731-9.352a23.614 23.614 0 0 0 2.894 11.493l2.633-1.439a20.612 20.612 0 0 1-2.527-10.033l-3-.02zm1.739-9.32a24.148 24.148 0 0 0-1.739 9.352l3-.043a21.15 21.15 0 0 1 1.523-8.19l-2.784-1.118zm5.213-7.955a24.149 24.149 0 0 0-5.213 7.956l2.784 1.118a21.15 21.15 0 0 1 4.566-6.968l-2.137-2.106zm7.88-5.327a24.17 24.17 0 0 0-7.88 5.327l2.137 2.106a21.15 21.15 0 0 1 6.901-4.665l-1.158-2.768zm9.326-1.872c-3.202 0-6.372.637-9.326 1.872l1.158 2.768a21.162 21.162 0 0 1 8.168-1.64v-3zm9.325 1.872a24.156 24.156 0 0 0-9.325-1.872v3c2.804 0 5.58.557 8.167 1.64l1.158-2.768zm7.88 5.327a24.149 24.149 0 0 0-7.88-5.327l-1.158 2.768a21.164 21.164 0 0 1 6.902 4.665l2.136-2.106zm5.214 7.956a24.167 24.167 0 0 0-5.214-7.956l-2.136 2.106a21.152 21.152 0 0 1 4.566 6.968l2.784-1.118zm1.738 9.351a24.166 24.166 0 0 0-1.738-9.351l-2.784 1.118a21.169 21.169 0 0 1 1.523 8.19l2.999.043zm-2.877 11.429a24.467 24.467 0 0 0 2.878-11.446l-3-.008a21.48 21.48 0 0 1-2.525 10.042l2.647 1.412zm17.895 8.22a60.139 60.139 0 0 0-18.739-10.347l-.959 2.842a57.161 57.161 0 0 1 17.804 9.83l1.894-2.326zm2.89-19.668a41.578 41.578 0 0 1-5.152 20.108l2.629 1.446a44.58 44.58 0 0 0 5.523-21.558l-3 .004zm-12.341-29.728a42.126 42.126 0 0 1 12.341 29.728l3-.004a45.131 45.131 0 0 0-13.219-31.845l-2.122 2.121zM94.481 183.5a42.12 42.12 0 0 1-29.727-12.338l-2.122 2.122A45.125 45.125 0 0 0 94.477 186.5l.004-3zm16.104-3.196A42.102 42.102 0 0 1 94.48 183.5l-.002 3a45.1 45.1 0 0 0 17.254-3.424l-1.147-2.772zm13.656-9.117a42.09 42.09 0 0 1-13.656 9.117l1.147 2.772a45.103 45.103 0 0 0 14.629-9.766l-2.12-2.123zm9.128-13.648a42.082 42.082 0 0 1-9.128 13.648l2.12 2.123a45.088 45.088 0 0 0 9.779-14.622l-2.771-1.149zm3.21-16.102a42.092 42.092 0 0 1-3.21 16.102l2.771 1.149a45.085 45.085 0 0 0 3.439-17.25l-3-.001zm-19.421 1.5h20.921v-3h-20.921v3zm-.339 7.746a24.163 24.163 0 0 0 1.839-9.246h-3c0 2.779-.548 5.531-1.611 8.098l2.772 1.148zm-5.238 7.838a24.164 24.164 0 0 0 5.238-7.838l-2.772-1.148a21.173 21.173 0 0 1-4.587 6.865l2.121 2.121zm-7.838 5.237a24.161 24.161 0 0 0 7.838-5.237l-2.121-2.121a21.173 21.173 0 0 1-6.865 4.587l1.148 2.771zm-9.245 1.839c3.172 0 6.314-.625 9.245-1.839l-1.148-2.771a21.165 21.165 0 0 1-8.097 1.61v3zm-9.246-1.839a24.163 24.163 0 0 0 9.246 1.839v-3c-2.78 0-5.53-.547-8.098-1.61l-1.148 2.771zm-7.838-5.237a24.163 24.163 0 0 0 7.838 5.237l1.148-2.771a21.168 21.168 0 0 1-6.865-4.587l-2.121 2.121zm-5.237-7.838a24.158 24.158 0 0 0 5.237 7.838l2.121-2.121a21.165 21.165 0 0 1-4.587-6.865l-2.771 1.148zm-1.84-9.246c0 3.173.625 6.315 1.84 9.246l2.771-1.148a21.162 21.162 0 0 1-1.61-8.098h-3zm-19.42 1.5h20.92v-3h-20.92v3zm13.837 28.225a42.121 42.121 0 0 1-12.338-29.727l-3 .004a45.124 45.124 0 0 0 13.216 31.845l2.122-2.122zm29.726-48.845a49.412 49.412 0 0 1-27.442-8.349l-1.67 2.493a52.417 52.417 0 0 0 29.11 8.856l.002-3zm18.912-3.746a49.422 49.422 0 0 1-18.912 3.746l-.002 3a52.42 52.42 0 0 0 20.06-3.973l-1.146-2.773zm16.039-10.698a49.415 49.415 0 0 1-16.039 10.698l1.146 2.773a52.403 52.403 0 0 0 17.012-11.348l-2.119-2.123zm10.723-16.022a49.415 49.415 0 0 1-10.723 16.022l2.119 2.123a52.421 52.421 0 0 0 11.375-16.995l-2.771-1.15zm3.775-18.906a49.407 49.407 0 0 1-3.775 18.906l2.771 1.15a52.421 52.421 0 0 0 4.004-20.054l-3-.002zm-8.306-27.456a49.408 49.408 0 0 1 8.306 27.456l3 .002a52.399 52.399 0 0 0-8.811-29.123l-2.495 1.665zm-22.16-18.214a49.41 49.41 0 0 1 22.16 18.214l2.495-1.665a52.408 52.408 0 0 0-23.505-19.32l-1.15 2.771zm-28.544-2.833a49.409 49.409 0 0 1 28.544 2.833l1.15-2.77a52.409 52.409 0 0 0-30.277-3.006l.583 2.943zM59.61 37.944a49.409 49.409 0 0 1 25.308-13.502l-.583-2.943A52.409 52.409 0 0 0 57.49 35.821l2.12 2.123zM46.069 63.231a49.408 49.408 0 0 1 13.542-25.287l-2.12-2.123a52.409 52.409 0 0 0-14.364 26.823l2.942.587zm2.79 28.549a49.41 49.41 0 0 1-2.79-28.549l-2.942-.587a52.408 52.408 0 0 0 2.959 30.282l2.772-1.146zm18.179 22.188a49.41 49.41 0 0 1-18.18-22.188l-2.772 1.146a52.41 52.41 0 0 0 19.283 23.535l1.669-2.493zM200.976 183.5a49.415 49.415 0 0 1-27.466-8.313l-1.665 2.496a52.412 52.412 0 0 0 29.134 8.817l-.003-3zm34.887-14.49a49.477 49.477 0 0 1-34.888 14.49l.005 3a52.476 52.476 0 0 0 37.004-15.369l-2.121-2.121zm14.49-34.889a49.473 49.473 0 0 1-14.49 34.889l2.121 2.121a52.471 52.471 0 0 0 15.369-37.004l-3-.006zm-8.312-27.464a49.403 49.403 0 0 1 8.312 27.466l3 .002a52.403 52.403 0 0 0-8.817-29.133l-2.495 1.665zm-22.174-18.215a49.416 49.416 0 0 1 22.174 18.215l2.495-1.665a52.412 52.412 0 0 0-23.52-19.321l-1.149 2.771zm-28.558-2.82a49.415 49.415 0 0 1 28.558 2.82l1.149-2.771a52.415 52.415 0 0 0-30.292-2.992l.585 2.942zM166 99.147a49.416 49.416 0 0 1 25.309-13.526l-.585-2.942a52.412 52.412 0 0 0-26.845 14.346L166 99.147zm-13.525 25.309A49.405 49.405 0 0 1 166 99.146l-2.121-2.12a52.416 52.416 0 0 0-14.347 26.845l2.943.585zm2.82 28.557a49.41 49.41 0 0 1-2.82-28.557l-2.943-.585a52.42 52.42 0 0 0 2.992 30.291l2.771-1.149zm18.215 22.174a49.412 49.412 0 0 1-18.215-22.174l-2.771 1.149a52.42 52.42 0 0 0 19.321 23.521l1.665-2.496zm56.01-41.063a28.548 28.548 0 0 1-4.81 15.858l2.495 1.666a31.547 31.547 0 0 0 5.315-17.524h-3zm-2.167-10.926a28.52 28.52 0 0 1 2.167 10.925l3 .002a31.52 31.52 0 0 0-2.395-12.074l-2.772 1.147zm-6.187-9.262a28.53 28.53 0 0 1 6.187 9.262l2.772-1.147a31.53 31.53 0 0 0-6.838-10.237l-2.121 2.122zm-9.262-6.187a28.53 28.53 0 0 1 9.262 6.187l2.121-2.122a31.523 31.523 0 0 0-10.236-6.837l-1.147 2.772zm-10.926-2.168a28.525 28.525 0 0 1 10.926 2.168l1.147-2.772a31.539 31.539 0 0 0-12.074-2.396l.001 3zm-15.858 4.81a28.545 28.545 0 0 1 15.858-4.81v-3a31.544 31.544 0 0 0-17.525 5.316l1.667 2.494zm-10.513 12.81a28.554 28.554 0 0 1 10.513-12.81l-1.667-2.494a31.539 31.539 0 0 0-11.617 14.156l2.771 1.148zm-1.624 16.492a28.55 28.55 0 0 1 1.624-16.492l-2.771-1.148a31.54 31.54 0 0 0-1.795 18.225l2.942-.585zm7.812 14.614a28.542 28.542 0 0 1-7.812-14.614l-2.942.585a31.54 31.54 0 0 0 8.632 16.15l2.122-2.121zm14.614 7.812a28.542 28.542 0 0 1-14.614-7.812l-2.122 2.121a31.541 31.541 0 0 0 16.151 8.633l.585-2.942zm16.491-1.625a28.539 28.539 0 0 1-16.491 1.625l-.585 2.942a31.544 31.544 0 0 0 18.224-1.795l-1.148-2.772zm12.81-10.512a28.535 28.535 0 0 1-12.81 10.512l1.148 2.772a31.537 31.537 0 0 0 14.157-11.618l-2.495-1.666zM123.022 72.946a28.545 28.545 0 0 1-4.81 15.857l2.494 1.667a31.543 31.543 0 0 0 5.316-17.524h-3zm-8.374-20.17a28.59 28.59 0 0 1 8.374 20.172l3-.005a31.59 31.59 0 0 0-9.252-22.288l-2.122 2.121zm-20.171-8.373a28.589 28.589 0 0 1 20.171 8.373l2.122-2.121a31.593 31.593 0 0 0-22.289-9.252l-.004 3zm-15.856 4.81a28.543 28.543 0 0 1 15.858-4.81v-3a31.543 31.543 0 0 0-17.524 5.316l1.666 2.494zM68.11 62.023a28.543 28.543 0 0 1 10.512-12.81l-1.666-2.494a31.543 31.543 0 0 0-11.618 14.156l2.772 1.148zm-1.625 16.491a28.543 28.543 0 0 1 1.625-16.491l-2.772-1.148a31.544 31.544 0 0 0-1.795 18.224l2.942-.585zm7.812 14.615a28.542 28.542 0 0 1-7.812-14.615l-2.942.585a31.543 31.543 0 0 0 8.633 16.15l2.121-2.12zm14.614 7.811a28.541 28.541 0 0 1-14.614-7.811l-2.121 2.12a31.542 31.542 0 0 0 16.15 8.633l.585-2.942zm16.492-1.624a28.549 28.549 0 0 1-16.492 1.624l-.585 2.942a31.54 31.54 0 0 0 18.225-1.794l-1.148-2.772zm12.81-10.513a28.55 28.55 0 0 1-12.81 10.513l1.148 2.772a31.546 31.546 0 0 0 14.156-11.618l-2.494-1.667z" fill="url(#qzanyf3owd)" fill-opacity=".4" mask="url(#vd3yeegv4e)"/>
    </g>
    <defs>
        <filter id="mjursuhgha" x="21.664" y="-39.522" width="325.274" height="274.966" filterUnits="userSpaceOnUse" color-interpolation-filters="sRGB">
            <feFlood flood-opacity="0" result="BackgroundImageFix"/>
            <feColorMatrix in="SourceAlpha" values="0 0 0 0 0 0 0 0 0 0 0 0 0 0 0 0 0 0 127 0" result="hardAlpha"/>
            <feOffset dy="4"/>
            <feGaussianBlur stdDeviation="2"/>
            <feComposite in2="hardAlpha" operator="out"/>
            <feColorMatrix values="0 0 0 0 0 0 0 0 0 0 0 0 0 0 0 0 0 0 0.25 0"/>
            <feBlend in2="BackgroundImageFix" result="effect1_dropShadow_90_4531"/>
            <feBlend in="SourceGraphic" in2="effect1_dropShadow_90_4531" result="shape"/>
        </filter>
        <filter id="jyzhvcn2fb" x=".664" y="-64.522" width="367.274" height="316.966" filterUnits="userSpaceOnUse" color-interpolation-filters="sRGB">
            <feFlood flood-opacity="0" result="BackgroundImageFix"/>
            <feBlend in="SourceGraphic" in2="BackgroundImageFix" result="shape"/>
            <feGaussianBlur stdDeviation="12.5" result="effect1_foregroundBlur_90_4531"/>
        </filter>
        <radialGradient id="v4k758xefc" cx="0" cy="0" r="1" gradientUnits="userSpaceOnUse" gradientTransform="rotate(86.088 33.24 145.157) scale(124.75 153.982)">
            <stop stop-color="#ECCF40" stop-opacity=".23"/>
            <stop offset=".307" stop-color="#ECCF40" stop-opacity=".22"/>
            <stop offset="1" stop-color="#ECCF40" stop-opacity="0"/>
        </radialGradient>
        <linearGradient id="qzanyf3owd" x1="148.036" y1="-15.045" x2="148.036" y2="199.818" gradientUnits="userSpaceOnUse">
            <stop stop-color="#fff" stop-opacity=".4"/>
            <stop offset="1" stop-color="#fff" stop-opacity=".1"/>
        </linearGradient>
    </defs>
</svg>
