<svg xmlns="http://www.w3.org/2000/svg" viewBox="0 0 58.78 61.84"><defs><style>.cls-1{fill:#cca349;}</style></defs><g id="Layer_2" data-name="Layer 2"><g id="Layer_1-2" data-name="Layer 1"><g id="tron"><path class="cls-1" d="M58,18.63C55.08,16,51.07,11.87,47.8,9l-.19-.14a3.77,3.77,0,0,0-1.07-.6h0C38.66,6.76,2-.09,1.29,0A1.41,1.41,0,0,0,.73.21L.55.36a2.08,2.08,0,0,0-.5.81L0,1.3v.79C4.13,13.58,20.42,51.21,23.63,60c.19.6.56,1.74,1.24,1.8H25c.36,0,1.93-2.07,1.93-2.07s28-33.93,30.81-37.55a8.77,8.77,0,0,0,1-1.43A2.35,2.35,0,0,0,58,18.63ZM34.14,22.58l11.94-9.9,7,6.45Zm-4.64-.64L8.94,5.08l33.27,6.14Zm1.86,4.41L52.4,23,28.34,52ZM6.15,6.76,27.78,25.12,24.65,52Z"/></g></g></g></svg>