<svg width="211" height="202" viewBox="0 0 211 202" fill="none" xmlns="http://www.w3.org/2000/svg">
<path opacity="0.75186" d="M65.447 0.000976562L65.4472 -0.499024L65.4466 -0.499023L65.447 0.000976562ZM29.6326 10.5907L29.9053 11.0098L29.9053 11.0098L29.6326 10.5907ZM111.083 18.3929L110.734 18.7514L110.734 18.7514L111.083 18.3929ZM130 62.761L130.5 62.7614L130.5 62.7607L130 62.761ZM119.108 97.5802L119.52 97.8636L119.52 97.8636L119.108 97.5802ZM52.9035 124.21L52.8085 124.701L52.8085 124.701L52.9035 124.21ZM19.8916 107.051L20.2401 106.692L20.2401 106.692L19.8916 107.051ZM2.24215 74.9556L2.73199 74.8553L2.73198 74.8553L2.24215 74.9556ZM5.89951 38.7358L6.35959 38.9315L6.35959 38.9315L5.89951 38.7358ZM64.0001 100.14V100.64L64.0017 100.64L64.0001 100.14ZM42.8877 93.9954L42.6178 94.4163L42.6178 94.4163L42.8877 93.9954ZM90.8322 89.4291L91.1783 89.7899L91.1784 89.7899L90.8322 89.4291ZM102 63.6871L102.5 63.6888L102.5 63.6871L102 63.6871ZM95.5988 43.4304L95.1884 43.7161L95.1884 43.7161L95.5988 43.4304ZM78.5459 30L78.3612 30.4647L78.3612 30.4647L78.5459 30ZM56.5902 27.9231L56.4965 27.4319L56.4965 27.4319L56.5902 27.9231ZM37.1319 37.8998L37.478 38.2606L37.478 38.2606L37.1319 37.8998ZM26.7305 56.5667L26.2409 56.4652L26.2409 56.4652L26.7305 56.5667ZM28.8922 77.6321L29.3512 77.434L29.3512 77.4339L28.8922 77.6321ZM247.246 79.7232L246.934 80.1139L247.393 80.4805L247.681 79.9687L247.246 79.7232ZM254 53.9286L253.5 53.9292L253.5 53.9297L254 53.9286ZM224.175 67.2493L223.736 67.0097L223.449 67.5362L224.019 67.7241L224.175 67.2493ZM227.605 53.9286L228.105 53.9302V53.9286H227.605ZM219.226 34.0843L219.576 33.7274L219.576 33.7274L219.226 34.0843ZM178.766 34.0843L178.416 33.7274L178.416 33.7274L178.766 34.0843ZM170.387 53.9286L170.887 53.9325V53.9286H170.387ZM173.817 67.2493L173.974 67.7241L174.55 67.5341L174.253 67.005L173.817 67.2493ZM150.741 79.7232L150.304 79.9668L150.592 80.482L151.053 80.114L150.741 79.7232ZM144.009 52.9153L143.509 52.9063L144.009 52.9153ZM151.7 26.3573L152.128 26.6162L152.128 26.6162L151.7 26.3573ZM171.795 7.02605L171.552 6.58925L171.552 6.58925L171.795 7.02605ZM199.014 0.00107457L199.013 0.501074L199.013 0.501074L199.014 0.00107457ZM237.874 15.8122L237.523 16.1692L237.523 16.1692L237.874 15.8122ZM198.553 75.8343L198.555 75.3343L198.554 75.3343L198.553 75.8343ZM244.112 94.2784L244.461 93.9202L244.461 93.9202L244.112 94.2784ZM263 138.606L263.5 138.606L263.5 138.605L263 138.606ZM252.095 173.433L251.683 173.149L251.683 173.149L252.095 173.433ZM223.126 196.5L222.94 196.036L222.94 196.036L223.126 196.5ZM185.857 200.035L185.762 200.525L185.762 200.525L185.857 200.035ZM152.85 182.844L152.501 183.202L152.501 183.202L152.85 182.844ZM135.228 150.722L134.738 150.821L134.738 150.821L135.228 150.722ZM138.931 114.495L138.471 114.299L138.471 114.299L138.931 114.495ZM199.953 174.029L199.952 174.529H199.953V174.029ZM164.873 151.476L165.332 151.279L165.332 151.279L164.873 151.476ZM162.741 130.407L162.251 130.305L162.251 130.305L162.741 130.407ZM173.17 111.752L172.824 111.391L172.824 111.391L173.17 111.752ZM192.644 101.802L192.551 101.31L192.551 101.31L192.644 101.802ZM214.598 103.909L214.783 103.445L214.783 103.445L214.598 103.909ZM238 137.633L238.5 137.634L238.5 137.634L238 137.633ZM226.817 163.375L227.162 163.736L227.162 163.736L226.817 163.375ZM120 146.805H120.5V146.305H120V146.805ZM93.6073 146.805V146.305H93.1073V146.805H93.6073ZM36.3931 146.805H36.8931V146.305H36.3931V146.805ZM10 146.805V146.305H9.5V146.805H10ZM65.4466 -0.499023C52.5985 -0.48891 40.0406 3.22381 29.36 10.1716L29.9053 11.0098C40.4223 4.16844 52.7908 0.510939 65.4474 0.500976L65.4466 -0.499023ZM111.431 18.0344C99.2322 6.17433 82.693 -0.490077 65.4472 -0.499023L65.4467 0.500976C82.4364 0.50979 98.7245 7.07549 110.734 18.7514L111.431 18.0344ZM130.5 62.7607C130.49 45.9813 123.63 29.8946 111.431 18.0344L110.734 18.7514C122.743 30.4265 129.491 46.2561 129.5 62.7613L130.5 62.7607ZM119.52 97.8636C126.668 87.4767 130.489 75.2616 130.5 62.7614L129.5 62.7606C129.489 75.0566 125.73 87.0748 118.696 97.2967L119.52 97.8636ZM90.3452 121.118C102.219 116.342 112.371 108.251 119.52 97.8636L118.696 97.2967C111.661 107.519 101.666 115.486 89.972 120.19L90.3452 121.118ZM52.8085 124.701C65.4096 127.14 78.4718 125.894 90.3452 121.118L89.972 120.19C78.2778 124.894 65.4113 126.122 52.9986 123.719L52.8085 124.701ZM19.5431 107.409C28.6313 116.245 40.2077 122.261 52.8085 124.701L52.9986 123.719C40.5863 121.316 29.1869 115.39 20.2401 106.692L19.5431 107.409ZM1.75232 75.056C4.26299 87.3151 10.455 98.5736 19.5431 107.409L20.2401 106.692C11.2939 97.9944 5.20183 86.9152 2.73199 74.8553L1.75232 75.056ZM5.43944 38.54C0.524536 50.0891 -0.758772 62.7967 1.75232 75.056L2.73198 74.8553C0.261759 62.7956 1.52391 50.2945 6.35959 38.9315L5.43944 38.54ZM29.36 10.1716C18.6793 17.119 10.3543 26.9906 5.43944 38.54L6.35959 38.9315C11.1953 27.568 19.3884 17.8507 29.9053 11.0098L29.36 10.1716ZM64.0001 99.64C56.5783 99.64 49.3253 97.5285 43.1575 93.5744L42.6178 94.4163C48.9488 98.475 56.3895 100.64 64.0001 100.64V99.64ZM90.4861 89.0682C83.4616 95.8066 73.9401 99.6092 63.9986 99.64L64.0017 100.64C74.1943 100.608 83.9643 96.7101 91.1783 89.7899L90.4861 89.0682ZM101.5 63.6853C101.466 73.2056 97.5095 82.3305 90.4861 89.0682L91.1784 89.7899C98.3927 82.869 102.465 73.4867 102.5 63.6888L101.5 63.6853ZM95.1884 43.7161C99.3058 49.6297 101.501 56.5797 101.5 63.687L102.5 63.6871C102.501 56.3727 100.242 49.2236 96.0091 43.1447L95.1884 43.7161ZM78.3612 30.4647C85.2159 33.1895 91.0712 37.8023 95.1884 43.7161L96.0091 43.1447C91.7771 37.0661 85.7632 32.3309 78.7306 29.5354L78.3612 30.4647ZM56.6839 28.4142C63.9627 27.026 71.5068 27.7398 78.3612 30.4647L78.7307 29.5354C71.6986 26.7399 63.9614 26.0082 56.4965 27.4319L56.6839 28.4142ZM37.478 38.2606C42.7222 33.23 49.4051 29.8024 56.6839 28.4142L56.4965 27.4319C49.0316 28.8556 42.1722 32.3718 36.7858 37.539L37.478 38.2606ZM27.2201 56.6683C28.6658 49.6969 32.2345 43.2906 37.478 38.2606L36.7858 37.539C31.3995 42.7059 27.7285 49.2918 26.2409 56.4652L27.2201 56.6683ZM29.3512 77.4339C26.5157 70.8659 25.7745 63.6395 27.2201 56.6683L26.2409 56.4652C24.7534 63.6388 25.5165 71.0744 28.4331 77.8303L29.3512 77.4339ZM43.1575 93.5744C36.9903 89.6205 32.1865 84.0026 29.3512 77.434L28.4331 77.8303C31.3492 84.5862 36.287 90.3575 42.6178 94.4163L43.1575 93.5744ZM247.681 79.9687C252.174 71.9987 254.521 63.036 254.5 53.9274L253.5 53.9297C253.52 62.8646 251.218 71.6575 246.81 79.4777L247.681 79.9687ZM224.019 67.7241C232.353 70.4728 240.115 74.6697 246.934 80.1139L247.558 79.3324C240.645 73.8137 232.778 69.5601 224.332 66.7745L224.019 67.7241ZM227.105 53.927C227.091 58.4921 225.934 62.9844 223.736 67.0097L224.614 67.4889C226.891 63.3183 228.09 58.6624 228.105 53.9302L227.105 53.927ZM218.876 34.4412C224.146 39.6113 227.105 46.6214 227.105 53.9286H228.105C228.105 46.3499 225.036 39.0834 219.576 33.7274L218.876 34.4412ZM198.996 26.3644C206.454 26.3644 213.605 29.2709 218.876 34.4413L219.576 33.7274C214.116 28.3717 206.713 25.3644 198.996 25.3644V26.3644ZM179.116 34.4413C184.388 29.2709 191.538 26.3644 198.996 26.3644V25.3644C191.279 25.3644 183.876 28.3717 178.416 33.7274L179.116 34.4413ZM170.887 53.9286C170.887 46.6214 173.846 39.6113 179.116 34.4412L178.416 33.7274C172.956 39.0834 169.887 46.3499 169.887 53.9286H170.887ZM174.253 67.005C172.01 63.0007 170.851 58.5 170.887 53.9325L169.887 53.9247C169.85 58.6668 171.053 63.3385 173.381 67.4936L174.253 67.005ZM151.053 80.114C157.874 74.6709 165.638 70.474 173.974 67.7241L173.66 66.7745C165.213 69.5612 157.344 73.8148 150.429 79.3324L151.053 80.114ZM143.509 52.9063C143.339 62.3528 145.681 71.6794 150.304 79.9668L151.178 79.4796C146.64 71.3457 144.342 62.1934 144.508 52.9242L143.509 52.9063ZM151.273 26.0983C146.355 34.2202 143.678 43.4597 143.509 52.9063L144.508 52.9242C144.675 43.6551 147.301 34.588 152.128 26.6162L151.273 26.0983ZM171.552 6.58925C163.18 11.253 156.191 17.9764 151.273 26.0983L152.128 26.6162C156.955 18.6444 163.817 12.0429 172.039 7.46285L171.552 6.58925ZM199.015 -0.498925C189.389 -0.516936 179.923 1.92597 171.552 6.58925L172.039 7.46285C180.26 2.88317 189.557 0.48338 199.013 0.501074L199.015 -0.498925ZM238.224 15.4553C227.821 5.25275 213.72 -0.483655 199.014 -0.498925L199.013 0.501074C213.46 0.516076 227.31 6.15175 237.523 16.1692L238.224 15.4553ZM254.5 53.9279C254.481 39.4937 248.626 25.6577 238.224 15.4552L237.523 16.1692C247.737 26.1859 253.481 39.766 253.5 53.9292L254.5 53.9279ZM198.554 75.3343C185.701 75.3242 173.134 79.019 162.439 85.9535L162.983 86.7926C173.514 79.9642 185.892 76.3244 198.553 76.3343L198.554 75.3343ZM244.461 93.9202C232.287 82.0633 215.78 75.3818 198.555 75.3343L198.552 76.3343C215.522 76.3811 231.779 82.9636 243.763 94.6366L244.461 93.9202ZM263.5 138.605C263.483 121.845 256.635 105.778 244.461 93.9202L243.763 94.6366C255.747 106.309 262.483 122.12 262.5 138.606L263.5 138.605ZM252.506 173.716C259.661 163.329 263.487 151.11 263.5 138.606L262.5 138.605C262.487 150.905 258.724 162.926 251.683 173.149L252.506 173.716ZM223.312 196.964C235.192 192.194 245.352 184.104 252.506 173.716L251.683 173.149C244.642 183.372 234.64 191.338 222.94 196.036L223.312 196.964ZM185.762 200.525C198.365 202.974 211.432 201.736 223.312 196.964L222.94 196.036C211.239 200.736 198.367 201.956 185.953 199.544L185.762 200.525ZM152.501 183.202C161.584 192.048 173.159 198.076 185.762 200.525L185.953 199.544C173.538 197.131 162.14 191.194 153.199 182.486L152.501 183.202ZM134.738 150.821C137.236 163.087 143.418 174.355 152.501 183.202L153.199 182.486C144.258 173.777 138.175 162.688 135.718 150.622L134.738 150.821ZM138.471 114.299C133.54 125.845 132.241 138.556 134.738 150.821L135.718 150.622C133.261 138.556 134.539 126.052 139.391 114.691L138.471 114.299ZM162.439 85.9535C151.744 92.8882 143.403 102.752 138.471 114.299L139.391 114.691C144.243 103.33 152.452 93.6209 162.983 86.7926L162.439 85.9535ZM178.577 168.279C184.903 172.345 192.341 174.52 199.952 174.529L199.954 173.529C192.531 173.52 185.28 171.399 179.118 167.437L178.577 168.279ZM164.413 151.674C167.321 158.434 172.251 164.212 178.577 168.279L179.118 167.437C172.955 163.476 168.159 157.852 165.332 151.279L164.413 151.674ZM162.251 130.305C160.753 137.477 161.506 144.914 164.413 151.674L165.332 151.279C162.505 144.707 161.775 137.479 163.23 130.509L162.251 130.305ZM172.824 111.391C167.43 116.551 163.749 123.133 162.251 130.305L163.23 130.509C164.686 123.539 168.264 117.137 173.515 112.114L172.824 111.391ZM192.551 101.31C185.083 102.724 178.218 106.231 172.824 111.391L173.515 112.114C178.767 107.09 185.455 103.671 192.737 102.293L192.551 101.31ZM214.783 103.445C207.755 100.639 200.018 99.8967 192.551 101.31L192.737 102.293C200.018 100.914 207.561 101.639 214.412 104.374L214.783 103.445ZM232.041 117.08C227.818 110.995 221.812 106.251 214.783 103.445L214.412 104.374C221.263 107.109 227.111 111.73 231.22 117.65L232.041 117.08ZM238.5 137.634C238.513 130.318 236.265 123.166 232.041 117.08L231.22 117.65C235.328 123.57 237.512 130.524 237.5 137.632L238.5 137.634ZM227.162 163.736C234.39 156.822 238.47 147.436 238.5 137.634L237.5 137.631C237.471 147.155 233.507 156.283 226.471 163.014L227.162 163.736ZM199.953 174.529C210.15 174.529 219.935 170.65 227.162 163.736L226.471 163.014C219.434 169.745 209.898 173.529 199.953 173.529V174.529ZM119.5 146.805C119.5 160.85 113.762 174.322 103.542 184.257L104.24 184.974C114.649 174.853 120.5 161.124 120.5 146.805H119.5ZM93.6073 147.305H120V146.305H93.6073V147.305ZM85.5769 166.83C91.037 161.522 94.1073 154.319 94.1073 146.805H93.1073C93.1073 154.044 90.1494 160.99 84.8799 166.113L85.5769 166.83ZM65 175.118C72.7154 175.118 80.1174 172.138 85.5769 166.83L84.8799 166.113C79.6099 171.237 72.4592 174.118 65 174.118V175.118ZM44.4234 166.83C49.883 172.138 57.285 175.118 65 175.118V174.118C57.5413 174.118 50.3905 171.237 45.1205 166.113L44.4234 166.83ZM35.8931 146.805C35.8931 154.319 38.9634 161.522 44.4234 166.83L45.1205 166.113C39.851 160.99 36.8931 154.044 36.8931 146.805H35.8931ZM10 147.305H36.3931V146.305H10V147.305ZM26.4579 184.257C16.2386 174.322 10.5 160.85 10.5 146.805H9.5C9.5 161.124 15.351 174.853 25.7608 184.974L26.4579 184.257ZM65 199.777C50.5414 199.777 36.6777 194.193 26.4579 184.257L25.7608 184.974C36.1702 195.094 50.2852 200.777 65 200.777V199.777ZM103.542 184.257C93.3227 194.193 79.459 199.777 65 199.777V200.777C79.7152 200.777 93.8302 195.094 104.24 184.974L103.542 184.257Z" fill="#CFB160" fill-opacity="0.130409"/>
</svg>
