<svg width="280" height="278" viewBox="0 0 280 278" fill="none" xmlns="http://www.w3.org/2000/svg">
<g opacity="0.9" filter="url(#filter0_f_170_10361)">
<ellipse rx="70.8482" ry="77.1623" transform="matrix(0.268957 -0.949986 0.980724 0.243753 141.589 143.28)" fill="url(#paint0_linear_170_10361)"/>
<path d="M160.51 76.4502C202.074 86.7806 227.213 125.095 216.774 161.967C206.335 198.839 164.232 220.44 122.669 210.11C81.1052 199.78 55.9659 161.465 66.4049 124.593C76.8439 87.7216 118.947 66.1198 160.51 76.4502Z" stroke="url(#paint1_linear_170_10361)" stroke-opacity="0.3"/>
<ellipse rx="70.8482" ry="77.1623" transform="matrix(0.268957 -0.949986 0.980724 0.243753 138.386 134.409)" fill="url(#paint2_linear_170_10361)"/>
<path d="M157.307 67.5791C198.87 77.9095 224.01 116.224 213.571 153.096C203.132 189.967 161.029 211.569 119.466 201.239C77.9021 190.908 52.7627 152.594 63.2017 115.722C73.6407 78.8505 115.743 57.2487 157.307 67.5791Z" stroke="url(#paint3_linear_170_10361)" stroke-opacity="0.3"/>
<g filter="url(#filter1_i_170_10361)">
<path d="M131.608 160.912C127.445 162.082 122.544 159.629 120.677 155.471L113.713 157.427C117.302 165.418 126.733 170.08 134.718 167.837C142.719 165.59 146.303 157.272 142.714 149.281L135.75 151.237C137.633 155.39 135.771 159.743 131.608 160.912Z" fill="#65540D"/>
<path d="M125.254 147.551C134.645 144.914 138.878 135.172 134.682 125.847C130.48 116.506 119.408 111.045 110.018 113.682C100.628 116.32 96.4328 126.068 100.635 135.409C104.837 144.75 115.88 150.184 125.254 147.551ZM113.149 120.642C118.699 119.083 125.203 122.291 127.686 127.812C130.156 133.302 127.688 139.064 122.138 140.623C116.619 142.173 110.07 138.943 107.6 133.453C105.116 127.932 107.63 122.192 113.149 120.642Z" fill="#65540D"/>
<path d="M146.705 123.739C145.605 122.811 144.754 121.657 144.197 120.421C142.324 116.262 144.203 111.938 148.36 110.77C152.533 109.599 157.439 112.035 159.305 116.178C159.862 117.415 160.108 118.739 160.013 120.002C162.603 120.128 165.166 120.697 167.62 121.645C167.829 119.2 167.378 116.645 166.285 114.218C162.685 106.225 153.231 101.566 145.227 103.814C137.208 106.066 133.617 114.388 137.217 122.381C138.31 124.808 139.987 127.019 142.119 128.806C143.264 126.847 144.797 125.128 146.705 123.739Z" fill="#65540D"/>
<path d="M154.658 124.112C145.268 126.749 141.035 136.49 145.244 145.847C149.446 155.188 160.505 160.617 169.895 157.98C179.285 155.343 183.487 145.61 179.292 136.285C175.076 126.913 164.049 121.474 154.658 124.112ZM166.764 151.021C161.214 152.579 154.71 149.372 152.233 143.866C149.75 138.345 152.232 132.614 157.782 131.055C163.332 129.497 169.836 132.704 172.32 138.225C174.797 143.731 172.314 149.462 166.764 151.021Z" fill="#65540D"/>
</g>
</g>
<defs>
<filter id="filter0_f_170_10361" x="45.3311" y="49.5078" width="189.314" height="178.673" filterUnits="userSpaceOnUse" color-interpolation-filters="sRGB">
<feFlood flood-opacity="0" result="BackgroundImageFix"/>
<feBlend mode="normal" in="SourceGraphic" in2="BackgroundImageFix" result="shape"/>
<feGaussianBlur stdDeviation="7.5" result="effect1_foregroundBlur_170_10361"/>
</filter>
<filter id="filter1_i_170_10361" x="99.0039" y="103.249" width="81.9141" height="67.1514" filterUnits="userSpaceOnUse" color-interpolation-filters="sRGB">
<feFlood flood-opacity="0" result="BackgroundImageFix"/>
<feBlend mode="normal" in="SourceGraphic" in2="BackgroundImageFix" result="shape"/>
<feColorMatrix in="SourceAlpha" type="matrix" values="0 0 0 0 0 0 0 0 0 0 0 0 0 0 0 0 0 0 127 0" result="hardAlpha"/>
<feOffset dy="2"/>
<feGaussianBlur stdDeviation="1"/>
<feComposite in2="hardAlpha" operator="arithmetic" k2="-1" k3="1"/>
<feColorMatrix type="matrix" values="0 0 0 0 0.752941 0 0 0 0 0.643137 0 0 0 0 0.2 0 0 0 0.5 0"/>
<feBlend mode="normal" in2="shape" result="effect1_innerShadow_170_10361"/>
</filter>
<linearGradient id="paint0_linear_170_10361" x1="106.332" y1="0.386215" x2="0.46565" y2="137.811" gradientUnits="userSpaceOnUse">
<stop stop-color="#D1B839" stop-opacity="0.984"/>
<stop offset="0.520833" stop-color="#B79C1A"/>
<stop offset="1" stop-color="#D0B03F" stop-opacity="0.88"/>
</linearGradient>
<linearGradient id="paint1_linear_170_10361" x1="84.0449" y1="128.978" x2="197.628" y2="228.263" gradientUnits="userSpaceOnUse">
<stop stop-color="#D9B432"/>
<stop offset="1" stop-color="#E2E2E2" stop-opacity="0.28"/>
</linearGradient>
<linearGradient id="paint2_linear_170_10361" x1="106.332" y1="0.386215" x2="0.46565" y2="137.811" gradientUnits="userSpaceOnUse">
<stop stop-color="#F1D961"/>
<stop offset="0.520833" stop-color="#DBC143"/>
<stop offset="1" stop-color="#FFF4CD"/>
</linearGradient>
<linearGradient id="paint3_linear_170_10361" x1="80.8418" y1="120.107" x2="194.425" y2="219.391" gradientUnits="userSpaceOnUse">
<stop stop-color="#C7A530"/>
<stop offset="1" stop-color="#B99826" stop-opacity="0.75"/>
</linearGradient>
</defs>
</svg>
